<svg width="354" height="69" viewBox="0 0 354 69" fill="none" xmlns="http://www.w3.org/2000/svg">
<g filter="url(#filter0_d_3369_3442)">
<rect x="12" y="8" width="330" height="45" rx="22.5" fill="#4D4D4D"/>
<path d="M36.7273 38H32.2912V24.9091H36.8168C38.1165 24.9091 39.233 25.1712 40.1662 25.6953C41.1037 26.2152 41.8239 26.9631 42.3267 27.9389C42.8295 28.9148 43.081 30.0824 43.081 31.4418C43.081 32.8054 42.8274 33.9773 42.3203 34.9574C41.8175 35.9375 41.0909 36.6896 40.1406 37.2138C39.1946 37.7379 38.0568 38 36.7273 38ZM34.6626 35.9482H36.6122C37.5241 35.9482 38.2848 35.782 38.8942 35.4496C39.5036 35.1129 39.9616 34.6122 40.2685 33.9474C40.5753 33.2784 40.7287 32.4432 40.7287 31.4418C40.7287 30.4403 40.5753 29.6094 40.2685 28.9489C39.9616 28.2841 39.5078 27.7876 38.907 27.4595C38.3104 27.1271 37.5689 26.9609 36.6825 26.9609H34.6626V35.9482ZM49.5785 38.1918C48.5941 38.1918 47.744 37.9872 47.0281 37.5781C46.3164 37.1648 45.7688 36.581 45.3853 35.8267C45.0018 35.0682 44.81 34.1754 44.81 33.1484C44.81 32.1385 45.0018 31.2521 45.3853 30.4893C45.7731 29.7223 46.3143 29.1257 47.0089 28.6996C47.7035 28.2692 48.5195 28.054 49.457 28.054C50.0621 28.054 50.6332 28.152 51.1701 28.348C51.7113 28.5398 52.1886 28.8381 52.6019 29.2429C53.0195 29.6477 53.3477 30.1634 53.5863 30.7898C53.8249 31.4119 53.9442 32.1534 53.9442 33.0142V33.7237H45.8967V32.1641H51.7262C51.7219 31.7209 51.6261 31.3267 51.4386 30.9815C51.2511 30.6321 50.989 30.3572 50.6523 30.157C50.32 29.9567 49.9322 29.8565 49.489 29.8565C49.016 29.8565 48.6005 29.9716 48.2425 30.2017C47.8846 30.4276 47.6055 30.7259 47.4052 31.0966C47.2092 31.4631 47.109 31.8658 47.1048 32.3047V33.6662C47.1048 34.2372 47.2092 34.7273 47.418 35.1364C47.6268 35.5412 47.9187 35.8523 48.2937 36.0696C48.6687 36.2827 49.1076 36.3892 49.6104 36.3892C49.9471 36.3892 50.2518 36.3423 50.5245 36.2486C50.7972 36.1506 51.0337 36.0078 51.234 35.8203C51.4343 35.6328 51.5856 35.4006 51.6879 35.1236L53.8484 35.3665C53.712 35.9375 53.4521 36.4361 53.0685 36.8622C52.6893 37.2841 52.2035 37.6122 51.6112 37.8466C51.0188 38.0767 50.3413 38.1918 49.5785 38.1918ZM60.8045 28.1818V29.9716H55.1603V28.1818H60.8045ZM56.5538 25.8295H58.8677V35.0469C58.8677 35.358 58.9146 35.5966 59.0083 35.7628C59.1064 35.9247 59.2342 36.0355 59.3919 36.0952C59.5495 36.1548 59.7243 36.1847 59.916 36.1847C60.0609 36.1847 60.193 36.174 60.3123 36.1527C60.4359 36.1314 60.5297 36.1122 60.5936 36.0952L60.9835 37.9041C60.8599 37.9467 60.6831 37.9936 60.4529 38.0447C60.2271 38.0959 59.9501 38.1257 59.622 38.1342C59.0424 38.1513 58.5204 38.0639 58.0559 37.8722C57.5914 37.6761 57.2228 37.3736 56.9501 36.9645C56.6816 36.5554 56.5495 36.044 56.5538 35.4304V25.8295ZM65.565 38.1982C64.9428 38.1982 64.3825 38.0874 63.8839 37.8658C63.3896 37.6399 62.9975 37.3075 62.7077 36.8686C62.4222 36.4297 62.2795 35.8885 62.2795 35.245C62.2795 34.6911 62.3817 34.233 62.5863 33.8707C62.7908 33.5085 63.07 33.2188 63.4237 33.0014C63.7773 32.7841 64.1758 32.62 64.619 32.5092C65.0664 32.3942 65.5288 32.3111 66.006 32.2599C66.5813 32.2003 67.0479 32.147 67.4059 32.1001C67.7638 32.049 68.0238 31.9723 68.1857 31.87C68.3519 31.7635 68.435 31.5994 68.435 31.3778V31.3395C68.435 30.858 68.2923 30.4851 68.0067 30.2209C67.7212 29.9567 67.31 29.8246 66.7731 29.8246C66.2063 29.8246 65.7567 29.9482 65.4244 30.1953C65.0962 30.4425 64.8746 30.7344 64.7596 31.071L62.5991 30.7642C62.7695 30.1676 63.0508 29.669 63.4428 29.2685C63.8349 28.8636 64.3143 28.5611 64.881 28.3608C65.4478 28.1562 66.0742 28.054 66.7603 28.054C67.2333 28.054 67.7042 28.1094 68.1729 28.2202C68.6417 28.331 69.07 28.5142 69.4577 28.7699C69.8455 29.0213 70.1566 29.3643 70.391 29.799C70.6296 30.2337 70.7489 30.777 70.7489 31.429V38H68.5245V36.6513H68.4478C68.3072 36.924 68.109 37.1797 67.8533 37.4183C67.6019 37.6527 67.2844 37.8423 66.9009 37.9872C66.5217 38.1278 66.0763 38.1982 65.565 38.1982ZM66.1658 36.4979C66.6303 36.4979 67.033 36.4062 67.3739 36.223C67.7148 36.0355 67.9769 35.7884 68.1602 35.4815C68.3477 35.1747 68.4414 34.8402 68.4414 34.478V33.321C68.369 33.3807 68.2454 33.4361 68.0707 33.4872C67.9002 33.5384 67.7085 33.5831 67.4954 33.6214C67.2823 33.6598 67.0714 33.6939 66.8626 33.7237C66.6538 33.7536 66.4727 33.7791 66.3192 33.8004C65.9741 33.8473 65.6651 33.924 65.3924 34.0305C65.1197 34.1371 64.9045 34.2862 64.7468 34.478C64.5891 34.6655 64.5103 34.9084 64.5103 35.2067C64.5103 35.6328 64.6658 35.9545 64.9769 36.1719C65.288 36.3892 65.6843 36.4979 66.1658 36.4979ZM73.0756 38V28.1818H75.3896V38H73.0756ZM74.239 26.7884C73.8725 26.7884 73.5572 26.6669 73.293 26.424C73.0288 26.1768 72.8967 25.8807 72.8967 25.5355C72.8967 25.1861 73.0288 24.8899 73.293 24.647C73.5572 24.3999 73.8725 24.2763 74.239 24.2763C74.6097 24.2763 74.9251 24.3999 75.185 24.647C75.4492 24.8899 75.5813 25.1861 75.5813 25.5355C75.5813 25.8807 75.4492 26.1768 75.185 26.424C74.9251 26.6669 74.6097 26.7884 74.239 26.7884ZM80.0829 24.9091V38H77.769V24.9091H80.0829ZM86.8089 38.1918C85.8246 38.1918 84.9744 37.9872 84.2585 37.5781C83.5469 37.1648 82.9993 36.581 82.6158 35.8267C82.2322 35.0682 82.0405 34.1754 82.0405 33.1484C82.0405 32.1385 82.2322 31.2521 82.6158 30.4893C83.0036 29.7223 83.5447 29.1257 84.2393 28.6996C84.9339 28.2692 85.75 28.054 86.6875 28.054C87.2926 28.054 87.8636 28.152 88.4006 28.348C88.9418 28.5398 89.419 28.8381 89.8324 29.2429C90.25 29.6477 90.5781 30.1634 90.8168 30.7898C91.0554 31.4119 91.1747 32.1534 91.1747 33.0142V33.7237H83.1271V32.1641H88.9567C88.9524 31.7209 88.8565 31.3267 88.669 30.9815C88.4815 30.6321 88.2195 30.3572 87.8828 30.157C87.5504 29.9567 87.1626 29.8565 86.7195 29.8565C86.2464 29.8565 85.831 29.9716 85.473 30.2017C85.1151 30.4276 84.8359 30.7259 84.6357 31.0966C84.4396 31.4631 84.3395 31.8658 84.3352 32.3047V33.6662C84.3352 34.2372 84.4396 34.7273 84.6484 35.1364C84.8572 35.5412 85.1491 35.8523 85.5241 36.0696C85.8991 36.2827 86.3381 36.3892 86.8409 36.3892C87.1776 36.3892 87.4822 36.3423 87.755 36.2486C88.0277 36.1506 88.2642 36.0078 88.4645 35.8203C88.6648 35.6328 88.8161 35.4006 88.9183 35.1236L91.0788 35.3665C90.9425 35.9375 90.6825 36.4361 90.299 36.8622C89.9197 37.2841 89.4339 37.6122 88.8416 37.8466C88.2493 38.0767 87.5717 38.1918 86.8089 38.1918ZM96.7757 38.1726C96.0044 38.1726 95.3141 37.9744 94.7047 37.5781C94.0953 37.1818 93.6138 36.6065 93.2601 35.8523C92.9064 35.098 92.7296 34.1818 92.7296 33.1037C92.7296 32.0128 92.9086 31.0923 93.2665 30.3423C93.6287 29.5881 94.1167 29.0192 94.7303 28.6357C95.3439 28.2479 96.0279 28.054 96.7821 28.054C97.3574 28.054 97.8304 28.152 98.2012 28.348C98.5719 28.5398 98.8659 28.772 99.0833 29.0447C99.3006 29.3132 99.4689 29.5668 99.5882 29.8054H99.6841V24.9091H102.004V38H99.7289V36.4531H99.5882C99.4689 36.6918 99.2963 36.9453 99.0705 37.2138C98.8446 37.478 98.5463 37.7038 98.1756 37.8913C97.8049 38.0788 97.3382 38.1726 96.7757 38.1726ZM97.4213 36.2741C97.9114 36.2741 98.329 36.142 98.6742 35.8778C99.0194 35.6094 99.2814 35.2365 99.4604 34.7592C99.6394 34.282 99.7289 33.7259 99.7289 33.0909C99.7289 32.456 99.6394 31.9041 99.4604 31.4354C99.2857 30.9666 99.0257 30.6023 98.6806 30.3423C98.3397 30.0824 97.9199 29.9524 97.4213 29.9524C96.9057 29.9524 96.4753 30.0866 96.1301 30.3551C95.785 30.6236 95.525 30.9943 95.3503 31.4673C95.1756 31.9403 95.0882 32.4815 95.0882 33.0909C95.0882 33.7045 95.1756 34.2521 95.3503 34.7337C95.5293 35.2109 95.7914 35.5881 96.1365 35.8651C96.486 36.1378 96.9142 36.2741 97.4213 36.2741ZM109.037 38V24.9091H113.946C114.952 24.9091 115.796 25.0966 116.478 25.4716C117.164 25.8466 117.681 26.3622 118.031 27.0185C118.385 27.6705 118.561 28.4119 118.561 29.2429C118.561 30.0824 118.385 30.8281 118.031 31.4801C117.677 32.1321 117.155 32.6456 116.465 33.0206C115.775 33.3913 114.924 33.5767 113.914 33.5767H110.661V31.6271H113.595C114.183 31.6271 114.664 31.5249 115.039 31.3203C115.414 31.1158 115.691 30.8345 115.87 30.4766C116.054 30.1186 116.145 29.7074 116.145 29.2429C116.145 28.7784 116.054 28.3693 115.87 28.0156C115.691 27.6619 115.412 27.3871 115.033 27.1911C114.658 26.9908 114.174 26.8906 113.582 26.8906H111.409V38H109.037ZM120.519 38V28.1818H122.763V29.8182H122.865C123.044 29.2514 123.351 28.8146 123.785 28.5078C124.224 28.1967 124.725 28.0412 125.287 28.0412C125.415 28.0412 125.558 28.0476 125.716 28.0604C125.878 28.0689 126.012 28.0838 126.118 28.1051V30.2337C126.02 30.1996 125.865 30.1697 125.652 30.1442C125.443 30.1143 125.241 30.0994 125.045 30.0994C124.623 30.0994 124.243 30.1911 123.907 30.3743C123.574 30.5533 123.312 30.8026 123.121 31.1222C122.929 31.4418 122.833 31.8104 122.833 32.228V38H120.519ZM131.534 38.1918C130.575 38.1918 129.744 37.9808 129.041 37.5589C128.338 37.1371 127.793 36.5469 127.405 35.7884C127.021 35.0298 126.83 34.1435 126.83 33.1293C126.83 32.1151 127.021 31.2266 127.405 30.4638C127.793 29.701 128.338 29.1087 129.041 28.6868C129.744 28.2649 130.575 28.054 131.534 28.054C132.493 28.054 133.324 28.2649 134.027 28.6868C134.73 29.1087 135.273 29.701 135.657 30.4638C136.045 31.2266 136.239 32.1151 136.239 33.1293C136.239 34.1435 136.045 35.0298 135.657 35.7884C135.273 36.5469 134.73 37.1371 134.027 37.5589C133.324 37.9808 132.493 38.1918 131.534 38.1918ZM131.547 36.3381C132.067 36.3381 132.501 36.1953 132.851 35.9098C133.2 35.62 133.46 35.2322 133.631 34.7464C133.805 34.2607 133.893 33.7195 133.893 33.1229C133.893 32.522 133.805 31.9787 133.631 31.4929C133.46 31.0028 133.2 30.6129 132.851 30.3232C132.501 30.0334 132.067 29.8885 131.547 29.8885C131.014 29.8885 130.571 30.0334 130.217 30.3232C129.868 30.6129 129.606 31.0028 129.431 31.4929C129.261 31.9787 129.175 32.522 129.175 33.1229C129.175 33.7195 129.261 34.2607 129.431 34.7464C129.606 35.2322 129.868 35.62 130.217 35.9098C130.571 36.1953 131.014 36.3381 131.547 36.3381ZM141.846 38.1726C141.075 38.1726 140.384 37.9744 139.775 37.5781C139.166 37.1818 138.684 36.6065 138.33 35.8523C137.977 35.098 137.8 34.1818 137.8 33.1037C137.8 32.0128 137.979 31.0923 138.337 30.3423C138.699 29.5881 139.187 29.0192 139.801 28.6357C140.414 28.2479 141.098 28.054 141.852 28.054C142.428 28.054 142.901 28.152 143.271 28.348C143.642 28.5398 143.936 28.772 144.154 29.0447C144.371 29.3132 144.539 29.5668 144.659 29.8054H144.754V24.9091H147.075V38H144.799V36.4531H144.659C144.539 36.6918 144.367 36.9453 144.141 37.2138C143.915 37.478 143.617 37.7038 143.246 37.8913C142.875 38.0788 142.409 38.1726 141.846 38.1726ZM142.492 36.2741C142.982 36.2741 143.399 36.142 143.744 35.8778C144.09 35.6094 144.352 35.2365 144.531 34.7592C144.71 34.282 144.799 33.7259 144.799 33.0909C144.799 32.456 144.71 31.9041 144.531 31.4354C144.356 30.9666 144.096 30.6023 143.751 30.3423C143.41 30.0824 142.99 29.9524 142.492 29.9524C141.976 29.9524 141.546 30.0866 141.2 30.3551C140.855 30.6236 140.595 30.9943 140.421 31.4673C140.246 31.9403 140.159 32.4815 140.159 33.0909C140.159 33.7045 140.246 34.2521 140.421 34.7337C140.6 35.2109 140.862 35.5881 141.207 35.8651C141.556 36.1378 141.985 36.2741 142.492 36.2741ZM155.798 33.8707V28.1818H158.112V38H155.869V36.255H155.766C155.545 36.8047 155.18 37.2543 154.673 37.6037C154.17 37.9531 153.55 38.1278 152.813 38.1278C152.17 38.1278 151.601 37.9851 151.107 37.6996C150.616 37.4098 150.233 36.9901 149.956 36.4403C149.679 35.8864 149.54 35.2173 149.54 34.4332V28.1818H151.854V34.0753C151.854 34.6974 152.025 35.1918 152.366 35.5582C152.707 35.9247 153.154 36.108 153.708 36.108C154.049 36.108 154.379 36.0249 154.699 35.8587C155.018 35.6925 155.281 35.4453 155.485 35.1172C155.694 34.7848 155.798 34.3693 155.798 33.8707ZM164.774 38.1918C163.794 38.1918 162.953 37.9766 162.249 37.5462C161.551 37.1158 161.012 36.5213 160.632 35.7628C160.257 35 160.07 34.1222 160.07 33.1293C160.07 32.1321 160.262 31.2521 160.645 30.4893C161.029 29.7223 161.57 29.1257 162.269 28.6996C162.972 28.2692 163.803 28.054 164.762 28.054C165.558 28.054 166.264 28.201 166.877 28.495C167.495 28.7848 167.987 29.196 168.354 29.7287C168.72 30.2571 168.929 30.875 168.98 31.5824H166.769C166.679 31.1094 166.466 30.7152 166.129 30.3999C165.797 30.0803 165.352 29.9205 164.794 29.9205C164.32 29.9205 163.905 30.0483 163.547 30.304C163.189 30.5554 162.91 30.9176 162.71 31.3906C162.514 31.8636 162.416 32.4304 162.416 33.0909C162.416 33.7599 162.514 34.3352 162.71 34.8168C162.906 35.294 163.181 35.6626 163.534 35.9226C163.892 36.1783 164.312 36.3061 164.794 36.3061C165.134 36.3061 165.439 36.2422 165.708 36.1143C165.98 35.9822 166.208 35.7926 166.392 35.5455C166.575 35.2983 166.7 34.9979 166.769 34.6442H168.98C168.925 35.3388 168.72 35.9545 168.367 36.4915C168.013 37.0241 167.531 37.4418 166.922 37.7443C166.313 38.0426 165.597 38.1918 164.774 38.1918ZM175.783 28.1818V29.9716H170.139V28.1818H175.783ZM171.532 25.8295H173.846V35.0469C173.846 35.358 173.893 35.5966 173.987 35.7628C174.085 35.9247 174.213 36.0355 174.37 36.0952C174.528 36.1548 174.703 36.1847 174.895 36.1847C175.039 36.1847 175.172 36.174 175.291 36.1527C175.414 36.1314 175.508 36.1122 175.572 36.0952L175.962 37.9041C175.838 37.9467 175.662 37.9936 175.431 38.0447C175.206 38.0959 174.929 38.1257 174.6 38.1342C174.021 38.1513 173.499 38.0639 173.034 37.8722C172.57 37.6761 172.201 37.3736 171.929 36.9645C171.66 36.5554 171.528 36.044 171.532 35.4304V25.8295ZM186.721 38H182.285V24.9091H186.811C188.111 24.9091 189.227 25.1712 190.16 25.6953C191.098 26.2152 191.818 26.9631 192.321 27.9389C192.824 28.9148 193.075 30.0824 193.075 31.4418C193.075 32.8054 192.822 33.9773 192.314 34.9574C191.812 35.9375 191.085 36.6896 190.135 37.2138C189.189 37.7379 188.051 38 186.721 38ZM184.657 35.9482H186.606C187.518 35.9482 188.279 35.782 188.888 35.4496C189.498 35.1129 189.956 34.6122 190.263 33.9474C190.569 33.2784 190.723 32.4432 190.723 31.4418C190.723 30.4403 190.569 29.6094 190.263 28.9489C189.956 28.2841 189.502 27.7876 188.901 27.4595C188.305 27.1271 187.563 26.9609 186.677 26.9609H184.657V35.9482ZM199.573 38.1918C198.588 38.1918 197.738 37.9872 197.022 37.5781C196.311 37.1648 195.763 36.581 195.379 35.8267C194.996 35.0682 194.804 34.1754 194.804 33.1484C194.804 32.1385 194.996 31.2521 195.379 30.4893C195.767 29.7223 196.308 29.1257 197.003 28.6996C197.698 28.2692 198.514 28.054 199.451 28.054C200.056 28.054 200.627 28.152 201.164 28.348C201.705 28.5398 202.183 28.8381 202.596 29.2429C203.014 29.6477 203.342 30.1634 203.58 30.7898C203.819 31.4119 203.938 32.1534 203.938 33.0142V33.7237H195.891V32.1641H201.72C201.716 31.7209 201.62 31.3267 201.433 30.9815C201.245 30.6321 200.983 30.3572 200.646 30.157C200.314 29.9567 199.926 29.8565 199.483 29.8565C199.01 29.8565 198.595 29.9716 198.237 30.2017C197.879 30.4276 197.6 30.7259 197.399 31.0966C197.203 31.4631 197.103 31.8658 197.099 32.3047V33.6662C197.099 34.2372 197.203 34.7273 197.412 35.1364C197.621 35.5412 197.913 35.8523 198.288 36.0696C198.663 36.2827 199.102 36.3892 199.605 36.3892C199.941 36.3892 200.246 36.3423 200.519 36.2486C200.791 36.1506 201.028 36.0078 201.228 35.8203C201.428 35.6328 201.58 35.4006 201.682 35.1236L203.843 35.3665C203.706 35.9375 203.446 36.4361 203.063 36.8622C202.683 37.2841 202.198 37.6122 201.605 37.8466C201.013 38.0767 200.335 38.1918 199.573 38.1918ZM213.656 30.777L211.547 31.0071C211.487 30.794 211.382 30.5938 211.233 30.4062C211.088 30.2188 210.892 30.0675 210.645 29.9524C210.398 29.8374 210.096 29.7798 209.738 29.7798C209.256 29.7798 208.851 29.8842 208.523 30.093C208.199 30.3018 208.039 30.5724 208.044 30.9048C208.039 31.1903 208.144 31.4226 208.357 31.6016C208.574 31.7805 208.932 31.9276 209.431 32.0426L211.105 32.4006C212.034 32.6009 212.725 32.9183 213.176 33.353C213.632 33.7876 213.863 34.3565 213.867 35.0597C213.863 35.6776 213.681 36.223 213.324 36.696C212.97 37.1648 212.478 37.5312 211.847 37.7955C211.216 38.0597 210.492 38.1918 209.674 38.1918C208.472 38.1918 207.505 37.9403 206.772 37.4375C206.039 36.9304 205.602 36.2251 205.461 35.3217L207.718 35.1044C207.82 35.5476 208.037 35.8821 208.37 36.108C208.702 36.3338 209.135 36.4467 209.667 36.4467C210.217 36.4467 210.658 36.3338 210.99 36.108C211.327 35.8821 211.495 35.603 211.495 35.2706C211.495 34.9893 211.387 34.7571 211.169 34.5739C210.956 34.3906 210.624 34.25 210.172 34.152L208.498 33.8004C207.556 33.6044 206.859 33.2741 206.407 32.8097C205.956 32.3409 205.732 31.7486 205.736 31.0327C205.732 30.4276 205.896 29.9034 206.228 29.4602C206.565 29.0128 207.032 28.6676 207.628 28.4247C208.229 28.1776 208.922 28.054 209.706 28.054C210.856 28.054 211.762 28.299 212.422 28.7891C213.087 29.2791 213.498 29.9418 213.656 30.777ZM220.058 38.1918C219.077 38.1918 218.236 37.9766 217.533 37.5462C216.834 37.1158 216.295 36.5213 215.915 35.7628C215.54 35 215.353 34.1222 215.353 33.1293C215.353 32.1321 215.545 31.2521 215.928 30.4893C216.312 29.7223 216.853 29.1257 217.552 28.6996C218.255 28.2692 219.086 28.054 220.045 28.054C220.842 28.054 221.547 28.201 222.161 28.495C222.778 28.7848 223.271 29.196 223.637 29.7287C224.004 30.2571 224.212 30.875 224.263 31.5824H222.052C221.962 31.1094 221.749 30.7152 221.413 30.3999C221.08 30.0803 220.635 29.9205 220.077 29.9205C219.604 29.9205 219.188 30.0483 218.83 30.304C218.472 30.5554 218.193 30.9176 217.993 31.3906C217.797 31.8636 217.699 32.4304 217.699 33.0909C217.699 33.7599 217.797 34.3352 217.993 34.8168C218.189 35.294 218.464 35.6626 218.817 35.9226C219.175 36.1783 219.595 36.3061 220.077 36.3061C220.418 36.3061 220.722 36.2422 220.991 36.1143C221.263 35.9822 221.491 35.7926 221.675 35.5455C221.858 35.2983 221.984 34.9979 222.052 34.6442H224.263C224.208 35.3388 224.004 35.9545 223.65 36.4915C223.296 37.0241 222.815 37.4418 222.205 37.7443C221.596 38.0426 220.88 38.1918 220.058 38.1918ZM226.164 38V28.1818H228.407V29.8182H228.509C228.688 29.2514 228.995 28.8146 229.43 28.5078C229.869 28.1967 230.369 28.0412 230.932 28.0412C231.06 28.0412 231.203 28.0476 231.36 28.0604C231.522 28.0689 231.656 28.0838 231.763 28.1051V30.2337C231.665 30.1996 231.509 30.1697 231.296 30.1442C231.088 30.1143 230.885 30.0994 230.689 30.0994C230.267 30.0994 229.888 30.1911 229.551 30.3743C229.219 30.5533 228.957 30.8026 228.765 31.1222C228.573 31.4418 228.477 31.8104 228.477 32.228V38H226.164ZM233.3 38V28.1818H235.614V38H233.3ZM234.464 26.7884C234.097 26.7884 233.782 26.6669 233.518 26.424C233.253 26.1768 233.121 25.8807 233.121 25.5355C233.121 25.1861 233.253 24.8899 233.518 24.647C233.782 24.3999 234.097 24.2763 234.464 24.2763C234.834 24.2763 235.15 24.3999 235.41 24.647C235.674 24.8899 235.806 25.1861 235.806 25.5355C235.806 25.8807 235.674 26.1768 235.41 26.424C235.15 26.6669 234.834 26.7884 234.464 26.7884ZM237.994 41.6818V28.1818H240.269V29.8054H240.403C240.523 29.5668 240.691 29.3132 240.908 29.0447C241.126 28.772 241.42 28.5398 241.79 28.348C242.161 28.152 242.634 28.054 243.21 28.054C243.968 28.054 244.652 28.2479 245.261 28.6357C245.875 29.0192 246.361 29.5881 246.719 30.3423C247.081 31.0923 247.262 32.0128 247.262 33.1037C247.262 34.1818 247.085 35.098 246.732 35.8523C246.378 36.6065 245.896 37.1818 245.287 37.5781C244.678 37.9744 243.987 38.1726 243.216 38.1726C242.653 38.1726 242.187 38.0788 241.816 37.8913C241.445 37.7038 241.147 37.478 240.921 37.2138C240.7 36.9453 240.527 36.6918 240.403 36.4531H240.308V41.6818H237.994ZM240.263 33.0909C240.263 33.7259 240.352 34.282 240.531 34.7592C240.714 35.2365 240.977 35.6094 241.317 35.8778C241.663 36.142 242.08 36.2741 242.57 36.2741C243.082 36.2741 243.51 36.1378 243.855 35.8651C244.2 35.5881 244.46 35.2109 244.635 34.7337C244.814 34.2521 244.903 33.7045 244.903 33.0909C244.903 32.4815 244.816 31.9403 244.641 31.4673C244.467 30.9943 244.207 30.6236 243.862 30.3551C243.516 30.0866 243.086 29.9524 242.57 29.9524C242.076 29.9524 241.656 30.0824 241.311 30.3423C240.966 30.6023 240.704 30.9666 240.525 31.4354C240.35 31.9041 240.263 32.456 240.263 33.0909ZM254.146 28.1818V29.9716H248.502V28.1818H254.146ZM249.896 25.8295H252.21V35.0469C252.21 35.358 252.256 35.5966 252.35 35.7628C252.448 35.9247 252.576 36.0355 252.734 36.0952C252.891 36.1548 253.066 36.1847 253.258 36.1847C253.403 36.1847 253.535 36.174 253.654 36.1527C253.778 36.1314 253.871 36.1122 253.935 36.0952L254.325 37.9041C254.202 37.9467 254.025 37.9936 253.795 38.0447C253.569 38.0959 253.292 38.1257 252.964 38.1342C252.384 38.1513 251.862 38.0639 251.398 37.8722C250.933 37.6761 250.565 37.3736 250.292 36.9645C250.023 36.5554 249.891 36.044 249.896 35.4304V25.8295ZM256.081 38V28.1818H258.395V38H256.081ZM257.245 26.7884C256.878 26.7884 256.563 26.6669 256.299 26.424C256.035 26.1768 255.903 25.8807 255.903 25.5355C255.903 25.1861 256.035 24.8899 256.299 24.647C256.563 24.3999 256.878 24.2763 257.245 24.2763C257.616 24.2763 257.931 24.3999 258.191 24.647C258.455 24.8899 258.587 25.1861 258.587 25.5355C258.587 25.8807 258.455 26.1768 258.191 26.424C257.931 26.6669 257.616 26.7884 257.245 26.7884ZM265.058 38.1918C264.099 38.1918 263.268 37.9808 262.565 37.5589C261.862 37.1371 261.316 36.5469 260.928 35.7884C260.545 35.0298 260.353 34.1435 260.353 33.1293C260.353 32.1151 260.545 31.2266 260.928 30.4638C261.316 29.701 261.862 29.1087 262.565 28.6868C263.268 28.2649 264.099 28.054 265.058 28.054C266.016 28.054 266.847 28.2649 267.55 28.6868C268.254 29.1087 268.797 29.701 269.18 30.4638C269.568 31.2266 269.762 32.1151 269.762 33.1293C269.762 34.1435 269.568 35.0298 269.18 35.7884C268.797 36.5469 268.254 37.1371 267.55 37.5589C266.847 37.9808 266.016 38.1918 265.058 38.1918ZM265.07 36.3381C265.59 36.3381 266.025 36.1953 266.374 35.9098C266.724 35.62 266.984 35.2322 267.154 34.7464C267.329 34.2607 267.416 33.7195 267.416 33.1229C267.416 32.522 267.329 31.9787 267.154 31.4929C266.984 31.0028 266.724 30.6129 266.374 30.3232C266.025 30.0334 265.59 29.8885 265.07 29.8885C264.538 29.8885 264.094 30.0334 263.741 30.3232C263.391 30.6129 263.129 31.0028 262.955 31.4929C262.784 31.9787 262.699 32.522 262.699 33.1229C262.699 33.7195 262.784 34.2607 262.955 34.7464C263.129 35.2322 263.391 35.62 263.741 35.9098C264.094 36.1953 264.538 36.3381 265.07 36.3381ZM274.04 32.2472V38H271.726V28.1818H273.938V29.8501H274.053C274.279 29.3004 274.639 28.8636 275.133 28.5398C275.632 28.2159 276.247 28.054 276.98 28.054C277.658 28.054 278.248 28.1989 278.751 28.4886C279.258 28.7784 279.65 29.1982 279.927 29.7479C280.208 30.2976 280.347 30.9645 280.343 31.7486V38H278.029V32.1065C278.029 31.4503 277.858 30.9368 277.517 30.5661C277.181 30.1953 276.714 30.0099 276.117 30.0099C275.713 30.0099 275.352 30.0994 275.037 30.2784C274.726 30.4531 274.481 30.7067 274.302 31.0391C274.127 31.3714 274.04 31.7741 274.04 32.2472Z" fill="#FFD05B"/>
<rect x="296" y="8" width="46" height="45" rx="22.5" fill="#FFD05B"/>
<path d="M318 19L315.885 21.115L324.255 29.5H306V32.5H324.255L315.885 40.885L318 43L330 31L318 19Z" fill="black"/>
<rect x="10" y="6" width="334" height="49" rx="24.5" stroke="#4D4D4D" stroke-width="4"/>
</g>
<defs>
<filter id="filter0_d_3369_3442" x="0" y="0" width="354" height="69" filterUnits="userSpaceOnUse" color-interpolation-filters="sRGB">
<feFlood flood-opacity="0" result="BackgroundImageFix"/>
<feColorMatrix in="SourceAlpha" type="matrix" values="0 0 0 0 0 0 0 0 0 0 0 0 0 0 0 0 0 0 127 0" result="hardAlpha"/>
<feOffset dy="4"/>
<feGaussianBlur stdDeviation="4"/>
<feComposite in2="hardAlpha" operator="out"/>
<feColorMatrix type="matrix" values="0 0 0 0 0 0 0 0 0 0 0 0 0 0 0 0 0 0 0.18 0"/>
<feBlend mode="normal" in2="BackgroundImageFix" result="effect1_dropShadow_3369_3442"/>
<feBlend mode="normal" in="SourceGraphic" in2="effect1_dropShadow_3369_3442" result="shape"/>
</filter>
</defs>
</svg>
