<svg width="271" height="61" viewBox="0 0 271 61" fill="none" xmlns="http://www.w3.org/2000/svg">
<g filter="url(#filter0_d_38_4034)">
<rect x="8" y="4" width="255" height="45" rx="22.5" fill="#4D4D4D"/>
<path d="M22.076 32V21.0909H26.1669C27.005 21.0909 27.7081 21.2472 28.2763 21.5597C28.848 21.8722 29.2795 22.3018 29.5707 22.8487C29.8654 23.392 30.0128 24.0099 30.0128 24.7024C30.0128 25.402 29.8654 26.0234 29.5707 26.5668C29.2759 27.1101 28.8409 27.538 28.2656 27.8505C27.6903 28.1594 26.9819 28.3139 26.1403 28.3139H23.429V26.6893H25.8739C26.364 26.6893 26.7653 26.604 27.0778 26.4336C27.3903 26.2631 27.6211 26.0288 27.7702 25.7305C27.9229 25.4322 27.9993 25.0895 27.9993 24.7024C27.9993 24.3153 27.9229 23.9744 27.7702 23.6797C27.6211 23.3849 27.3885 23.1559 27.0724 22.9925C26.7599 22.8256 26.3569 22.7422 25.8633 22.7422H24.0522V32H22.076ZM31.6441 32V23.8182H33.5138V25.1818H33.599C33.7481 24.7095 34.0038 24.3455 34.366 24.0898C34.7318 23.8306 35.1491 23.701 35.6178 23.701C35.7243 23.701 35.8433 23.7063 35.9747 23.717C36.1096 23.7241 36.2215 23.7365 36.3103 23.7543V25.5281C36.2286 25.4996 36.099 25.4748 35.9214 25.4535C35.7474 25.4286 35.5787 25.4162 35.4154 25.4162C35.0638 25.4162 34.7478 25.4925 34.4672 25.6452C34.1903 25.7944 33.9719 26.0021 33.8121 26.2685C33.6523 26.5348 33.5724 26.842 33.5724 27.19V32H31.6441ZM40.8233 32.1598C40.0243 32.1598 39.3319 31.984 38.7459 31.6325C38.16 31.2809 37.7054 30.7891 37.3823 30.157C37.0627 29.5249 36.9029 28.7862 36.9029 27.9411C36.9029 27.0959 37.0627 26.3555 37.3823 25.7198C37.7054 25.0842 38.16 24.5906 38.7459 24.239C39.3319 23.8874 40.0243 23.7116 40.8233 23.7116C41.6223 23.7116 42.3148 23.8874 42.9007 24.239C43.4867 24.5906 43.9395 25.0842 44.2591 25.7198C44.5822 26.3555 44.7438 27.0959 44.7438 27.9411C44.7438 28.7862 44.5822 29.5249 44.2591 30.157C43.9395 30.7891 43.4867 31.2809 42.9007 31.6325C42.3148 31.984 41.6223 32.1598 40.8233 32.1598ZM40.834 30.6151C41.2672 30.6151 41.6294 30.4961 41.9206 30.2582C42.2118 30.0167 42.4284 29.6935 42.5705 29.2887C42.7161 28.8839 42.7889 28.4329 42.7889 27.9357C42.7889 27.435 42.7161 26.9822 42.5705 26.5774C42.4284 26.169 42.2118 25.8441 41.9206 25.6026C41.6294 25.3612 41.2672 25.2404 40.834 25.2404C40.3901 25.2404 40.0208 25.3612 39.726 25.6026C39.4348 25.8441 39.2164 26.169 39.0708 26.5774C38.9288 26.9822 38.8578 27.435 38.8578 27.9357C38.8578 28.4329 38.9288 28.8839 39.0708 29.2887C39.2164 29.6935 39.4348 30.0167 39.726 30.2582C40.0208 30.4961 40.3901 30.6151 40.834 30.6151ZM49.4166 32.1438C48.7739 32.1438 48.1986 31.9787 47.6908 31.6484C47.183 31.3182 46.7817 30.8388 46.4869 30.2102C46.1922 29.5817 46.0448 28.8182 46.0448 27.9197C46.0448 27.0107 46.194 26.2436 46.4923 25.6186C46.7941 24.9901 47.2007 24.516 47.7121 24.1964C48.2235 23.8732 48.7934 23.7116 49.422 23.7116C49.9014 23.7116 50.2955 23.7933 50.6045 23.9567C50.9134 24.1165 51.1585 24.31 51.3396 24.5373C51.5207 24.761 51.661 24.9723 51.7604 25.1712H51.8403V21.0909H53.7739V32H51.8776V30.7109H51.7604C51.661 30.9098 51.5171 31.1211 51.3289 31.3448C51.1407 31.565 50.8921 31.7532 50.5832 31.9094C50.2742 32.0657 49.8854 32.1438 49.4166 32.1438ZM49.9546 30.5618C50.363 30.5618 50.711 30.4517 50.9987 30.2315C51.2863 30.0078 51.5047 29.6971 51.6539 29.2994C51.803 28.9016 51.8776 28.4382 51.8776 27.9091C51.8776 27.38 51.803 26.9201 51.6539 26.5295C51.5083 26.1388 51.2916 25.8352 51.004 25.6186C50.7199 25.402 50.3701 25.2937 49.9546 25.2937C49.5249 25.2937 49.1663 25.4055 48.8786 25.6293C48.591 25.853 48.3744 26.1619 48.2288 26.5561C48.0832 26.9503 48.0104 27.4013 48.0104 27.9091C48.0104 28.4205 48.0832 28.8768 48.2288 29.2781C48.3779 29.6758 48.5963 29.9901 48.884 30.2209C49.1752 30.4482 49.532 30.5618 49.9546 30.5618ZM61.0435 28.5589V23.8182H62.9718V32H61.1021V30.5458H61.0169C60.8322 31.0039 60.5286 31.3786 60.106 31.6697C59.687 31.9609 59.1703 32.1065 58.5559 32.1065C58.0197 32.1065 57.5456 31.9876 57.1337 31.7496C56.7253 31.5082 56.4057 31.1584 56.1749 30.7003C55.9441 30.2386 55.8287 29.6811 55.8287 29.0277V23.8182H57.7569V28.7294C57.7569 29.2479 57.899 29.6598 58.1831 29.9652C58.4672 30.2706 58.84 30.4233 59.3017 30.4233C59.5858 30.4233 59.861 30.354 60.1273 30.2156C60.3936 30.0771 60.612 29.8711 60.7825 29.5977C60.9565 29.3207 61.0435 28.9744 61.0435 28.5589ZM68.5235 32.1598C67.7068 32.1598 67.0054 31.9805 66.4195 31.6218C65.8371 31.2631 65.3879 30.7678 65.0718 30.1357C64.7593 29.5 64.6031 28.7685 64.6031 27.9411C64.6031 27.1101 64.7629 26.3768 65.0825 25.7411C65.4021 25.1019 65.8531 24.6048 66.4355 24.2496C67.0214 23.891 67.7139 23.7116 68.5129 23.7116C69.1769 23.7116 69.7646 23.8342 70.276 24.0792C70.7909 24.3207 71.2011 24.6634 71.5065 25.1072C71.8119 25.5476 71.9859 26.0625 72.0285 26.652H70.1855C70.1109 26.2578 69.9333 25.9293 69.6528 25.6665C69.3758 25.4002 69.0047 25.267 68.5395 25.267C68.1453 25.267 67.7991 25.3736 67.5008 25.5866C67.2025 25.7962 66.9699 26.098 66.803 26.4922C66.6396 26.8864 66.558 27.3587 66.558 27.9091C66.558 28.4666 66.6396 28.946 66.803 29.3473C66.9664 29.745 67.1954 30.0522 67.4901 30.2688C67.7884 30.4819 68.1382 30.5884 68.5395 30.5884C68.8236 30.5884 69.0775 30.5352 69.3012 30.4286C69.5285 30.3185 69.7185 30.1605 69.8712 29.9545C70.0239 29.7486 70.1286 29.4982 70.1855 29.2035H72.0285C71.9823 29.7823 71.8119 30.2955 71.5171 30.7429C71.2224 31.1868 70.8211 31.5348 70.3133 31.7869C69.8055 32.0355 69.2089 32.1598 68.5235 32.1598ZM77.6974 23.8182V25.3097H72.994V23.8182H77.6974ZM74.1552 21.858H76.0835V29.5391C76.0835 29.7983 76.1225 29.9972 76.2006 30.1357C76.2823 30.2706 76.3888 30.3629 76.5202 30.4126C76.6516 30.4624 76.7972 30.4872 76.957 30.4872C77.0778 30.4872 77.1879 30.4783 77.2873 30.4606C77.3903 30.4428 77.4684 30.4268 77.5217 30.4126L77.8466 31.9201C77.7436 31.9556 77.5962 31.9947 77.4045 32.0373C77.2163 32.0799 76.9854 32.1048 76.712 32.1119C76.229 32.1261 75.794 32.0533 75.407 31.8935C75.0199 31.7301 74.7127 31.478 74.4854 31.1371C74.2617 30.7962 74.1516 30.37 74.1552 29.8587V21.858ZM86.8128 32H83.116V21.0909H86.8873C87.9704 21.0909 88.9008 21.3093 89.6785 21.7461C90.4598 22.1793 91.0599 22.8026 91.479 23.6158C91.898 24.429 92.1075 25.402 92.1075 26.5348C92.1075 27.6712 91.8962 28.6477 91.4736 29.4645C91.0546 30.2812 90.4491 30.908 89.6572 31.3448C88.8689 31.7816 87.9207 32 86.8128 32ZM85.0922 30.2901H86.7169C87.4768 30.2901 88.1107 30.1516 88.6185 29.8746C89.1263 29.5941 89.5081 29.1768 89.7638 28.6229C90.0194 28.0653 90.1473 27.3693 90.1473 26.5348C90.1473 25.7003 90.0194 25.0078 89.7638 24.4574C89.5081 23.9034 89.1299 23.4897 88.6292 23.2163C88.132 22.9393 87.5141 22.8008 86.7755 22.8008H85.0922V30.2901ZM97.5221 32.1598C96.7018 32.1598 95.9933 31.9893 95.3968 31.6484C94.8037 31.304 94.3474 30.8175 94.0278 30.1889C93.7082 29.5568 93.5484 28.8129 93.5484 27.957C93.5484 27.1154 93.7082 26.3768 94.0278 25.7411C94.3509 25.1019 94.8019 24.6048 95.3808 24.2496C95.9596 23.891 96.6396 23.7116 97.4209 23.7116C97.9252 23.7116 98.401 23.7933 98.8485 23.9567C99.2994 24.1165 99.6972 24.3651 100.042 24.7024C100.39 25.0398 100.663 25.4695 100.862 25.9915C101.061 26.5099 101.16 27.1278 101.16 27.8452V28.4364H94.4539V27.1367H99.3119C99.3083 26.7674 99.2284 26.4389 99.0722 26.1513C98.9159 25.8601 98.6975 25.631 98.417 25.4641C98.14 25.2972 97.8169 25.2138 97.4475 25.2138C97.0534 25.2138 96.7071 25.3097 96.4088 25.5014C96.1105 25.6896 95.8779 25.9382 95.711 26.2472C95.5477 26.5526 95.4642 26.8881 95.4607 27.2539V28.3885C95.4607 28.8643 95.5477 29.2727 95.7217 29.6136C95.8957 29.951 96.1389 30.2102 96.4514 30.3913C96.7639 30.5689 97.1297 30.6577 97.5487 30.6577C97.8293 30.6577 98.0832 30.6186 98.3105 30.5405C98.5377 30.4588 98.7348 30.3398 98.9017 30.1836C99.0686 30.0273 99.1947 29.8338 99.2799 29.603L101.08 29.8054C100.967 30.2812 100.75 30.6967 100.43 31.0518C100.114 31.4034 99.7096 31.6768 99.216 31.8722C98.7224 32.0639 98.1578 32.1598 97.5221 32.1598ZM106.877 23.8182V25.3097H102.174V23.8182H106.877ZM103.335 21.858H105.263V29.5391C105.263 29.7983 105.302 29.9972 105.38 30.1357C105.462 30.2706 105.569 30.3629 105.7 30.4126C105.831 30.4624 105.977 30.4872 106.137 30.4872C106.257 30.4872 106.368 30.4783 106.467 30.4606C106.57 30.4428 106.648 30.4268 106.701 30.4126L107.026 31.9201C106.923 31.9556 106.776 31.9947 106.584 32.0373C106.396 32.0799 106.165 32.1048 105.892 32.1119C105.409 32.1261 104.974 32.0533 104.587 31.8935C104.2 31.7301 103.892 31.478 103.665 31.1371C103.441 30.7962 103.331 30.37 103.335 29.8587V21.858ZM110.844 32.1651C110.326 32.1651 109.859 32.0728 109.443 31.8881C109.031 31.6999 108.705 31.4229 108.463 31.0572C108.225 30.6914 108.106 30.2404 108.106 29.7042C108.106 29.2425 108.191 28.8608 108.362 28.5589C108.532 28.2571 108.765 28.0156 109.06 27.8345C109.354 27.6534 109.687 27.5167 110.056 27.4244C110.429 27.3285 110.814 27.2592 111.212 27.2166C111.691 27.1669 112.08 27.1225 112.378 27.0835C112.677 27.0408 112.893 26.9769 113.028 26.8917C113.167 26.8029 113.236 26.6662 113.236 26.4815V26.4496C113.236 26.0483 113.117 25.7376 112.879 25.5174C112.641 25.2972 112.298 25.1871 111.851 25.1871C111.379 25.1871 111.004 25.2901 110.727 25.4961C110.454 25.7021 110.269 25.9453 110.173 26.2259L108.373 25.9702C108.515 25.473 108.749 25.0575 109.076 24.7237C109.402 24.3864 109.802 24.1342 110.274 23.9673C110.747 23.7969 111.269 23.7116 111.84 23.7116C112.234 23.7116 112.627 23.7578 113.017 23.8501C113.408 23.9425 113.765 24.0952 114.088 24.3082C114.411 24.5178 114.671 24.8036 114.866 25.1658C115.065 25.5281 115.164 25.9808 115.164 26.5241V32H113.31V30.8761H113.247C113.129 31.1033 112.964 31.3164 112.751 31.5153C112.542 31.7106 112.277 31.8686 111.957 31.9893C111.641 32.1065 111.27 32.1651 110.844 32.1651ZM111.345 30.7482C111.732 30.7482 112.068 30.6719 112.352 30.5192C112.636 30.3629 112.854 30.157 113.007 29.9013C113.163 29.6456 113.241 29.3668 113.241 29.065V28.1009C113.181 28.1506 113.078 28.1967 112.932 28.2393C112.79 28.282 112.63 28.3192 112.453 28.3512C112.275 28.3832 112.1 28.4116 111.926 28.4364C111.752 28.4613 111.601 28.4826 111.473 28.5004C111.185 28.5394 110.928 28.6033 110.7 28.6921C110.473 28.7809 110.294 28.9052 110.162 29.065C110.031 29.2212 109.965 29.4237 109.965 29.6722C109.965 30.0273 110.095 30.2955 110.354 30.4766C110.613 30.6577 110.944 30.7482 111.345 30.7482ZM117.103 32V23.8182H119.031V32H117.103ZM118.073 22.657C117.767 22.657 117.504 22.5558 117.284 22.3533C117.064 22.1474 116.954 21.9006 116.954 21.6129C116.954 21.3217 117.064 21.0749 117.284 20.8725C117.504 20.6665 117.767 20.5636 118.073 20.5636C118.381 20.5636 118.644 20.6665 118.861 20.8725C119.081 21.0749 119.191 21.3217 119.191 21.6129C119.191 21.9006 119.081 22.1474 118.861 22.3533C118.644 22.5558 118.381 22.657 118.073 22.657ZM122.942 21.0909V32H121.014V21.0909H122.942ZM131.392 25.9808L129.634 26.1726C129.584 25.995 129.497 25.8281 129.373 25.6719C129.252 25.5156 129.089 25.3896 128.883 25.2937C128.677 25.1978 128.425 25.1499 128.127 25.1499C127.725 25.1499 127.388 25.2369 127.115 25.4109C126.845 25.5849 126.712 25.8104 126.715 26.0874C126.712 26.3253 126.799 26.5188 126.976 26.668C127.157 26.8171 127.456 26.9396 127.871 27.0355L129.267 27.3338C130.041 27.5007 130.616 27.7653 130.992 28.1275C131.372 28.4897 131.564 28.9638 131.568 29.5497C131.564 30.0646 131.413 30.5192 131.115 30.9134C130.82 31.304 130.41 31.6094 129.884 31.8295C129.359 32.0497 128.755 32.1598 128.073 32.1598C127.072 32.1598 126.266 31.9503 125.655 31.5312C125.044 31.1087 124.68 30.521 124.563 29.7681L126.443 29.587C126.529 29.9563 126.71 30.2351 126.987 30.4233C127.264 30.6115 127.624 30.7056 128.068 30.7056C128.526 30.7056 128.894 30.6115 129.171 30.4233C129.451 30.2351 129.592 30.0025 129.592 29.7255C129.592 29.4911 129.501 29.2976 129.32 29.1449C129.142 28.9922 128.865 28.875 128.489 28.7933L127.093 28.5004C126.309 28.337 125.728 28.0618 125.351 27.6747C124.975 27.2841 124.789 26.7905 124.792 26.1939C124.789 25.6896 124.925 25.2528 125.202 24.8835C125.483 24.5107 125.872 24.223 126.369 24.0206C126.87 23.8146 127.447 23.7116 128.1 23.7116C129.059 23.7116 129.813 23.9158 130.364 24.3242C130.918 24.7326 131.261 25.2848 131.392 25.9808Z" fill="#FFD05B"/>
<rect x="217" y="4" width="46" height="45" rx="22.5" fill="#FFD05B"/>
<path d="M239 15L236.885 17.115L245.255 25.5H227V28.5H245.255L236.885 36.885L239 39L251 27L239 15Z" fill="black"/>
</g>
<defs>
<filter id="filter0_d_38_4034" x="0" y="0" width="271" height="61" filterUnits="userSpaceOnUse" color-interpolation-filters="sRGB">
<feFlood flood-opacity="0" result="BackgroundImageFix"/>
<feColorMatrix in="SourceAlpha" type="matrix" values="0 0 0 0 0 0 0 0 0 0 0 0 0 0 0 0 0 0 127 0" result="hardAlpha"/>
<feOffset dy="4"/>
<feGaussianBlur stdDeviation="4"/>
<feComposite in2="hardAlpha" operator="out"/>
<feColorMatrix type="matrix" values="0 0 0 0 0 0 0 0 0 0 0 0 0 0 0 0 0 0 0.18 0"/>
<feBlend mode="normal" in2="BackgroundImageFix" result="effect1_dropShadow_38_4034"/>
<feBlend mode="normal" in="SourceGraphic" in2="effect1_dropShadow_38_4034" result="shape"/>
</filter>
</defs>
</svg>
