<svg width="36" height="28" viewBox="0 0 36 28" fill="none" xmlns="http://www.w3.org/2000/svg">
<path d="M3 0.5H33C34.575 0.5 36 1.925 36 3.5V24.5C36 26.075 34.575 27.5 33 27.5H3C1.425 27.5 0 26.075 0 24.5V3.5C0 1.925 1.425 0.5 3 0.5ZM21 5V6.5H33V5H21ZM21 8V9.5H32.25H33V8H21ZM21 11V12.5H31.5V11H21ZM12 16.865C9 16.865 3 18.5 3 21.5V23H21V21.5C21 18.5 15 16.865 12 16.865ZM12 5C10.8065 5 9.66193 5.47411 8.81802 6.31802C7.97411 7.16193 7.5 8.30653 7.5 9.5C7.5 10.6935 7.97411 11.8381 8.81802 12.682C9.66193 13.5259 10.8065 14 12 14C13.1935 14 14.3381 13.5259 15.182 12.682C16.0259 11.8381 16.5 10.6935 16.5 9.5C16.5 8.30653 16.0259 7.16193 15.182 6.31802C14.3381 5.47411 13.1935 5 12 5Z" fill="#4D4D4D"/>
</svg>
