<svg width="159" height="78" viewBox="0 0 159 78" fill="none" xmlns="http://www.w3.org/2000/svg">
<rect x="1.5" y="1.5" width="107" height="26" rx="13" fill="white"/>
<path d="M52.6465 33.0753V28.3018H57.3543L52.6465 33.0753Z" fill="#F3F3F3" stroke="#FFD05B" stroke-width="3"/>
<path d="M53 32V25H60L53 32Z" fill="white"/>
<path d="M27.4817 13.2891C27.1457 11.2133 25.4993 10 23.4208 10C20.8768 10 19 11.8815 19 14.9858C19 18.09 20.8672 19.9716 23.4208 19.9716C25.5809 19.9716 27.1601 18.6351 27.4817 16.7156L25.9841 16.7109C25.7297 17.9526 24.6737 18.6351 23.4304 18.6351C21.7456 18.6351 20.4736 17.3602 20.4736 14.9858C20.4736 12.6303 21.7408 11.3365 23.4352 11.3365C24.6881 11.3365 25.7393 12.0332 25.9841 13.2891H27.4817Z" fill="black"/>
<path d="M32.2469 19.9858C34.3254 19.9858 35.6838 18.4834 35.6838 16.2322C35.6838 13.9668 34.3254 12.4645 32.2469 12.4645C30.1685 12.4645 28.8101 13.9668 28.8101 16.2322C28.8101 18.4834 30.1685 19.9858 32.2469 19.9858ZM32.2517 18.7962C30.8933 18.7962 30.2597 17.6256 30.2597 16.2275C30.2597 14.8341 30.8933 13.6493 32.2517 13.6493C33.6006 13.6493 34.2342 14.8341 34.2342 16.2275C34.2342 17.6256 33.6006 18.7962 32.2517 18.7962Z" fill="black"/>
<path d="M38.721 15.5166C38.721 14.3555 39.441 13.6919 40.4394 13.6919C41.4139 13.6919 42.0043 14.3223 42.0043 15.3791V19.8389H43.4395V15.2085C43.4395 13.4076 42.4363 12.4645 40.929 12.4645C39.8202 12.4645 39.0954 12.9716 38.7546 13.7441H38.6634V12.5592H37.2858V19.8389H38.721V15.5166Z" fill="black"/>
<path d="M48.8059 12.5592H47.2939V10.8152H45.8587V12.5592H44.7787V13.6967H45.8587V17.9953C45.8539 19.3175 46.8763 19.9573 48.0091 19.9337C48.4651 19.9289 48.7723 19.8436 48.9403 19.782L48.6811 18.6114C48.5851 18.6303 48.4075 18.673 48.1771 18.673C47.7115 18.673 47.2939 18.5213 47.2939 17.7014V13.6967H48.8059V12.5592Z" fill="black"/>
<path d="M52.5392 20C53.7584 20 54.4448 19.3886 54.7184 18.8436H54.776V19.8389H56.1776V15.0047C56.1776 12.8863 54.488 12.4645 53.3168 12.4645C51.9824 12.4645 50.7536 12.9953 50.2736 14.3223L51.6224 14.6256C51.8336 14.109 52.3712 13.6114 53.336 13.6114C54.2624 13.6114 54.7376 14.09 54.7376 14.9147V14.9479C54.7376 15.4645 54.2 15.455 52.8752 15.6066C51.4784 15.7678 50.0479 16.128 50.0479 17.782C50.0479 19.2133 51.1376 20 52.5392 20ZM52.8512 18.8626C52.04 18.8626 51.4544 18.5024 51.4544 17.8009C51.4544 17.0427 52.136 16.7725 52.9664 16.6635C53.432 16.6019 54.536 16.4787 54.7424 16.2749V17.2133C54.7424 18.0758 54.0464 18.8626 52.8512 18.8626Z" fill="black"/>
<path d="M61.1949 19.9858C62.9373 19.9858 64.0653 18.9526 64.2237 17.5355H62.8269C62.6445 18.3223 62.0253 18.7867 61.2045 18.7867C59.9901 18.7867 59.2076 17.7867 59.2076 16.1991C59.2076 14.6398 60.0045 13.6588 61.2045 13.6588C62.1165 13.6588 62.6733 14.2275 62.8269 14.91H64.2237C64.0701 13.4408 62.8557 12.4645 61.1805 12.4645C59.1021 12.4645 57.758 14.0095 57.758 16.2322C57.758 18.4265 59.0541 19.9858 61.1949 19.9858Z" fill="black"/>
<path d="M69.2002 12.5592H67.6881V10.8152H66.2529V12.5592H65.1729V13.6967H66.2529V17.9953C66.2481 19.3175 67.2705 19.9573 68.4034 19.9337C68.8594 19.9289 69.1666 19.8436 69.3346 19.782L69.0754 18.6114C68.9794 18.6303 68.8018 18.673 68.5714 18.673C68.1058 18.673 67.6881 18.5213 67.6881 17.7014V13.6967H69.2002V12.5592Z" fill="black"/>
<path d="M80.8019 10.1327V16.3981C80.8019 17.7156 79.8803 18.6635 78.3827 18.6635C76.8899 18.6635 75.9634 17.7156 75.9634 16.3981V10.1327H74.4802V16.5166C74.4802 18.5545 76.0258 20 78.3827 20C80.7395 20 82.2899 18.5545 82.2899 16.5166V10.1327H80.8019Z" fill="black"/>
<path d="M89.856 14.3365C89.5584 13.2038 88.6608 12.4645 87.0672 12.4645C85.4015 12.4645 84.2207 13.3318 84.2207 14.6209C84.2207 15.654 84.8543 16.3412 86.2368 16.6446L87.4848 16.9147C88.1952 17.0711 88.5264 17.3839 88.5264 17.8389C88.5264 18.4028 87.9168 18.8436 86.976 18.8436C86.1168 18.8436 85.5647 18.4787 85.3919 17.763L84.0047 17.9716C84.2447 19.2607 85.3295 19.9858 86.9856 19.9858C88.7664 19.9858 90 19.0521 90 17.7346C90 16.7062 89.3376 16.0711 87.984 15.763L86.8128 15.4976C86.0015 15.3081 85.6511 15.0379 85.6559 14.545C85.6511 13.9858 86.2656 13.5877 87.0816 13.5877C87.9744 13.5877 88.3872 14.0758 88.5552 14.564L89.856 14.3365Z" fill="black"/>
<rect x="1.5" y="1.5" width="107" height="26" rx="13" stroke="#FFD05B" stroke-width="3"/>
<rect x="16" y="36" width="143" height="40" rx="20" fill="#FFD05B"/>
<ellipse cx="35.2085" cy="56.2153" rx="21.3433" ry="21.5054" fill="white"/>
<path d="M42.912 52.7901C48.8583 53.2694 50.5431 56.5847 50.6422 58.1824V68.9268C50.6422 69.3946 50.4804 69.8508 50.1688 70.1998C45.9404 74.9365 40.9132 76.2096 36.3816 76.6445C33.3124 76.939 30.1128 75.9518 28.2195 75.1291C27.5497 74.8381 27.1542 74.1601 27.1542 73.4298V64.6761C27.1542 63.5716 26.2592 62.6761 25.1546 62.6761H14.0723C10.8698 62.6761 11.0772 59.3511 11.6268 57.4977C11.6693 57.3544 11.7328 57.2192 11.8101 57.0913L19.8484 43.7853C19.9611 43.5986 20.0426 43.3948 20.0896 43.1818L20.4083 41.7364C20.538 41.1485 20.3948 40.5321 20.0205 40.0606C19.644 39.5865 19.5015 38.966 19.6347 38.3755L20.1681 36.0105C20.5024 34.5284 22.3021 33.9456 23.4417 34.9503L26.7023 37.825C27.4672 38.4994 27.6023 39.6412 27.0158 40.4754L23.1925 45.9141C23.0597 46.103 22.9606 46.3135 22.8996 46.5362L21.56 51.4293C21.1465 52.9397 22.5505 54.3179 24.0529 53.8763L27.5481 52.8491C27.6816 52.8099 27.8171 52.7847 27.9558 52.7745C30.667 52.5765 37.1187 52.3231 42.912 52.7901Z" fill="url(#paint0_radial_5_2744)"/>
<path d="M46.4792 40.2084C46.4792 45.5028 43.4089 51.2927 38.1544 51.2927C32.8999 51.2927 29.5322 45.5028 29.5322 40.2084C29.5322 34.914 32.8999 30.6221 38.1544 30.6221C43.4089 30.6221 46.4792 34.914 46.4792 40.2084Z" fill="url(#paint1_linear_5_2744)"/>
<path d="M41.1279 47.3984H34.5869C34.5869 47.9976 35.241 49.1959 37.8574 49.1959C40.4738 49.1959 41.1279 47.9976 41.1279 47.3984Z" fill="#F3F3F3"/>
<rect x="0.303117" y="0.707865" width="7.30698" height="12.772" rx="1.5" transform="matrix(0.88961 0.456721 -0.283376 0.959009 23.1247 30.7294)" fill="url(#paint2_linear_5_2744)" stroke="#2448FC"/>
<path d="M64.7657 58.4536H65.908V56.4925H67.8544V55.3414H65.908V53.3803H64.7657V55.3414H62.8193V56.4925H64.7657V58.4536Z" fill="black"/>
<path d="M72.0336 52.046C70.4183 52.035 69.3451 53.153 69.3451 54.6193C69.3487 56.0342 70.3492 57.057 71.6553 57.057C72.4593 57.057 73.1578 56.6647 73.518 56.0196H73.5689C73.5653 57.6252 72.9868 58.5819 71.9572 58.5819C71.3133 58.5819 70.8804 58.208 70.7458 57.6105H69.4179C69.5707 58.8532 70.5457 59.7586 71.9572 59.7586C73.7435 59.7586 74.8822 58.2557 74.8786 55.6713C74.875 52.9367 73.4634 52.0533 72.0336 52.046ZM72.0373 53.1457C72.834 53.1457 73.4197 53.8128 73.4197 54.579C73.4234 55.3561 72.8085 56.0233 72.0227 56.0233C71.2296 56.0233 70.6584 55.3928 70.6548 54.59C70.6548 53.7835 71.2478 53.1457 72.0373 53.1457Z" fill="black"/>
<path d="M79.1206 52.1486H77.8363L75.9846 53.3473V54.5936L77.7272 53.4719H77.7709V59.6559H79.1206V52.1486Z" fill="black"/>
<path d="M86.5841 52.1486H85.2998L83.448 53.3473V54.5936L85.1907 53.4719H85.2343V59.6559H86.5841V52.1486Z" fill="black"/>
<path d="M88.4758 59.6559H93.5837V58.5196H90.3385V58.4683L91.6228 57.1523C93.0707 55.752 93.4709 55.0702 93.4709 54.2234C93.4709 52.9661 92.4559 52.046 90.957 52.046C89.48 52.046 88.4322 52.9697 88.4322 54.3957H89.7164C89.7164 53.6296 90.1966 53.1494 90.9388 53.1494C91.6482 53.1494 92.1758 53.5856 92.1758 54.293C92.1758 54.9199 91.7974 55.3671 91.0625 56.1186L88.4758 58.6735V59.6559Z" fill="black"/>
<path d="M97.5128 59.7586C99.1063 59.7586 100.267 58.8385 100.263 57.5702C100.267 56.6318 99.6847 55.9573 98.6406 55.807V55.7483C99.4482 55.5724 99.9903 54.9675 99.9867 54.1244C99.9903 52.9807 99.0226 52.046 97.5346 52.046C96.0867 52.046 94.9661 52.9147 94.937 54.1721H96.2358C96.2577 53.5416 96.8397 53.1494 97.5273 53.1494C98.2222 53.1494 98.6842 53.5746 98.6806 54.2051C98.6842 54.8612 98.1458 55.2974 97.3745 55.2974H96.7161V56.3458H97.3745C98.3168 56.3458 98.8771 56.8224 98.8734 57.5005C98.8771 58.164 98.3059 58.6186 97.5092 58.6186C96.7597 58.6186 96.1813 58.2263 96.1485 57.6142H94.7806C94.817 58.8825 95.9411 59.7586 97.5128 59.7586Z" fill="black"/>
<path d="M104.914 55.3561H101.559V56.4485H104.914V55.3561Z" fill="black"/>
<path d="M106.15 58.263H109.704V59.6559H110.992V58.263H111.945V57.145H110.992V52.1486H109.311L106.15 57.1816V58.263ZM109.718 57.145H107.532V57.0863L109.66 53.6882H109.718V57.145Z" fill="black"/>
<path d="M115.698 59.7586C117.273 59.7586 118.372 58.6809 118.372 57.1889C118.372 55.7447 117.375 54.7036 116.021 54.7036C115.418 54.7036 114.883 54.9455 114.606 55.2755H114.563L114.777 53.285H117.982V52.1486H113.66L113.271 56.0196L114.49 56.2212C114.741 55.9426 115.214 55.7557 115.661 55.7593C116.48 55.763 117.069 56.3715 117.066 57.2219C117.069 58.0614 116.494 58.6589 115.698 58.6589C115.025 58.6589 114.483 58.23 114.435 57.6142H113.126C113.162 58.8605 114.242 59.7586 115.698 59.7586Z" fill="black"/>
<path d="M122.319 59.7586C123.927 59.7696 125.007 58.6552 125.004 57.1706C125.007 55.752 124.003 54.7256 122.697 54.7256C121.897 54.7256 121.191 55.1178 120.835 55.763H120.784C120.787 54.1831 121.362 53.2227 122.395 53.2227C123.036 53.2227 123.469 53.5966 123.607 54.1721H124.935C124.775 52.9587 123.803 52.046 122.395 52.046C120.605 52.046 119.474 53.5489 119.474 56.1149C119.47 58.8678 120.889 59.7513 122.319 59.7586ZM122.312 58.6589C121.515 58.6589 120.933 57.9954 120.929 57.2109C120.936 56.4228 121.54 55.763 122.33 55.763C123.119 55.763 123.698 56.3935 123.694 57.1999C123.698 58.0211 123.101 58.6589 122.312 58.6589Z" fill="black"/>
<path d="M129.635 55.3561H126.281V56.4485H129.635V55.3561Z" fill="black"/>
<path d="M130.998 59.6559H132.399L135.564 53.3106V52.1486H130.489V53.285H134.167V53.3363L130.998 59.6559Z" fill="black"/>
<path d="M139.237 59.7586C140.848 59.7586 142.002 58.8642 142.005 57.6435C142.002 56.7051 141.314 55.9206 140.448 55.774V55.7227C141.201 55.554 141.725 54.8722 141.729 54.0584C141.725 52.9038 140.67 52.046 139.237 52.046C137.792 52.046 136.737 52.9001 136.741 54.0584C136.737 54.8722 137.254 55.554 138.022 55.7227V55.774C137.141 55.9206 136.461 56.7051 136.465 57.6435C136.461 58.8642 137.611 59.7586 139.237 59.7586ZM139.237 58.7102C138.393 58.7102 137.847 58.241 137.854 57.5482C137.847 56.8297 138.433 56.3202 139.237 56.3202C140.03 56.3202 140.612 56.8334 140.619 57.5482C140.612 58.241 140.07 58.7102 139.237 58.7102ZM139.237 55.2901C138.546 55.2901 138.051 54.8392 138.058 54.1867C138.051 53.5416 138.531 53.109 139.237 53.109C139.932 53.109 140.408 53.5416 140.416 54.1867C140.408 54.8429 139.917 55.2901 139.237 55.2901Z" fill="black"/>
<path d="M145.788 52.046C144.173 52.035 143.1 53.153 143.1 54.6193C143.103 56.0342 144.104 57.057 145.41 57.057C146.214 57.057 146.912 56.6647 147.272 56.0196H147.323C147.32 57.6252 146.741 58.5819 145.712 58.5819C145.068 58.5819 144.635 58.208 144.5 57.6105H143.172C143.325 58.8532 144.3 59.7586 145.712 59.7586C147.498 59.7586 148.637 58.2557 148.633 55.6713C148.629 52.9367 147.218 52.0533 145.788 52.046ZM145.792 53.1457C146.588 53.1457 147.174 53.8128 147.174 54.579C147.178 55.3561 146.563 56.0233 145.777 56.0233C144.984 56.0233 144.413 55.3928 144.409 54.59C144.409 53.7835 145.002 53.1457 145.792 53.1457Z" fill="black"/>
<defs>
<radialGradient id="paint0_radial_5_2744" cx="0" cy="0" r="1" gradientUnits="userSpaceOnUse" gradientTransform="translate(37.9838 51.6989) rotate(102.813) scale(31.7586 28.4282)">
<stop stop-color="#666F73"/>
<stop offset="0.598958" stop-color="#4D4D4D"/>
</radialGradient>
<linearGradient id="paint1_linear_5_2744" x1="38.0057" y1="30.6221" x2="38.0057" y2="51.2927" gradientUnits="userSpaceOnUse">
<stop stop-color="#4D4D4D"/>
<stop offset="1" stop-color="#666F73"/>
</linearGradient>
<linearGradient id="paint2_linear_5_2744" x1="4.15349" y1="0" x2="4.15349" y2="13.772" gradientUnits="userSpaceOnUse">
<stop stop-color="#F3F3F3"/>
<stop offset="1" stop-color="#D0D7D9"/>
</linearGradient>
</defs>
</svg>
