<svg width="83" height="83" viewBox="0 0 83 83" fill="none" xmlns="http://www.w3.org/2000/svg">
<path d="M1.90918 1.9082H82.0006V81.9996H1.90918V1.9082Z" stroke="#4D4D4D" stroke-width="2" stroke-miterlimit="10"/>
<path d="M1.90918 15.8369H82.0006" stroke="#4D4D4D" stroke-width="2" stroke-miterlimit="10"/>
<path d="M76.777 8.87305H73.2949" stroke="#4D4D4D" stroke-width="2" stroke-miterlimit="10"/>
<path d="M69.8131 8.87305H66.3311" stroke="#4D4D4D" stroke-width="2" stroke-miterlimit="10"/>
<path d="M62.8483 8.87305H59.3662" stroke="#4D4D4D" stroke-width="2" stroke-miterlimit="10"/>
<path d="M50.6609 8.87305H8.87402" stroke="#4D4D4D" stroke-width="2" stroke-miterlimit="10"/>
<path d="M38.4732 31.5076C38.4732 35.3539 35.3551 38.4723 31.5086 38.4723C27.6621 38.4723 24.5439 35.3541 24.5439 31.5076C24.5439 27.6611 27.6621 24.543 31.5086 24.543C35.3551 24.543 38.4732 27.6611 38.4732 31.5076Z" stroke="#4D4D4D" stroke-width="2" stroke-miterlimit="10"/>
<path d="M47.7012 48.2224C46.4824 45.9591 44.2191 44.0439 41.6074 43.1732L40.2144 42.8252L31.5088 51.5308L22.8032 42.8252L21.5845 43.1732C17.0574 44.5662 14.0977 48.5704 14.0977 53.2718V62.8476H42.4779" stroke="#4D4D4D" stroke-width="2" stroke-miterlimit="10"/>
<ellipse cx="56.1184" cy="59.2541" rx="12.549" ry="12.549" fill="#FFD05B"/>
<path d="M69.8138 59.3657C69.8138 67.0583 63.5779 73.2948 55.8852 73.2948C48.1926 73.2948 41.9561 67.0583 41.9561 59.3657C41.9561 51.673 48.1926 45.4365 55.8852 45.4365C63.5778 45.4365 69.8138 51.673 69.8138 59.3657Z" stroke="#4D4D4D" stroke-width="2" stroke-miterlimit="10"/>
<path d="M55.8838 68.0703V50.6592" stroke="#4D4D4D" stroke-width="2" stroke-miterlimit="10"/>
<path d="M64.5899 59.3652H47.1787" stroke="#4D4D4D" stroke-width="2" stroke-miterlimit="10"/>
</svg>
