<svg width="80" height="80" viewBox="0 0 80 80" fill="none" xmlns="http://www.w3.org/2000/svg">
<rect x="26" y="17" width="29" height="22" fill="#FFD05B"/>
<path d="M29.9997 66.667C29.9997 68.4351 29.2973 70.1308 28.0471 71.381C26.7968 72.6313 25.1011 73.3337 23.333 73.3337C21.5649 73.3337 19.8692 72.6313 18.619 71.381C17.3687 70.1308 16.6663 68.4351 16.6663 66.667C16.6663 64.8989 17.3687 63.2032 18.619 61.953C19.8692 60.7027 21.5649 60.0003 23.333 60.0003C25.1011 60.0003 26.7968 60.7027 28.0471 61.953C29.2973 63.2032 29.9997 64.8989 29.9997 66.667ZM56.6663 60.0003C54.8982 60.0003 53.2025 60.7027 51.9523 61.953C50.7021 63.2032 49.9997 64.8989 49.9997 66.667C49.9997 68.4351 50.7021 70.1308 51.9523 71.381C53.2025 72.6313 54.8982 73.3337 56.6663 73.3337C58.4344 73.3337 60.1301 72.6313 61.3804 71.381C62.6306 70.1308 63.333 68.4351 63.333 66.667C63.333 64.8989 62.6306 63.2032 61.3804 61.953C60.1301 60.7027 58.4344 60.0003 56.6663 60.0003ZM23.9997 48.767C23.9663 48.9003 23.9663 49.0337 23.9997 49.167C23.9997 49.388 24.0875 49.6 24.2438 49.7563C24.4 49.9125 24.612 50.0003 24.833 50.0003H63.333V56.667H23.333C21.5649 56.667 19.8692 55.9646 18.619 54.7144C17.3687 53.4641 16.6663 51.7684 16.6663 50.0003C16.6663 48.8337 16.8997 47.7003 17.4663 46.667L21.9997 38.6337L9.99967 13.3337H3.33301V6.66699H14.233L17.3663 13.3337H66.6663C67.5504 13.3337 68.3982 13.6848 69.0234 14.31C69.6485 14.9351 69.9997 15.7829 69.9997 16.667C69.9997 17.2337 69.833 17.8003 69.5997 18.3337L57.6663 40.0003C56.4663 42.067 54.233 43.3337 51.833 43.3337H26.9997L23.9997 48.767ZM29.9997 31.667H43.333V38.3337L53.333 28.3337L43.333 18.3337V25.0003H29.9997V31.667Z" fill="#4D4D4D"/>
</svg>
