<svg width="418" height="233" viewBox="0 0 418 233" fill="none" xmlns="http://www.w3.org/2000/svg">
<path d="M356.28 202.543H168.333C167.2 202.543 166.114 202.093 165.313 201.292C164.512 200.491 164.062 199.405 164.062 198.272V61.583C164.062 60.4502 164.512 59.3637 165.313 58.5626C166.114 57.7616 167.2 57.3115 168.333 57.3115H356.28C357.413 57.3115 358.499 57.7616 359.3 58.5626C360.101 59.3637 360.552 60.4502 360.552 61.583V198.272C360.552 199.405 360.101 200.491 359.3 201.292C358.499 202.093 357.413 202.543 356.28 202.543Z" fill="#FFE29A"/>
<path d="M262.308 108.569C263.371 108.569 264.396 108.965 265.183 109.68L359.156 195.11C359.795 195.69 360.242 196.45 360.44 197.289C360.639 198.128 360.578 199.008 360.267 199.812C359.956 200.616 359.409 201.308 358.698 201.795C357.986 202.282 357.144 202.543 356.282 202.543H168.335C167.472 202.543 166.63 202.282 165.919 201.795C165.207 201.308 164.66 200.616 164.349 199.812C164.038 199.008 163.978 198.128 164.176 197.289C164.374 196.45 164.822 195.69 165.46 195.11L259.433 109.68C260.22 108.965 261.245 108.569 262.308 108.569Z" fill="#FFD979"/>
<path d="M262.308 151.285C261.245 151.285 260.22 150.889 259.433 150.174L165.46 64.744C164.822 64.164 164.374 63.4044 164.176 62.5652C163.978 61.726 164.038 60.8464 164.349 60.0421C164.66 59.2379 165.207 58.5466 165.919 58.0592C166.63 57.5718 167.472 57.3112 168.335 57.3115H356.282C357.144 57.3112 357.986 57.5718 358.698 58.0592C359.409 58.5466 359.956 59.2379 360.267 60.0421C360.578 60.8464 360.639 61.726 360.44 62.5652C360.242 63.4044 359.795 64.164 359.156 64.744L265.183 150.174C264.396 150.889 263.371 151.285 262.308 151.285Z" fill="#FFD05B"/>
<path d="M318.253 20.6515C312.779 17.1678 305.615 21.1002 305.615 27.5891V110.454C305.615 116.943 312.779 120.875 318.253 117.392L383.361 75.9592C388.439 72.7279 388.439 65.3153 383.361 62.0839L318.253 20.6515Z" fill="url(#paint0_linear_444_3456)"/>
<path d="M326.477 41.4835C321.003 37.9998 313.839 41.9323 313.839 48.4212V116.511C313.839 123 321.003 126.932 326.477 123.449L379.976 89.4037C385.054 86.1723 385.054 78.7598 379.976 75.5284L326.477 41.4835Z" fill="url(#paint1_linear_444_3456)"/>
<path d="M3 147.196H128.816" stroke="#4D4D4D" stroke-width="5" stroke-linecap="round"/>
<path d="M40.8271 166.658L129.09 166.658" stroke="#4D4D4D" stroke-width="5" stroke-linecap="round"/>
<path d="M66.5928 181.46L129.089 181.46" stroke="#4D4D4D" stroke-width="5" stroke-linecap="round"/>
<defs>
<linearGradient id="paint0_linear_444_3456" x1="305.615" y1="16.4466" x2="375.239" y2="128.831" gradientUnits="userSpaceOnUse">
<stop stop-color="#666F73"/>
<stop offset="1" stop-color="#D0D7D9"/>
</linearGradient>
<linearGradient id="paint1_linear_444_3456" x1="300.682" y1="27.4107" x2="357.422" y2="115.399" gradientUnits="userSpaceOnUse">
<stop stop-color="#F3F3F3"/>
<stop offset="1" stop-color="#FFD05B"/>
</linearGradient>
</defs>
</svg>
