<svg width="48" height="48" viewBox="0 0 48 48" fill="none" xmlns="http://www.w3.org/2000/svg">
<g clip-path="url(#clip0_71_9902)">
<path d="M31.9369 19.811C31.8147 19.7186 31.6455 19.7186 31.5233 19.811L15.9175 30.8752H47.5438L31.9369 19.811Z" fill="#4D4D4D"/>
<path d="M20.5986 39.4385H24.0238V41.1512H20.5986V39.4385Z" fill="#4D4D4D"/>
<path d="M40.293 32.5874H42.0058V37.7254H40.293V32.5874Z" fill="#4D4D4D"/>
<path d="M30.0176 39.4385H33.4428V41.1512H30.0176V39.4385Z" fill="#4D4D4D"/>
<path d="M30.874 32.5874H32.5868V37.7254H30.874V32.5874Z" fill="#4D4D4D"/>
<path d="M18.885 42.8633C18.4119 42.8633 18.0288 43.2468 18.0288 43.7198V44.576H45.4309V43.7198C45.4309 43.4926 45.341 43.2747 45.1804 43.1142C45.0195 42.9536 44.8019 42.8633 44.5747 42.8633L18.885 42.8633Z" fill="#4D4D4D"/>
<path d="M39.437 39.4385H42.8622V41.1512H39.437V39.4385Z" fill="#4D4D4D"/>
<path d="M48.0005 47.1453C48.0005 46.9181 47.9105 46.7005 47.7499 46.5396C47.589 46.379 47.3715 46.2891 47.1442 46.2891H16.3162C15.8431 46.2891 15.46 46.6722 15.46 47.1453V48.0015H48.0001L48.0005 47.1453Z" fill="#4D4D4D"/>
<path d="M21.4541 32.5874H23.1669V37.7254H21.4541V32.5874Z" fill="#4D4D4D"/>
<path d="M24.8789 12.8921H26.5917V18.0301H24.8789V12.8921Z" fill="#4D4D4D"/>
<path d="M3.47096 23.1683C2.99788 23.1683 2.61475 23.5515 2.61475 24.0246V24.8808H21.4125L23.8281 23.168L3.47096 23.1683Z" fill="#4D4D4D"/>
<path d="M18.9962 26.5933H0.902111C0.429029 26.5933 0.0458984 26.9767 0.0458984 27.4495V28.3057L16.5802 28.306L18.9962 26.5933Z" fill="#4D4D4D"/>
<path d="M24.0229 21.455H26.2443L27.4482 20.6013V19.7422H24.0229V21.455Z" fill="#4D4D4D"/>
<path d="M8.60934 11.1792H32.1295L16.5228 0.115028C16.4006 0.0222042 16.2314 0.0222042 16.1092 0.115028L0.503418 11.1792H8.60934Z" fill="#4D4D4D"/>
<path d="M15.46 12.8921H17.1728V18.0301H15.46V12.8921Z" fill="#4D4D4D"/>
<path d="M5.18457 19.7422H8.60979V21.455H5.18457V19.7422Z" fill="#4D4D4D"/>
<path d="M14.6035 19.7422H18.0287V21.455H14.6035V19.7422Z" fill="#4D4D4D"/>
<path d="M6.04004 12.8921H7.75283V18.0301H6.04004V12.8921Z" fill="#4D4D4D"/>
<path d="M12.8252 42.5366C12.7822 42.4319 12.7191 42.3369 12.6392 42.2574L10.0702 39.6884C9.73439 39.3636 9.20002 39.3683 8.86994 39.6988C8.53949 40.0288 8.53484 40.5632 8.85955 40.899L9.96734 42.0072H6.04034C5.1318 42.0072 4.26057 41.6463 3.61832 41.004C2.97607 40.3614 2.61513 39.4901 2.61513 38.582V33.444C2.61513 32.9709 2.23164 32.5874 1.75856 32.5874C1.28583 32.5874 0.902344 32.9709 0.902344 33.444V38.582C0.903777 39.9443 1.44532 41.2502 2.4087 42.2136C3.37207 43.1766 4.67804 43.7185 6.04035 43.72H9.96735L8.86029 44.827C8.69507 44.9865 8.60081 45.2059 8.59901 45.4356C8.59686 45.6653 8.68718 45.8861 8.84954 46.0485C9.01225 46.2108 9.23303 46.3015 9.46276 46.2993C9.69249 46.2972 9.91147 46.2033 10.0713 46.0381L12.6403 43.4691C12.7202 43.3891 12.7833 43.2942 12.826 43.1899C12.912 42.9806 12.9116 42.7454 12.8253 42.5365L12.8252 42.5366Z" fill="#4D4D4D"/>
<path d="M32.5862 5.18496H37.7242C38.6327 5.18496 39.504 5.54587 40.1462 6.18816C40.7888 6.83041 41.1498 7.70167 41.1498 8.61018V12.5372L40.0427 11.4301H40.0424C39.7065 11.1058 39.1722 11.1104 38.8421 11.4405C38.5116 11.771 38.507 12.305 38.8317 12.6412L41.4007 15.2102C41.5613 15.3711 41.7795 15.4618 42.0068 15.4618C42.2344 15.4618 42.4526 15.3711 42.6132 15.2102L45.1822 12.6412C45.5069 12.305 45.5023 11.771 45.1718 11.4405C44.8414 11.1104 44.3073 11.1058 43.9715 11.4301L42.8623 12.5372V8.61018C42.8612 7.24787 42.3193 5.9419 41.3559 4.97852C40.3929 4.01515 39.0865 3.47364 37.7242 3.47217H32.5862C32.1135 3.47217 31.73 3.85566 31.73 4.32838C31.73 4.80146 32.1135 5.18495 32.5862 5.18495L32.5862 5.18496Z" fill="#4D4D4D"/>
</g>
<defs>
<clipPath id="clip0_71_9902">
<rect width="48" height="48" fill="white"/>
</clipPath>
</defs>
</svg>
