<svg width="44" height="48" viewBox="0 0 44 48" fill="none" xmlns="http://www.w3.org/2000/svg">
<path fill-rule="evenodd" clip-rule="evenodd" d="M14.6942 0.996997H44.0001V41.0744H22.0455V39.3026H42.2288V2.76779H16.4663V24.4422L14.6945 23.4871V0.996094L14.6942 0.996997ZM18.5199 4.57941H40.1754V6.55724H18.5199V4.57941ZM22.5603 33.638H29.2136V35.053H22.5603V33.638ZM32 33.638H37.0777V35.053H32V33.638ZM25.1753 30.672H29.2135V32.0889H25.1753V30.672ZM32 30.672H37.0777V32.0889H32V30.672ZM22.5291 27.706H29.2136V29.1229H25.1568L22.5291 27.706ZM32 27.706H37.0777V29.1229H32V27.706ZM18.5199 24.7423H29.2133V26.1573H19.6495L18.5192 25.5488V24.7424L18.5199 24.7423ZM32 24.7423H37.0777V26.1573H32V24.7423ZM18.5199 20.968H40.1754V22.9439H18.5199V20.968ZM18.5199 17.2514H23.8677V18.6664H18.5199V17.2514ZM18.5199 14.2854H22.026V15.7004H18.5199V14.2854ZM18.5199 11.3194H25.3055V12.7344H18.5199V11.3194ZM18.5199 8.35342H23.4181V9.77028H18.5199V8.35342ZM28.4509 17.2509H40.1762V18.6659H28.4509V17.2509ZM28.4509 14.2849H35.7747V15.6999H28.4509V14.2849ZM28.4509 11.3189H40.1762V12.7339H28.4509V11.3189ZM28.4509 8.35293H37.0781V9.76979H28.4509V8.35293ZM5.57209 34.2888V44.4876H8.26779V34.2888H7.75014V33.1669H11.1657V34.2888H10.648V44.4876H13.6592V34.2888H13.1435V33.1669H16.5568V34.2888H16.0411V44.4876H18.7368V34.2888H18.2192V33.1669H21.6347V34.2888H21.1171V44.4876H22.2637V47.004H2.04514V44.4876H3.18991V34.2888H2.67419V33.1669H6.08752V34.2888H5.57209ZM24.2494 29.6855V32.4968H0.0585938V29.6855L12.1528 23.1724L24.2486 29.6855H24.2494ZM20.2007 29.6855L12.1529 25.3524L4.10741 29.6855H20.2007Z" fill="#4D4D4D"/>
</svg>
