<svg width="48" height="48" viewBox="0 0 48 48" fill="none" xmlns="http://www.w3.org/2000/svg">
<g clip-path="url(#clip0_71_9926)">
<path d="M41.1967 21.1506C44.9479 21.1506 48.0001 18.0938 48.0001 14.3362C48.0001 10.5784 44.9479 7.52148 41.1967 7.52148C37.4454 7.52148 34.3932 10.5783 34.3932 14.3362C34.3932 14.4467 34.4048 14.5544 34.4098 14.6634H22.2022C21.347 14.6634 20.6516 15.36 20.6516 16.2166V26.2139H18.5659L18.5663 19.7906C18.5663 18.9341 17.8708 18.2374 17.0157 18.2374H6.88279C6.41555 18.2374 5.97752 18.4454 5.68187 18.808L0.280861 25.4314C0.0551762 25.708 -0.0688477 26.0572 -0.0688477 26.4144V34.3092C-0.0688477 35.1658 0.626601 35.8624 1.48177 35.8624H4.16372C4.17418 38.4098 6.2454 40.4787 8.79104 40.4787C11.3363 40.4787 13.4075 38.4094 13.4183 35.8624H29.8595C29.8699 38.4098 31.9408 40.4787 34.4864 40.4787C37.0317 40.4787 39.1032 38.4094 39.1137 35.8624H41.7953C42.6505 35.8624 43.3459 35.1658 43.3459 34.3092L43.3452 27.7671C43.3452 26.9105 42.6498 26.2139 41.7946 26.2139H40.2263V21.0726C40.544 21.1185 40.8668 21.1506 41.1967 21.1506ZM8.79062 39.4441C6.80844 39.4441 5.19626 37.8291 5.19626 35.8441C5.19626 33.8586 6.80853 32.2434 8.79062 32.2434C10.7728 32.2434 12.385 33.8587 12.385 35.8441C12.385 37.8292 10.7723 39.4441 8.79062 39.4441ZM17.5326 34.31C17.5326 34.5957 17.3007 34.8279 17.0156 34.8279H13.3032C13.1096 33.9659 12.6785 33.1938 12.0789 32.5864L13.9111 30.5547C14.1743 30.2625 14.3196 29.8845 14.3196 29.4904V26.5636H14.506C14.9335 26.5636 15.2811 26.2151 15.2811 25.7872V21.3442C15.2811 20.9159 14.9332 20.5678 14.506 20.5678H7.61856C7.38458 20.5678 7.16575 20.6718 7.01829 20.8531L3.39578 25.296C3.20435 25.5308 3.16613 25.8467 3.29556 26.1201C3.42534 26.3942 3.69357 26.5639 3.99605 26.5639H13.2863V29.4908C13.2863 29.6277 13.2358 29.7599 13.1442 29.8613L11.2721 31.937C10.5539 31.4777 9.7042 31.2079 8.79095 31.2079C6.58782 31.2079 4.74269 32.7593 4.27827 34.8278L1.48169 34.8274C1.19688 34.8274 0.9647 34.5952 0.9647 34.3096V26.4148C0.9647 26.2956 1.00616 26.1793 1.08115 26.0872L6.48243 19.4638C6.58121 19.3429 6.72686 19.2735 6.8826 19.2735H17.0155C17.3003 19.2735 17.5325 19.5057 17.5325 19.7914L17.5326 34.31ZM4.54042 25.5283L7.74115 21.6032H14.2471V25.5283H4.54042ZM30.9557 15.6993H34.5299C35.0278 18.1466 36.8398 20.1209 39.1929 20.8485V21.5317H30.9557V15.6993ZM30.9557 22.5675H39.1929V26.2148H30.9557V22.5675ZM21.6848 16.2172C21.6848 15.9319 21.9166 15.6993 22.2018 15.6993H29.922V21.5318H21.6848L21.6848 16.2172ZM21.6848 22.5675H29.9216V26.2148H21.6848V22.5675ZM34.4859 39.4437C32.5037 39.4437 30.8919 37.8288 30.8919 35.8437C30.8919 33.8582 32.5042 32.243 34.4859 32.243C36.4681 32.243 38.0806 33.8583 38.0806 35.8437C38.0806 37.8289 36.468 39.4437 34.4859 39.4437ZM41.7947 27.2499C42.0799 27.2499 42.3117 27.4821 42.3117 27.7678V34.3099C42.3117 34.5956 42.0799 34.8278 41.7947 34.8278H38.9985C38.5342 32.7593 36.6887 31.2079 34.4858 31.2079C32.2827 31.2079 30.4376 32.7593 29.9735 34.8278L18.471 34.8274C18.529 34.6645 18.5662 34.4923 18.5662 34.3095V27.25L41.7947 27.2499ZM35.4268 14.3369C35.4268 11.1503 38.015 8.55782 41.1963 8.55782C44.3775 8.55782 46.9657 11.1503 46.9657 14.3369C46.9657 17.5235 44.3775 20.116 41.1963 20.116C38.015 20.1156 35.4268 17.5235 35.4268 14.3369ZM11.4924 29.2708V28.4078C11.4924 28.1217 11.7239 27.8899 12.0094 27.8899C12.2949 27.8899 12.5264 28.1214 12.5264 28.4078V29.2708C12.5264 29.5568 12.2949 29.7887 12.0094 29.7887C11.7239 29.7883 11.4924 29.5568 11.4924 29.2708ZM8.79071 33.2641C7.37023 33.2641 6.21518 34.4215 6.21518 35.8439C6.21518 37.2668 7.37069 38.4238 8.79071 38.4238C10.2112 38.4238 11.3663 37.2663 11.3663 35.8439C11.3663 34.4215 10.2107 33.2641 8.79071 33.2641ZM8.79071 37.3884C7.94061 37.3884 7.24877 36.6958 7.24877 35.8439C7.24877 34.992 7.94061 34.2994 8.79071 34.2994C9.64082 34.2994 10.3327 34.992 10.3327 35.8439C10.3327 36.6958 9.64082 37.3884 8.79071 37.3884ZM34.4861 33.2641C33.0656 33.2641 31.9106 34.4215 31.9106 35.8439C31.9106 37.2668 33.0661 38.4238 34.4861 38.4238C35.9066 38.4238 37.0616 37.2663 37.0616 35.8439C37.0616 34.4215 35.9065 33.2641 34.4861 33.2641ZM34.4861 37.3884C33.6356 37.3884 32.9442 36.6958 32.9442 35.8439C32.9442 34.992 33.6356 34.2994 34.4861 34.2994C35.3366 34.2994 36.028 34.992 36.028 35.8439C36.028 36.6958 35.3366 37.3884 34.4861 37.3884ZM44.9531 11.8942L40.5544 17.4234C40.456 17.5469 40.3074 17.6184 40.1502 17.6184H40.143C39.9837 17.6163 39.8337 17.5404 39.7378 17.4126L37.4323 14.3518C37.2603 14.1235 37.3058 13.7985 37.5333 13.6266C37.7615 13.4547 38.0849 13.4999 38.2572 13.7281L40.1615 16.256L44.1449 11.249C44.3226 11.0255 44.6482 10.9883 44.8713 11.1667C45.0938 11.3451 45.1308 11.6707 44.9531 11.8942Z" fill="#4D4D4D"/>
<path d="M47 14.2609C47 17.4305 44.3137 20 41 20C37.6863 20 35 17.4305 35 14.2609C35 11.0912 37.6863 8 41 8C44.3137 8 47 11.0912 47 14.2609Z" fill="#3FB500"/>
<path d="M38.3448 14.9236C38.1449 14.7332 37.8284 14.7409 37.6379 14.9409C37.4475 15.1409 37.4552 15.4573 37.6552 15.6478L38.3448 14.9236ZM39.8 17L39.4552 17.3621L39.8 17.6905L40.1448 17.3621L39.8 17ZM44.3448 13.3621C44.5448 13.1716 44.5525 12.8551 44.3621 12.6552C44.1716 12.4552 43.8551 12.4475 43.6552 12.6379L44.3448 13.3621ZM37.6552 15.6478L39.4552 17.3621L40.1448 16.6379L38.3448 14.9236L37.6552 15.6478ZM40.1448 17.3621L44.3448 13.3621L43.6552 12.6379L39.4552 16.6379L40.1448 17.3621Z" fill="white"/>
</g>
<defs>
<clipPath id="clip0_71_9926">
<rect width="48" height="48" fill="white"/>
</clipPath>
</defs>
</svg>
