<svg width="32" height="24" viewBox="0 0 32 24" fill="none"
    xmlns="http://www.w3.org/2000/svg">
    <path fill-rule="evenodd" clip-rule="evenodd" d="M29.8877 11.4287C30.3588 11.1606 30.9579 11.3233 31.2286 11.7928C31.4996 12.2622 31.3412 12.8619 30.8734 13.1363L30.0197 13.6291L31.0057 15.3367C31.555 16.2881 30.6803 16.7446 30.1521 15.8296L29.166 14.1219L20.6274 19.0514L19.6414 17.3438L29.8877 11.4287ZM5.51339 2.73373L2.09812 4.70545L2.09845 4.70578C1.62707 4.9735 1.02826 4.81075 0.757244 4.34167C0.486231 3.87226 0.64501 3.27215 1.11243 2.99818L5.38139 0.533284C5.85311 0.260944 6.45589 0.422698 6.72826 0.894087L16.0942 17.1177L14.3865 18.1038L5.51339 2.73373ZM15.7337 18.4622C16.4133 18.0707 17.2205 17.965 17.9777 18.1684C18.7353 18.372 19.3807 18.8679 19.7725 19.5472C20.1643 20.2265 20.2703 21.0337 20.0669 21.7913C19.8639 22.5489 19.3681 23.1945 18.6887 23.5864C18.0097 23.9785 17.2026 24.0848 16.445 23.8818C15.6874 23.6788 15.0414 23.1833 14.6492 22.5043C14.2564 21.8246 14.1501 21.0165 14.3534 20.2582C14.5571 19.5003 15.0536 18.854 15.7336 18.4621L15.7337 18.4622ZM12.5118 8.93823L23.611 2.5299L28.5404 11.0685L17.4413 17.4768L12.5118 8.93823ZM9.06124 2.96165L14.1881 0.00390625L17.1458 5.13077L12.019 8.08852L9.06124 2.96165Z" fill="black"/>
</svg>