<svg width="214" height="50" viewBox="0 0 214 50" fill="none" xmlns="http://www.w3.org/2000/svg">
<rect x="66" width="148" height="37" rx="18.5" fill="#FCCF58"/>
<mask id="path-2-outside-1_1416_4796" maskUnits="userSpaceOnUse" x="0" y="4" width="102" height="46" fill="black">
<rect fill="white" y="4" width="102" height="46"/>
<path fill-rule="evenodd" clip-rule="evenodd" d="M15 7C8.37258 7 3 12.3726 3 19C3 25.6274 8.37258 31 15 31H46.1188L46.7081 39L51.2388 31H87C93.6274 31 99 25.6274 99 19C99 12.3726 93.6274 7 87 7H15Z"/>
</mask>
<path fill-rule="evenodd" clip-rule="evenodd" d="M15 7C8.37258 7 3 12.3726 3 19C3 25.6274 8.37258 31 15 31H46.1188L46.7081 39L51.2388 31H87C93.6274 31 99 25.6274 99 19C99 12.3726 93.6274 7 87 7H15Z" fill="white"/>
<path d="M46.1188 31L49.1106 30.7796L48.9059 28H46.1188V31ZM46.7081 39L43.7162 39.2204L44.443 49.0872L49.3185 40.4784L46.7081 39ZM51.2388 31V28H49.4901L48.6283 29.5216L51.2388 31ZM6 19C6 14.0294 10.0294 10 15 10V4C6.71573 4 0 10.7157 0 19H6ZM15 28C10.0294 28 6 23.9706 6 19H0C0 27.2843 6.71573 34 15 34V28ZM46.1188 28H15V34H46.1188V28ZM49.7 38.7796L49.1106 30.7796L43.1269 31.2204L43.7162 39.2204L49.7 38.7796ZM48.6283 29.5216L44.0976 37.5216L49.3185 40.4784L53.8492 32.4784L48.6283 29.5216ZM87 28H51.2388V34H87V28ZM96 19C96 23.9706 91.9706 28 87 28V34C95.2843 34 102 27.2843 102 19H96ZM87 10C91.9706 10 96 14.0294 96 19H102C102 10.7157 95.2843 4 87 4V10ZM15 10H87V4H15V10Z" fill="#FFD05B" mask="url(#path-2-outside-1_1416_4796)"/>
<path d="M27.331 17.2173H25.7372C25.6918 16.956 25.608 16.7244 25.4858 16.5227C25.3636 16.3182 25.2116 16.1449 25.0298 16.0028C24.848 15.8608 24.6406 15.7543 24.4077 15.6832C24.1776 15.6094 23.929 15.5724 23.6619 15.5724C23.1875 15.5724 22.767 15.6918 22.4006 15.9304C22.0341 16.1662 21.7472 16.5128 21.5398 16.9702C21.3324 17.4247 21.2287 17.9801 21.2287 18.6364C21.2287 19.304 21.3324 19.8665 21.5398 20.3239C21.75 20.7784 22.0369 21.1222 22.4006 21.3551C22.767 21.5852 23.1861 21.7003 23.6577 21.7003C23.919 21.7003 24.1634 21.6662 24.3906 21.598C24.6207 21.527 24.8267 21.4233 25.0085 21.2869C25.1932 21.1506 25.348 20.983 25.473 20.7841C25.6009 20.5852 25.6889 20.358 25.7372 20.1023L27.331 20.1108C27.2713 20.5256 27.142 20.9148 26.9432 21.2784C26.7472 21.642 26.4901 21.9631 26.1719 22.2415C25.8537 22.517 25.4815 22.733 25.0554 22.8892C24.6293 23.0426 24.1563 23.1193 23.6364 23.1193C22.8693 23.1193 22.1847 22.9418 21.5824 22.5866C20.9801 22.2315 20.5057 21.7188 20.1591 21.0483C19.8125 20.3778 19.6392 19.5739 19.6392 18.6364C19.6392 17.696 19.8139 16.892 20.1634 16.2244C20.5128 15.554 20.9886 15.0412 21.5909 14.6861C22.1932 14.331 22.875 14.1534 23.6364 14.1534C24.1222 14.1534 24.5739 14.2216 24.9915 14.358C25.4091 14.4943 25.7813 14.6946 26.108 14.9588C26.4347 15.2202 26.7031 15.5412 26.9134 15.9219C27.1264 16.2997 27.2656 16.7315 27.331 17.2173ZM31.5657 23.1278C30.9265 23.1278 30.3725 22.9872 29.9038 22.706C29.435 22.4247 29.0714 22.0312 28.8129 21.5256C28.5572 21.0199 28.4293 20.429 28.4293 19.7528C28.4293 19.0767 28.5572 18.4844 28.8129 17.9759C29.0714 17.4673 29.435 17.0724 29.9038 16.7912C30.3725 16.5099 30.9265 16.3693 31.5657 16.3693C32.2049 16.3693 32.7589 16.5099 33.2276 16.7912C33.6964 17.0724 34.0586 17.4673 34.3143 17.9759C34.5728 18.4844 34.7021 19.0767 34.7021 19.7528C34.7021 20.429 34.5728 21.0199 34.3143 21.5256C34.0586 22.0312 33.6964 22.4247 33.2276 22.706C32.7589 22.9872 32.2049 23.1278 31.5657 23.1278ZM31.5742 21.892C31.9208 21.892 32.2106 21.7969 32.4435 21.6065C32.6765 21.4134 32.8498 21.1548 32.9634 20.831C33.0799 20.5071 33.1381 20.1463 33.1381 19.7486C33.1381 19.348 33.0799 18.9858 32.9634 18.6619C32.8498 18.3352 32.6765 18.0753 32.4435 17.8821C32.2106 17.6889 31.9208 17.5923 31.5742 17.5923C31.2191 17.5923 30.9237 17.6889 30.6879 17.8821C30.4549 18.0753 30.2802 18.3352 30.1637 18.6619C30.0501 18.9858 29.9933 19.348 29.9933 19.7486C29.9933 20.1463 30.0501 20.5071 30.1637 20.831C30.2802 21.1548 30.4549 21.4134 30.6879 21.6065C30.9237 21.7969 31.2191 21.892 31.5742 21.892ZM37.554 19.1648V23H36.0114V16.4545H37.4858V17.5668H37.5625C37.7131 17.2003 37.9531 16.9091 38.2827 16.6932C38.6151 16.4773 39.0256 16.3693 39.5142 16.3693C39.9659 16.3693 40.3594 16.4659 40.6946 16.6591C41.0327 16.8523 41.294 17.1321 41.4787 17.4986C41.6662 17.8651 41.7585 18.3097 41.7557 18.8324V23H40.2131V19.071C40.2131 18.6335 40.0994 18.2912 39.8722 18.044C39.6477 17.7969 39.3366 17.6733 38.9389 17.6733C38.669 17.6733 38.429 17.733 38.2188 17.8523C38.0114 17.9687 37.848 18.1378 37.7287 18.3594C37.6122 18.581 37.554 18.8494 37.554 19.1648ZM46.5923 16.4545V17.6477H42.8295V16.4545H46.5923ZM43.7585 14.8864H45.3011V21.0312C45.3011 21.2386 45.3324 21.3977 45.3949 21.5085C45.4602 21.6165 45.5455 21.6903 45.6506 21.7301C45.7557 21.7699 45.8722 21.7898 46 21.7898C46.0966 21.7898 46.1847 21.7827 46.2642 21.7685C46.3466 21.7543 46.4091 21.7415 46.4517 21.7301L46.7116 22.9361C46.6293 22.9645 46.5114 22.9957 46.358 23.0298C46.2074 23.0639 46.0227 23.0838 45.804 23.0895C45.4176 23.1009 45.0696 23.0426 44.7599 22.9148C44.4503 22.7841 44.2045 22.5824 44.0227 22.3097C43.8438 22.0369 43.7557 21.696 43.7585 21.2869V14.8864ZM49.766 23.1321C49.3512 23.1321 48.9776 23.0582 48.6452 22.9105C48.3157 22.7599 48.0543 22.5384 47.8612 22.2457C47.6708 21.9531 47.5756 21.5923 47.5756 21.1634C47.5756 20.794 47.6438 20.4886 47.7802 20.2472C47.9165 20.0057 48.1026 19.8125 48.3384 19.6676C48.5742 19.5227 48.8398 19.4134 49.1353 19.3395C49.4336 19.2628 49.7418 19.2074 50.06 19.1733C50.4435 19.1335 50.7546 19.098 50.9933 19.0668C51.2319 19.0327 51.4052 18.9815 51.5131 18.9134C51.6239 18.8423 51.6793 18.733 51.6793 18.5852V18.5597C51.6793 18.2386 51.5842 17.9901 51.3938 17.8139C51.2035 17.6378 50.9293 17.5497 50.5714 17.5497C50.1935 17.5497 49.8938 17.6321 49.6722 17.7969C49.4535 17.9616 49.3058 18.1562 49.229 18.3807L47.7887 18.1761C47.9023 17.7784 48.0898 17.446 48.3512 17.179C48.6126 16.9091 48.9322 16.7074 49.31 16.5739C49.6879 16.4375 50.1055 16.3693 50.5629 16.3693C50.8782 16.3693 51.1921 16.4062 51.5046 16.4801C51.8171 16.554 52.1026 16.6761 52.3612 16.8466C52.6197 17.0142 52.8271 17.2429 52.9833 17.5327C53.1424 17.8224 53.2219 18.1847 53.2219 18.6193V23H51.739V22.1009H51.6879C51.5941 22.2827 51.462 22.4531 51.2915 22.6122C51.1239 22.7685 50.9123 22.8949 50.6566 22.9915C50.4038 23.0852 50.1069 23.1321 49.766 23.1321ZM50.1665 21.9986C50.4762 21.9986 50.7447 21.9375 50.9719 21.8153C51.1992 21.6903 51.3739 21.5256 51.4961 21.321C51.6211 21.1165 51.6836 20.8935 51.6836 20.652V19.8807C51.6353 19.9205 51.5529 19.9574 51.4364 19.9915C51.3228 20.0256 51.195 20.0554 51.0529 20.081C50.9109 20.1065 50.7702 20.1293 50.631 20.1491C50.4918 20.169 50.3711 20.1861 50.2688 20.2003C50.0387 20.2315 49.8327 20.2827 49.6509 20.3537C49.4691 20.4247 49.3256 20.5241 49.2205 20.652C49.1154 20.777 49.0629 20.9389 49.0629 21.1378C49.0629 21.4219 49.1665 21.6364 49.3739 21.7812C49.5813 21.9261 49.8455 21.9986 50.1665 21.9986ZM57.6282 23.1278C56.9748 23.1278 56.4137 22.9844 55.945 22.6974C55.479 22.4105 55.1197 22.0142 54.8668 21.5085C54.6168 21 54.4918 20.4148 54.4918 19.7528C54.4918 19.0881 54.6197 18.5014 54.8754 17.9929C55.131 17.4815 55.4918 17.0838 55.9577 16.7997C56.4265 16.5128 56.9805 16.3693 57.6197 16.3693C58.1509 16.3693 58.6211 16.4673 59.0302 16.6634C59.4421 16.8565 59.7702 17.1307 60.0146 17.4858C60.2589 17.8381 60.3981 18.25 60.4322 18.7216H58.9577C58.8981 18.4062 58.756 18.1435 58.5316 17.9332C58.31 17.7202 58.0131 17.6136 57.641 17.6136C57.3256 17.6136 57.0487 17.6989 56.81 17.8693C56.5714 18.0369 56.3853 18.2784 56.2518 18.5938C56.1211 18.9091 56.0558 19.2869 56.0558 19.7273C56.0558 20.1733 56.1211 20.5568 56.2518 20.8778C56.3825 21.196 56.5657 21.4418 56.8015 21.6151C57.0401 21.7855 57.32 21.8707 57.641 21.8707C57.8683 21.8707 58.0714 21.8281 58.2504 21.7429C58.4322 21.6548 58.5842 21.5284 58.7063 21.3636C58.8285 21.1989 58.9123 20.9986 58.9577 20.7628H60.4322C60.3952 21.2259 60.2589 21.6364 60.0231 21.9943C59.7873 22.3494 59.4663 22.6278 59.06 22.8295C58.6538 23.0284 58.1765 23.1278 57.6282 23.1278ZM64.9673 16.4545V17.6477H61.2045V16.4545H64.9673ZM62.1335 14.8864H63.6761V21.0312C63.6761 21.2386 63.7074 21.3977 63.7699 21.5085C63.8352 21.6165 63.9205 21.6903 64.0256 21.7301C64.1307 21.7699 64.2472 21.7898 64.375 21.7898C64.4716 21.7898 64.5597 21.7827 64.6392 21.7685C64.7216 21.7543 64.7841 21.7415 64.8267 21.7301L65.0866 22.9361C65.0043 22.9645 64.8864 22.9957 64.733 23.0298C64.5824 23.0639 64.3977 23.0838 64.179 23.0895C63.7926 23.1009 63.4446 23.0426 63.1349 22.9148C62.8253 22.7841 62.5795 22.5824 62.3977 22.3097C62.2188 22.0369 62.1307 21.696 62.1335 21.2869V14.8864ZM74.8036 14.2727H76.3846V19.9744C76.3846 20.5994 76.2369 21.1491 75.9414 21.6236C75.6488 22.098 75.2369 22.4687 74.7056 22.7358C74.1744 23 73.5536 23.1321 72.8434 23.1321C72.1303 23.1321 71.5082 23 70.9769 22.7358C70.4457 22.4687 70.0337 22.098 69.7411 21.6236C69.4485 21.1491 69.3022 20.5994 69.3022 19.9744V14.2727H70.8832V19.8423C70.8832 20.206 70.9627 20.5298 71.1218 20.8139C71.2837 21.098 71.511 21.321 71.8036 21.483C72.0962 21.642 72.4428 21.7216 72.8434 21.7216C73.244 21.7216 73.5906 21.642 73.8832 21.483C74.1786 21.321 74.4059 21.098 74.565 20.8139C74.7241 20.5298 74.8036 20.206 74.8036 19.8423V14.2727ZM83.2081 18.1847L81.8018 18.3381C81.7621 18.196 81.6925 18.0625 81.593 17.9375C81.4964 17.8125 81.3658 17.7116 81.201 17.6349C81.0362 17.5582 80.8345 17.5199 80.5959 17.5199C80.2749 17.5199 80.005 17.5895 79.7862 17.7287C79.5703 17.8679 79.4638 18.0483 79.4666 18.2699C79.4638 18.4602 79.5334 18.6151 79.6754 18.7344C79.8203 18.8537 80.0589 18.9517 80.3913 19.0284L81.5078 19.267C82.1271 19.4006 82.5874 19.6122 82.8885 19.902C83.1925 20.1918 83.3459 20.571 83.3487 21.0398C83.3459 21.4517 83.2251 21.8153 82.9865 22.1307C82.7507 22.4432 82.4226 22.6875 82.0021 22.8636C81.5817 23.0398 81.0987 23.1278 80.5533 23.1278C79.7521 23.1278 79.1072 22.9602 78.6186 22.625C78.13 22.2869 77.8388 21.8168 77.745 21.2145L79.2493 21.0696C79.3175 21.3651 79.4624 21.5881 79.6839 21.7386C79.9055 21.8892 80.1939 21.9645 80.549 21.9645C80.9155 21.9645 81.2095 21.8892 81.4311 21.7386C81.6555 21.5881 81.7678 21.402 81.7678 21.1804C81.7678 20.9929 81.6953 20.8381 81.5504 20.7159C81.4084 20.5937 81.1868 20.5 80.8857 20.4347L79.7692 20.2003C79.1413 20.0696 78.6768 19.8494 78.3757 19.5398C78.0746 19.2273 77.9254 18.8324 77.9283 18.3551C77.9254 17.9517 78.0348 17.6023 78.2564 17.3068C78.4808 17.0085 78.7919 16.7784 79.1896 16.6165C79.5902 16.4517 80.0518 16.3693 80.5746 16.3693C81.3416 16.3693 81.9453 16.5327 82.3857 16.8594C82.8288 17.1861 83.103 17.6278 83.2081 18.1847Z" fill="black"/>
<path d="M105.366 22.6023V16.7045H106.705V22.6023H105.366ZM103.087 20.3224V18.9844H108.984V20.3224H103.087ZM113.88 15.1534C114.297 15.1562 114.703 15.2301 115.098 15.375C115.496 15.517 115.854 15.75 116.172 16.0739C116.49 16.3949 116.743 16.8253 116.931 17.3651C117.118 17.9048 117.212 18.5724 117.212 19.3679C117.215 20.1179 117.135 20.7884 116.973 21.3793C116.814 21.9673 116.586 22.4645 116.287 22.8707C115.989 23.277 115.63 23.5866 115.209 23.7997C114.789 24.0128 114.316 24.1193 113.79 24.1193C113.239 24.1193 112.75 24.0114 112.324 23.7955C111.901 23.5795 111.559 23.2841 111.297 22.9091C111.036 22.5341 110.875 22.1051 110.816 21.6222H112.371C112.451 21.9687 112.613 22.2443 112.857 22.4489C113.104 22.6506 113.415 22.7514 113.79 22.7514C114.395 22.7514 114.861 22.4886 115.188 21.9631C115.515 21.4375 115.678 20.7074 115.678 19.7727H115.618C115.479 20.0227 115.299 20.2386 115.077 20.4205C114.855 20.5994 114.604 20.7372 114.323 20.8338C114.044 20.9304 113.749 20.9787 113.436 20.9787C112.925 20.9787 112.465 20.8565 112.056 20.6122C111.65 20.3679 111.327 20.0327 111.088 19.6065C110.853 19.1804 110.733 18.6932 110.73 18.1449C110.73 17.5767 110.861 17.0668 111.123 16.6151C111.387 16.1605 111.755 15.8026 112.226 15.5412C112.698 15.277 113.249 15.1477 113.88 15.1534ZM113.884 16.4318C113.577 16.4318 113.3 16.5071 113.053 16.6577C112.809 16.8054 112.615 17.0071 112.473 17.2628C112.334 17.5156 112.265 17.7983 112.265 18.1108C112.267 18.4205 112.337 18.7017 112.473 18.9545C112.613 19.2074 112.801 19.4077 113.04 19.5554C113.282 19.7031 113.557 19.777 113.867 19.777C114.097 19.777 114.311 19.733 114.51 19.6449C114.709 19.5568 114.882 19.4347 115.03 19.2784C115.181 19.1193 115.297 18.9389 115.38 18.7372C115.465 18.5355 115.506 18.3224 115.503 18.098C115.503 17.7997 115.432 17.5241 115.29 17.2713C115.151 17.0185 114.959 16.8153 114.715 16.6619C114.473 16.5085 114.196 16.4318 113.884 16.4318ZM122.181 15.2727V24H120.6V16.8111H120.549L118.507 18.1151V16.6662L120.676 15.2727H122.181ZM130.923 15.2727V24H129.342V16.8111H129.291L127.25 18.1151V16.6662L129.419 15.2727H130.923ZM133.139 24V22.858L136.169 19.8878C136.458 19.5952 136.7 19.3352 136.893 19.108C137.086 18.8807 137.231 18.6605 137.328 18.4474C137.424 18.2344 137.473 18.0071 137.473 17.7656C137.473 17.4901 137.41 17.2543 137.285 17.0582C137.16 16.8594 136.988 16.706 136.77 16.598C136.551 16.4901 136.302 16.4361 136.024 16.4361C135.737 16.4361 135.485 16.4957 135.27 16.6151C135.054 16.7315 134.886 16.8977 134.767 17.1136C134.65 17.3295 134.592 17.5866 134.592 17.8849H133.088C133.088 17.331 133.214 16.8494 133.467 16.4403C133.72 16.0312 134.068 15.7145 134.511 15.4901C134.957 15.2656 135.468 15.1534 136.045 15.1534C136.63 15.1534 137.145 15.2628 137.588 15.4815C138.031 15.7003 138.375 16 138.619 16.3807C138.866 16.7614 138.99 17.196 138.99 17.6847C138.99 18.0114 138.927 18.3324 138.802 18.6477C138.677 18.9631 138.457 19.3125 138.142 19.696C137.829 20.0795 137.39 20.544 136.825 21.0895L135.321 22.6193V22.679H139.122V24H133.139ZM143.724 24.1193C143.11 24.1193 142.565 24.0142 142.088 23.804C141.613 23.5937 141.238 23.3011 140.963 22.9261C140.687 22.5511 140.541 22.1179 140.524 21.6264H142.126C142.14 21.8622 142.218 22.0682 142.36 22.2443C142.502 22.4176 142.691 22.5526 142.927 22.6491C143.163 22.7457 143.427 22.794 143.72 22.794C144.032 22.794 144.309 22.7401 144.551 22.6321C144.792 22.5213 144.981 22.3679 145.118 22.1719C145.254 21.9759 145.321 21.75 145.318 21.4943C145.321 21.2301 145.252 20.9972 145.113 20.7955C144.974 20.5937 144.772 20.4361 144.508 20.3224C144.247 20.2088 143.931 20.152 143.562 20.152H142.791V18.9332H143.562C143.866 18.9332 144.132 18.8807 144.359 18.7756C144.589 18.6705 144.77 18.5227 144.9 18.3324C145.031 18.1392 145.095 17.9162 145.092 17.6634C145.095 17.4162 145.039 17.2017 144.926 17.0199C144.815 16.8352 144.657 16.6918 144.453 16.5895C144.251 16.4872 144.014 16.4361 143.741 16.4361C143.474 16.4361 143.227 16.4844 143 16.581C142.772 16.6776 142.589 16.8153 142.45 16.9943C142.311 17.1705 142.237 17.3807 142.228 17.625H140.707C140.718 17.1364 140.859 16.7074 141.129 16.3381C141.402 15.9659 141.765 15.6761 142.22 15.4688C142.674 15.2585 143.184 15.1534 143.75 15.1534C144.332 15.1534 144.838 15.2628 145.267 15.4815C145.699 15.6974 146.032 15.9886 146.268 16.3551C146.504 16.7216 146.622 17.1264 146.622 17.5696C146.625 18.0611 146.48 18.473 146.187 18.8054C145.897 19.1378 145.517 19.3551 145.045 19.4574V19.5256C145.659 19.6108 146.129 19.8381 146.456 20.2074C146.785 20.5739 146.949 21.0298 146.946 21.5753C146.946 22.0639 146.806 22.5014 146.528 22.8878C146.252 23.2713 145.872 23.5724 145.386 23.7912C144.903 24.0099 144.349 24.1193 143.724 24.1193ZM152.393 19.0014V20.2713H148.464V19.0014H152.393ZM153.841 22.3807V21.1236L157.544 15.2727H158.592V17.0625H157.953L155.46 21.0128V21.081H160.629V22.3807H153.841ZM158.004 24V21.9972L158.021 21.4347V15.2727H159.512V24H158.004ZM165.025 24.1193C164.456 24.1193 163.948 24.0128 163.499 23.7997C163.05 23.5838 162.694 23.2884 162.429 22.9134C162.168 22.5384 162.029 22.1094 162.012 21.6264H163.546C163.574 21.9844 163.729 22.277 164.01 22.5043C164.292 22.7287 164.63 22.8409 165.025 22.8409C165.334 22.8409 165.61 22.7699 165.851 22.6278C166.093 22.4858 166.283 22.2884 166.422 22.0355C166.561 21.7827 166.63 21.4943 166.627 21.1705C166.63 20.8409 166.56 20.5483 166.418 20.2926C166.276 20.0369 166.081 19.8366 165.834 19.6918C165.587 19.544 165.303 19.4702 164.982 19.4702C164.721 19.4673 164.463 19.5156 164.211 19.6151C163.958 19.7145 163.757 19.8452 163.61 20.0071L162.182 19.7727L162.638 15.2727H167.701V16.5938H163.946L163.695 18.9077H163.746C163.908 18.7173 164.137 18.5597 164.432 18.4347C164.728 18.3068 165.051 18.2429 165.404 18.2429C165.932 18.2429 166.404 18.3679 166.819 18.6179C167.233 18.8651 167.56 19.206 167.799 19.6406C168.037 20.0753 168.157 20.5724 168.157 21.1321C168.157 21.7088 168.023 22.223 167.756 22.6747C167.492 23.1236 167.124 23.4773 166.652 23.7358C166.184 23.9915 165.641 24.1193 165.025 24.1193ZM172.78 24.1193C172.363 24.1165 171.955 24.044 171.557 23.902C171.159 23.7571 170.801 23.5227 170.483 23.1989C170.165 22.8722 169.912 22.4389 169.725 21.8991C169.537 21.3565 169.445 20.6847 169.448 19.8835C169.448 19.1364 169.527 18.4702 169.686 17.8849C169.846 17.2997 170.074 16.8054 170.373 16.402C170.671 15.9957 171.03 15.6861 171.451 15.473C171.874 15.2599 172.347 15.1534 172.87 15.1534C173.418 15.1534 173.904 15.2614 174.327 15.4773C174.753 15.6932 175.097 15.9886 175.358 16.3636C175.62 16.7358 175.782 17.1562 175.844 17.625H174.289C174.209 17.2898 174.046 17.0227 173.799 16.8239C173.554 16.6222 173.245 16.5213 172.87 16.5213C172.265 16.5213 171.799 16.7841 171.472 17.3097C171.148 17.8352 170.985 18.5568 170.982 19.4744H171.042C171.181 19.2244 171.361 19.0099 171.583 18.831C171.804 18.652 172.054 18.5142 172.333 18.4176C172.614 18.3182 172.911 18.2685 173.223 18.2685C173.735 18.2685 174.194 18.3906 174.6 18.6349C175.009 18.8793 175.333 19.2159 175.571 19.6449C175.81 20.071 175.928 20.5597 175.925 21.1108C175.928 21.6847 175.797 22.2003 175.533 22.6577C175.269 23.1122 174.901 23.4702 174.429 23.7315C173.958 23.9929 173.408 24.1222 172.78 24.1193ZM172.772 22.8409C173.081 22.8409 173.358 22.7656 173.603 22.6151C173.847 22.4645 174.04 22.2614 174.182 22.0057C174.324 21.75 174.394 21.4631 174.391 21.1449C174.394 20.8324 174.326 20.5497 174.186 20.2969C174.05 20.044 173.861 19.8437 173.62 19.696C173.378 19.5483 173.103 19.4744 172.793 19.4744C172.563 19.4744 172.348 19.5185 172.15 19.6065C171.951 19.6946 171.777 19.8168 171.63 19.973C171.482 20.1264 171.365 20.3054 171.28 20.5099C171.198 20.7116 171.155 20.9276 171.152 21.1577C171.155 21.4616 171.226 21.7415 171.365 21.9972C171.505 22.2528 171.696 22.4574 171.941 22.6108C172.185 22.7642 172.462 22.8409 172.772 22.8409ZM181.35 19.0014V20.2713H177.421V19.0014H181.35ZM182.947 24L186.658 16.6534V16.5938H182.35V15.2727H188.295V16.6236L184.587 24H182.947ZM192.597 24.1193C191.963 24.1193 191.401 24.0128 190.909 23.7997C190.42 23.5866 190.037 23.2955 189.759 22.9261C189.483 22.554 189.347 22.1321 189.349 21.6605C189.347 21.294 189.426 20.9574 189.588 20.6506C189.75 20.3438 189.969 20.0881 190.244 19.8835C190.523 19.6761 190.832 19.544 191.173 19.4872V19.4276C190.724 19.3281 190.361 19.0994 190.082 18.7415C189.807 18.3807 189.67 17.9645 189.673 17.4929C189.67 17.044 189.795 16.6435 190.048 16.2912C190.301 15.9389 190.648 15.6619 191.088 15.4602C191.528 15.2557 192.031 15.1534 192.597 15.1534C193.156 15.1534 193.655 15.2557 194.092 15.4602C194.533 15.6619 194.879 15.9389 195.132 16.2912C195.388 16.6435 195.516 17.044 195.516 17.4929C195.516 17.9645 195.375 18.3807 195.094 18.7415C194.815 19.0994 194.456 19.3281 194.016 19.4276V19.4872C194.357 19.544 194.663 19.6761 194.936 19.8835C195.212 20.0881 195.43 20.3438 195.592 20.6506C195.757 20.9574 195.839 21.294 195.839 21.6605C195.839 22.1321 195.7 22.554 195.422 22.9261C195.143 23.2955 194.76 23.5866 194.271 23.7997C193.786 24.0128 193.227 24.1193 192.597 24.1193ZM192.597 22.9006C192.923 22.9006 193.207 22.8452 193.449 22.7344C193.69 22.6207 193.878 22.4616 194.011 22.2571C194.145 22.0526 194.213 21.8168 194.216 21.5497C194.213 21.2713 194.141 21.0256 193.999 20.8125C193.859 20.5966 193.668 20.4276 193.423 20.3054C193.182 20.1832 192.906 20.1222 192.597 20.1222C192.284 20.1222 192.006 20.1832 191.761 20.3054C191.517 20.4276 191.324 20.5966 191.182 20.8125C191.043 21.0256 190.974 21.2713 190.977 21.5497C190.974 21.8168 191.04 22.0526 191.173 22.2571C191.307 22.4588 191.494 22.6165 191.736 22.7301C191.98 22.8437 192.267 22.9006 192.597 22.9006ZM192.597 18.9247C192.864 18.9247 193.099 18.8707 193.304 18.7628C193.511 18.6548 193.675 18.5043 193.794 18.3111C193.913 18.1179 193.974 17.8949 193.977 17.642C193.974 17.392 193.915 17.1733 193.798 16.9858C193.682 16.7955 193.52 16.6491 193.312 16.5469C193.105 16.4418 192.866 16.3892 192.597 16.3892C192.321 16.3892 192.078 16.4418 191.868 16.5469C191.661 16.6491 191.499 16.7955 191.382 16.9858C191.268 17.1733 191.213 17.392 191.216 17.642C191.213 17.8949 191.27 18.1179 191.386 18.3111C191.506 18.5014 191.669 18.652 191.876 18.7628C192.087 18.8707 192.327 18.9247 192.597 18.9247ZM200.27 15.1534C200.688 15.1562 201.094 15.2301 201.489 15.375C201.887 15.517 202.245 15.75 202.563 16.0739C202.881 16.3949 203.134 16.8253 203.321 17.3651C203.509 17.9048 203.603 18.5724 203.603 19.3679C203.605 20.1179 203.526 20.7884 203.364 21.3793C203.205 21.9673 202.976 22.4645 202.678 22.8707C202.38 23.277 202.02 23.5866 201.6 23.7997C201.179 24.0128 200.706 24.1193 200.181 24.1193C199.63 24.1193 199.141 24.0114 198.715 23.7955C198.292 23.5795 197.949 23.2841 197.688 22.9091C197.426 22.5341 197.266 22.1051 197.206 21.6222H198.762C198.841 21.9687 199.003 22.2443 199.248 22.4489C199.495 22.6506 199.806 22.7514 200.181 22.7514C200.786 22.7514 201.252 22.4886 201.578 21.9631C201.905 21.4375 202.069 20.7074 202.069 19.7727H202.009C201.87 20.0227 201.689 20.2386 201.468 20.4205C201.246 20.5994 200.995 20.7372 200.713 20.8338C200.435 20.9304 200.14 20.9787 199.827 20.9787C199.316 20.9787 198.855 20.8565 198.446 20.6122C198.04 20.3679 197.718 20.0327 197.479 19.6065C197.243 19.1804 197.124 18.6932 197.121 18.1449C197.121 17.5767 197.252 17.0668 197.513 16.6151C197.777 16.1605 198.145 15.8026 198.617 15.5412C199.088 15.277 199.64 15.1477 200.27 15.1534ZM200.275 16.4318C199.968 16.4318 199.691 16.5071 199.444 16.6577C199.199 16.8054 199.006 17.0071 198.864 17.2628C198.725 17.5156 198.655 17.7983 198.655 18.1108C198.658 18.4205 198.728 18.7017 198.864 18.9545C199.003 19.2074 199.192 19.4077 199.431 19.5554C199.672 19.7031 199.948 19.777 200.257 19.777C200.488 19.777 200.702 19.733 200.901 19.6449C201.1 19.5568 201.273 19.4347 201.421 19.2784C201.571 19.1193 201.688 18.9389 201.77 18.7372C201.855 18.5355 201.897 18.3224 201.894 18.098C201.894 17.7997 201.823 17.5241 201.681 17.2713C201.542 17.0185 201.35 16.8153 201.105 16.6619C200.864 16.5085 200.587 16.4318 200.275 16.4318Z" fill="black"/>
</svg>
