<svg width="238" height="53" viewBox="0 0 238 53" fill="none" xmlns="http://www.w3.org/2000/svg">
<rect x="19.0846" y="7.85848" width="217.792" height="37.7547" rx="18.8774" fill="white" stroke="#FFD05B" stroke-width="2.24528"/>
<path d="M61.8718 32.5558V23.5236H64.1554V32.5558H61.8718ZM58.4975 29.1815V26.8979H67.5297V29.1815H58.4975ZM74.9034 21.3038C75.5753 21.3038 76.2216 21.4165 76.8425 21.6419C77.4676 21.8673 78.0247 22.2266 78.5137 22.7199C79.007 23.2132 79.3961 23.868 79.681 24.6845C79.9702 25.4967 80.1169 26.4939 80.1211 27.6761C80.1211 28.786 79.9957 29.7768 79.7448 30.6485C79.4981 31.516 79.1431 32.2538 78.6795 32.8619C78.216 33.47 77.6568 33.9335 77.002 34.2525C76.3471 34.5672 75.6157 34.7245 74.8077 34.7245C73.936 34.7245 73.1663 34.5565 72.4986 34.2206C71.831 33.8804 71.2931 33.419 70.8848 32.8364C70.4809 32.2496 70.2363 31.5905 70.1513 30.859H72.875C72.9813 31.3353 73.2045 31.7053 73.5447 31.9689C73.8849 32.2283 74.3059 32.358 74.8077 32.358C75.6582 32.358 76.3046 31.9881 76.7468 31.2481C77.1891 30.504 77.4123 29.4855 77.4166 28.1928H77.3273C77.1317 28.5755 76.868 28.905 76.5363 29.1815C76.2046 29.4536 75.824 29.6641 75.3945 29.8129C74.9693 29.9618 74.5164 30.0362 74.0359 30.0362C73.2662 30.0362 72.5794 29.8555 71.9756 29.494C71.3717 29.1326 70.8955 28.635 70.5468 28.0014C70.1981 27.3678 70.0237 26.6449 70.0237 25.8327C70.0195 24.9567 70.2215 24.1763 70.6297 23.4917C71.0379 22.8071 71.6078 22.2713 72.3392 21.8843C73.0748 21.4931 73.9296 21.2996 74.9034 21.3038ZM74.9225 23.4726C74.493 23.4726 74.1103 23.5746 73.7744 23.7787C73.4427 23.9829 73.179 24.2571 72.9834 24.6016C72.7921 24.946 72.6985 25.3309 72.7028 25.7561C72.7028 26.1856 72.7963 26.5726 72.9834 26.917C73.1748 27.2572 73.4342 27.5294 73.7616 27.7335C74.0933 27.9334 74.4718 28.0333 74.897 28.0333C75.2159 28.0333 75.5115 27.9738 75.7836 27.8547C76.0558 27.7356 76.2918 27.5719 76.4917 27.3635C76.6958 27.1509 76.8553 26.9064 76.9701 26.63C77.0849 26.3536 77.1423 26.0602 77.1423 25.7497C77.138 25.3373 77.0402 24.9588 76.8489 24.6143C76.6575 24.2699 76.3939 23.9935 76.0579 23.7851C75.722 23.5768 75.3435 23.4726 74.9225 23.4726ZM87.7181 21.4824V34.5459H84.9561V24.1041H84.8796L81.888 25.9794V23.53L85.122 21.4824H87.7181ZM100.664 21.4824V34.5459H97.9016V24.1041H97.8251L94.8335 25.9794V23.53L98.0674 21.4824H100.664ZM103.768 34.5459V32.5558L108.418 28.2502C108.814 27.8675 109.146 27.523 109.413 27.2168C109.686 26.9107 109.892 26.6109 110.032 26.3174C110.173 26.0198 110.243 25.6987 110.243 25.3543C110.243 24.9716 110.156 24.642 109.981 24.3656C109.807 24.0849 109.569 23.8702 109.267 23.7213C108.965 23.5682 108.623 23.4917 108.24 23.4917C107.84 23.4917 107.491 23.5725 107.194 23.7341C106.896 23.8957 106.666 24.1274 106.505 24.4294C106.343 24.7313 106.262 25.0906 106.262 25.5074H103.641C103.641 24.6526 103.834 23.9106 104.221 23.2812C104.608 22.6519 105.15 22.1649 105.848 21.8205C106.545 21.4761 107.349 21.3038 108.259 21.3038C109.194 21.3038 110.009 21.4697 110.702 21.8014C111.399 22.1288 111.942 22.5838 112.328 23.1664C112.715 23.749 112.909 24.4166 112.909 25.1693C112.909 25.6626 112.811 26.1495 112.616 26.63C112.424 27.1105 112.082 27.6442 111.589 28.231C111.095 28.8136 110.4 29.5131 109.503 30.3296L107.596 32.1986V32.2879H113.081V34.5459H103.768ZM119.911 34.7245C118.959 34.7245 118.11 34.5608 117.366 34.2333C116.626 33.9017 116.041 33.4466 115.612 32.8683C115.187 32.2857 114.968 31.6138 114.955 30.8527H117.736C117.753 31.1716 117.857 31.4523 118.049 31.6946C118.244 31.9328 118.504 32.1178 118.827 32.2496C119.15 32.3814 119.514 32.4473 119.917 32.4473C120.338 32.4473 120.711 32.3729 121.034 32.2241C121.357 32.0752 121.61 31.869 121.793 31.6053C121.976 31.3417 122.067 31.0376 122.067 30.6932C122.067 30.3445 121.969 30.0362 121.774 29.7683C121.582 29.4961 121.306 29.2835 120.944 29.1304C120.587 28.9773 120.162 28.9008 119.669 28.9008H118.45V26.8724H119.669C120.085 26.8724 120.453 26.8001 120.772 26.6555C121.095 26.5109 121.346 26.3111 121.525 26.0559C121.704 25.7965 121.793 25.4946 121.793 25.1502C121.793 24.8227 121.714 24.5357 121.557 24.289C121.404 24.0381 121.187 23.8425 120.906 23.7022C120.63 23.5619 120.307 23.4917 119.937 23.4917C119.562 23.4917 119.22 23.5597 118.91 23.6958C118.599 23.8276 118.35 24.0169 118.163 24.2635C117.976 24.5102 117.876 24.7993 117.864 25.131H115.216C115.229 24.3783 115.444 23.715 115.861 23.1409C116.277 22.5668 116.839 22.1182 117.545 21.795C118.255 21.4675 119.056 21.3038 119.949 21.3038C120.851 21.3038 121.64 21.4675 122.316 21.795C122.992 22.1224 123.517 22.5647 123.891 23.1217C124.27 23.6746 124.457 24.2954 124.453 24.9843C124.457 25.7157 124.229 26.326 123.77 26.815C123.315 27.304 122.722 27.6144 121.991 27.7463V27.8483C122.952 27.9716 123.683 28.3055 124.185 28.8498C124.691 29.3898 124.942 30.066 124.937 30.8782C124.942 31.6224 124.727 32.2836 124.293 32.8619C123.864 33.4403 123.271 33.8953 122.514 34.227C121.757 34.5587 120.889 34.7245 119.911 34.7245ZM133.053 26.9362V29.0922H127.095V26.9362H133.053ZM135.145 32.2496V30.0745L140.599 21.4824H142.474V24.4932H141.364L137.926 29.9341V30.0362H145.676V32.2496H135.145ZM141.415 34.5459V31.5862L141.466 30.623V21.4824H144.056V34.5459H141.415ZM152.288 34.7245C151.386 34.7245 150.582 34.5587 149.876 34.227C149.175 33.8953 148.618 33.4381 148.205 32.8556C147.793 32.273 147.578 31.6053 147.561 30.8527H150.24C150.27 31.3587 150.482 31.7691 150.878 32.0837C151.273 32.3984 151.743 32.5558 152.288 32.5558C152.721 32.5558 153.104 32.4601 153.436 32.2687C153.772 32.0731 154.033 31.8031 154.22 31.4586C154.412 31.1099 154.507 30.7102 154.507 30.2594C154.507 29.8002 154.409 29.3962 154.214 29.0475C154.023 28.6988 153.757 28.4267 153.417 28.231C153.076 28.0354 152.687 27.9355 152.249 27.9312C151.867 27.9312 151.494 28.0099 151.133 28.1673C150.776 28.3246 150.497 28.5393 150.297 28.8115L147.842 28.3714L148.46 21.4824H156.446V23.7405H150.738L150.399 27.0127H150.476C150.706 26.6895 151.052 26.4216 151.516 26.209C151.979 25.9964 152.498 25.8901 153.072 25.8901C153.859 25.8901 154.56 26.0751 155.177 26.445C155.794 26.815 156.281 27.3231 156.638 27.9695C156.995 28.6116 157.171 29.3516 157.167 30.1893C157.171 31.0695 156.967 31.852 156.555 32.5366C156.147 33.217 155.575 33.7528 154.839 34.144C154.108 34.531 153.257 34.7245 152.288 34.7245ZM164.107 34.7245C163.435 34.7202 162.787 34.6076 162.162 34.3864C161.541 34.1653 160.984 33.806 160.49 33.3084C159.997 32.8109 159.606 32.1518 159.317 31.3311C159.032 30.5103 158.889 29.5025 158.889 28.3076C158.894 27.2105 159.019 26.2303 159.266 25.367C159.517 24.4995 159.874 23.7639 160.337 23.16C160.805 22.5562 161.364 22.0969 162.015 21.7822C162.666 21.4633 163.395 21.3038 164.203 21.3038C165.075 21.3038 165.844 21.4739 166.512 21.8141C167.18 22.1501 167.715 22.6072 168.119 23.1855C168.528 23.7639 168.774 24.4124 168.859 25.131H166.136C166.029 24.676 165.806 24.3188 165.466 24.0594C165.126 23.8 164.705 23.6703 164.203 23.6703C163.352 23.6703 162.706 24.0403 162.264 24.7802C161.826 25.5201 161.602 26.5258 161.594 27.7973H161.683C161.879 27.4103 162.143 27.0808 162.474 26.8086C162.81 26.5322 163.191 26.3217 163.616 26.1771C164.045 26.0283 164.498 25.9539 164.975 25.9539C165.749 25.9539 166.437 26.1367 167.041 26.5024C167.645 26.8639 168.121 27.3614 168.47 27.995C168.819 28.6286 168.993 29.3537 168.993 30.1701C168.993 31.0547 168.787 31.8414 168.374 32.5302C167.966 33.2191 167.394 33.7592 166.659 34.1504C165.927 34.5374 165.077 34.7288 164.107 34.7245ZM164.094 32.5558C164.52 32.5558 164.9 32.4537 165.236 32.2496C165.572 32.0455 165.836 31.7691 166.027 31.4204C166.218 31.0717 166.314 30.6804 166.314 30.2467C166.314 29.8129 166.218 29.4238 166.027 29.0794C165.84 28.735 165.581 28.4607 165.249 28.2566C164.917 28.0524 164.539 27.9504 164.114 27.9504C163.795 27.9504 163.499 28.0099 163.227 28.129C162.959 28.248 162.723 28.4139 162.519 28.6265C162.319 28.8391 162.162 29.0858 162.047 29.3664C161.932 29.6428 161.875 29.9384 161.875 30.2531C161.875 30.6741 161.97 31.0589 162.162 31.4076C162.357 31.7563 162.621 32.0348 162.953 32.2432C163.289 32.4516 163.669 32.5558 164.094 32.5558ZM177.081 26.9362V29.0922H171.124V26.9362H177.081ZM179.362 34.5459L184.777 23.8298V23.7405H178.469V21.4824H187.635V23.7724L182.213 34.5459H179.362ZM194.138 34.7245C193.155 34.7245 192.282 34.565 191.516 34.2461C190.755 33.9229 190.158 33.4828 189.724 32.9257C189.29 32.3687 189.073 31.7372 189.073 31.0313C189.073 30.487 189.196 29.9873 189.443 29.5323C189.694 29.073 190.034 28.6924 190.464 28.3905C190.893 28.0843 191.374 27.8887 191.905 27.8037V27.7144C191.208 27.574 190.642 27.236 190.209 26.7002C189.775 26.1601 189.558 25.5329 189.558 24.8185C189.558 24.1423 189.756 23.5406 190.151 23.0133C190.547 22.4818 191.089 22.065 191.778 21.7631C192.471 21.4569 193.258 21.3038 194.138 21.3038C195.018 21.3038 195.803 21.4569 196.492 21.7631C197.185 22.0693 197.729 22.4881 198.124 23.0197C198.52 23.547 198.72 24.1466 198.724 24.8185C198.72 25.5371 198.499 26.1644 198.061 26.7002C197.623 27.236 197.061 27.574 196.377 27.7144V27.8037C196.9 27.8887 197.374 28.0843 197.799 28.3905C198.229 28.6924 198.569 29.073 198.82 29.5323C199.075 29.9873 199.205 30.487 199.209 31.0313C199.205 31.7372 198.986 32.3687 198.552 32.9257C198.118 33.4828 197.518 33.9229 196.753 34.2461C195.992 34.565 195.12 34.7245 194.138 34.7245ZM194.138 32.6961C194.576 32.6961 194.959 32.6174 195.286 32.4601C195.613 32.2985 195.869 32.0774 196.051 31.7967C196.238 31.5118 196.332 31.1844 196.332 30.8144C196.332 30.4359 196.236 30.1021 196.045 29.8129C195.854 29.5195 195.594 29.2899 195.267 29.124C194.939 28.954 194.563 28.8689 194.138 28.8689C193.717 28.8689 193.34 28.954 193.009 29.124C192.677 29.2899 192.416 29.5195 192.224 29.8129C192.037 30.1021 191.944 30.4359 191.944 30.8144C191.944 31.1844 192.035 31.5118 192.218 31.7967C192.401 32.0774 192.658 32.2985 192.99 32.4601C193.321 32.6174 193.704 32.6961 194.138 32.6961ZM194.138 26.8596C194.504 26.8596 194.829 26.7852 195.114 26.6364C195.399 26.4875 195.622 26.2813 195.783 26.0176C195.945 25.754 196.026 25.45 196.026 25.1055C196.026 24.7653 195.945 24.4676 195.783 24.2125C195.622 23.9531 195.401 23.7511 195.12 23.6065C194.839 23.4577 194.512 23.3833 194.138 23.3833C193.768 23.3833 193.44 23.4577 193.155 23.6065C192.871 23.7511 192.647 23.9531 192.486 24.2125C192.328 24.4676 192.25 24.7653 192.25 25.1055C192.25 25.45 192.331 25.754 192.492 26.0176C192.654 26.2813 192.877 26.4875 193.162 26.6364C193.447 26.7852 193.772 26.8596 194.138 26.8596ZM205.867 21.3038C206.538 21.3038 207.185 21.4165 207.806 21.6419C208.431 21.8673 208.988 22.2266 209.477 22.7199C209.97 23.2132 210.359 23.868 210.644 24.6845C210.933 25.4967 211.08 26.4939 211.084 27.6761C211.084 28.786 210.959 29.7768 210.708 30.6485C210.461 31.516 210.106 32.2538 209.643 32.8619C209.179 33.47 208.62 33.9335 207.965 34.2525C207.31 34.5672 206.579 34.7245 205.771 34.7245C204.899 34.7245 204.129 34.5565 203.462 34.2206C202.794 33.8804 202.256 33.419 201.848 32.8364C201.444 32.2496 201.2 31.5905 201.114 30.859H203.838C203.944 31.3353 204.168 31.7053 204.508 31.9689C204.848 32.2283 205.269 32.358 205.771 32.358C206.621 32.358 207.268 31.9881 207.71 31.2481C208.152 30.504 208.375 29.4855 208.38 28.1928H208.29C208.095 28.5755 207.831 28.905 207.499 29.1815C207.168 29.4536 206.787 29.6641 206.358 29.8129C205.932 29.9618 205.48 30.0362 204.999 30.0362C204.229 30.0362 203.543 29.8555 202.939 29.494C202.335 29.1326 201.859 28.635 201.51 28.0014C201.161 27.3678 200.987 26.6449 200.987 25.8327C200.983 24.9567 201.185 24.1763 201.593 23.4917C202.001 22.8071 202.571 22.2713 203.302 21.8843C204.038 21.4931 204.893 21.2996 205.867 21.3038ZM205.886 23.4726C205.456 23.4726 205.073 23.5746 204.738 23.7787C204.406 23.9829 204.142 24.2571 203.947 24.6016C203.755 24.946 203.662 25.3309 203.666 25.7561C203.666 26.1856 203.759 26.5726 203.947 26.917C204.138 27.2572 204.397 27.5294 204.725 27.7335C205.056 27.9334 205.435 28.0333 205.86 28.0333C206.179 28.0333 206.475 27.9738 206.747 27.8547C207.019 27.7356 207.255 27.5719 207.455 27.3635C207.659 27.1509 207.818 26.9064 207.933 26.63C208.048 26.3536 208.105 26.0602 208.105 25.7497C208.101 25.3373 208.003 24.9588 207.812 24.6143C207.621 24.2699 207.357 23.9935 207.021 23.7851C206.685 23.5768 206.307 23.4726 205.886 23.4726ZM218.12 34.8329C217.023 34.8287 216.079 34.5587 215.288 34.0228C214.501 33.487 213.895 32.711 213.47 31.6946C213.049 30.6783 212.841 29.4557 212.845 28.0269C212.845 26.6024 213.055 25.3883 213.476 24.3847C213.902 23.3811 214.507 22.6178 215.294 22.0948C216.085 21.5675 217.027 21.3038 218.12 21.3038C219.213 21.3038 220.153 21.5675 220.939 22.0948C221.73 22.6221 222.338 23.3875 222.764 24.3911C223.189 25.3904 223.399 26.6024 223.395 28.0269C223.395 29.46 223.182 30.6847 222.757 31.701C222.336 32.7174 221.732 33.4934 220.946 34.0292C220.159 34.565 219.217 34.8329 218.12 34.8329ZM218.12 32.543C218.868 32.543 219.466 32.1667 219.912 31.414C220.359 30.6613 220.58 29.5323 220.576 28.0269C220.576 27.0361 220.474 26.2111 220.27 25.552C220.07 24.8929 219.785 24.3975 219.415 24.0658C219.049 23.7341 218.617 23.5683 218.12 23.5683C217.376 23.5683 216.78 23.9403 216.334 24.6845C215.887 25.4287 215.662 26.5428 215.658 28.0269C215.658 29.0305 215.758 29.8682 215.958 30.5401C216.162 31.2077 216.449 31.7095 216.819 32.0455C217.189 32.3772 217.622 32.543 218.12 32.543Z" fill="#4D4D4D"/>
<circle cx="26" cy="26" r="26" fill="#FFD05B"/>
<g clip-path="url(#clip0_1525_5587)">
<path d="M6.74624 28.8601C6.78371 28.1395 6.67228 27.2456 6.7985 26.3595C6.97698 25.1024 7.65343 24.1733 8.76277 23.5604C8.84922 23.5231 8.92226 23.4607 8.97226 23.3813C9.02225 23.302 9.04685 23.2094 9.04282 23.1159C9.22191 19.9428 10.3394 16.8925 12.2556 14.3467C14.1718 11.8009 16.8015 9.87259 19.8158 8.8031C28.944 5.55557 38.9271 10.9923 41.1053 20.4049C41.3153 21.3089 41.4408 22.2302 41.4801 23.1571C41.4759 23.2394 41.4972 23.321 41.541 23.391C41.5849 23.461 41.6493 23.516 41.7256 23.5487C43.0647 24.2879 43.75 25.4314 43.7707 26.947C43.7895 28.3177 43.7835 29.6815 43.7707 31.0492C43.7579 32.5805 43.0805 33.7377 41.7305 34.4877C41.6545 34.5213 41.5911 34.578 41.5495 34.6496C41.5079 34.7211 41.4901 34.8039 41.4988 34.8861C41.483 35.7673 41.5796 36.6485 41.4337 37.5179C41.2342 38.7643 40.5955 39.9 39.6313 40.7224C38.6671 41.5449 37.4401 42.0008 36.169 42.0088C35.3703 42.0205 34.5706 42.0166 33.7718 42.0088C33.5687 42.0088 33.4583 42.0519 33.3557 42.2545C32.8558 43.2463 32.0373 43.7691 30.9122 43.7828C30.0149 43.7933 29.1172 43.7933 28.2192 43.7828C26.7154 43.7642 25.5765 42.6638 25.5242 41.1932C25.4739 39.7687 26.5655 38.5723 28.0506 38.4861C29.0943 38.423 30.1409 38.425 31.1843 38.492C32.1852 38.5586 32.91 39.0892 33.3449 39.9763C33.4573 40.2063 33.5736 40.27 33.8083 40.2573C34.7658 40.2201 35.7272 40.3238 36.6818 40.1956C37.5028 40.0755 38.2559 39.6747 38.8112 39.0624C39.3666 38.4501 39.6893 37.6646 39.7238 36.8413C39.7416 36.2803 39.7238 35.7183 39.7376 35.1573C39.7426 34.9723 39.6775 34.9243 39.502 34.8822C38.1865 34.565 37.4894 33.68 37.4874 32.3367C37.4874 30.1266 37.4874 27.9169 37.4874 25.7075C37.4874 24.3701 38.1678 23.5076 39.4753 23.1747C39.642 23.1326 39.71 23.0895 39.6933 22.8898C39.1302 16.4985 34.5913 11.3252 28.3336 9.95741C20.9074 8.32141 13.3845 12.8182 11.3226 20.1112C11.0744 21.0168 10.9094 21.9428 10.8296 22.878C10.8138 23.0435 10.8464 23.1042 11.015 23.1512C12.43 23.5428 13.0384 24.3456 13.0394 25.8034C13.0394 28.0004 13.0473 30.1984 13.0394 32.3954C13.0325 33.8327 12.009 34.9106 10.6334 34.9175C9.09509 34.9243 7.95616 34.2204 7.20377 32.9026C6.89333 32.3441 6.7359 31.7145 6.74722 31.0766C6.74525 30.3962 6.74624 29.7128 6.74624 28.8601ZM39.2584 29.0147C39.2584 30.124 39.2584 31.2333 39.2584 32.3435C39.2584 32.9564 39.5375 33.2022 40.1548 33.1581C40.6488 33.114 41.1092 32.8907 41.4481 32.531C41.7869 32.1713 41.9805 31.7002 41.9918 31.2078C42.0175 29.7458 42.0175 28.2834 41.9918 26.8207C41.9792 26.3283 41.7849 25.8576 41.446 25.4979C41.107 25.1382 40.6468 24.9146 40.1528 24.8694C39.5365 24.8273 39.2653 25.075 39.2574 25.6889C39.2554 26.7972 39.2584 27.9065 39.2584 29.0147ZM11.2615 29.0059C11.2615 27.8839 11.2615 26.7629 11.2615 25.6419C11.2615 25.0956 10.9795 24.8449 10.4302 24.8655C9.92254 24.8956 9.44486 25.1144 9.09222 25.4783C8.73959 25.8423 8.53784 26.3246 8.5271 26.8295C8.50442 28.2912 8.50245 29.7549 8.5271 31.2166C8.54081 31.7089 8.73658 32.1789 9.07705 32.537C9.41752 32.8951 9.87887 33.1162 10.373 33.1581C10.9854 33.1992 11.2605 32.9506 11.2605 32.3328C11.2645 31.2235 11.2615 30.1142 11.2615 29.0059ZM29.5396 42.0186C30.006 42.0186 30.4714 42.0274 30.9378 42.0186C31.4614 42.0068 31.8302 41.6485 31.845 41.158C31.8541 41.0389 31.838 40.9192 31.7979 40.8066C31.7578 40.694 31.6945 40.5909 31.612 40.5039C31.5295 40.417 31.4297 40.348 31.3189 40.3015C31.2081 40.255 31.0887 40.2319 30.9684 40.2338C30.0375 40.2161 29.1057 40.2161 28.1728 40.2338C28.0557 40.2324 27.9395 40.2546 27.8313 40.2991C27.723 40.3436 27.625 40.4094 27.5431 40.4926C27.4613 40.5758 27.3973 40.6747 27.355 40.7831C27.3127 40.8916 27.2931 41.0075 27.2972 41.1237C27.2972 41.6319 27.6768 42.0049 28.2153 42.0166C28.656 42.0264 29.0978 42.0186 29.5396 42.0186Z" fill="#4D4D4D"/>
<path d="M25.2507 16.4047C27.1322 16.4047 29.0136 16.3979 30.8951 16.4047C32.7933 16.4135 34.2724 17.5796 34.6629 19.3801C34.7211 19.6675 34.7489 19.9602 34.7457 20.2534C34.7516 22.6952 34.7576 25.1369 34.7457 27.5787C34.7359 29.4771 33.6048 30.9192 31.821 31.3451C31.4852 31.4201 31.1416 31.4553 30.7974 31.4499C29.3183 31.4499 27.8461 31.4558 26.3699 31.444C26.2561 31.4388 26.1425 31.4589 26.0374 31.5028C25.9323 31.5466 25.8384 31.6132 25.7625 31.6976C24.7932 32.6698 23.814 33.6312 22.8348 34.5927C22.1899 35.2261 21.4356 35.4111 20.7256 35.0949C19.9308 34.7395 19.5857 34.0982 19.5886 33.2504C19.5886 32.7501 19.5768 32.2488 19.5945 31.7485C19.6034 31.5174 19.5374 31.4548 19.2987 31.4293C17.5179 31.2599 16.2221 30.1448 15.8583 28.4706C15.7978 28.159 15.7697 27.8421 15.7745 27.5248C15.7679 25.119 15.7679 22.7138 15.7745 20.3092C15.7745 18.3628 16.938 16.8825 18.7652 16.483C19.0792 16.4216 19.3989 16.3947 19.7188 16.4028L25.2507 16.4047ZM25.2655 18.167C23.3851 18.167 21.5046 18.167 19.6241 18.167C18.3925 18.167 17.5534 18.9787 17.5534 20.2025C17.5386 22.6795 17.5534 25.1565 17.5534 27.6335C17.5549 27.7435 17.5628 27.8534 17.577 27.9625C17.6258 28.3768 17.8077 28.7645 18.0958 29.0682C18.3839 29.3718 18.7628 29.5753 19.1765 29.6484C19.5798 29.7248 19.985 29.6827 20.3903 29.6925C21.0313 29.7081 21.3636 30.0283 21.3685 30.6647C21.3744 31.4949 21.3685 32.3291 21.3685 33.1544C21.3685 33.2465 21.3123 33.3757 21.407 33.4246C21.5342 33.4912 21.5933 33.3444 21.6634 33.2749C22.7293 32.2282 23.8002 31.1855 24.8504 30.1233C24.9873 29.9768 25.1548 29.8619 25.3411 29.7864C25.5274 29.711 25.7282 29.6769 25.9292 29.6866C27.5513 29.7042 29.1744 29.6954 30.7965 29.6935C32.1592 29.6935 32.9787 28.8857 32.9806 27.5337C32.9852 25.1304 32.9852 22.7265 32.9806 20.3219C32.9806 18.963 32.1691 18.168 30.8004 18.168L25.2655 18.167Z" fill="#4D4D4D"/>
<path d="M39.2569 29.0151C39.2569 27.9068 39.2569 26.7976 39.2569 25.6863C39.2569 25.0725 39.536 24.8248 40.1523 24.8669C40.6463 24.912 41.1065 25.1357 41.4455 25.4953C41.7845 25.855 41.9787 26.3257 41.9913 26.8181C42.017 28.2802 42.017 29.7426 41.9913 31.2053C41.98 31.6977 41.7864 32.1687 41.4476 32.5284C41.1087 32.8882 40.6483 33.1114 40.1543 33.1556C39.537 33.1996 39.2599 32.9539 39.2579 32.341C39.254 31.2337 39.2569 30.1244 39.2569 29.0151Z" fill="#4D4D4D"/>
<path d="M11.2614 29.0058C11.2614 30.1141 11.2614 31.2234 11.2614 32.3346C11.2614 32.9524 10.9863 33.2011 10.374 33.16C9.87979 33.1181 9.41845 32.897 9.07797 32.5389C8.7375 32.1808 8.54173 31.7108 8.52802 31.2185C8.5014 29.7568 8.50337 28.2931 8.52802 26.8314C8.53876 26.3265 8.74051 25.8441 9.09315 25.4802C9.44578 25.1163 9.92346 24.8975 10.4312 24.8674C10.9804 24.8468 11.2595 25.0975 11.2624 25.6438C11.2664 26.7628 11.2614 27.8838 11.2614 29.0058Z" fill="#4D4D4D"/>
<path d="M29.5398 42.0187C29.098 42.0187 28.6523 42.0266 28.2155 42.0187C27.6771 42.007 27.3023 41.634 27.2974 41.1258C27.2933 41.0096 27.3129 40.8937 27.3552 40.7853C27.3975 40.6768 27.4615 40.5779 27.5433 40.4947C27.6252 40.4115 27.7232 40.3457 27.8315 40.3012C27.9397 40.2567 28.0559 40.2345 28.1731 40.2359C29.1052 40.2163 30.0371 40.2163 30.9686 40.2359C31.0891 40.2339 31.2086 40.2569 31.3196 40.3034C31.4306 40.3499 31.5306 40.4189 31.6132 40.506C31.6958 40.5931 31.7592 40.6963 31.7993 40.8091C31.8395 40.9219 31.8554 41.0418 31.8462 41.1611C31.8314 41.6506 31.4626 42.0099 30.939 42.0217C30.4716 42.0276 30.0062 42.0187 29.5398 42.0187Z" fill="#4D4D4D"/>
<path d="M25.2653 18.1653H30.7963C32.165 18.1653 32.9745 18.9632 32.9765 20.3192C32.9804 22.7231 32.9804 25.127 32.9765 27.5309C32.9765 28.883 32.1551 29.6849 30.7923 29.6907C29.1702 29.6907 27.5471 29.7015 25.925 29.6839C25.7235 29.6743 25.5222 29.7087 25.3355 29.7846C25.1488 29.8606 24.9811 29.9762 24.8443 30.1235C23.7941 31.1857 22.7232 32.2284 21.6572 33.2751C21.5872 33.3446 21.5281 33.4914 21.4009 33.4248C21.3023 33.3759 21.3624 33.2467 21.3624 33.1546C21.3624 32.3244 21.3624 31.4902 21.3624 30.6649C21.3624 30.0285 21.0252 29.7083 20.3842 29.6927C19.9789 29.6829 19.5737 29.725 19.1703 29.6486C18.7567 29.5755 18.3778 29.372 18.0897 29.0684C17.8016 28.7647 17.6197 28.377 17.5709 27.9627C17.5567 27.8536 17.5488 27.7437 17.5473 27.6337C17.5473 25.1567 17.5354 22.6797 17.5473 20.2027C17.5542 18.9789 18.3904 18.1711 19.618 18.1672C21.5044 18.1604 23.3849 18.1653 25.2653 18.1653ZM25.2772 22.7668C25.0184 22.7636 24.7644 22.8365 24.5473 22.9764C24.3302 23.1162 24.1597 23.3168 24.0572 23.5528C23.9548 23.7887 23.925 24.0495 23.9716 24.3023C24.0182 24.555 24.1391 24.7884 24.3192 24.973C24.4992 25.1576 24.7302 25.2852 24.9832 25.3396C25.2361 25.394 25.4996 25.3728 25.7404 25.2787C25.9813 25.1847 26.1887 25.0219 26.3364 24.811C26.4842 24.6 26.5658 24.3504 26.5709 24.0935C26.5733 23.748 26.4392 23.4154 26.1973 23.1672C25.9553 22.9189 25.625 22.7748 25.2772 22.7659V22.7668ZM22.2597 24.0543C22.2558 23.7989 22.1759 23.5504 22.0301 23.34C21.8842 23.1296 21.679 22.9668 21.4401 22.872C21.2013 22.7772 20.9395 22.7547 20.6878 22.8073C20.4361 22.8599 20.2056 22.9853 20.0255 23.1677C19.8454 23.35 19.7237 23.5812 19.6756 23.8321C19.6276 24.083 19.6554 24.3424 19.7555 24.5777C19.8556 24.8129 20.0236 25.0135 20.2383 25.1542C20.453 25.2949 20.7048 25.3693 20.9621 25.3682C21.1343 25.3667 21.3045 25.3314 21.463 25.2645C21.6215 25.1975 21.7651 25.1002 21.8856 24.978C22.0062 24.8559 22.1013 24.7114 22.1655 24.5527C22.2297 24.394 22.2617 24.2243 22.2597 24.0533V24.0543ZM30.8673 24.0768C30.8678 23.8216 30.7924 23.572 30.6504 23.3592C30.5085 23.1465 30.3064 22.9802 30.0695 22.8811C29.8326 22.7821 29.5715 22.7548 29.319 22.8027C29.0666 22.8506 28.834 22.9715 28.6506 23.1503C28.4671 23.329 28.341 23.5576 28.288 23.8073C28.2351 24.0571 28.2577 24.3167 28.3529 24.5538C28.4482 24.7908 28.6119 24.9945 28.8234 25.1395C29.035 25.2844 29.285 25.3639 29.542 25.3682C29.8899 25.3698 30.2243 25.2349 30.4725 24.9928C30.7207 24.7508 30.8626 24.4212 30.8673 24.0758V24.0768Z" fill="#FFD05B"/>
<path d="M25.2775 22.7661C25.5363 22.7696 25.7882 22.8491 26.0016 22.9946C26.2149 23.14 26.3801 23.3449 26.4763 23.5835C26.5725 23.8221 26.5954 24.0835 26.5422 24.335C26.4889 24.5865 26.3618 24.8166 26.177 24.9965C25.9921 25.1763 25.7578 25.2978 25.5035 25.3456C25.2492 25.3934 24.9863 25.3654 24.7481 25.2651C24.5098 25.1647 24.3068 24.9966 24.1646 24.7819C24.0225 24.5671 23.9475 24.3154 23.9492 24.0585C23.9567 23.7135 24.0999 23.3851 24.3481 23.1435C24.5964 22.902 24.9299 22.7665 25.2775 22.7661Z" fill="#4D4D4D"/>
<path d="M22.2595 24.0527C22.2609 24.3081 22.1861 24.5581 22.0445 24.7714C21.903 24.9847 21.7011 25.1516 21.4643 25.2512C21.2274 25.3508 20.9661 25.3786 20.7134 25.3311C20.4606 25.2835 20.2277 25.1628 20.0439 24.9842C19.8601 24.8055 19.7337 24.5768 19.6805 24.3269C19.6273 24.077 19.6498 23.8171 19.7451 23.5799C19.8404 23.3427 20.0042 23.1387 20.216 22.9938C20.4278 22.8488 20.678 22.7693 20.9352 22.7652C21.2827 22.7618 21.6174 22.8955 21.8657 23.1369C22.114 23.3783 22.2556 23.7076 22.2595 24.0527Z" fill="#4D4D4D"/>
<path d="M30.8671 24.0758C30.8646 24.2457 30.8284 24.4135 30.7605 24.5696C30.6927 24.7257 30.5945 24.867 30.4717 24.9854C30.3489 25.1038 30.2037 25.197 30.0446 25.2598C29.8855 25.3225 29.7155 25.3535 29.5443 25.351C29.3731 25.3485 29.2041 25.3125 29.0469 25.2451C28.8897 25.1778 28.7474 25.0803 28.6281 24.9584C28.5089 24.8364 28.415 24.6923 28.3518 24.5343C28.2886 24.3763 28.2574 24.2075 28.2599 24.0376C28.265 23.6943 28.4072 23.3671 28.6553 23.1279C28.9034 22.8888 29.237 22.7573 29.5827 22.7623C29.9285 22.7674 30.258 22.9086 30.4989 23.1549C30.7398 23.4013 30.8722 23.7325 30.8671 24.0758Z" fill="#4D4D4D"/>
</g>
<defs>
<clipPath id="clip0_1525_5587">
<rect width="37.0472" height="35.9245" fill="white" transform="translate(6.73633 7.8584)"/>
</clipPath>
</defs>
</svg>
