<svg width="84" height="84" viewBox="0 0 84 84" fill="none" xmlns="http://www.w3.org/2000/svg">
<rect x="36" y="27" width="11" height="41" fill="#4D4D4D"/>
<path d="M45.5 45.5C45.5 47.433 43.933 49 42 49V49C40.067 49 38.5 47.433 38.5 45.5V35C38.5 33.067 40.067 31.5 42 31.5V31.5C43.933 31.5 45.5 33.067 45.5 35V45.5ZM45.5 59.5C45.5 61.433 43.933 63 42 63V63C40.067 63 38.5 61.433 38.5 59.5V59.5C38.5 57.567 40.067 56 42 56V56C43.933 56 45.5 57.567 45.5 59.5V59.5ZM6.97608 67.4959C5.43222 70.1625 7.35646 73.5 10.4378 73.5H73.5622C76.6435 73.5 78.5678 70.1625 77.0239 67.4959L45.4617 12.9793C43.921 10.3182 40.079 10.3182 38.5383 12.9793L6.97608 67.4959Z" fill="#FFD05B"/>
</svg>
