<svg width="75" height="75" viewBox="0 0 75 75" fill="none"
    xmlns="http://www.w3.org/2000/svg">
    <rect width="75" height="75" rx="7" fill="#D0D7D9"/>
    <path d="M37 35H42.5L37 29.5V35ZM30 28H38L44 34V46C44 46.5304 43.7893 47.0391 43.4142 47.4142C43.0391 47.7893 42.5304 48 42 48H30C28.89 48 28 47.1 28 46V30C28 28.89 28.89 28 30 28ZM30 46H39H42V38L38 42L36 40L30 46ZM32 35C31.4696 35 30.9609 35.2107 30.5858 35.5858C30.2107 35.9609 30 36.4696 30 37C30 37.5304 30.2107 38.0391 30.5858 38.4142C30.9609 38.7893 31.4696 39 32 39C32.5304 39 33.0391 38.7893 33.4142 38.4142C33.7893 38.0391 34 37.5304 34 37C34 36.4696 33.7893 35.9609 33.4142 35.5858C33.0391 35.2107 32.5304 35 32 35Z" fill="#666F73"/>
    <circle cx="37" cy="37" r="23" fill="#FFD05B"/>
    <path d="M50.112 38.8725H38.8734V50.1112H35.1272V38.8725H23.8885V35.1263H35.1272V23.8877H38.8734V35.1263H50.112V38.8725Z" fill="#666F73"/>
</svg>
