<svg width="807" height="778" viewBox="0 0 807 778" fill="none" xmlns="http://www.w3.org/2000/svg">
<rect x="259.816" y="294.461" width="75.5835" height="401.537" fill="#E6E6E6"/>
<path d="M759.771 695.998L744.025 373.193H688.124L669.229 695.998H759.771Z" fill="#F0F0F0"/>
<path d="M646.398 695.998L630.652 373.193H574.751L555.855 695.998H646.398Z" fill="#F0F0F0"/>
<path d="M4.72363 384.217V695.211H143.293V525.148L112.588 547.194V517.275L43.3027 547.194V384.217H4.72363Z" fill="#F0F0F0"/>
<rect x="92.9033" y="607.816" width="48.8143" height="74.0088" rx="9.44793" fill="#E6E6E6"/>
<rect x="100.777" y="678.678" width="4.72397" height="17.3212" fill="#E6E6E6"/>
<rect x="114.948" y="678.678" width="4.72397" height="17.3212" fill="#E6E6E6"/>
<rect x="129.122" y="678.678" width="4.72397" height="17.3212" fill="#E6E6E6"/>
<rect x="122.821" y="472.398" width="72.4342" height="223.601" fill="#E6E6E6"/>
<rect x="195.257" y="409.412" width="64.5609" height="286.587" fill="#E6E6E6"/>
<rect x="267.69" y="275.562" width="61.4116" height="18.8959" fill="#E6E6E6"/>
<path d="M361.383 451.928H335.401V695.999H411.772V451.928H387.365V468.462H373.193V526.724H361.383V451.928Z" fill="#E6E6E6"/>
<rect x="33.0635" y="607.816" width="48.8143" height="74.0088" rx="9.44793" fill="#E6E6E6"/>
<rect x="40.9375" y="678.678" width="4.72397" height="17.3212" fill="#E6E6E6"/>
<rect x="55.1084" y="678.678" width="4.72397" height="17.3212" fill="#E6E6E6"/>
<rect x="69.2822" y="678.678" width="4.72397" height="17.3212" fill="#E6E6E6"/>
<rect x="410.985" y="401.539" width="70.8595" height="294.461" fill="#E6E6E6"/>
<rect x="423.582" y="366.896" width="44.0904" height="34.6424" fill="#E6E6E6"/>
<rect x="443.773" y="352.166" width="5.9487" height="19.0358" fill="#E6E6E6"/>
<rect x="481.845" y="447.203" width="39.3664" height="248.796" fill="#E6E6E6"/>
<path d="M445.627 662.931V695.211H567.663V580.261H556.64V521.212H540.894V398.389H524.36V513.339H508.613V558.216H483.419V606.243H456.65V662.931H445.627Z" fill="#E6E6E6"/>
<rect x="587.346" y="640.883" width="102.353" height="55.1129" rx="7.13844" fill="#E0E0E0"/>
<rect x="703.871" y="640.883" width="102.353" height="55.1129" rx="7.13844" fill="#E0E0E0"/>
<rect x="681.827" y="357.447" width="67.7102" height="17.3212" fill="#D9D9D9"/>
<rect x="568.449" y="357.447" width="67.7102" height="17.3212" fill="#D9D9D9"/>
<path d="M245.438 304.477C263.857 304.477 278.789 289.545 278.789 271.125C278.789 252.706 263.857 237.773 245.438 237.773C227.018 237.773 212.086 252.706 212.086 271.125C212.086 289.545 227.018 304.477 245.438 304.477Z" fill="#F5F5F5"/>
<path d="M204.894 299.242C217.173 299.242 227.128 289.288 227.128 277.008C227.128 264.728 217.173 254.773 204.894 254.773C192.614 254.773 182.659 264.728 182.659 277.008C182.659 289.288 192.614 299.242 204.894 299.242Z" fill="#F5F5F5"/>
<path d="M280.752 299.247C292.671 299.247 302.333 289.585 302.333 277.666C302.333 265.748 292.671 256.086 280.752 256.086C268.834 256.086 259.172 265.748 259.172 277.666C259.172 289.585 268.834 299.247 280.752 299.247Z" fill="#F5F5F5"/>
<path d="M87.6361 160.921C99.0272 160.921 108.262 151.686 108.262 140.295C108.262 128.904 99.0272 119.67 87.6361 119.67C76.2451 119.67 67.0107 128.904 67.0107 140.295C67.0107 151.686 76.2451 160.921 87.6361 160.921Z" fill="#F5F5F5"/>
<path d="M62.5628 157.686C70.1568 157.686 76.313 151.53 76.313 143.936C76.313 136.342 70.1568 130.186 62.5628 130.186C54.9687 130.186 48.8125 136.342 48.8125 143.936C48.8125 151.53 54.9687 157.686 62.5628 157.686Z" fill="#F5F5F5"/>
<path d="M109.475 157.684C116.845 157.684 122.821 151.709 122.821 144.338C122.821 136.967 116.845 130.992 109.475 130.992C102.104 130.992 96.1289 136.967 96.1289 144.338C96.1289 151.709 102.104 157.684 109.475 157.684Z" fill="#F5F5F5"/>
<path d="M230.177 66.1355C248.44 66.1355 263.245 51.3306 263.245 33.0678C263.245 14.8049 248.44 0 230.177 0C211.914 0 197.109 14.8049 197.109 33.0678C197.109 51.3306 211.914 66.1355 230.177 66.1355Z" fill="#F5F5F5"/>
<path d="M189.976 60.9497C202.151 60.9497 212.021 51.0798 212.021 38.9045C212.021 26.7293 202.151 16.8594 189.976 16.8594C177.801 16.8594 167.931 26.7293 167.931 38.9045C167.931 51.0798 177.801 60.9497 189.976 60.9497Z" fill="#F5F5F5"/>
<path d="M265.189 60.9518C277.006 60.9518 286.586 51.3721 286.586 39.555C286.586 27.7379 277.006 18.1582 265.189 18.1582C253.372 18.1582 243.792 27.7379 243.792 39.555C243.792 51.3721 253.372 60.9518 265.189 60.9518Z" fill="#F5F5F5"/>
<path d="M470.466 254.859C485.977 254.859 498.552 242.285 498.552 226.773C498.552 211.262 485.977 198.688 470.466 198.688C454.954 198.688 442.38 211.262 442.38 226.773C442.38 242.285 454.954 254.859 470.466 254.859Z" fill="#F5F5F5"/>
<path d="M436.322 250.454C446.663 250.454 455.045 242.071 455.045 231.73C455.045 221.389 446.663 213.006 436.322 213.006C425.981 213.006 417.598 221.389 417.598 231.73C417.598 242.071 425.981 250.454 436.322 250.454Z" fill="#F5F5F5"/>
<path d="M500.202 250.456C510.238 250.456 518.375 242.319 518.375 232.283C518.375 222.246 510.238 214.109 500.202 214.109C490.165 214.109 482.028 222.246 482.028 232.283C482.028 242.319 490.165 250.456 500.202 250.456Z" fill="#F5F5F5"/>
<path d="M610.067 77.9355C619.762 77.9355 627.621 70.0764 627.621 60.3818C627.621 50.6872 619.762 42.8281 610.067 42.8281C600.373 42.8281 592.514 50.6872 592.514 60.3818C592.514 70.0764 600.373 77.9355 610.067 77.9355Z" fill="#F5F5F5"/>
<path d="M588.726 75.1822C595.189 75.1822 600.428 69.9429 600.428 63.4798C600.428 57.0167 595.189 51.7773 588.726 51.7773C582.263 51.7773 577.023 57.0167 577.023 63.4798C577.023 69.9429 582.263 75.1822 588.726 75.1822Z" fill="#F5F5F5"/>
<path d="M628.651 75.1833C634.924 75.1833 640.009 70.0981 640.009 63.8251C640.009 57.5521 634.924 52.4668 628.651 52.4668C622.378 52.4668 617.293 57.5521 617.293 63.8251C617.293 70.0981 622.378 75.1833 628.651 75.1833Z" fill="#F5F5F5"/>
<path d="M706.699 171.983C715.424 171.983 722.497 164.91 722.497 156.185C722.497 147.46 715.424 140.387 706.699 140.387C697.974 140.387 690.9 147.46 690.9 156.185C690.9 164.91 697.974 171.983 706.699 171.983Z" fill="#F5F5F5"/>
<path d="M687.494 169.506C693.311 169.506 698.026 164.79 698.026 158.974C698.026 153.157 693.311 148.441 687.494 148.441C681.677 148.441 676.962 153.157 676.962 158.974C676.962 164.79 681.677 169.506 687.494 169.506Z" fill="#F5F5F5"/>
<path d="M723.426 169.507C729.071 169.507 733.648 164.931 733.648 159.285C733.648 153.639 729.071 149.062 723.426 149.062C717.78 149.062 713.203 153.639 713.203 159.285C713.203 164.931 717.78 169.507 723.426 169.507Z" fill="#F5F5F5"/>
<ellipse rx="16.8944" ry="14.4232" transform="matrix(0.868647 -0.495432 0.503084 0.864238 36.3307 271.208)" fill="#E0E0E0"/>
<ellipse rx="13.3932" ry="11.6581" transform="matrix(0.868647 -0.495432 0.503084 0.864238 17.4989 285.264)" fill="#E0E0E0"/>
<ellipse rx="15.6294" ry="11.6305" transform="matrix(0.990784 -0.135452 0.138193 0.990405 37.7723 291.642)" fill="#E0E0E0"/>
<path d="M31.3662 283.436C34.4796 285.566 33.0245 292.991 28.1161 300.022C23.2077 307.052 12.6578 309.193 9.54441 307.064C6.43101 304.934 11.9332 299.34 16.8415 292.309C21.7499 285.279 28.2528 281.306 31.3662 283.436Z" fill="#E0E0E0"/>
<ellipse rx="12.6358" ry="11.3545" transform="matrix(0.845403 -0.53413 0.465175 0.885219 739.1 297.581)" fill="#E0E0E0"/>
<ellipse rx="10.0171" ry="9.17766" transform="matrix(0.845403 -0.53413 0.465175 0.885219 725.391 308.916)" fill="#E0E0E0"/>
<ellipse rx="11.4005" ry="9.36163" transform="matrix(0.988726 -0.149735 0.124972 0.99216 740.148 314.058)" fill="#E0E0E0"/>
<path d="M735.485 307.443C737.751 309.16 736.692 315.148 733.119 320.817C729.546 326.486 721.866 328.212 719.6 326.495C717.334 324.778 721.339 320.267 724.912 314.598C728.485 308.929 733.218 305.725 735.485 307.443Z" fill="#E0E0E0"/>
<ellipse rx="12.2503" ry="10.4584" transform="matrix(0.868647 -0.495432 0.503084 0.864238 60.9857 320.594)" fill="#E0E0E0"/>
<ellipse rx="9.71153" ry="8.4534" transform="matrix(0.868647 -0.495432 0.503084 0.864238 47.3283 330.785)" fill="#E0E0E0"/>
<ellipse rx="11.333" ry="8.43339" transform="matrix(0.990784 -0.135452 0.138193 0.990405 62.0288 335.405)" fill="#E0E0E0"/>
<path d="M57.3839 329.46C59.6415 331.004 58.5864 336.389 55.0273 341.486C51.4682 346.584 43.8183 348.137 41.5607 346.592C39.3032 345.048 43.2928 340.992 46.8519 335.894C50.4111 330.796 55.1264 327.915 57.3839 329.46Z" fill="#E0E0E0"/>
<ellipse rx="8.86518" ry="7.25228" transform="matrix(0.885868 -0.463938 0.535426 0.844582 752.324 333.848)" fill="#E0E0E0"/>
<ellipse rx="7.02795" ry="5.86191" transform="matrix(0.885868 -0.463938 0.535426 0.844582 742.245 340.751)" fill="#E0E0E0"/>
<ellipse rx="8.35194" ry="5.72517" transform="matrix(0.992213 -0.124555 0.150233 0.988651 753.095 343.884)" fill="#E0E0E0"/>
<path d="M749.666 339.853C751.332 340.899 750.553 344.548 747.926 348.003C745.3 351.457 739.654 352.51 737.988 351.463C736.322 350.417 739.266 347.668 741.893 344.213C744.519 340.758 747.999 338.806 749.666 339.853Z" fill="#E0E0E0"/>
<ellipse rx="14.4019" ry="12.0316" transform="matrix(0.999308 -0.0371949 0.0833773 0.996518 615.16 302.849)" fill="#E0E0E0"/>
<ellipse rx="11.4173" ry="9.72494" transform="matrix(0.999308 -0.0371949 0.0833773 0.996518 595.469 305.985)" fill="#E0E0E0"/>
<ellipse rx="13.4511" ry="9.60103" transform="matrix(0.94522 0.326434 -0.312688 0.949856 608.744 318.485)" fill="#E0E0E0"/>
<path d="M606.833 309.965C608.449 312.734 604.593 317.655 598.222 320.957C591.851 324.259 582.931 321.783 581.316 319.014C579.7 316.245 586.001 314.232 592.372 310.93C598.743 307.628 605.218 307.196 606.833 309.965Z" fill="#E0E0E0"/>
<ellipse rx="5.49522" ry="4.69143" transform="matrix(0.868647 -0.495432 0.503084 0.864238 27.5633 362.65)" fill="#E0E0E0"/>
<ellipse rx="4.35638" ry="3.79201" transform="matrix(0.868647 -0.495432 0.503084 0.864238 21.438 367.222)" fill="#E0E0E0"/>
<ellipse rx="5.08376" ry="3.78303" transform="matrix(0.990784 -0.135452 0.138193 0.990405 28.0304 369.294)" fill="#E0E0E0"/>
<path d="M25.9481 366.628C26.9608 367.32 26.4875 369.736 24.8909 372.023C23.2944 374.309 19.8628 375.006 18.8501 374.313C17.8374 373.62 19.6271 371.801 21.2237 369.514C22.8202 367.227 24.9354 365.935 25.9481 366.628Z" fill="#E0E0E0"/>
<ellipse rx="5.49522" ry="4.69143" transform="matrix(0.868647 -0.495432 0.503084 0.864238 721.986 332.73)" fill="#E0E0E0"/>
<ellipse rx="4.35638" ry="3.79201" transform="matrix(0.868647 -0.495432 0.503084 0.864238 715.861 337.303)" fill="#E0E0E0"/>
<ellipse rx="5.08376" ry="3.78303" transform="matrix(0.990784 -0.135452 0.138193 0.990405 722.453 339.375)" fill="#E0E0E0"/>
<path d="M720.371 336.708C721.384 337.4 720.91 339.816 719.314 342.103C717.717 344.389 714.286 345.086 713.273 344.393C712.26 343.7 714.05 341.881 715.647 339.594C717.243 337.307 719.358 336.015 720.371 336.708Z" fill="#E0E0E0"/>
<ellipse rx="6.4604" ry="5.3971" transform="matrix(0.877625 -0.479348 0.519429 0.854514 610.639 335.574)" fill="#E0E0E0"/>
<ellipse rx="5.12154" ry="4.3624" transform="matrix(0.877625 -0.479348 0.519429 0.854514 603.362 340.775)" fill="#E0E0E0"/>
<ellipse rx="6.03385" ry="4.30681" transform="matrix(0.991539 -0.129813 0.144182 0.989551 611.193 343.131)" fill="#E0E0E0"/>
<path d="M608.72 340.098C609.923 340.886 609.361 343.633 607.464 346.234C605.568 348.835 601.492 349.628 600.289 348.84C599.086 348.052 601.212 345.982 603.108 343.381C605.005 340.78 607.517 339.31 608.72 340.098Z" fill="#E0E0E0"/>
<rect x="222.48" y="604.389" width="7.19006" height="7.19006" fill="#F0F0F0"/>
<rect x="212.824" y="580.957" width="7.19006" height="7.19006" fill="#F0F0F0"/>
<rect x="243.023" y="580.957" width="7.19006" height="7.19006" fill="#F0F0F0"/>
<rect x="201.065" y="590.111" width="7.19006" height="7.19006" fill="#F0F0F0"/>
<rect x="232.957" y="591.023" width="7.19006" height="7.19006" fill="#F0F0F0"/>
<rect x="201.321" y="569.453" width="7.19006" height="7.19006" fill="#F0F0F0"/>
<rect x="212.963" y="569.885" width="7.19006" height="7.19006" fill="#F0F0F0"/>
<rect x="212.824" y="603.965" width="7.19006" height="7.19006" fill="#F0F0F0"/>
<rect x="243.023" y="603.965" width="7.19006" height="7.19006" fill="#F0F0F0"/>
<rect x="222.891" y="573.766" width="7.19006" height="7.19006" fill="#F0F0F0"/>
<rect x="222.48" y="613.906" width="7.19006" height="7.19006" fill="#F0F0F0"/>
<rect x="212.824" y="591.023" width="7.19006" height="7.19006" fill="#F0F0F0"/>
<rect x="243.023" y="591.023" width="7.19006" height="7.19006" fill="#F0F0F0"/>
<rect x="201.065" y="600.178" width="7.19006" height="7.19006" fill="#F0F0F0"/>
<rect x="232.957" y="601.09" width="7.19006" height="7.19006" fill="#F0F0F0"/>
<rect x="201.321" y="579.52" width="7.19006" height="7.19006" fill="#F0F0F0"/>
<rect x="231.52" y="579.52" width="7.19006" height="7.19006" fill="#F0F0F0"/>
<rect x="212.824" y="614.031" width="7.19006" height="7.19006" fill="#F0F0F0"/>
<rect x="243.023" y="614.031" width="7.19006" height="7.19006" fill="#F0F0F0"/>
<rect x="222.891" y="583.832" width="7.19006" height="7.19006" fill="#F0F0F0"/>
<rect x="491.8" y="458.725" width="7.19006" height="7.19006" fill="#F0F0F0"/>
<rect x="503.303" y="458.725" width="7.19006" height="7.19006" fill="#F0F0F0"/>
<rect x="563.699" y="501.865" width="7.19006" height="7.19006" fill="#F0F0F0"/>
<rect x="575.202" y="501.865" width="7.19006" height="7.19006" fill="#F0F0F0"/>
<rect x="491.8" y="523.436" width="7.19006" height="7.19006" fill="#F0F0F0"/>
<rect x="503.303" y="523.436" width="7.19006" height="7.19006" fill="#F0F0F0"/>
<rect x="563.699" y="566.574" width="7.19006" height="7.19006" fill="#F0F0F0"/>
<rect x="575.202" y="566.574" width="7.19006" height="7.19006" fill="#F0F0F0"/>
<rect x="460.163" y="573.766" width="7.19006" height="7.19006" fill="#F0F0F0"/>
<rect x="471.666" y="573.766" width="7.19006" height="7.19006" fill="#F0F0F0"/>
<rect x="201.32" y="418.461" width="7.19006" height="7.19006" fill="#F0F0F0"/>
<rect x="212.823" y="418.461" width="7.19006" height="7.19006" fill="#F0F0F0"/>
<rect x="222.89" y="418.461" width="7.19006" height="7.19006" fill="#F0F0F0"/>
<rect x="235.834" y="418.461" width="7.19006" height="7.19006" fill="#F0F0F0"/>
<rect x="201.32" y="484.611" width="7.19006" height="7.19006" fill="#F0F0F0"/>
<rect x="212.823" y="484.611" width="7.19006" height="7.19006" fill="#F0F0F0"/>
<rect x="222.89" y="484.611" width="7.19006" height="7.19006" fill="#F0F0F0"/>
<rect x="234.396" y="484.611" width="7.19006" height="7.19006" fill="#F0F0F0"/>
<rect x="245.898" y="484.611" width="7.19006" height="7.19006" fill="#F0F0F0"/>
<rect x="421.337" y="415.586" width="7.19006" height="7.19006" fill="#F0F0F0"/>
<rect x="432.84" y="415.586" width="7.19006" height="7.19006" fill="#F0F0F0"/>
<rect x="442.906" y="415.586" width="7.19006" height="7.19006" fill="#F0F0F0"/>
<rect x="270.346" y="324.992" width="7.19006" height="7.19006" fill="#F0F0F0"/>
<rect x="281.849" y="324.992" width="7.19006" height="7.19006" fill="#F0F0F0"/>
<rect x="291.915" y="324.992" width="7.19006" height="7.19006" fill="#F0F0F0"/>
<rect x="451.534" y="415.586" width="7.19006" height="7.19006" fill="#F0F0F0"/>
<rect x="463.037" y="415.586" width="7.19006" height="7.19006" fill="#F0F0F0"/>
<rect x="473.104" y="415.586" width="7.19006" height="7.19006" fill="#F0F0F0"/>
<rect x="300.543" y="324.992" width="7.19006" height="7.19006" fill="#F0F0F0"/>
<rect x="312.046" y="324.992" width="7.19006" height="7.19006" fill="#F0F0F0"/>
<rect x="322.112" y="324.992" width="7.19006" height="7.19006" fill="#F0F0F0"/>
<rect x="299.104" y="441.467" width="7.19006" height="7.19006" fill="#F0F0F0"/>
<rect x="310.607" y="441.467" width="7.19006" height="7.19006" fill="#F0F0F0"/>
<rect x="310.609" y="506.178" width="7.19006" height="7.19006" fill="#F0F0F0"/>
<rect x="322.112" y="506.178" width="7.19006" height="7.19006" fill="#F0F0F0"/>
<rect x="310.609" y="516.244" width="7.19006" height="7.19006" fill="#F0F0F0"/>
<rect x="322.112" y="516.244" width="7.19006" height="7.19006" fill="#F0F0F0"/>
<rect x="309.172" y="539.254" width="7.19006" height="7.19006" fill="#F0F0F0"/>
<rect x="320.675" y="539.254" width="7.19006" height="7.19006" fill="#F0F0F0"/>
<rect x="201.32" y="429.967" width="7.19006" height="7.19006" fill="#F0F0F0"/>
<rect x="212.823" y="429.967" width="7.19006" height="7.19006" fill="#F0F0F0"/>
<rect x="222.89" y="429.967" width="7.19006" height="7.19006" fill="#F0F0F0"/>
<rect x="234.396" y="428.527" width="7.19006" height="7.19006" fill="#F0F0F0"/>
<rect x="245.898" y="428.527" width="7.19006" height="7.19006" fill="#F0F0F0"/>
<rect x="491.8" y="470.229" width="7.19006" height="7.19006" fill="#F0F0F0"/>
<rect x="503.303" y="470.229" width="7.19006" height="7.19006" fill="#F0F0F0"/>
<rect x="563.699" y="513.369" width="7.19006" height="7.19006" fill="#F0F0F0"/>
<rect x="575.202" y="513.369" width="7.19006" height="7.19006" fill="#F0F0F0"/>
<rect x="491.8" y="533.502" width="7.19006" height="7.19006" fill="#F0F0F0"/>
<rect x="503.303" y="533.502" width="7.19006" height="7.19006" fill="#F0F0F0"/>
<rect x="563.699" y="576.641" width="7.19006" height="7.19006" fill="#F0F0F0"/>
<rect x="575.202" y="576.641" width="7.19006" height="7.19006" fill="#F0F0F0"/>
<rect x="471.667" y="583.832" width="7.19006" height="7.19006" fill="#F0F0F0"/>
<rect x="421.337" y="427.09" width="7.19006" height="7.19006" fill="#F0F0F0"/>
<rect x="432.84" y="427.09" width="7.19006" height="7.19006" fill="#F0F0F0"/>
<rect x="442.906" y="427.09" width="7.19006" height="7.19006" fill="#F0F0F0"/>
<rect x="270.346" y="336.494" width="7.19006" height="7.19006" fill="#F0F0F0"/>
<rect x="281.849" y="336.494" width="7.19006" height="7.19006" fill="#F0F0F0"/>
<rect x="291.915" y="336.494" width="7.19006" height="7.19006" fill="#F0F0F0"/>
<rect x="451.534" y="427.09" width="7.19006" height="7.19006" fill="#F0F0F0"/>
<rect x="463.037" y="427.09" width="7.19006" height="7.19006" fill="#F0F0F0"/>
<rect x="473.104" y="427.09" width="7.19006" height="7.19006" fill="#F0F0F0"/>
<rect x="300.543" y="336.494" width="7.19006" height="7.19006" fill="#F0F0F0"/>
<rect x="312.046" y="336.494" width="7.19006" height="7.19006" fill="#F0F0F0"/>
<rect x="322.112" y="336.494" width="7.19006" height="7.19006" fill="#F0F0F0"/>
<rect x="201.32" y="496.111" width="7.19006" height="7.19006" fill="#F0F0F0"/>
<rect x="212.823" y="496.111" width="7.19006" height="7.19006" fill="#F0F0F0"/>
<rect x="222.89" y="496.111" width="7.19006" height="7.19006" fill="#F0F0F0"/>
<rect x="234.396" y="496.111" width="7.19006" height="7.19006" fill="#F0F0F0"/>
<rect x="245.898" y="496.111" width="7.19006" height="7.19006" fill="#F0F0F0"/>
<rect x="201.32" y="440.033" width="7.19006" height="7.19006" fill="#F0F0F0"/>
<rect x="212.823" y="440.033" width="7.19006" height="7.19006" fill="#F0F0F0"/>
<rect x="222.89" y="440.033" width="7.19006" height="7.19006" fill="#F0F0F0"/>
<rect x="299.104" y="452.977" width="7.19006" height="7.19006" fill="#F0F0F0"/>
<rect x="310.607" y="452.977" width="7.19006" height="7.19006" fill="#F0F0F0"/>
<rect x="491.8" y="480.299" width="7.19006" height="7.19006" fill="#F0F0F0"/>
<rect x="503.303" y="480.299" width="7.19006" height="7.19006" fill="#F0F0F0"/>
<rect x="563.699" y="523.436" width="7.19006" height="7.19006" fill="#F0F0F0"/>
<rect x="575.202" y="523.436" width="7.19006" height="7.19006" fill="#F0F0F0"/>
<rect x="491.8" y="543.568" width="7.19006" height="7.19006" fill="#F0F0F0"/>
<rect x="563.699" y="586.707" width="7.19006" height="7.19006" fill="#F0F0F0"/>
<rect x="421.337" y="437.156" width="7.19006" height="7.19006" fill="#F0F0F0"/>
<rect x="432.84" y="437.156" width="7.19006" height="7.19006" fill="#F0F0F0"/>
<rect x="442.906" y="437.156" width="7.19006" height="7.19006" fill="#F0F0F0"/>
<rect x="270.346" y="346.561" width="7.19006" height="7.19006" fill="#F0F0F0"/>
<rect x="281.849" y="346.561" width="7.19006" height="7.19006" fill="#F0F0F0"/>
<rect x="291.915" y="346.561" width="7.19006" height="7.19006" fill="#F0F0F0"/>
<rect x="451.534" y="437.156" width="7.19006" height="7.19006" fill="#F0F0F0"/>
<rect x="463.037" y="437.156" width="7.19006" height="7.19006" fill="#F0F0F0"/>
<rect x="473.104" y="437.156" width="7.19006" height="7.19006" fill="#F0F0F0"/>
<rect x="300.543" y="346.561" width="7.19006" height="7.19006" fill="#F0F0F0"/>
<rect x="312.047" y="346.561" width="7.19006" height="7.19006" fill="#F0F0F0"/>
<rect x="322.113" y="346.561" width="7.19006" height="7.19006" fill="#F0F0F0"/>
<rect x="201.32" y="451.533" width="7.19006" height="7.19006" fill="#F0F0F0"/>
<rect x="212.823" y="451.533" width="7.19006" height="7.19006" fill="#F0F0F0"/>
<rect x="222.89" y="451.533" width="7.19006" height="7.19006" fill="#F0F0F0"/>
<rect x="234.396" y="451.533" width="7.19006" height="7.19006" fill="#F0F0F0"/>
<rect x="245.898" y="451.533" width="7.19006" height="7.19006" fill="#F0F0F0"/>
<rect x="201.32" y="506.178" width="7.19006" height="7.19006" fill="#F0F0F0"/>
<rect x="212.823" y="506.178" width="7.19006" height="7.19006" fill="#F0F0F0"/>
<rect x="222.89" y="506.178" width="7.19006" height="7.19006" fill="#F0F0F0"/>
<rect x="234.396" y="506.178" width="7.19006" height="7.19006" fill="#F0F0F0"/>
<rect x="245.898" y="506.178" width="7.19006" height="7.19006" fill="#F0F0F0"/>
<rect x="299.104" y="463.043" width="7.19006" height="7.19006" fill="#F0F0F0"/>
<rect x="310.607" y="463.043" width="7.19006" height="7.19006" fill="#F0F0F0"/>
<rect x="491.8" y="491.799" width="7.19006" height="7.19006" fill="#F0F0F0"/>
<rect x="503.303" y="491.799" width="7.19006" height="7.19006" fill="#F0F0F0"/>
<rect x="563.699" y="534.941" width="7.19006" height="7.19006" fill="#F0F0F0"/>
<rect x="575.202" y="534.941" width="7.19006" height="7.19006" fill="#F0F0F0"/>
<rect x="421.337" y="448.658" width="7.19006" height="7.19006" fill="#F0F0F0"/>
<rect x="432.84" y="448.658" width="7.19006" height="7.19006" fill="#F0F0F0"/>
<rect x="442.906" y="448.658" width="7.19006" height="7.19006" fill="#F0F0F0"/>
<rect x="270.346" y="358.066" width="7.19006" height="7.19006" fill="#F0F0F0"/>
<rect x="281.849" y="358.066" width="7.19006" height="7.19006" fill="#F0F0F0"/>
<rect x="291.915" y="358.066" width="7.19006" height="7.19006" fill="#F0F0F0"/>
<rect x="451.534" y="448.658" width="7.19006" height="7.19006" fill="#F0F0F0"/>
<rect x="463.038" y="448.658" width="7.19006" height="7.19006" fill="#F0F0F0"/>
<rect x="300.543" y="358.066" width="7.19006" height="7.19006" fill="#F0F0F0"/>
<rect x="312.046" y="358.066" width="7.19006" height="7.19006" fill="#F0F0F0"/>
<rect x="201.32" y="461.602" width="7.19006" height="7.19006" fill="#F0F0F0"/>
<rect x="212.823" y="461.602" width="7.19006" height="7.19006" fill="#F0F0F0"/>
<rect x="222.89" y="461.602" width="7.19006" height="7.19006" fill="#F0F0F0"/>
<rect x="234.396" y="461.602" width="7.19006" height="7.19006" fill="#F0F0F0"/>
<rect x="245.898" y="461.602" width="7.19006" height="7.19006" fill="#F0F0F0"/>
<rect x="201.32" y="517.686" width="7.19006" height="7.19006" fill="#F0F0F0"/>
<rect x="212.823" y="517.686" width="7.19006" height="7.19006" fill="#F0F0F0"/>
<rect x="222.89" y="517.686" width="7.19006" height="7.19006" fill="#F0F0F0"/>
<rect x="234.396" y="517.686" width="7.19006" height="7.19006" fill="#F0F0F0"/>
<rect x="245.898" y="517.686" width="7.19006" height="7.19006" fill="#F0F0F0"/>
<rect x="201.32" y="624.096" width="7.19006" height="7.19006" fill="#F0F0F0"/>
<rect x="212.823" y="624.096" width="7.19006" height="7.19006" fill="#F0F0F0"/>
<rect x="222.89" y="624.096" width="7.19006" height="7.19006" fill="#F0F0F0"/>
<rect x="231.52" y="624.096" width="7.19006" height="7.19006" fill="#F0F0F0"/>
<rect x="243.022" y="624.096" width="7.19006" height="7.19006" fill="#F0F0F0"/>
<rect x="299.104" y="474.545" width="7.19006" height="7.19006" fill="#F0F0F0"/>
<rect x="310.607" y="474.545" width="7.19006" height="7.19006" fill="#F0F0F0"/>
<rect x="491.8" y="501.865" width="7.19006" height="7.19006" fill="#F0F0F0"/>
<rect x="503.303" y="501.865" width="7.19006" height="7.19006" fill="#F0F0F0"/>
<rect x="563.699" y="545.008" width="7.19006" height="7.19006" fill="#F0F0F0"/>
<rect x="575.202" y="545.008" width="7.19006" height="7.19006" fill="#F0F0F0"/>
<rect x="201.32" y="473.105" width="7.19006" height="7.19006" fill="#F0F0F0"/>
<rect x="212.823" y="473.105" width="7.19006" height="7.19006" fill="#F0F0F0"/>
<rect x="222.89" y="473.105" width="7.19006" height="7.19006" fill="#F0F0F0"/>
<rect x="234.396" y="473.105" width="7.19006" height="7.19006" fill="#F0F0F0"/>
<rect x="245.898" y="473.105" width="7.19006" height="7.19006" fill="#F0F0F0"/>
<rect x="421.337" y="458.725" width="7.19006" height="7.19006" fill="#F0F0F0"/>
<rect x="432.84" y="458.725" width="7.19006" height="7.19006" fill="#F0F0F0"/>
<rect x="442.906" y="458.725" width="7.19006" height="7.19006" fill="#F0F0F0"/>
<rect x="270.346" y="368.131" width="7.19006" height="7.19006" fill="#F0F0F0"/>
<rect x="281.849" y="368.131" width="7.19006" height="7.19006" fill="#F0F0F0"/>
<rect x="291.915" y="368.131" width="7.19006" height="7.19006" fill="#F0F0F0"/>
<rect x="451.534" y="458.725" width="7.19006" height="7.19006" fill="#F0F0F0"/>
<rect x="463.037" y="458.725" width="7.19006" height="7.19006" fill="#F0F0F0"/>
<rect x="300.543" y="368.131" width="7.19006" height="7.19006" fill="#F0F0F0"/>
<rect x="312.046" y="368.131" width="7.19006" height="7.19006" fill="#F0F0F0"/>
<rect x="201.32" y="527.752" width="7.19006" height="7.19006" fill="#F0F0F0"/>
<rect x="212.823" y="527.752" width="7.19006" height="7.19006" fill="#F0F0F0"/>
<rect x="222.89" y="527.752" width="7.19006" height="7.19006" fill="#F0F0F0"/>
<rect x="234.396" y="527.752" width="7.19006" height="7.19006" fill="#F0F0F0"/>
<rect x="245.898" y="527.752" width="7.19006" height="7.19006" fill="#F0F0F0"/>
<rect x="201.32" y="634.162" width="7.19006" height="7.19006" fill="#F0F0F0"/>
<rect x="212.823" y="634.162" width="7.19006" height="7.19006" fill="#F0F0F0"/>
<rect x="222.89" y="634.162" width="7.19006" height="7.19006" fill="#F0F0F0"/>
<rect x="231.52" y="634.162" width="7.19006" height="7.19006" fill="#F0F0F0"/>
<rect x="243.022" y="634.162" width="7.19006" height="7.19006" fill="#F0F0F0"/>
<rect x="299.104" y="484.611" width="7.19006" height="7.19006" fill="#F0F0F0"/>
<rect x="310.607" y="484.611" width="7.19006" height="7.19006" fill="#F0F0F0"/>
<rect x="527.749" y="483.172" width="7.19006" height="7.19006" fill="#F0F0F0"/>
<rect x="527.749" y="543.568" width="7.19006" height="7.19006" fill="#F0F0F0"/>
<rect x="527.749" y="603.967" width="7.19006" height="7.19006" fill="#F0F0F0"/>
<rect x="527.749" y="493.238" width="7.19006" height="7.19006" fill="#F0F0F0"/>
<rect x="527.749" y="553.635" width="7.19006" height="7.19006" fill="#F0F0F0"/>
<rect x="527.749" y="614.031" width="7.19006" height="7.19006" fill="#F0F0F0"/>
<rect x="527.749" y="503.305" width="7.19006" height="7.19006" fill="#F0F0F0"/>
<rect x="527.749" y="563.701" width="7.19006" height="7.19006" fill="#F0F0F0"/>
<rect x="527.749" y="513.371" width="7.19006" height="7.19006" fill="#F0F0F0"/>
<rect x="527.749" y="573.768" width="7.19006" height="7.19006" fill="#F0F0F0"/>
<rect x="527.749" y="523.436" width="7.19006" height="7.19006" fill="#F0F0F0"/>
<rect x="527.749" y="583.834" width="7.19006" height="7.19006" fill="#F0F0F0"/>
<rect x="527.749" y="533.502" width="7.19006" height="7.19006" fill="#F0F0F0"/>
<rect x="527.749" y="593.9" width="7.19006" height="7.19006" fill="#F0F0F0"/>
<rect x="432.842" y="493.238" width="7.19006" height="7.19006" fill="#F0F0F0"/>
<rect x="432.842" y="553.639" width="7.19006" height="7.19006" fill="#F0F0F0"/>
<rect x="432.842" y="614.033" width="7.19006" height="7.19006" fill="#F0F0F0"/>
<rect x="432.842" y="503.305" width="7.19006" height="7.19006" fill="#F0F0F0"/>
<rect x="432.842" y="563.701" width="7.19006" height="7.19006" fill="#F0F0F0"/>
<rect x="432.842" y="624.098" width="7.19006" height="7.19006" fill="#F0F0F0"/>
<rect x="432.842" y="513.371" width="7.19006" height="7.19006" fill="#F0F0F0"/>
<rect x="432.842" y="573.768" width="7.19006" height="7.19006" fill="#F0F0F0"/>
<rect x="432.842" y="523.438" width="7.19006" height="7.19006" fill="#F0F0F0"/>
<rect x="432.842" y="583.834" width="7.19006" height="7.19006" fill="#F0F0F0"/>
<rect x="432.842" y="533.502" width="7.19006" height="7.19006" fill="#F0F0F0"/>
<rect x="432.842" y="593.9" width="7.19006" height="7.19006" fill="#F0F0F0"/>
<rect x="432.842" y="543.568" width="7.19006" height="7.19006" fill="#F0F0F0"/>
<rect x="432.842" y="603.967" width="7.19006" height="7.19006" fill="#F0F0F0"/>
<rect x="491.8" y="513.369" width="7.19006" height="7.19006" fill="#F0F0F0"/>
<rect x="503.303" y="513.369" width="7.19006" height="7.19006" fill="#F0F0F0"/>
<rect x="563.699" y="556.508" width="7.19006" height="7.19006" fill="#F0F0F0"/>
<rect x="575.202" y="556.508" width="7.19006" height="7.19006" fill="#F0F0F0"/>
<rect x="460.163" y="563.703" width="7.19006" height="7.19006" fill="#F0F0F0"/>
<rect x="471.666" y="563.703" width="7.19006" height="7.19006" fill="#F0F0F0"/>
<rect x="421.337" y="470.229" width="7.19006" height="7.19006" fill="#F0F0F0"/>
<rect x="432.84" y="470.229" width="7.19006" height="7.19006" fill="#F0F0F0"/>
<rect x="442.906" y="470.229" width="7.19006" height="7.19006" fill="#F0F0F0"/>
<rect x="270.346" y="379.637" width="7.19006" height="7.19006" fill="#F0F0F0"/>
<rect x="281.849" y="379.637" width="7.19006" height="7.19006" fill="#F0F0F0"/>
<rect x="291.915" y="379.637" width="7.19006" height="7.19006" fill="#F0F0F0"/>
<rect x="421.337" y="480.299" width="7.19006" height="7.19006" fill="#F0F0F0"/>
<rect x="432.84" y="480.299" width="7.19006" height="7.19006" fill="#F0F0F0"/>
<rect x="442.906" y="480.299" width="7.19006" height="7.19006" fill="#F0F0F0"/>
<rect x="270.346" y="389.701" width="7.19006" height="7.19006" fill="#F0F0F0"/>
<rect x="281.849" y="389.701" width="7.19006" height="7.19006" fill="#F0F0F0"/>
<rect x="291.915" y="389.701" width="7.19006" height="7.19006" fill="#F0F0F0"/>
<rect x="270.346" y="399.766" width="7.19006" height="7.19006" fill="#F0F0F0"/>
<rect x="281.849" y="399.766" width="7.19006" height="7.19006" fill="#F0F0F0"/>
<rect x="291.915" y="399.766" width="7.19006" height="7.19006" fill="#F0F0F0"/>
<rect x="299.104" y="409.832" width="7.19006" height="7.19006" fill="#F0F0F0"/>
<rect x="310.607" y="409.832" width="7.19006" height="7.19006" fill="#F0F0F0"/>
<rect x="320.674" y="409.832" width="7.19006" height="7.19006" fill="#F0F0F0"/>
<rect x="270.346" y="441.467" width="7.19006" height="7.19006" fill="#F0F0F0"/>
<rect x="281.849" y="441.467" width="7.19006" height="7.19006" fill="#F0F0F0"/>
<rect x="309.172" y="419.898" width="7.19006" height="7.19006" fill="#F0F0F0"/>
<rect x="320.675" y="419.898" width="7.19006" height="7.19006" fill="#F0F0F0"/>
<rect x="309.172" y="429.967" width="7.19006" height="7.19006" fill="#F0F0F0"/>
<rect x="320.675" y="429.967" width="7.19006" height="7.19006" fill="#F0F0F0"/>
<rect x="451.534" y="470.229" width="7.19006" height="7.19006" fill="#F0F0F0"/>
<rect x="463.037" y="470.229" width="7.19006" height="7.19006" fill="#F0F0F0"/>
<rect x="473.104" y="470.229" width="7.19006" height="7.19006" fill="#F0F0F0"/>
<rect x="300.543" y="379.637" width="7.19006" height="7.19006" fill="#F0F0F0"/>
<rect x="312.046" y="379.637" width="7.19006" height="7.19006" fill="#F0F0F0"/>
<rect x="322.112" y="379.637" width="7.19006" height="7.19006" fill="#F0F0F0"/>
<rect x="451.534" y="480.299" width="7.19006" height="7.19006" fill="#F0F0F0"/>
<rect x="463.037" y="480.299" width="7.19006" height="7.19006" fill="#F0F0F0"/>
<rect x="473.104" y="480.299" width="7.19006" height="7.19006" fill="#F0F0F0"/>
<rect x="451.534" y="490.365" width="7.19006" height="7.19006" fill="#F0F0F0"/>
<rect x="463.037" y="490.365" width="7.19006" height="7.19006" fill="#F0F0F0"/>
<rect x="473.104" y="490.365" width="7.19006" height="7.19006" fill="#F0F0F0"/>
<rect x="451.534" y="501.865" width="7.19006" height="7.19006" fill="#F0F0F0"/>
<rect x="463.038" y="501.865" width="7.19006" height="7.19006" fill="#F0F0F0"/>
<rect x="473.104" y="501.865" width="7.19006" height="7.19006" fill="#F0F0F0"/>
<rect x="451.534" y="511.932" width="7.19006" height="7.19006" fill="#F0F0F0"/>
<rect x="463.038" y="511.932" width="7.19006" height="7.19006" fill="#F0F0F0"/>
<rect x="473.104" y="511.932" width="7.19006" height="7.19006" fill="#F0F0F0"/>
<rect x="451.534" y="521.998" width="7.19006" height="7.19006" fill="#F0F0F0"/>
<rect x="463.038" y="521.998" width="7.19006" height="7.19006" fill="#F0F0F0"/>
<rect x="473.104" y="521.998" width="7.19006" height="7.19006" fill="#F0F0F0"/>
<rect x="422.775" y="539.254" width="7.19006" height="7.19006" transform="rotate(-90 422.775 539.254)" fill="#F0F0F0"/>
<rect x="422.775" y="527.748" width="7.19006" height="7.19006" transform="rotate(-90 422.775 527.748)" fill="#F0F0F0"/>
<rect x="422.775" y="517.682" width="7.19006" height="7.19006" transform="rotate(-90 422.775 517.682)" fill="#F0F0F0"/>
<rect x="463.039" y="533.502" width="7.19006" height="7.19006" fill="#F0F0F0"/>
<rect x="473.105" y="533.502" width="7.19006" height="7.19006" fill="#F0F0F0"/>
<rect x="300.543" y="389.701" width="7.19006" height="7.19006" fill="#F0F0F0"/>
<rect x="312.046" y="389.701" width="7.19006" height="7.19006" fill="#F0F0F0"/>
<rect x="322.112" y="389.701" width="7.19006" height="7.19006" fill="#F0F0F0"/>
<rect x="201.32" y="539.254" width="7.19006" height="7.19006" fill="#F0F0F0"/>
<rect x="212.823" y="539.254" width="7.19006" height="7.19006" fill="#F0F0F0"/>
<rect x="222.89" y="539.254" width="7.19006" height="7.19006" fill="#F0F0F0"/>
<rect x="234.396" y="539.254" width="7.19006" height="7.19006" fill="#F0F0F0"/>
<rect x="245.898" y="539.254" width="7.19006" height="7.19006" fill="#F0F0F0"/>
<rect x="201.32" y="645.668" width="7.19006" height="7.19006" fill="#F0F0F0"/>
<rect x="212.823" y="645.668" width="7.19006" height="7.19006" fill="#F0F0F0"/>
<rect x="222.89" y="645.668" width="7.19006" height="7.19006" fill="#F0F0F0"/>
<rect x="231.52" y="645.668" width="7.19006" height="7.19006" fill="#F0F0F0"/>
<rect x="243.022" y="645.668" width="7.19006" height="7.19006" fill="#F0F0F0"/>
<rect x="201.32" y="549.32" width="7.19006" height="7.19006" fill="#F0F0F0"/>
<rect x="212.823" y="549.32" width="7.19006" height="7.19006" fill="#F0F0F0"/>
<rect x="222.89" y="549.32" width="7.19006" height="7.19006" fill="#F0F0F0"/>
<rect x="222.89" y="559.387" width="7.19006" height="7.19006" fill="#F0F0F0"/>
<rect x="234.396" y="549.32" width="7.19006" height="7.19006" fill="#F0F0F0"/>
<rect x="245.898" y="549.32" width="7.19006" height="7.19006" fill="#F0F0F0"/>
<rect x="299.104" y="496.111" width="7.19006" height="7.19006" fill="#F0F0F0"/>
<rect x="310.607" y="496.111" width="7.19006" height="7.19006" fill="#F0F0F0"/>
<rect x="136.61" y="488.924" width="7.19006" height="7.19006" fill="#F0F0F0"/>
<rect x="136.61" y="498.99" width="7.19006" height="7.19006" fill="#F0F0F0"/>
<rect x="163.933" y="488.924" width="7.19006" height="7.19006" fill="#F0F0F0"/>
<rect x="175.436" y="488.924" width="7.19006" height="7.19006" fill="#F0F0F0"/>
<rect x="162.495" y="596.773" width="7.19006" height="7.19006" fill="#F0F0F0"/>
<rect x="173.998" y="596.773" width="7.19006" height="7.19006" fill="#F0F0F0"/>
<rect x="163.933" y="500.43" width="7.19006" height="7.19006" fill="#F0F0F0"/>
<rect x="175.436" y="500.43" width="7.19006" height="7.19006" fill="#F0F0F0"/>
<rect x="162.495" y="608.279" width="7.19006" height="7.19006" fill="#F0F0F0"/>
<rect x="173.998" y="608.279" width="7.19006" height="7.19006" fill="#F0F0F0"/>
<rect x="163.933" y="510.496" width="7.19006" height="7.19006" fill="#F0F0F0"/>
<rect x="175.436" y="510.496" width="7.19006" height="7.19006" fill="#F0F0F0"/>
<rect x="162.495" y="618.346" width="7.19006" height="7.19006" fill="#F0F0F0"/>
<rect x="173.998" y="618.346" width="7.19006" height="7.19006" fill="#F0F0F0"/>
<rect x="163.933" y="521.998" width="7.19006" height="7.19006" fill="#F0F0F0"/>
<rect x="175.437" y="521.998" width="7.19006" height="7.19006" fill="#F0F0F0"/>
<rect x="162.496" y="629.852" width="7.19006" height="7.19006" fill="#F0F0F0"/>
<rect x="173.999" y="629.852" width="7.19006" height="7.19006" fill="#F0F0F0"/>
<rect x="163.933" y="532.064" width="7.19006" height="7.19006" fill="#F0F0F0"/>
<rect x="175.436" y="532.064" width="7.19006" height="7.19006" fill="#F0F0F0"/>
<rect x="162.495" y="639.914" width="7.19006" height="7.19006" fill="#F0F0F0"/>
<rect x="163.933" y="543.57" width="7.19006" height="7.19006" fill="#F0F0F0"/>
<rect x="175.436" y="543.57" width="7.19006" height="7.19006" fill="#F0F0F0"/>
<rect x="162.495" y="651.42" width="7.19006" height="7.19006" fill="#F0F0F0"/>
<rect x="173.998" y="651.42" width="7.19006" height="7.19006" fill="#F0F0F0"/>
<rect x="163.933" y="575.207" width="7.19006" height="7.19006" fill="#F0F0F0"/>
<rect x="175.438" y="575.207" width="7.19006" height="7.19006" fill="#F0F0F0"/>
<rect x="162.495" y="586.707" width="7.19006" height="7.19006" fill="#F0F0F0"/>
<rect x="173.998" y="586.707" width="7.19006" height="7.19006" fill="#F0F0F0"/>
<ellipse cx="423" cy="757" rx="347" ry="21" fill="#F5F5F5"/>
<rect x="517.817" y="534" width="11.7102" height="212.085" fill="#A6A6A6"/>
<rect x="706.482" y="536.604" width="11.7102" height="212.085" fill="#A6A6A6"/>
<path d="M712.217 741.451C712.676 741.113 713.301 741.113 713.76 741.451L732.334 755.123C733.346 755.868 732.819 757.472 731.562 757.472H694.415C693.158 757.472 692.631 755.868 693.643 755.123L712.217 741.451Z" fill="#A6A6A6"/>
<path d="M522.251 741.451C522.71 741.113 523.335 741.113 523.794 741.451L542.368 755.123C543.38 755.868 542.853 757.472 541.597 757.472H504.449C503.192 757.472 502.666 755.868 503.677 755.123L522.251 741.451Z" fill="#A6A6A6"/>
<rect x="706.483" y="537.902" width="11.7102" height="29.9261" fill="#949494"/>
<rect x="517.817" y="537.902" width="11.7102" height="7.8068" fill="#949494"/>
<rect x="497" y="329.002" width="252.744" height="208" fill="#FFF1CD"/>
<path fill-rule="evenodd" clip-rule="evenodd" d="M749.745 383.029V398.494L657.488 537H647.187L749.745 383.029ZM680.46 537H670.565L749.745 418.127V432.983L680.46 537ZM693.538 537H705.046L749.745 469.893V452.616L693.538 537ZM730.036 537H718.123L749.745 489.526V507.41L730.036 537ZM743.113 537H749.745V527.043L743.113 537ZM749.745 363.397V344.907L621.794 537H634.11L749.745 363.397ZM737.37 329H747.263L608.717 537H600.833L738.762 329.927L737.37 329ZM726.303 329H712.37L573.823 537H587.756L726.303 329ZM688.709 329H699.292L560.745 537H550.162L688.709 329ZM675.632 329H661.964L523.417 537H537.085L675.632 329ZM637.977 329H648.887L510.34 537H497.001V532.832L500.606 535.234L637.977 329ZM624.899 329H613.799L497.001 504.349V521.013L624.899 329ZM586.796 329H600.722L497.001 484.716V463.809L586.796 329ZM573.719 329H563.818L497.001 429.313V444.176L573.719 329ZM539.827 329H550.741L497.001 409.68V393.295L539.827 329ZM502.971 329H497.001V337.963L502.971 329ZM497.001 357.596V373.662L526.75 329H516.049L497.001 357.596Z" fill="#FFD05B" fill-opacity="0.83"/>
<rect x="497" y="354.02" width="252.744" height="157.209" fill="#4D4D4D"/>
<path d="M586.206 399.427C584.178 399.427 582.412 398.96 580.908 398.026C579.404 397.092 578.242 395.736 577.421 393.958C576.601 392.17 576.191 390.005 576.191 387.464C576.191 384.924 576.601 382.782 577.421 381.039C578.242 379.284 579.404 377.951 580.908 377.04C582.412 376.128 584.178 375.672 586.206 375.672C588.245 375.672 590.011 376.128 591.503 377.04C593.007 377.951 594.169 379.284 594.99 381.039C595.821 382.793 596.237 384.935 596.237 387.464C596.237 390.005 595.821 392.17 594.99 393.958C594.169 395.736 593.007 397.092 591.503 398.026C590.011 398.96 588.245 399.427 586.206 399.427ZM586.206 396.146C588.131 396.146 589.635 395.383 590.717 393.856C591.811 392.329 592.358 390.199 592.358 387.464C592.358 384.753 591.811 382.656 590.717 381.175C589.635 379.683 588.131 378.937 586.206 378.937C584.269 378.937 582.759 379.683 581.677 381.175C580.606 382.656 580.07 384.753 580.07 387.464C580.07 390.199 580.606 392.329 581.677 393.856C582.759 395.383 584.269 396.146 586.206 396.146ZM609.619 399.427C607.591 399.427 605.825 398.96 604.321 398.026C602.817 397.092 601.655 395.736 600.834 393.958C600.014 392.17 599.604 390.005 599.604 387.464C599.604 384.924 600.014 382.782 600.834 381.039C601.655 379.284 602.817 377.951 604.321 377.04C605.825 376.128 607.591 375.672 609.619 375.672C611.658 375.672 613.424 376.128 614.917 377.04C616.42 377.951 617.583 379.284 618.403 381.039C619.235 382.793 619.65 384.935 619.65 387.464C619.65 390.005 619.235 392.17 618.403 393.958C617.583 395.736 616.42 397.092 614.917 398.026C613.424 398.96 611.658 399.427 609.619 399.427ZM609.619 396.146C611.544 396.146 613.048 395.383 614.13 393.856C615.224 392.329 615.771 390.199 615.771 387.464C615.771 384.753 615.224 382.656 614.13 381.175C613.048 379.683 611.544 378.937 609.619 378.937C607.682 378.937 606.172 379.683 605.09 381.175C604.019 382.656 603.483 384.753 603.483 387.464C603.483 390.199 604.019 392.329 605.09 393.856C606.172 395.383 607.682 396.146 609.619 396.146ZM624.265 399V376.1H631.972C633.727 376.1 635.236 376.327 636.501 376.783C637.766 377.239 638.74 377.985 639.423 379.022C640.107 380.047 640.449 381.437 640.449 383.192C640.449 385.698 639.674 387.578 638.125 388.832C636.586 390.085 634.547 390.711 632.006 390.711H628.059V399H624.265ZM628.059 387.669H631.647C633.493 387.669 634.803 387.288 635.578 386.524C636.353 385.75 636.74 384.639 636.74 383.192C636.74 381.699 636.347 380.646 635.561 380.03C634.775 379.415 633.482 379.107 631.682 379.107H628.059V387.669ZM651.301 399.427C649.717 399.427 648.23 399.154 646.84 398.607C645.462 398.06 644.237 397.263 643.166 396.214L645.371 393.6C646.191 394.397 647.114 395.024 648.139 395.479C649.176 395.924 650.253 396.146 651.369 396.146C652.748 396.146 653.79 395.861 654.497 395.292C655.214 394.722 655.573 393.964 655.573 393.019C655.573 392.346 655.408 391.805 655.078 391.395C654.747 390.985 654.303 390.632 653.745 390.335C653.186 390.039 652.554 389.737 651.848 389.43L648.703 388.062C647.963 387.755 647.233 387.333 646.516 386.798C645.809 386.262 645.228 385.59 644.772 384.781C644.317 383.972 644.089 383.01 644.089 381.893C644.089 380.685 644.414 379.614 645.063 378.68C645.724 377.746 646.63 377.011 647.78 376.476C648.931 375.94 650.241 375.672 651.711 375.672C653.067 375.672 654.343 375.912 655.539 376.39C656.747 376.869 657.789 377.558 658.667 378.458L656.718 380.851C656 380.224 655.231 379.751 654.411 379.432C653.602 379.102 652.691 378.937 651.677 378.937C650.537 378.937 649.62 379.17 648.925 379.637C648.242 380.093 647.9 380.765 647.9 381.654C647.9 382.28 648.076 382.81 648.43 383.243C648.783 383.676 649.239 384.046 649.797 384.354C650.355 384.662 650.942 384.946 651.557 385.208L654.702 386.524C655.602 386.9 656.405 387.362 657.111 387.909C657.829 388.444 658.393 389.099 658.803 389.874C659.225 390.649 659.436 391.594 659.436 392.711C659.436 393.941 659.111 395.064 658.461 396.078C657.823 397.092 656.895 397.906 655.676 398.521C654.468 399.125 653.01 399.427 651.301 399.427ZM664.819 391.617L664.289 379.364L664.187 375.553H667.946L667.844 379.364L667.314 391.617H664.819ZM666.066 399.427C665.371 399.427 664.785 399.182 664.306 398.692C663.828 398.191 663.588 397.576 663.588 396.847C663.588 396.083 663.828 395.457 664.306 394.967C664.785 394.477 665.371 394.232 666.066 394.232C666.761 394.232 667.348 394.477 667.827 394.967C668.305 395.457 668.544 396.083 668.544 396.847C668.544 397.576 668.305 398.191 667.827 398.692C667.348 399.182 666.761 399.427 666.066 399.427ZM537.585 443.427C536.001 443.427 534.514 443.154 533.125 442.607C531.746 442.06 530.521 441.263 529.45 440.214L531.655 437.6C532.475 438.397 533.398 439.024 534.423 439.479C535.46 439.924 536.537 440.146 537.653 440.146C539.032 440.146 540.074 439.861 540.781 439.292C541.499 438.722 541.857 437.964 541.857 437.019C541.857 436.346 541.692 435.805 541.362 435.395C541.031 434.985 540.587 434.632 540.029 434.335C539.471 434.039 538.838 433.737 538.132 433.43L534.987 432.062C534.247 431.755 533.518 431.333 532.8 430.798C532.093 430.262 531.512 429.59 531.057 428.781C530.601 427.972 530.373 427.01 530.373 425.893C530.373 424.685 530.698 423.614 531.347 422.68C532.008 421.746 532.914 421.011 534.064 420.476C535.215 419.94 536.525 419.672 537.995 419.672C539.351 419.672 540.627 419.912 541.823 420.39C543.031 420.869 544.073 421.558 544.951 422.458L543.002 424.851C542.285 424.224 541.516 423.751 540.695 423.432C539.886 423.102 538.975 422.937 537.961 422.937C536.822 422.937 535.904 423.17 535.209 423.637C534.526 424.093 534.184 424.765 534.184 425.654C534.184 426.28 534.361 426.81 534.714 427.243C535.067 427.676 535.523 428.046 536.081 428.354C536.639 428.662 537.226 428.946 537.841 429.208L540.986 430.524C541.886 430.9 542.689 431.362 543.396 431.909C544.113 432.444 544.677 433.099 545.087 433.874C545.509 434.649 545.72 435.594 545.72 436.711C545.72 437.941 545.395 439.064 544.746 440.078C544.108 441.092 543.179 441.906 541.96 442.521C540.752 443.125 539.294 443.427 537.585 443.427ZM558.623 443.427C556.595 443.427 554.829 442.96 553.325 442.026C551.821 441.092 550.659 439.736 549.838 437.958C549.018 436.17 548.608 434.005 548.608 431.464C548.608 428.924 549.018 426.782 549.838 425.039C550.659 423.284 551.821 421.951 553.325 421.04C554.829 420.128 556.595 419.672 558.623 419.672C560.662 419.672 562.428 420.128 563.92 421.04C565.424 421.951 566.586 423.284 567.407 425.039C568.238 426.793 568.654 428.935 568.654 431.464C568.654 434.005 568.238 436.17 567.407 437.958C566.586 439.736 565.424 441.092 563.92 442.026C562.428 442.96 560.662 443.427 558.623 443.427ZM558.623 440.146C560.548 440.146 562.052 439.383 563.134 437.856C564.228 436.329 564.775 434.199 564.775 431.464C564.775 428.753 564.228 426.656 563.134 425.175C562.052 423.683 560.548 422.937 558.623 422.937C556.686 422.937 555.176 423.683 554.094 425.175C553.023 426.656 552.487 428.753 552.487 431.464C552.487 434.199 553.023 436.329 554.094 437.856C555.176 439.383 556.686 440.146 558.623 440.146ZM573.098 443L573.439 420.1H577.49L581.694 431.618L583.232 436.044H583.369L584.89 431.618L589.008 420.1H593.042L593.417 443H589.863L589.829 431.994C589.829 430.935 589.857 429.738 589.914 428.405C589.982 427.061 590.062 425.87 590.153 424.833H590.017L588.171 429.995L584.121 440.812H582.292L578.242 429.995L576.413 424.833H576.276C576.368 425.87 576.436 427.061 576.481 428.405C576.538 429.738 576.567 430.935 576.567 431.994V443H573.098ZM599.074 443V420.1H612.712V423.261H602.868V429.482H611.191V432.644H602.868V439.804H613.071V443H599.074ZM622.333 443V423.261H615.617V420.1H632.792V423.261H626.093V443H622.333ZM636.569 443V420.1H640.363V429.396H649.968V420.1H653.728V443H649.968V432.678H640.363V443H636.569ZM659.538 443V420.1H663.332V443H659.538ZM669.143 443V420.1H673.005L680.439 433.327L682.832 438.198H682.968C682.889 437.024 682.786 435.765 682.661 434.421C682.547 433.065 682.49 431.761 682.49 430.507V420.1H686.079V443H682.182L674.782 429.721L672.407 424.902H672.253C672.344 426.098 672.447 427.346 672.561 428.645C672.674 429.943 672.731 431.225 672.731 432.49V443H669.143ZM701.254 443.427C699.226 443.427 697.409 442.989 695.803 442.111C694.208 441.234 692.949 439.924 692.026 438.181C691.114 436.426 690.659 434.244 690.659 431.635C690.659 428.992 691.132 426.787 692.077 425.021C693.023 423.244 694.31 421.911 695.939 421.022C697.58 420.122 699.431 419.672 701.494 419.672C703.066 419.672 704.41 419.957 705.527 420.527C706.655 421.085 707.578 421.729 708.295 422.458L706.176 424.816C705.595 424.247 704.946 423.791 704.228 423.449C703.51 423.107 702.616 422.937 701.545 422.937C699.426 422.937 697.728 423.671 696.452 425.141C695.176 426.599 694.538 428.73 694.538 431.533C694.538 434.301 695.142 436.432 696.35 437.924C697.569 439.405 699.352 440.146 701.699 440.146C702.371 440.146 703.026 440.049 703.664 439.855C704.313 439.65 704.832 439.377 705.219 439.035V433.84H700.861V430.747H708.603V440.727C707.828 441.456 706.797 442.089 705.51 442.624C704.234 443.16 702.815 443.427 701.254 443.427ZM522.7 486L518.085 463.1H521.948L524.05 474.892C524.243 476.111 524.443 477.335 524.648 478.566C524.853 479.785 525.052 481.01 525.246 482.24H525.4C525.628 481.01 525.867 479.779 526.118 478.549C526.38 477.318 526.642 476.099 526.904 474.892L529.809 463.1H533.125L536.03 474.892C536.292 476.076 536.548 477.29 536.799 478.532C537.061 479.762 537.317 480.998 537.568 482.24H537.722C537.915 480.998 538.103 479.768 538.286 478.549C538.479 477.318 538.667 476.099 538.85 474.892L540.969 463.1H544.592L540.097 486H535.449L532.441 473.49C532.259 472.613 532.076 471.741 531.894 470.875C531.723 469.998 531.569 469.127 531.433 468.261H531.279C531.108 469.127 530.937 469.998 530.766 470.875C530.595 471.741 530.413 472.613 530.219 473.49L527.263 486H522.7ZM548.129 486V463.1H561.767V466.261H551.923V472.482H560.246V475.644H551.923V482.804H562.126V486H548.129ZM566.723 486V463.1H570.585L578.02 476.327L580.412 481.198H580.549C580.469 480.024 580.367 478.765 580.241 477.421C580.127 476.065 580.07 474.761 580.07 473.507V463.1H583.659V486H579.763L572.363 472.721L569.987 467.902H569.833C569.925 469.098 570.027 470.346 570.141 471.645C570.255 472.943 570.312 474.225 570.312 475.49V486H566.723ZM594.152 486V466.261H587.436V463.1H604.611V466.261H597.912V486H594.152ZM617.377 486L612.763 463.1H616.625L618.728 474.892C618.921 476.111 619.121 477.335 619.326 478.566C619.531 479.785 619.73 481.01 619.924 482.24H620.078C620.306 481.01 620.545 479.779 620.795 478.549C621.057 477.318 621.319 476.099 621.582 474.892L624.487 463.1H627.802L630.708 474.892C630.97 476.076 631.226 477.29 631.477 478.532C631.739 479.762 631.995 480.998 632.246 482.24H632.399C632.593 480.998 632.781 479.768 632.963 478.549C633.157 477.318 633.345 476.099 633.527 474.892L635.646 463.1H639.27L634.775 486H630.126L627.119 473.49C626.936 472.613 626.754 471.741 626.572 470.875C626.401 469.998 626.247 469.127 626.11 468.261H625.957C625.786 469.127 625.615 469.998 625.444 470.875C625.273 471.741 625.091 472.613 624.897 473.49L621.94 486H617.377ZM642.807 486V463.1H650.668C652.241 463.1 653.631 463.299 654.838 463.698C656.057 464.085 657.009 464.763 657.692 465.731C658.376 466.688 658.718 468.021 658.718 469.73C658.718 471.576 658.313 473.023 657.504 474.071C656.695 475.108 655.579 475.854 654.155 476.31L659.572 486H655.3L650.378 476.874H646.601V486H642.807ZM646.601 473.832H650.173C651.802 473.832 653.01 473.513 653.796 472.875C654.593 472.226 654.992 471.177 654.992 469.73C654.992 468.318 654.605 467.361 653.83 466.859C653.055 466.358 651.859 466.107 650.241 466.107H646.601V473.832ZM672.287 486.427C670.259 486.427 668.493 485.96 666.989 485.026C665.485 484.092 664.323 482.736 663.503 480.958C662.683 479.17 662.272 477.005 662.272 474.464C662.272 471.924 662.683 469.782 663.503 468.039C664.323 466.284 665.485 464.951 666.989 464.04C668.493 463.128 670.259 462.672 672.287 462.672C674.326 462.672 676.092 463.128 677.585 464.04C679.089 464.951 680.251 466.284 681.071 468.039C681.903 469.793 682.319 471.935 682.319 474.464C682.319 477.005 681.903 479.17 681.071 480.958C680.251 482.736 679.089 484.092 677.585 485.026C676.092 485.96 674.326 486.427 672.287 486.427ZM672.287 483.146C674.213 483.146 675.716 482.383 676.799 480.856C677.893 479.329 678.439 477.199 678.439 474.464C678.439 471.753 677.893 469.656 676.799 468.175C675.716 466.683 674.213 465.937 672.287 465.937C670.35 465.937 668.841 466.683 667.758 468.175C666.687 469.656 666.152 471.753 666.152 474.464C666.152 477.199 666.687 479.329 667.758 480.856C668.841 482.383 670.35 483.146 672.287 483.146ZM686.933 486V463.1H690.795L698.229 476.327L700.622 481.198H700.759C700.679 480.024 700.576 478.765 700.451 477.421C700.337 476.065 700.28 474.761 700.28 473.507V463.1H703.869V486H699.973L692.573 472.721L690.197 467.902H690.043C690.135 469.098 690.237 470.346 690.351 471.645C690.465 472.943 690.522 474.225 690.522 475.49V486H686.933ZM719.045 486.427C717.017 486.427 715.2 485.989 713.593 485.111C711.998 484.234 710.739 482.924 709.816 481.181C708.905 479.426 708.449 477.244 708.449 474.635C708.449 471.992 708.922 469.787 709.868 468.021C710.813 466.244 712.101 464.911 713.73 464.022C715.371 463.122 717.222 462.672 719.284 462.672C720.856 462.672 722.201 462.957 723.317 463.527C724.445 464.085 725.368 464.729 726.086 465.458L723.967 467.816C723.386 467.247 722.736 466.791 722.019 466.449C721.301 466.107 720.406 465.937 719.335 465.937C717.216 465.937 715.519 466.671 714.243 468.141C712.967 469.599 712.329 471.73 712.329 474.533C712.329 477.301 712.932 479.432 714.14 480.924C715.359 482.405 717.142 483.146 719.489 483.146C720.161 483.146 720.817 483.049 721.455 482.855C722.104 482.65 722.622 482.377 723.01 482.035V476.84H718.652V473.747H726.394V483.727C725.619 484.456 724.588 485.089 723.3 485.624C722.024 486.16 720.606 486.427 719.045 486.427Z" fill="#C9C9C9"/>
<path d="M443 760.947L458.268 751.786L478.625 650H486.259L506.107 751.786L520.866 760.947L521.375 764.001H443V760.947Z" fill="#FFD05B"/>
<path d="M458.268 751.786L443 760.947V764.001H521.375L520.866 760.947L506.107 751.786M458.268 751.786H506.107M458.268 751.786L478.625 650H486.259L506.107 751.786" stroke="#FFD05B" stroke-width="1.01786"/>
<path d="M469.465 692.75L464.885 715.652H499.583L495.117 692.75H469.465Z" fill="#FFF0CB"/>
</svg>
