<svg width="690" height="475" viewBox="0 0 690 475" fill="none" xmlns="http://www.w3.org/2000/svg">
<g clip-path="url(#clip0_3254_9045)">
<path opacity="0.18" d="M615.553 95.5564C622.143 133.077 584.471 170.079 596.11 206.318C602.809 227.251 622.905 240.305 640.229 253.769C667.76 275.121 693.165 306.144 689.363 340.776C685.252 378.129 649.683 404.539 614.331 417.274C481.723 465.002 27.607 548.844 0.720386 337.209C-4.40406 296.758 18.8318 256.675 44.9062 225.325C65.6467 200.398 181.173 88.3637 223.399 67.4473C411.496 -25.7556 596.144 -14.8871 615.553 95.5564Z" fill="#CACACA"/>
<path opacity="0.05" d="M385.137 41.3884C385.137 41.3884 633.823 39.2197 592.108 140.947C559.795 219.655 596.721 225.425 608.268 263.489C619.815 301.554 606.409 344.92 578.56 365.468C550.71 386.016 439.455 382.382 439.455 412.835C439.455 443.289 408.473 432.152 408.473 432.152H213.46L249.08 324.74L385.137 41.3884Z" fill="#000405"/>
<path d="M213.46 420.221H422.8V432.153H213.46V420.221ZM249.08 324.732H390.823V420.221H249.08V324.732Z" fill="#CACACA"/>
<path d="M249.08 324.732H390.823V420.221H249.08V324.732Z" fill="#CACACA"/>
<path d="M249.08 324.732H390.823V420.221H249.08V324.732Z" fill="url(#paint0_linear_3254_9045)"/>
<path d="M578.56 54.577V304.653C578.56 311.822 577.147 318.921 574.402 325.544C571.657 332.167 567.633 338.184 562.562 343.251C557.49 348.318 551.469 352.336 544.844 355.075C538.219 357.814 531.118 359.22 523.949 359.213H108.635C94.1647 359.213 80.2871 353.465 70.055 343.233C59.823 333.001 54.0747 319.123 54.0747 304.653V54.577C54.0736 47.411 55.484 40.3148 58.2253 33.6939C60.9666 27.0729 64.9852 21.0567 70.0516 15.9887C75.118 10.9208 81.1329 6.90035 87.7531 4.157C94.3732 1.41366 101.469 0.00110979 108.635 1.0278e-05H523.949C531.119 -0.00438983 538.22 1.40404 544.845 4.14482C551.471 6.8856 557.491 10.905 562.563 15.9734C567.634 21.0418 571.657 27.0598 574.402 33.6836C577.147 40.3073 578.56 47.407 578.56 54.577Z" fill="#CACACA"/>
<path d="M578.56 54.577V291.541H54.1333V54.577C54.1322 47.411 55.5426 40.3148 58.2839 33.6939C61.0252 27.0729 65.0438 21.0567 70.1102 15.9887C75.1765 10.9208 81.1915 6.90035 87.8117 4.157C94.4318 1.41366 101.527 0.00110979 108.694 1.02781e-05H523.949C531.119 -0.00438983 538.22 1.40404 544.845 4.14482C551.471 6.8856 557.491 10.905 562.563 15.9734C567.634 21.0418 571.657 27.0598 574.402 33.6836C577.147 40.3073 578.56 47.407 578.56 54.577Z" fill="url(#paint1_linear_3254_9045)"/>
<path d="M117.452 49.4453H488.003V122.519H117.452V49.4453Z" fill="url(#paint2_linear_3254_9045)"/>
<path d="M117.452 131.846H285.772V279.023H117.452V131.846Z" fill="url(#paint3_linear_3254_9045)"/>
<path d="M297.662 131.846H485.014V180.997H297.662V131.846Z" fill="url(#paint4_linear_3254_9045)"/>
<path d="M297.662 190.324H485.014V239.475H297.662V190.324Z" fill="url(#paint5_linear_3254_9045)"/>
<path d="M297.662 248.805H485.014V279.024H297.662V248.805Z" fill="url(#paint6_linear_3254_9045)"/>
<path d="M404.395 454.978H412.392L387.783 144.975L381.025 146.792L382.558 167.047L358.275 168.579L356.408 144.975L349.651 146.792L373.029 454.978H381.025L378.237 419.811L401.682 418.37L401.331 412.819L377.793 414.267L375.792 389.148L399.857 387.624L399.514 382.072L375.357 383.563L373.364 358.401L396.96 356.902L404.395 454.978ZM358.719 174.105L383.002 172.556L384.911 197.726L360.737 199.259L358.719 174.105ZM361.156 204.802L385.313 203.253L387.222 228.531L363.182 230.039L361.156 204.802ZM363.609 235.557L387.64 234.016L389.683 260.886L365.694 262.343L363.609 235.557ZM366.171 267.878L390.102 266.446L391.877 289.891L368.039 291.406L366.171 267.878ZM368.474 296.95L392.296 295.434L394.205 320.637L370.475 322.136L368.474 296.95ZM372.92 352.858L370.911 327.654L394.632 326.139L396.541 351.359L372.92 352.858ZM200.808 164.66V144.975H195.876V164.66H171.886V170.756H195.876V443.298H200.808V202.491L230.047 170.756H252.437V164.627L200.808 164.66ZM200.808 193.875V170.756H223.047L200.808 193.875ZM444.403 164.66V144.975H439.471V164.66H392.087V170.756H412.66L439.454 199.811V443.298H444.403V170.756H472.654V164.627L444.403 164.66ZM439.471 191.346L419.651 170.756H439.454L439.471 191.346Z" fill="#CACACA"/>
<g opacity="0.61">
<path d="M404.396 454.98H412.392L387.783 144.977L381.026 146.794L382.558 167.049L358.276 168.581L356.409 144.977L349.651 146.794L373.03 454.98H381.026L378.238 419.812L401.683 418.372L401.331 412.821L377.794 414.269L375.793 389.15L399.858 387.626L399.514 382.074L375.357 383.565L373.364 358.403L396.96 356.904L404.396 454.98ZM358.72 174.107L383.002 172.558L384.911 197.728L360.738 199.26L358.72 174.107ZM361.156 204.804L385.313 203.255L387.222 228.533L363.183 230.041L361.156 204.804ZM363.61 235.559L387.641 234.018L389.684 260.888L365.695 262.345L363.61 235.559ZM366.172 267.879L390.103 266.448L391.878 289.893L368.039 291.408L366.172 267.879ZM368.474 296.951L392.296 295.436L394.206 320.639L370.476 322.138L368.474 296.951ZM372.921 352.86L370.911 327.656L394.633 326.141L396.542 351.361L372.921 352.86Z" fill="url(#paint7_linear_3254_9045)"/>
<path d="M200.808 164.662V144.977H195.876V164.662H171.887V170.758H195.876V443.299H200.808V202.493L230.047 170.758H252.438V164.629L200.808 164.662ZM200.808 193.876V170.758H223.047L200.808 193.876Z" fill="url(#paint8_linear_3254_9045)"/>
<path d="M444.403 164.662V144.977H439.471V164.662H392.087V170.758H412.66L439.455 199.813V443.299H444.403V170.758H472.655V164.629L444.403 164.662ZM439.471 191.348L419.652 170.758H439.455L439.471 191.348Z" fill="url(#paint9_linear_3254_9045)"/>
</g>
<path d="M392.823 227.393L392.254 232.5H380.456C380.456 232.5 379.493 229.553 381.645 228.816C382.825 228.399 384.042 228.094 385.279 227.903L392.823 227.393Z" fill="#CACACA"/>
<path d="M376.37 121.603C375.827 126.175 376.11 130.806 377.208 135.277C377.866 136.125 378.738 136.782 379.734 137.181C380.731 137.58 381.815 137.706 382.876 137.546V140.946H388.554L390.932 123.931C390.932 123.931 382.048 112.585 376.37 121.603Z" fill="url(#paint10_linear_3254_9045)"/>
<path d="M380.348 123.304C381.236 125.083 381.803 127.005 382.022 128.981C382.022 128.981 383.153 126.712 383.697 127.842C384.241 128.973 382.567 131.25 382.567 131.25L384.241 134.08H389.977C389.977 134.08 392.815 121.663 391.224 119.955C389.634 118.247 388.562 118.28 388.562 118.28C388.562 118.28 388.562 116.605 385.154 116.605C381.746 116.605 377.216 116.605 375.516 119.444C373.816 122.283 373.247 121.119 373.247 121.119C373.247 121.119 374.21 123.22 375.684 122.71C376.035 122.626 379.778 121.604 380.348 123.304Z" fill="#333333"/>
<path d="M382.893 140.947H392.43C392.43 140.947 396.457 141.785 397.018 151.439C397.362 158.035 397.362 164.645 397.018 171.242V187.067L392.43 185.535L375.407 189.336L373.732 166.134C371.966 165.919 370.268 165.322 368.756 164.385C367.243 163.448 365.953 162.194 364.974 160.708C363.735 158.85 362.955 156.724 362.699 154.505C362.442 152.287 362.717 150.039 363.5 147.947L375.348 154.185L375.976 150.836C376.626 147.207 378.658 143.971 381.645 141.81L382.893 140.947Z" fill="#CACACA"/>
<path d="M365.083 144.808L362.253 135.732L373.54 134.023L377.342 146.391L375.24 153.826L368.491 150.418L365.083 144.808Z" fill="#FCFDFF"/>
<path d="M362.814 149.906C363.006 148.007 363.802 146.22 365.083 144.807L365.653 145.368H369.228L369.797 147.587L368.491 149.454C367.708 150.108 366.742 150.503 365.725 150.584C364.708 150.665 363.69 150.428 362.814 149.906Z" fill="url(#paint11_linear_3254_9045)"/>
<path d="M368.491 150.418L371.271 157.795L375.24 153.826L368.491 150.418Z" fill="url(#paint12_linear_3254_9045)"/>
<path opacity="0.61" d="M373.54 165.733C373.54 165.733 382.617 162.325 382.617 156.656L384.894 182.706L375.24 184.991L373.54 165.733Z" fill="url(#paint13_linear_3254_9045)"/>
<path d="M375.24 184.965L373.54 213.216L375.809 227.962H382.617L383.747 203.629L387.716 193.414L384.886 227.962L392.824 228.531L396.734 182.696L392.254 180.996L375.24 184.965Z" fill="#333333"/>
<path d="M382.273 227.963V233.64L370.308 229.37C370.308 229.37 370.308 226.246 372.627 226.246C373.883 226.239 375.137 226.354 376.37 226.59L382.273 227.963ZM226.112 452.032L226.698 457.123H238.504C238.504 457.123 239.467 454.175 237.307 453.438C236.13 453.02 234.916 452.718 233.681 452.534L226.112 452.032Z" fill="#CACACA"/>
<path d="M234.276 345.155C236.328 349.242 237.635 353.663 238.136 358.209C237.458 361.441 233.481 362.178 233.481 362.178L234.561 365.41L228.892 367.394L221.172 352.079C221.172 352.079 225.995 338.406 234.276 345.155Z" fill="url(#paint14_linear_3254_9045)"/>
<path d="M231.044 348.053C230.717 349.929 230.717 351.846 231.044 353.722C231.044 353.722 229.227 351.963 229.059 353.211C228.892 354.459 231.211 356.05 231.211 356.05L230.533 359.282L225.375 361.04C225.375 361.04 218.676 350.155 219.698 348.053C220.719 345.951 221.23 345.725 221.23 345.725C221.23 345.725 220.661 344.134 223.893 343.004C227.125 341.874 231.429 340.492 233.941 342.611C236.453 344.729 236.603 343.448 236.603 343.448C236.603 343.448 236.603 345.717 234.786 345.776C234.962 346.01 231.044 346.236 231.044 348.053Z" fill="#333333"/>
<path d="M236.319 365.469H226.79C226.79 365.469 222.763 366.306 222.194 375.96C221.85 382.554 221.85 389.161 222.194 395.755V411.58L226.79 410.048L243.805 413.85L245.48 390.656C247.24 390.366 248.917 389.698 250.396 388.7C251.874 387.701 253.119 386.395 254.045 384.87C255.281 383.008 256.059 380.881 256.315 378.662C256.571 376.443 256.298 374.194 255.519 372.1L243.663 378.338L243.035 374.989C242.383 371.363 240.351 368.13 237.366 365.971L236.319 365.469Z" fill="#CACACA"/>
<path d="M253.852 369.378L256.682 360.36L245.337 358.66L241.594 371.027L243.637 378.455L250.444 375.055L253.852 369.378Z" fill="#FCFDFF"/>
<path d="M256.113 374.545C255.928 372.642 255.132 370.85 253.844 369.438L253.283 370.007H249.708L249.138 372.217L250.444 374.085C251.226 374.738 252.19 375.134 253.206 375.216C254.221 375.299 255.237 375.064 256.113 374.545Z" fill="url(#paint15_linear_3254_9045)"/>
<path opacity="0.61" d="M245.337 390.538C245.337 390.538 236.26 387.138 236.26 381.461L236.997 412.208L243.637 413.681L245.337 390.538Z" fill="url(#paint16_linear_3254_9045)"/>
<path d="M243.637 409.596L245.337 437.847L243.126 452.593H236.319L235.188 428.26L231.211 418.045L234.049 452.593L226.112 453.162L222.143 407.327L226.673 405.627L243.637 409.596Z" fill="#333333"/>
<path d="M236.662 452.593V456.57L249.08 456.001C249.08 456.001 248.519 452.032 246.249 452.032C245.028 452.081 243.814 451.807 242.733 451.236L236.662 452.593Z" fill="#CACACA"/>
<g filter="url(#filter0_d_3254_9045)">
<path d="M505.145 117H423.831C412.735 116.995 402.095 113.779 394.251 108.058C386.406 102.336 382 94.5782 382 86.4891V73.4938C382 65.4063 386.407 57.6501 394.252 51.9314C402.097 46.2127 412.737 43 423.831 43H505.145C510.641 42.9978 516.083 43.7848 521.161 45.3163C526.238 46.8477 530.853 49.0935 534.74 51.9254C538.626 54.7572 541.71 58.1196 543.813 61.8203C545.917 65.5211 547 69.4878 547 73.4938V86.4891C547 90.4959 545.917 94.4634 543.814 98.1651C541.711 101.867 538.628 105.23 534.741 108.064C530.854 110.897 526.24 113.144 521.162 114.678C516.084 116.211 510.642 117 505.145 117Z" fill="white"/>
</g>
<g filter="url(#filter1_d_3254_9045)">
<path d="M396.179 130.151C396.179 130.151 408.619 131.166 411.597 116H420.822C420.822 116 414.637 135.211 396.179 130.151Z" fill="white"/>
</g>
<path d="M172.981 346.537H202.086C206 346.522 209.753 344.627 212.541 341.259C215.329 337.891 216.93 333.318 217 328.52V320.357C217 315.488 215.423 310.819 212.615 307.377C209.807 303.934 205.998 302 202.027 302H172.981C169.008 302 165.197 303.935 162.388 307.38C159.578 310.824 158 315.496 158 320.367V328.531C158.077 333.339 159.689 337.919 162.491 341.286C165.292 344.653 169.058 346.538 172.981 346.537ZM213.587 356.453C213.587 356.453 201.683 357.154 198.833 346.681H190.064C190.064 346.681 195.772 359.802 213.587 356.453Z" fill="white"/>
<path opacity="0.61" d="M250.219 375.617C250.219 375.617 248.544 382.994 246.25 381.864C245.571 381.516 244.97 381.035 244.483 380.449C243.995 379.864 243.63 379.186 243.411 378.456L250.219 375.617Z" fill="url(#paint17_linear_3254_9045)"/>
<path d="M185.081 331.403C184.638 329.327 184.517 327.644 184.717 326.344C184.916 325.047 185.43 323.849 186.264 322.749C187.095 321.649 187.699 320.678 188.073 319.835C188.446 318.989 188.542 318.125 188.354 317.246C187.897 315.101 186.772 314.219 184.98 314.601C184.152 314.778 183.551 315.234 183.176 315.965C182.798 316.699 182.71 317.6 182.91 318.673L175.922 320.163C175.341 317.32 175.737 314.923 177.108 312.972C178.479 311.024 180.708 309.722 183.796 309.063C186.869 308.408 189.408 308.633 191.407 309.736C193.406 310.84 194.697 312.741 195.272 315.439C195.524 316.62 195.525 317.741 195.275 318.803C195.025 319.865 194.506 321.011 193.714 322.232L191.824 325.021C191.292 325.831 190.967 326.617 190.856 327.377C190.745 328.138 190.79 329.061 190.992 330.146L185.081 331.406L185.081 331.403ZM185.613 338.065C185.389 337.015 185.575 336.073 186.166 335.24C186.758 334.407 187.607 333.874 188.709 333.639C189.811 333.404 190.803 333.544 191.683 334.063C192.563 334.582 193.116 335.367 193.341 336.417C193.565 337.468 193.379 338.41 192.788 339.243C192.193 340.076 191.347 340.609 190.245 340.844C189.143 341.079 188.151 340.938 187.271 340.419C186.391 339.9 185.837 339.116 185.613 338.065Z" fill="#FFD05B"/>
<path d="M427.523 70.8578C427.472 70.379 427.256 70.0061 426.876 69.7393C426.5 69.4725 426.01 69.339 425.407 69.339C424.983 69.339 424.619 69.403 424.316 69.5309C424.012 69.6589 423.78 69.8325 423.619 70.0518C423.458 70.2711 423.376 70.5215 423.372 70.803C423.372 71.0369 423.426 71.2398 423.532 71.4116C423.641 71.5834 423.789 71.7296 423.976 71.8502C424.162 71.9672 424.369 72.0659 424.595 72.1463C424.822 72.2267 425.05 72.2943 425.281 72.3492L426.333 72.6124C426.757 72.7111 427.165 72.8445 427.556 73.0126C427.951 73.1808 428.304 73.3928 428.614 73.6486C428.929 73.9045 429.177 74.2134 429.36 74.5753C429.543 74.9371 429.634 75.3611 429.634 75.8473C429.634 76.5053 429.466 77.0846 429.13 77.5854C428.793 78.0825 428.307 78.4718 427.671 78.7533C427.039 79.0311 426.273 79.17 425.374 79.17C424.5 79.17 423.742 79.0347 423.098 78.7642C422.459 78.4937 421.958 78.099 421.596 77.5799C421.238 77.0609 421.044 76.4285 421.015 75.6828H423.016C423.045 76.0739 423.166 76.3993 423.378 76.6588C423.59 76.9183 423.866 77.112 424.206 77.24C424.55 77.3679 424.933 77.4319 425.357 77.4319C425.8 77.4319 426.187 77.3661 426.52 77.2345C426.856 77.0992 427.119 76.9128 427.309 76.6752C427.499 76.434 427.596 76.1525 427.6 75.8309C427.596 75.5384 427.51 75.2972 427.342 75.1071C427.174 74.9134 426.938 74.7525 426.635 74.6246C426.335 74.493 425.984 74.376 425.582 74.2737L424.305 73.9447C423.38 73.7071 422.649 73.3471 422.111 72.8646C421.578 72.3784 421.311 71.7333 421.311 70.9291C421.311 70.2675 421.49 69.6881 421.848 69.191C422.21 68.6939 422.702 68.3082 423.323 68.0341C423.945 67.7563 424.648 67.6174 425.434 67.6174C426.231 67.6174 426.929 67.7563 427.529 68.0341C428.132 68.3082 428.605 68.6902 428.949 69.18C429.292 69.6662 429.47 70.2254 429.481 70.8578H427.523ZM441.481 73.3855C441.481 74.5954 441.255 75.6316 440.801 76.4943C440.352 77.3533 439.738 78.0112 438.959 78.4682C438.184 78.9251 437.305 79.1535 436.322 79.1535C435.339 79.1535 434.458 78.9251 433.679 78.4682C432.904 78.0076 432.29 77.3478 431.837 76.4888C431.387 75.6262 431.162 74.5917 431.162 73.3855C431.162 72.1755 431.387 71.1411 431.837 70.2821C432.29 69.4195 432.904 68.7597 433.679 68.3028C434.458 67.8458 435.339 67.6174 436.322 67.6174C437.305 67.6174 438.184 67.8458 438.959 68.3028C439.738 68.7597 440.352 69.4195 440.801 70.2821C441.255 71.1411 441.481 72.1755 441.481 73.3855ZM439.436 73.3855C439.436 72.5338 439.303 71.8155 439.036 71.2307C438.773 70.6421 438.407 70.198 437.939 69.8983C437.471 69.5949 436.932 69.4432 436.322 69.4432C435.711 69.4432 435.172 69.5949 434.704 69.8983C434.237 70.198 433.869 70.6421 433.602 71.2307C433.339 71.8155 433.208 72.5338 433.208 73.3855C433.208 74.2371 433.339 74.9572 433.602 75.5457C433.869 76.1306 434.237 76.5747 434.704 76.8781C435.172 77.1778 435.711 77.3277 436.322 77.3277C436.932 77.3277 437.471 77.1778 437.939 76.8781C438.407 76.5747 438.773 76.1306 439.036 75.5457C439.303 74.9572 439.436 74.2371 439.436 73.3855ZM443.404 67.7709H445.894L449.227 75.9076H449.359L452.693 67.7709H455.182V79H453.23V71.2855H453.126L450.022 78.9671H448.564L445.461 71.269H445.356V79H443.404V67.7709ZM457.397 79V67.7709H464.7V69.4761H459.431V72.5246H464.322V74.2298H459.431V77.2948H464.744V79H457.397ZM466.282 69.4761V67.7709H475.241V69.4761H471.771V79H469.753V69.4761H466.282ZM476.968 79V67.7709H479.003V72.5246H484.206V67.7709H486.246V79H484.206V74.2298H479.003V79H476.968ZM490.492 67.7709V79H488.458V67.7709H490.492ZM501.923 67.7709V79H500.113L494.822 71.3513H494.729V79H492.695V67.7709H494.515L499.801 75.4251H499.899V67.7709H501.923ZM511.662 71.3568C511.57 71.0607 511.444 70.7957 511.283 70.5617C511.126 70.3241 510.936 70.1213 510.713 69.9531C510.494 69.785 510.242 69.6589 509.957 69.5748C509.671 69.4871 509.361 69.4432 509.024 69.4432C508.421 69.4432 507.884 69.5949 507.412 69.8983C506.941 70.2017 506.57 70.6476 506.299 71.2361C506.033 71.821 505.899 72.5338 505.899 73.3745C505.899 74.2225 506.033 74.9408 506.299 75.5293C506.566 76.1178 506.937 76.5656 507.412 76.8726C507.888 77.176 508.44 77.3277 509.068 77.3277C509.639 77.3277 510.132 77.218 510.549 76.9987C510.969 76.7794 511.293 76.4687 511.519 76.0666C511.746 75.6609 511.859 75.1857 511.859 74.6411L512.32 74.7123H509.271V73.1223H513.828V74.4711C513.828 75.4324 513.623 76.264 513.213 76.9658C512.804 77.6676 512.241 78.2086 511.525 78.5888C510.808 78.9653 509.986 79.1535 509.057 79.1535C508.023 79.1535 507.115 78.9214 506.332 78.4572C505.554 77.9893 504.945 77.3259 504.507 76.4669C504.072 75.6042 503.854 74.5807 503.854 73.3964C503.854 72.4899 503.982 71.6803 504.238 70.9675C504.497 70.2547 504.859 69.6497 505.323 69.1526C505.788 68.6518 506.332 68.2717 506.957 68.0122C507.582 67.749 508.262 67.6174 508.997 67.6174C509.618 67.6174 510.198 67.7088 510.735 67.8915C511.272 68.0706 511.749 68.3265 512.166 68.6591C512.587 68.9918 512.932 69.3866 513.202 69.8435C513.473 70.3004 513.65 70.8048 513.734 71.3568H511.662ZM413.071 98L409.902 86.7709H412.089L414.112 95.0228H414.217L416.377 86.7709H418.367L420.533 95.0282H420.632L422.655 86.7709H424.843L421.673 98H419.667L417.419 90.121H417.331L415.077 98H413.071ZM426.253 98V86.7709H433.556V88.4761H428.287V91.5246H433.178V93.2298H428.287V96.2948H433.6V98H426.253ZM444.86 86.7709V98H443.05L437.759 90.3513H437.666V98H435.632V86.7709H437.452L442.738 94.4251H442.836V86.7709H444.86ZM446.583 88.4761V86.7709H455.542V88.4761H452.071V98H450.053V88.4761H446.583ZM463.462 98L460.293 86.7709H462.48L464.504 95.0228H464.608L466.768 86.7709H468.758L470.924 95.0282H471.023L473.046 86.7709H475.234L472.065 98H470.058L467.81 90.121H467.722L465.469 98H463.462ZM476.644 98V86.7709H480.855C481.718 86.7709 482.442 86.9208 483.026 87.2205C483.615 87.5202 484.059 87.9406 484.359 88.4816C484.662 89.0189 484.814 89.6458 484.814 90.3622C484.814 91.0823 484.66 91.7074 484.353 92.2374C484.05 92.7638 483.602 93.1713 483.01 93.4601C482.418 93.7452 481.69 93.8878 480.828 93.8878H477.829V92.199H480.554C481.058 92.199 481.471 92.1296 481.793 91.9907C482.114 91.8481 482.352 91.6416 482.505 91.3711C482.663 91.097 482.741 90.7607 482.741 90.3622C482.741 89.9638 482.663 89.6239 482.505 89.3424C482.348 89.0573 482.109 88.8416 481.787 88.6954C481.466 88.5456 481.051 88.4706 480.543 88.4706H478.678V98H476.644ZM482.445 92.9118L485.225 98H482.955L480.225 92.9118H482.445ZM496.72 92.3855C496.72 93.5954 496.493 94.6316 496.04 95.4943C495.591 96.3533 494.976 97.0112 494.198 97.4682C493.423 97.9251 492.544 98.1535 491.561 98.1535C490.577 98.1535 489.696 97.9251 488.918 97.4682C488.143 97.0076 487.529 96.3478 487.076 95.4888C486.626 94.6262 486.401 93.5917 486.401 92.3855C486.401 91.1755 486.626 90.1411 487.076 89.2821C487.529 88.4195 488.143 87.7597 488.918 87.3028C489.696 86.8458 490.577 86.6174 491.561 86.6174C492.544 86.6174 493.423 86.8458 494.198 87.3028C494.976 87.7597 495.591 88.4195 496.04 89.2821C496.493 90.1411 496.72 91.1755 496.72 92.3855ZM494.675 92.3855C494.675 91.5338 494.541 90.8155 494.275 90.2307C494.011 89.6421 493.646 89.198 493.178 88.8983C492.71 88.5949 492.171 88.4432 491.561 88.4432C490.95 88.4432 490.411 88.5949 489.943 88.8983C489.475 89.198 489.108 89.6421 488.841 90.2307C488.578 90.8155 488.446 91.5338 488.446 92.3855C488.446 93.2371 488.578 93.9572 488.841 94.5457C489.108 95.1306 489.475 95.5747 489.943 95.8781C490.411 96.1778 490.95 96.3277 491.561 96.3277C492.171 96.3277 492.71 96.1778 493.178 95.8781C493.646 95.5747 494.011 95.1306 494.275 94.5457C494.541 93.9572 494.675 93.2371 494.675 92.3855ZM507.871 86.7709V98H506.062L500.771 90.3513H500.677V98H498.643V86.7709H500.464L505.749 94.4251H505.848V86.7709H507.871ZM517.61 90.3568C517.519 90.0607 517.393 89.7957 517.232 89.5617C517.075 89.3241 516.885 89.1213 516.662 88.9531C516.442 88.785 516.19 88.6589 515.905 88.5748C515.62 88.4871 515.309 88.4432 514.973 88.4432C514.37 88.4432 513.832 88.5949 513.361 88.8983C512.889 89.2017 512.518 89.6476 512.248 90.2361C511.981 90.821 511.848 91.5338 511.848 92.3745C511.848 93.2225 511.981 93.9408 512.248 94.5293C512.515 95.1178 512.886 95.5656 513.361 95.8726C513.836 96.176 514.388 96.3277 515.017 96.3277C515.587 96.3277 516.08 96.218 516.497 95.9987C516.917 95.7794 517.241 95.4687 517.468 95.0666C517.694 94.6609 517.807 94.1857 517.807 93.6411L518.268 93.7123H515.22V92.1223H519.776V93.4711C519.776 94.4324 519.571 95.264 519.162 95.9658C518.752 96.6676 518.189 97.2086 517.473 97.5888C516.757 97.9653 515.934 98.1535 515.006 98.1535C513.971 98.1535 513.063 97.9214 512.281 97.4572C511.502 96.9893 510.893 96.3259 510.455 95.4669C510.02 94.6042 509.802 93.5807 509.802 92.3964C509.802 91.4899 509.93 90.6803 510.186 89.9675C510.446 89.2547 510.808 88.6497 511.272 88.1526C511.736 87.6518 512.281 87.2717 512.906 87.0122C513.531 86.749 514.211 86.6174 514.945 86.6174C515.567 86.6174 516.146 86.7088 516.683 86.8915C517.221 87.0706 517.698 87.3265 518.115 87.6591C518.535 87.9918 518.88 88.3866 519.151 88.8435C519.421 89.3004 519.599 89.8048 519.683 90.3568H517.61ZM524.084 86.7709L523.903 94.6993H522.138L521.962 86.7709H524.084ZM523.02 98.1206C522.688 98.1206 522.403 98.0037 522.165 97.7697C521.931 97.5358 521.814 97.2507 521.814 96.9144C521.814 96.5854 521.931 96.3039 522.165 96.07C522.403 95.8361 522.688 95.7191 523.02 95.7191C523.346 95.7191 523.627 95.8361 523.865 96.07C524.106 96.3039 524.227 96.5854 524.227 96.9144C524.227 97.1373 524.17 97.3402 524.057 97.523C523.947 97.7057 523.801 97.852 523.618 97.9616C523.439 98.0676 523.24 98.1206 523.02 98.1206Z" fill="#454040"/>
<path d="M526.922 37.7286C526.809 37.8672 526.357 38.0178 526.018 38.0178H525.143C524.352 38.0178 523.901 37.6593 524.212 37.3158L528.052 33.3746L524.212 29.4335C523.901 29.0884 524.325 28.7314 525.143 28.7314H526.018C526.357 28.7314 526.809 28.8836 526.922 29.0207L529.605 31.749C530.479 30.8391 531.383 29.9306 532.258 29.0207C532.371 28.87 532.823 28.7314 533.162 28.7314H534.038C534.828 28.7314 535.279 29.09 534.941 29.4335L531.157 33.3746L534.997 37.3158C535.338 37.6608 534.914 38.0178 534.093 38.0178H533.219C532.879 38.0178 532.428 37.8808 532.287 37.7286L529.634 34.9867L526.922 37.7286ZM515.023 26H505.804C504.566 26 503.554 27.0124 503.554 28.2508V31.8876H505.551V28.2508C505.551 28.1182 505.658 27.9977 505.804 27.9977H515.023C515.169 27.9977 515.29 28.1182 515.29 28.2508V32.8458C515.29 32.992 515.169 33.1125 515.023 33.1125H509.868V35.1102H515.023C516.275 35.1102 517.287 34.0978 517.287 32.8458V28.2508C517.285 27.6522 517.045 27.0791 516.621 26.6571C516.196 26.2351 515.622 25.9988 515.023 26Z" fill="#595959"/>
<path d="M509.601 29.8906H500.383C499.144 29.8906 498.132 30.903 498.132 32.1414V36.7364C498.131 37.335 498.367 37.9096 498.789 38.3341C499.211 38.7586 499.784 38.9984 500.383 39.0008H509.601C510.853 39.0008 511.866 37.9884 511.866 36.7364V32.1414C511.863 31.5429 511.624 30.9697 511.199 30.5477C510.775 30.1257 510.2 29.8894 509.601 29.8906ZM509.868 36.7364C509.868 36.8826 509.747 37.0031 509.601 37.0031H500.383C500.25 37.0031 500.13 36.8826 500.13 36.7364V32.1414C500.13 32.0088 500.25 31.8883 500.383 31.8883H509.601C509.747 31.8883 509.868 32.0088 509.868 32.1414V36.7364ZM491.211 33.3753H479.661C479.486 33.3749 479.318 33.3051 479.194 33.1811C479.07 33.0572 479 32.8892 479 32.7139V31.2179C479 31.0426 479.07 30.8746 479.194 30.7507C479.318 30.6267 479.486 30.5569 479.661 30.5565H491.211C491.386 30.5569 491.554 30.6267 491.678 30.7507C491.802 30.8746 491.872 31.0426 491.872 31.2179V32.7139C491.872 32.8892 491.802 33.0572 491.678 33.1811C491.554 33.3051 491.386 33.3749 491.211 33.3753Z" fill="#595959"/>
<path d="M329.892 470.754H379.637V476.782H329.892V470.754Z" fill="#FFBE55"/>
<path d="M369.4 447.381H340.127L343.122 436.303H366.405L369.4 447.381Z" fill="#F7F7F7"/>
<path d="M375.716 470.754H333.812L340.128 447.381H369.401L375.716 470.754Z" fill="#FFD05B"/>
<path d="M366.405 436.302H343.123L349.147 414C349.147 414 349.445 418.571 354.768 418.571C360.084 418.571 360.382 414 360.382 414L366.405 436.302Z" fill="#FFD05B"/>
<path opacity="0.72" d="M306.404 431.781C306.404 431.781 306.185 435.14 302.279 435.14C298.368 435.14 298.149 431.781 298.149 431.781H306.404Z" fill="#FFBE55"/>
<path d="M284 473.484H320.553V477.914H284V473.484Z" fill="#FFBE55"/>
<path d="M313.032 456.31H291.522L293.723 448.17H310.831L313.032 456.31Z" fill="#F7F7F7"/>
<path d="M317.672 473.486H286.881L291.522 456.311H313.032L317.672 473.486Z" fill="#FFD05B"/>
<path d="M310.831 448.169H293.723L298.149 431.781C298.149 431.781 298.368 435.14 302.279 435.14C306.186 435.14 306.404 431.781 306.404 431.781L310.831 448.169Z" fill="#FFD05B"/>
<path opacity="0.74" d="M360.381 414.002C360.381 414.002 360.084 418.573 354.768 418.573C349.445 418.573 349.146 414.002 349.146 414.002H360.381Z" fill="#FFBE55"/>
<g filter="url(#filter2_d_3254_9045)">
<path d="M382.583 59.3017C381.435 61.2899 382.87 63.775 385.165 63.775H413.835C416.131 63.775 417.565 61.2898 416.417 59.3017L402.083 34.4732C400.935 32.4851 398.065 32.4851 396.917 34.4732L382.583 59.3017Z" fill="#FFD05B"/>
<path d="M382.583 59.3017C381.435 61.2899 382.87 63.775 385.165 63.775H413.835C416.131 63.775 417.565 61.2898 416.417 59.3017L402.083 34.4732C400.935 32.4851 398.065 32.4851 396.917 34.4732L382.583 59.3017Z" stroke="#1A1A1A" stroke-linecap="round" stroke-linejoin="round"/>
</g>
<path d="M397.85 57.5682C397.85 56.5615 398.549 55.8344 399.5 55.8344C400.507 55.8344 401.15 56.5615 401.15 57.5682C401.15 58.547 400.507 59.302 399.5 59.302C398.521 59.302 397.85 58.547 397.85 57.5682ZM399.5 53.5693C398.97 53.5693 398.537 53.1482 398.521 52.6189L398.197 41.4882C398.175 40.7536 398.765 40.1465 399.5 40.1465C400.235 40.1465 400.825 40.7536 400.803 41.4882L400.479 52.6189C400.463 53.1482 400.03 53.5693 399.5 53.5693Z" fill="black"/>
</g>
<defs>
<filter id="filter0_d_3254_9045" x="380" y="43" width="169" height="78" filterUnits="userSpaceOnUse" color-interpolation-filters="sRGB">
<feFlood flood-opacity="0" result="BackgroundImageFix"/>
<feColorMatrix in="SourceAlpha" type="matrix" values="0 0 0 0 0 0 0 0 0 0 0 0 0 0 0 0 0 0 127 0" result="hardAlpha"/>
<feOffset dy="2"/>
<feGaussianBlur stdDeviation="1"/>
<feComposite in2="hardAlpha" operator="out"/>
<feColorMatrix type="matrix" values="0 0 0 0 0 0 0 0 0 0 0 0 0 0 0 0 0 0 0.25 0"/>
<feBlend mode="normal" in2="BackgroundImageFix" result="effect1_dropShadow_3254_9045"/>
<feBlend mode="normal" in="SourceGraphic" in2="effect1_dropShadow_3254_9045" result="shape"/>
</filter>
<filter id="filter1_d_3254_9045" x="395.179" y="116" width="26.6431" height="18" filterUnits="userSpaceOnUse" color-interpolation-filters="sRGB">
<feFlood flood-opacity="0" result="BackgroundImageFix"/>
<feColorMatrix in="SourceAlpha" type="matrix" values="0 0 0 0 0 0 0 0 0 0 0 0 0 0 0 0 0 0 127 0" result="hardAlpha"/>
<feOffset dy="2"/>
<feGaussianBlur stdDeviation="0.5"/>
<feComposite in2="hardAlpha" operator="out"/>
<feColorMatrix type="matrix" values="0 0 0 0 0 0 0 0 0 0 0 0 0 0 0 0 0 0 0.25 0"/>
<feBlend mode="normal" in2="BackgroundImageFix" result="effect1_dropShadow_3254_9045"/>
<feBlend mode="normal" in="SourceGraphic" in2="effect1_dropShadow_3254_9045" result="shape"/>
</filter>
<filter id="filter2_d_3254_9045" x="378.678" y="32.4824" width="38.6445" height="34.793" filterUnits="userSpaceOnUse" color-interpolation-filters="sRGB">
<feFlood flood-opacity="0" result="BackgroundImageFix"/>
<feColorMatrix in="SourceAlpha" type="matrix" values="0 0 0 0 0 0 0 0 0 0 0 0 0 0 0 0 0 0 127 0" result="hardAlpha"/>
<feOffset dx="-2" dy="2"/>
<feGaussianBlur stdDeviation="0.5"/>
<feComposite in2="hardAlpha" operator="out"/>
<feColorMatrix type="matrix" values="0 0 0 0 0 0 0 0 0 0 0 0 0 0 0 0 0 0 0.25 0"/>
<feBlend mode="normal" in2="BackgroundImageFix" result="effect1_dropShadow_3254_9045"/>
<feBlend mode="normal" in="SourceGraphic" in2="effect1_dropShadow_3254_9045" result="shape"/>
</filter>
<linearGradient id="paint0_linear_3254_9045" x1="319.96" y1="343.623" x2="319.96" y2="472.135" gradientUnits="userSpaceOnUse">
<stop stop-opacity="0.4"/>
<stop offset="1" stop-color="white" stop-opacity="0"/>
</linearGradient>
<linearGradient id="paint1_linear_3254_9045" x1="142.865" y1="-32.9991" x2="568.52" y2="447.183" gradientUnits="userSpaceOnUse">
<stop offset="0.02" stop-color="white" stop-opacity="0"/>
<stop offset="1" stop-color="white"/>
</linearGradient>
<linearGradient id="paint2_linear_3254_9045" x1="292.537" y1="529.142" x2="307.685" y2="-129.785" gradientUnits="userSpaceOnUse">
<stop offset="0.02" stop-color="white" stop-opacity="0"/>
<stop offset="1" stop-color="white"/>
</linearGradient>
<linearGradient id="paint3_linear_3254_9045" x1="192.552" y1="599.602" x2="207.699" y2="-59.3245" gradientUnits="userSpaceOnUse">
<stop offset="0.02" stop-color="white" stop-opacity="0"/>
<stop offset="1" stop-color="white"/>
</linearGradient>
<linearGradient id="paint4_linear_3254_9045" x1="381.495" y1="584.664" x2="396.642" y2="-74.2624" gradientUnits="userSpaceOnUse">
<stop offset="0.02" stop-color="white" stop-opacity="0"/>
<stop offset="1" stop-color="white"/>
</linearGradient>
<linearGradient id="paint5_linear_3254_9045" x1="381.177" y1="657.084" x2="396.324" y2="-1.8424" gradientUnits="userSpaceOnUse">
<stop offset="0.02" stop-color="white" stop-opacity="0"/>
<stop offset="1" stop-color="white"/>
</linearGradient>
<linearGradient id="paint6_linear_3254_9045" x1="386.092" y1="492.174" x2="401.239" y2="-166.744" gradientUnits="userSpaceOnUse">
<stop offset="0.02" stop-color="white" stop-opacity="0"/>
<stop offset="1" stop-color="white"/>
</linearGradient>
<linearGradient id="paint7_linear_3254_9045" x1="448.598" y1="482.997" x2="277.817" y2="24.661" gradientUnits="userSpaceOnUse">
<stop offset="0.58"/>
<stop offset="0.78" stop-opacity="0.16"/>
</linearGradient>
<linearGradient id="paint8_linear_3254_9045" x1="310.088" y1="534.61" x2="139.306" y2="76.2655" gradientUnits="userSpaceOnUse">
<stop offset="0.58"/>
<stop offset="0.78" stop-opacity="0.16"/>
</linearGradient>
<linearGradient id="paint9_linear_3254_9045" x1="513.709" y1="458.74" x2="342.927" y2="0.395268" gradientUnits="userSpaceOnUse">
<stop offset="0.58" stop-color="#414040"/>
<stop offset="0.78" stop-opacity="0.16"/>
</linearGradient>
<linearGradient id="paint10_linear_3254_9045" x1="376.111" y1="129.533" x2="390.948" y2="129.533" gradientUnits="userSpaceOnUse">
<stop stop-color="#ECC4D7"/>
<stop offset="0.42" stop-color="#EFD4D1"/>
<stop offset="1" stop-color="#F2EAC9"/>
</linearGradient>
<linearGradient id="paint11_linear_3254_9045" x1="362.814" y1="147.704" x2="369.797" y2="147.704" gradientUnits="userSpaceOnUse">
<stop stop-color="#ECC4D7"/>
<stop offset="0.42" stop-color="#EFD4D1"/>
<stop offset="1" stop-color="#F2EAC9"/>
</linearGradient>
<linearGradient id="paint12_linear_3254_9045" x1="366.297" y1="152.737" x2="380.18" y2="158.046" gradientUnits="userSpaceOnUse">
<stop stop-color="#68E1FD"/>
<stop offset="0.01" stop-color="#67DDF9"/>
<stop offset="0.12" stop-color="#5CB3CE"/>
<stop offset="0.24" stop-color="#538EA9"/>
<stop offset="0.37" stop-color="#4C718B"/>
<stop offset="0.5" stop-color="#465A73"/>
<stop offset="0.63" stop-color="#424A63"/>
<stop offset="0.79" stop-color="#404059"/>
<stop offset="0.99" stop-color="#3F3D56"/>
</linearGradient>
<linearGradient id="paint13_linear_3254_9045" x1="352.398" y1="172.289" x2="395.57" y2="169.886" gradientUnits="userSpaceOnUse">
<stop offset="0.36" stop-color="#00272E"/>
<stop offset="1" stop-color="#69B9EB" stop-opacity="0"/>
</linearGradient>
<linearGradient id="paint14_linear_3254_9045" x1="221.172" y1="355.337" x2="238.136" y2="355.337" gradientUnits="userSpaceOnUse">
<stop stop-color="#ECC4D7"/>
<stop offset="0.42" stop-color="#EFD4D1"/>
<stop offset="1" stop-color="#F2EAC9"/>
</linearGradient>
<linearGradient id="paint15_linear_3254_9045" x1="249.138" y1="372.335" x2="256.113" y2="372.335" gradientUnits="userSpaceOnUse">
<stop stop-color="#ECC4D7"/>
<stop offset="0.42" stop-color="#EFD4D1"/>
<stop offset="1" stop-color="#F2EAC9"/>
</linearGradient>
<linearGradient id="paint16_linear_3254_9045" x1="258.265" y1="399.857" x2="228.976" y2="396.198" gradientUnits="userSpaceOnUse">
<stop offset="0.36" stop-color="#00272E"/>
<stop offset="1" stop-color="#69B9EB" stop-opacity="0"/>
</linearGradient>
<linearGradient id="paint17_linear_3254_9045" x1="243.411" y1="378.799" x2="250.219" y2="378.799" gradientUnits="userSpaceOnUse">
<stop offset="0.36" stop-color="#00272E"/>
<stop offset="1" stop-color="#69B9EB" stop-opacity="0"/>
</linearGradient>
<clipPath id="clip0_3254_9045">
<rect width="689.74" height="474.513" fill="white"/>
</clipPath>
</defs>
</svg>
