<svg width="16" height="21" viewBox="0 0 16 21" fill="none" xmlns="http://www.w3.org/2000/svg">
<path fill-rule="evenodd" clip-rule="evenodd" d="M8.51135 16.2801C9.84664 15.5599 15.001 12.44 15.001 7.19305C15.001 3.22044 11.9554 0 8.19852 0C4.44159 0 1.396 3.22044 1.396 7.19305C1.396 12.44 6.5504 15.5599 7.88569 16.2801C8.08295 16.3865 8.31409 16.3865 8.51135 16.2801ZM8.1982 10.2757C9.80832 10.2757 11.1136 8.89549 11.1136 7.19294C11.1136 5.49039 9.80832 4.1102 8.1982 4.1102C6.58809 4.1102 5.28284 5.49039 5.28284 7.19294C5.28284 8.89549 6.58809 10.2757 8.1982 10.2757Z" fill="#4D4D4D"/>
<path d="M14.0892 14.9007C14.6862 15.3694 15.0006 15.901 15.0006 16.4421C15.0006 16.9832 14.6862 17.5148 14.0892 17.9835C13.4921 18.4521 12.6334 18.8413 11.5993 19.1118C10.5652 19.3824 9.39212 19.5248 8.19803 19.5248C7.00394 19.5248 5.83088 19.3824 4.79677 19.1118C3.76266 18.8413 2.90392 18.4521 2.30687 17.9835C1.70983 17.5148 1.39551 16.9832 1.39551 16.4421C1.39551 15.901 1.70983 15.3694 2.30687 14.9007" stroke="#4D4D4D" stroke-width="1.4958" stroke-linecap="round"/>
</svg>
