<svg width="179" height="137" viewBox="0 0 179 137" fill="none" xmlns="http://www.w3.org/2000/svg">
<g clip-path="url(#clip0_901_7859)">
<g opacity="0.5" filter="url(#filter0_d_901_7859)">
<path d="M77.2134 5.27919C77.2134 8.58579 74.5323 11.2669 71.2257 11.2669C67.9191 11.2669 65.238 8.58579 65.238 5.27919C65.238 1.97258 67.9191 -0.708496 71.2257 -0.708496C74.5323 -0.708496 77.2134 1.97258 77.2134 5.27919Z" fill="#FFD05B"/>
<path d="M113.14 41.2052C113.14 44.5118 110.459 47.1929 107.153 47.1929C103.846 47.1929 101.165 44.5118 101.165 41.2052C101.165 37.8986 103.846 35.2175 107.153 35.2175C110.459 35.2175 113.14 37.8986 113.14 41.2052Z" fill="#FFD05B"/>
<path d="M178.766 49.0507C178.306 47.932 177.219 47.201 176.011 47.1943H143.079V-33.6395C143.079 -36.0212 142.132 -38.3068 140.448 -39.9905C138.764 -41.6743 136.479 -42.6208 134.097 -42.6208H44.2821C41.9004 -42.6208 39.6148 -41.6746 37.931 -39.9905C36.2473 -38.3065 35.3007 -36.0209 35.3007 -33.6395V47.1943H2.36845C1.16024 47.201 0.0736311 47.932 -0.386155 49.0507C-0.855281 50.1654 -0.606684 51.4525 0.243338 52.3132L82.8426 134.375C84.5266 136.057 86.8095 137.002 89.1899 137.002C91.5703 137.002 93.8531 136.057 95.5372 134.375L178.136 52.3132C178.986 51.4525 179.235 50.1654 178.766 49.0507H178.766ZM59.2514 5.27903C59.2514 2.10343 60.5131 -0.942692 62.7585 -3.18927C65.0052 -5.43465 68.0512 -6.69634 71.2268 -6.69634C74.4023 -6.69634 77.4485 -5.43465 79.6951 -3.18927C81.9405 -0.942554 83.2021 2.1035 83.2021 5.27903C83.2021 8.45455 81.9405 11.5007 79.6951 13.7473C77.4483 15.9927 74.4023 17.2544 71.2268 17.2544C68.0512 17.2544 65.0051 15.9927 62.7585 13.7473C60.5131 11.5006 59.2514 8.45455 59.2514 5.27903ZM73.7115 51.8324C73.1608 52.6691 72.2279 53.1743 71.2269 53.1797C70.6388 53.1863 70.0628 53.0086 69.5803 52.6704C68.2143 51.7576 67.8401 49.9132 68.7422 48.5393L104.668 -5.3499C105.637 -6.55411 107.364 -6.82143 108.654 -5.96738C109.942 -5.11334 110.369 -3.41862 109.637 -2.05657L73.7115 51.8324ZM107.153 53.1797C103.977 53.1797 100.931 51.918 98.6846 49.6726C96.4392 47.4259 95.1775 44.3798 95.1775 41.2043C95.1775 38.0288 96.4392 34.9826 98.6846 32.736C100.931 30.4906 103.977 29.2289 107.153 29.2289C110.328 29.2289 113.375 30.4906 115.621 32.736C117.867 34.9827 119.128 38.0288 119.128 41.2043C119.128 44.3798 117.867 47.426 115.621 49.6726C113.374 51.918 110.328 53.1797 107.153 53.1797Z" fill="#FFD05B"/>
</g>
</g>
<defs>
<filter id="filter0_d_901_7859" x="-4.62036" y="-42.6208" width="187.621" height="187.623" filterUnits="userSpaceOnUse" color-interpolation-filters="sRGB">
<feFlood flood-opacity="0" result="BackgroundImageFix"/>
<feColorMatrix in="SourceAlpha" type="matrix" values="0 0 0 0 0 0 0 0 0 0 0 0 0 0 0 0 0 0 127 0" result="hardAlpha"/>
<feOffset dy="4"/>
<feGaussianBlur stdDeviation="2"/>
<feComposite in2="hardAlpha" operator="out"/>
<feColorMatrix type="matrix" values="0 0 0 0 0 0 0 0 0 0 0 0 0 0 0 0 0 0 0.25 0"/>
<feBlend mode="normal" in2="BackgroundImageFix" result="effect1_dropShadow_901_7859"/>
<feBlend mode="normal" in="SourceGraphic" in2="effect1_dropShadow_901_7859" result="shape"/>
</filter>
<clipPath id="clip0_901_7859">
<rect width="179" height="179" fill="white" transform="translate(0 -42)"/>
</clipPath>
</defs>
</svg>
