<svg width="20" height="16" viewBox="0 0 20 16" fill="none" xmlns="http://www.w3.org/2000/svg">
<path fill-rule="evenodd" clip-rule="evenodd" d="M1.35345 1.09857C0.696289 1.75574 0.696289 2.81343 0.696289 4.92881V11.1393C0.696289 13.2547 0.696289 14.3124 1.35345 14.9696C2.01062 15.6267 3.06831 15.6267 5.18369 15.6267H14.6729C16.7883 15.6267 17.8459 15.6267 18.5031 14.9696C19.1603 14.3124 19.1603 13.2547 19.1603 11.1393V4.92881C19.1603 2.81343 19.1603 1.75574 18.5031 1.09857C17.8459 0.441406 16.7883 0.441406 14.6729 0.441406H5.18369C3.06831 0.441406 2.01062 0.441406 1.35345 1.09857ZM16.515 5.39186C16.8526 5.15387 16.9333 4.68726 16.6953 4.34966C16.4574 4.01206 15.9907 3.9313 15.6531 4.16929L9.9294 8.20419L4.20565 4.16929C3.86805 3.9313 3.40144 4.01206 3.16345 4.34966C2.92546 4.68726 3.00622 5.15387 3.34382 5.39186L9.06756 9.42675C9.58437 9.79107 10.2744 9.79107 10.7912 9.42675L16.515 5.39186Z" fill="#4D4D4D"/>
</svg>
