<svg width="30" height="30" viewBox="0 0 30 30" fill="none" xmlns="http://www.w3.org/2000/svg">
<circle cx="7" cy="12" r="3" fill="#FFD05B"/>
<circle cx="23" cy="12" r="3" fill="#FFD05B"/>
<circle cx="15" cy="12" r="3" fill="#FFD05B"/>
<path d="M6.71486 8.28514C4.6728 8.28514 3 9.9579 3 12C3 14.0421 4.67276 15.7149 6.71486 15.7149C8.75691 15.7149 10.4297 14.0421 10.4297 12C10.4297 9.9579 8.75696 8.28514 6.71486 8.28514ZM15.003 8.28514C12.9609 8.28514 11.2881 9.9579 11.2881 12C11.2881 14.0421 12.9609 15.7149 15.003 15.7149C17.0451 15.7149 18.7179 14.0421 18.7179 12C18.7179 9.9579 17.0451 8.28514 15.003 8.28514ZM23.2911 8.28514C21.2491 8.28514 19.5748 9.9579 19.5748 12C19.5748 14.0421 21.2489 15.7149 23.2911 15.7149C25.3332 15.7149 27.0001 14.0421 27.0001 12C27.0001 9.9579 25.3332 8.28514 23.2911 8.28514ZM6.71486 9.78664C7.94631 9.78664 8.92821 10.7685 8.92821 12C8.92821 13.2315 7.94636 14.2149 6.71486 14.2149C5.4834 14.2149 4.5 13.2315 4.5 12C4.5 10.7685 5.48336 9.78664 6.71486 9.78664ZM15.003 9.78664C16.2345 9.78664 17.2164 10.7685 17.2164 12C17.2164 13.2315 16.2345 14.2149 15.003 14.2149C13.7715 14.2149 12.7881 13.2315 12.7881 12C12.7881 10.7685 13.7715 9.78664 15.003 9.78664ZM23.2911 9.78664C24.5226 9.78664 25.5001 10.7685 25.5001 12C25.5001 13.2315 24.5226 14.2149 23.2911 14.2149C22.0597 14.2149 21.0763 13.2315 21.0763 12C21.0763 10.7685 22.0596 9.78664 23.2911 9.78664Z" fill="black"/>
</svg>
