<svg width="120" height="129" viewBox="0 0 120 129" fill="none" xmlns="http://www.w3.org/2000/svg">
<path d="M52.678 83.5918C26.8045 83.5918 5.75732 62.5422 5.75732 36.6684C5.75732 10.7949 26.8061 -10.2522 52.678 -10.2522C78.5498 -10.2522 99.6013 10.7974 99.6013 36.6712C99.6013 62.5446 78.5517 83.5918 52.678 83.5918ZM52.678 1.90063C33.5066 1.90063 17.9102 17.4982 17.9102 36.6684C17.9102 55.8387 33.5077 71.4362 52.678 71.4362C71.8482 71.4362 87.4458 55.8387 87.4458 36.6684C87.4468 17.4971 71.8493 1.90063 52.678 1.90063Z" fill="#FFD05B" fill-opacity="0.5"/>
<path d="M128.256 124.263L85.4456 81.4524C84.3329 80.3397 84.3329 78.5177 85.4456 77.4038L93.3337 69.5157C94.4465 68.403 96.2685 68.403 97.3824 69.5157L140.193 112.326C141.306 113.439 141.306 115.261 140.193 116.375L132.305 124.263C131.192 125.376 129.37 125.376 128.258 124.262L128.256 124.263Z" fill="#FFD05B" fill-opacity="0.5"/>
<path fill-rule="evenodd" clip-rule="evenodd" d="M60.0369 40.4522C59.7746 41.6244 58.0135 42.5212 57.4333 43.9248C56.7606 43.8311 56.7181 44.367 56.2181 44.4456C56.353 44.6003 56.4049 44.8375 56.3917 45.14C55.5504 45.6715 54.6503 45.1089 54.4814 46.3555C54.1704 46.3775 54.1154 46.1426 53.787 46.1816C53.481 46.3389 53.4999 46.821 53.0926 46.8763C53.6222 47.8 53.0788 48.8969 53.6134 49.4803C53.1103 51.2716 52.5967 51.4455 52.9187 53.6469C51.8061 53.4875 51.412 54.4832 51.7035 55.2096C51.1029 55.0684 50.9705 55.5339 50.6617 55.2096C50.462 55.4147 50.4651 55.8232 50.4881 56.2515C46.952 57.9016 48.0479 52.1757 45.8 51.043C45.345 47.4757 42.9228 45.3665 43.3694 41.8408C43.0222 42.0915 42.7209 40.2168 43.3694 39.7573C42.7052 38.6919 43.2581 38.0327 42.8486 37.1533C42.7782 38.7617 41.9815 39.6428 40.0704 39.4107C39.4962 38.5383 38.8379 37.7493 38.1605 36.9798C38.5112 36.5128 40.2245 37.0049 40.4179 35.9379C39.5779 36.8235 37.133 36.1102 37.9869 34.7227C37.729 34.7174 37.2111 35.4331 37.2925 34.7227C37.5268 34.2051 38.0256 34.8016 38.1605 34.028C39.1351 34.0708 39.8449 34.6541 40.5915 33.8544C40.7949 33.8824 40.738 34.1708 40.7654 34.3752C40.906 34.3422 40.9387 34.2013 41.1126 34.2016C41.2506 33.711 40.9682 32.1511 40.0707 32.1178C39.9452 31.5873 40.2484 31.4854 40.2443 31.0759C40.1182 30.8916 39.7222 31.0561 39.3763 30.7287C39.4801 29.6173 40.1717 29.0934 41.1126 28.8188V29.3396C41.3365 29.1006 41.8667 29.1679 42.3281 29.166C42.8649 28.0826 44.2059 27.803 44.4116 26.3878C45.3623 26.1208 46.1419 24.7651 45.9743 23.9569C46.1592 23.5631 46.5007 23.326 47.0161 23.2625C46.4919 22.6291 45.7943 22.1693 44.9327 21.8734C45.2251 20.9334 44.4584 19.427 45.627 19.0952C45.2578 18.481 44.8723 17.8819 43.8908 17.88C44.2779 15.8392 45.9579 16.4085 47.1892 15.9717C48.0241 16.9104 49.189 17.7165 49.7931 18.4026C50.914 18.0702 52.3034 17.3189 53.2657 18.2291C53.3884 18.8728 52.9692 18.9744 53.0921 19.6182C52.1544 19.4905 52.6512 20.7981 51.5295 20.4864C51.3634 20.8097 52.0493 21.0667 51.5295 21.1811C51.5713 21.4865 51.8279 21.5765 52.2238 21.5283C52.0984 22.0589 52.4015 22.1608 52.3974 22.5702C51.9719 22.4372 51.3961 23.4017 51.3556 22.5702C50.4718 22.9643 51.6496 23.4439 51.3556 24.3065C52.1541 24.4407 53.1421 25.4015 54.1338 25.8691C53.8155 26.5921 52.9765 26.7953 53.0919 27.9526C53.8319 28.4891 55.0662 29.1439 56.3909 29.5153C56.4208 29.5238 56.368 29.8292 56.3909 29.8628C57.1705 29.948 57.6916 29.7747 58.3008 29.6892C59.3468 31.044 60.69 30.9629 62.8146 31.0783C62.6753 30.2714 62.7461 29.4168 62.641 28.9948C62.8005 28.692 63.1835 28.6115 63.6829 28.6476C63.4269 31.5393 65.879 30.0808 67.503 30.0367C67.7338 29.2275 67.1158 29.2662 66.8083 28.9949C66.7759 28.4389 67.6341 28.9493 68.0235 28.4741C68.0939 27.6932 69.767 27.2796 70.107 26.217C71.0077 26.9394 71.319 26.0538 72.1905 25.8698C71.9741 26.6759 73.0084 26.2576 72.538 27.2589C73.299 27.3492 73.1078 27.3133 73.7532 27.4325C73.9497 28.1653 72.6751 28.4237 73.5796 28.8216C71.1659 28.7383 70.9819 31.9048 70.6278 34.0301C70.3187 34.3544 70.1866 33.8889 69.5859 34.0301C69.4299 35.4711 69.4538 36.0224 69.2384 37.3291C69.0843 37.2222 68.9283 37.119 68.8912 37.3291C68.5374 36.4674 68.4701 35.3192 68.0229 34.5509C67.6698 34.7185 67.6478 35.2176 67.6757 35.7665C66.9883 35.5605 66.8037 35.3633 66.8075 34.2038C67.3462 33.8745 67.8855 33.5452 68.0227 32.8147C67.1792 32.4508 66.1159 32.9351 65.0709 32.6411C64.8982 32.2172 65.0136 32.2712 64.8973 31.5992C64.5979 31.381 63.6286 31.4508 63.3353 31.0784C63.1459 31.1212 63.217 31.4237 62.9877 31.4259C62.9554 32.2685 64.0014 32.0329 64.0296 32.815C63.261 32.5675 63.5752 33.4025 62.9877 33.3358C62.9085 33.8783 63.3592 33.8909 63.856 33.8566C63.3988 35.303 64.5649 35.8392 64.3771 37.5028C63.1446 37.5235 62.6978 37.927 61.7725 38.5446C62.4138 39.8237 61.281 40.2259 60.3841 40.8017C60.0891 40.863 60.0576 40.6643 60.0372 40.4523L60.0369 40.4522Z" fill="#FFD05B" fill-opacity="0.5"/>
</svg>
