<svg width="19" height="20" viewBox="0 0 19 20" fill="none" xmlns="http://www.w3.org/2000/svg">
<path d="M16.3099 14.3784L12.0094 12.4261C11.8683 12.3621 11.7123 12.3443 11.5614 12.3749C11.4106 12.4055 11.2719 12.4831 11.1632 12.5977L9.36759 14.4687C8.42992 13.8725 7.55869 13.1666 6.77038 12.3643C6.0126 11.5314 5.34482 10.6119 4.77938 9.62281L6.54881 7.7274C6.65685 7.61214 6.72982 7.46534 6.75834 7.30588C6.78685 7.14642 6.76961 6.98158 6.70883 6.83257L4.86247 2.2852C4.78986 2.10659 4.65917 1.96139 4.49405 1.87588C4.32894 1.79037 4.14032 1.77022 3.96237 1.81907L0.577373 2.76515C0.408108 2.81127 0.258739 2.91696 0.153864 3.06482C0.0489878 3.21268 -0.00514281 3.3939 0.000385043 3.57863C0.215853 7.73857 1.85195 11.6744 4.60475 14.655C7.42431 17.567 11.1482 19.2968 15.0836 19.5229C15.2582 19.5288 15.4295 19.4717 15.5693 19.3609C15.7092 19.2502 15.8092 19.0924 15.8529 18.9136L16.7469 15.3343C16.7944 15.146 16.7764 14.946 16.6962 14.7706C16.616 14.5952 16.4789 14.456 16.3099 14.3784Z" fill="#4D4D4D"/>
<path d="M13.8476 8.13481C13.8476 8.35055 13.9286 8.55747 14.0729 8.71002C14.2172 8.86258 14.4128 8.94829 14.6169 8.94829C14.8209 8.94829 15.0166 8.86258 15.1609 8.71002C15.3051 8.55747 15.3862 8.35055 15.3862 8.13481C15.385 6.84071 14.8983 5.59998 14.0329 4.68492C13.1675 3.76985 11.9941 3.2552 10.7703 3.25391C10.5663 3.25391 10.3706 3.33961 10.2263 3.49217C10.082 3.64473 10.001 3.85164 10.001 4.06739C10.001 4.28314 10.082 4.49005 10.2263 4.64261C10.3706 4.79517 10.5663 4.88087 10.7703 4.88087C11.5864 4.88087 12.3692 5.2237 12.9463 5.83393C13.5234 6.44416 13.8476 7.27181 13.8476 8.13481Z" fill="#4D4D4D"/>
<path d="M10.7703 0C10.5663 0 10.3706 0.085706 10.2263 0.238264C10.082 0.390821 10.001 0.597734 10.001 0.813483C10.001 1.02923 10.082 1.23615 10.2263 1.3887C10.3706 1.54126 10.5663 1.62697 10.7703 1.62697C12.402 1.6289 13.9664 2.31517 15.1202 3.53522C16.274 4.75526 16.923 6.40943 16.9248 8.13483C16.9248 8.35058 17.0059 8.5575 17.1502 8.71005C17.2944 8.86261 17.4901 8.94832 17.6941 8.94832C17.8982 8.94832 18.0939 8.86261 18.2381 8.71005C18.3824 8.5575 18.4635 8.35058 18.4635 8.13483C18.4612 5.97807 17.65 3.91032 16.2077 2.38525C14.7655 0.860189 12.81 0.00236854 10.7703 0V0Z" fill="#4D4D4D"/>
</svg>
