<svg width="64" height="53" viewBox="0 0 64 53" fill="none" xmlns="http://www.w3.org/2000/svg">
<path d="M4.9296 5C5.7296 2.6 6.9296 1.66667 7.4296 1.50001L9.4296 0.500005C20.0963 0.333338 42.1296 0.100005 44.9296 0.500005C47.7296 0.900005 49.4296 2.66667 49.9296 3.50001L51.4296 14.5C51.5963 18.3333 52.3296 27.3 53.9296 32.5C55.5296 37.7 51.9296 39.3333 49.9296 39.5H27.9296H12.4296C10.2629 39.6667 5.4296 39.8 3.4296 39C1.4296 38.2 0.596263 36 0.429596 35L0.929596 31L2.4296 23C3.26293 17.8333 4.9296 7 4.9296 5Z" fill="#565656"/>
<mask id="mask0_2_241" style="mask-type:alpha" maskUnits="userSpaceOnUse" x="0" y="0" width="55" height="40">
<path d="M4.9296 5C5.7296 2.6 6.9296 1.66667 7.4296 1.50001L9.4296 0.500005C20.0963 0.333338 42.1296 0.100005 44.9296 0.500005C47.7296 0.900005 49.4296 2.66667 49.9296 3.50001L51.4296 14.5C51.5963 18.3333 52.3296 27.3 53.9296 32.5C55.5296 37.7 51.9296 39.3333 49.9296 39.5H27.9296H12.4296C10.2629 39.6667 5.4296 39.8 3.4296 39C1.4296 38.2 0.596263 36 0.429596 35L0.929596 31L2.4296 23C3.26293 17.8333 4.9296 7 4.9296 5Z" fill="#565656"/>
</mask>
<g mask="url(#mask0_2_241)">
<path fill-rule="evenodd" clip-rule="evenodd" d="M4.62644 -7L3 -5.54818L47.6309 44.4507L49.2573 42.9989L4.62644 -7ZM0.825337 -4.99998L-8 2.87785L36.6309 52.8767L45.4562 44.9989L0.825337 -4.99998Z" fill="#EEEEEE" fill-opacity="0.3"/>
</g>
<path d="M46.9296 26.5C46.5296 16.9 53.0963 15.8333 56.4296 16.5H57.4296L56.4296 17.5L53.9296 20.5L54.4296 25.5L59.4296 25L62.9296 22L63.4296 24L62.9296 27C62.2629 28.1667 60.6296 30.7 59.4296 31.5C58.2296 32.3 55.5963 32.8333 54.4296 33L52.4296 32.5L47.9296 37C46.9296 37.8333 44.7296 39.9 43.9296 41.5C44.3296 44.3 43.7629 46.6667 43.4296 47.5L40.4296 50.5L36.4296 52L33.9296 51.5V51L36.9296 47.5V43L36.4296 42.5L31.4296 43L27.9296 46L27.4296 43C27.4296 41.8333 28.1296 39 30.9296 37C33.7296 35 37.0963 35.1667 38.4296 35.5L38.9296 35C41.4296 32.6667 46.5296 27.7 46.9296 26.5Z" fill="#FFD05B"/>
<path d="M63.3695 21.6718C63.2997 21.4676 63.1295 21.3136 62.9197 21.2645C62.7093 21.217 62.4894 21.2801 62.336 21.4313L58.836 24.9307L54.4855 24.9832L54.538 20.6333L58.038 17.1345V17.1339C58.1909 16.981 58.254 16.7606 58.2049 16.5497C58.1558 16.3393 58.0017 16.1691 57.7975 16.0999C55.9866 15.4844 54.0258 15.4682 52.2054 16.0541L50.3622 3.82028C50.0386 1.678 47.6646 0 44.9582 0H10.0525C7.34606 0 4.97221 1.678 4.64849 3.82028L0.064778 34.2503C-0.168479 35.6588 0.234978 37.098 1.16578 38.1806C2.23386 39.3692 3.76735 40.0333 5.36549 39.9997H27.7055C26.7948 42.0466 26.6904 44.3619 27.4136 46.4824C27.4834 46.6867 27.6536 46.8412 27.864 46.8904C28.0743 46.9389 28.2948 46.8759 28.4477 46.7235L31.9477 43.2235L36.2975 43.1716L36.2451 47.522L32.7451 51.022C32.5922 51.1749 32.5291 51.3954 32.5782 51.6057C32.6268 51.8161 32.7808 51.9863 32.9856 52.0561C33.922 52.3753 34.9047 52.5388 35.8946 52.5393C38.701 52.5309 41.3404 51.2028 43.0196 48.9533C44.6982 46.7045 45.2216 43.7965 44.432 41.1035L45.5347 40.0002H49.6429C51.2412 40.0337 52.7747 39.3696 53.8432 38.1811C54.774 37.0985 55.1775 35.6594 54.9448 34.2508L54.8293 33.4813C57.7266 33.5125 60.4593 32.1358 62.1568 29.7877C63.855 27.44 64.3076 24.4138 63.37 21.6721L63.3695 21.6718ZM51.0135 16.5313C48.2009 17.8761 46.308 20.606 46.0342 23.711H36.537L35.9589 12.2054H50.3618L51.0135 16.5313ZM46.351 27.0524L38.3677 35.0363H38.3672C37.9492 34.9157 37.5234 34.8253 37.0926 34.7656L36.6004 24.9609H46.0112H46.0106C46.0413 25.669 46.1551 26.3705 46.3499 27.0519L46.351 27.0524ZM44.9571 1.24955C47.0262 1.24955 48.8962 2.48615 49.1256 4.00683L50.1725 10.9555H35.8962L35.4085 1.24969L44.9571 1.24955ZM20.8513 1.24955H34.1582L34.6459 10.9554H20.3641L20.8513 1.24955ZM20.3011 12.2054H34.7083L35.2864 23.711H19.7221L20.3011 12.2054ZM5.88396 4.00612C6.11332 2.4854 7.98382 1.24883 10.0525 1.24883L19.6011 1.24939L19.1134 10.9552H4.83766L5.88396 4.00612ZM17.7171 38.749H5.36725V38.7495C4.13177 38.7903 2.94096 38.2836 2.11396 37.365C1.42368 36.557 1.12624 35.485 1.30146 34.4365L2.72892 24.961H18.4103L17.7171 38.749ZM2.91568 23.7104L4.64897 12.2048H19.0504L18.4723 23.7104H2.91568ZM18.9671 38.749L19.6602 24.9604H35.3488L35.8365 34.6791C33.4755 34.6752 31.2109 35.6144 29.5452 37.2868C29.1088 37.7327 28.7199 38.2227 28.385 38.7488L18.9671 38.749ZM52.8971 37.3645C52.0695 38.283 50.8792 38.7897 49.6438 38.749H46.7855L52.4161 33.1178C52.7883 33.2255 53.1667 33.3098 53.5495 33.3695L53.7096 34.4365L53.7102 34.4359C53.8849 35.4845 53.5874 36.5565 52.8971 37.3645H52.8971ZM52.444 31.8153C52.2185 31.7406 51.9697 31.7986 51.8006 31.9655L43.2799 40.4862C43.1124 40.6541 43.0539 40.903 43.1303 41.1285C43.7146 42.8349 43.6788 44.6932 43.0299 46.3756C42.3803 48.0586 41.1581 49.4588 39.579 50.3305C37.9991 51.2016 36.1633 51.4884 34.3937 51.1402L37.3088 48.2245H37.3083C37.4238 48.109 37.4897 47.9533 37.4919 47.7898L37.5555 42.5448L37.5549 42.5453C37.5577 42.3768 37.4913 42.215 37.3719 42.0961C37.2469 41.9867 37.089 41.922 36.9227 41.9131L31.6771 41.9756C31.5142 41.9773 31.3579 42.0431 31.243 42.1586L28.3278 45.0737C27.9796 43.3036 28.2664 41.4678 29.1375 39.8885C30.0092 38.3092 31.4093 37.0877 33.0918 36.4382C34.7748 35.7886 36.6325 35.7529 38.339 36.3377C38.5644 36.4142 38.8139 36.3561 38.9818 36.1876L47.5025 27.6669C47.6705 27.4984 47.7285 27.2495 47.6527 27.024C47.0678 25.3176 47.1035 23.4599 47.7526 21.7769C48.4021 20.0939 49.6243 18.6938 51.2034 17.8226C52.7833 16.951 54.6191 16.6647 56.3893 17.0129L53.4741 19.928V19.9275C53.3586 20.043 53.2928 20.1992 53.2911 20.3622L53.2275 25.6078C53.2252 25.7763 53.2911 25.9381 53.4105 26.057C53.5372 26.1641 53.6945 26.2283 53.8597 26.24L59.1053 26.1764C59.2688 26.1747 59.4245 26.1089 59.54 25.9934L62.4552 23.0782C62.8028 24.8484 62.516 26.6842 61.6449 28.2635C60.7738 29.8428 59.3737 31.0648 57.6912 31.7144C56.0082 32.3639 54.1504 32.3996 52.444 31.8148L52.444 31.8153Z" fill="black"/>
</svg>
