<svg width="64" height="54" viewBox="0 0 64 54" fill="none" xmlns="http://www.w3.org/2000/svg">
<path d="M23.6016 29.0625H58.3984V53.5H23.6016V29.0625Z" fill="#5E5E5E" stroke="black"/>
<path d="M40.2195 4.89904L40.2211 4.89749C40.4836 4.64259 40.835 4.5 41.2009 4.5C41.5668 4.5 41.9182 4.64259 42.1807 4.89749L42.1823 4.89904L62.4635 24.4225L62.4647 24.4236C63.386 25.3046 62.7618 26.8591 61.4822 26.8591H20.9197C19.6442 26.8591 19.0196 25.3065 19.9382 24.4225L19.9383 24.4225L40.2195 4.89904Z" fill="#FFD263" stroke="black"/>
<path d="M41 22.125C39.0652 22.125 37.4922 20.552 37.4922 18.6172C37.4922 16.6824 39.0652 15.1094 41 15.1094C42.9348 15.1094 44.5078 16.6824 44.5078 18.6172C44.5078 20.552 42.9348 22.125 41 22.125Z" fill="black" stroke="black"/>
<path d="M49.5 30L38 52.5H39.5L50.5 30H49.5Z" fill="#898989" stroke="#898989"/>
<path d="M54 30.5L43 52H45.5L56 30.5H54Z" fill="#898989" stroke="#898989" stroke-width="2"/>
<path d="M35.5 53.2344V43.7812C35.5 40.3152 38.3152 37.5 41.7812 37.5C45.2473 37.5 48.0625 40.3152 48.0625 43.7812V53.2344H35.5Z" fill="#FFD263" stroke="black"/>
<path d="M44.5431 19.7201C44.1553 20.9618 43.1375 21.8354 41.9509 22.0993C42.7393 21.5829 43.6224 20.7854 43.9773 19.6491C44.3587 18.4276 44.03 17.1307 43.6561 16.1971C43.6513 16.1851 43.6464 16.1731 43.6416 16.1611C44.5564 17.0543 44.9498 18.418 44.5431 19.7201Z" fill="#EFEFEF" stroke="#949494"/>
<path d="M22.5 27.5H60.5V29.5H22.5V27.5Z" fill="black" stroke="black"/>
<path d="M13.0974 7.03291C12.8724 5.45756 12.0659 4.12601 11.6908 3.65716C8.54014 0.956556 5.12688 2.53191 3.81409 3.65716C3.53278 4.31355 2.91389 5.73887 2.68884 6.18897C2.46379 6.63907 2.78261 7.12668 2.97015 7.31422L14.2227 9.0021V8.72079C14.0351 8.53324 13.5475 7.93311 13.0974 7.03291Z" fill="#FFD05B"/>
<path d="M15.0658 20.5358C16.8662 20.5358 17.3163 20.9109 17.3163 21.0984C17.7664 21.3235 17.8789 22.1299 17.8789 22.505L17.3163 23.3489L16.4723 23.9116H14.7845H10.0022C9.90838 23.8178 9.72084 23.8553 9.72084 24.7555C9.72084 25.6557 8.97067 25.8807 8.59559 25.8807H2.40671C2.03163 25.8807 1.11267 25.7682 0.437523 25.3181C0.212473 23.9678 1.28146 19.5043 1.84409 17.4414L2.1254 15.7535L3.25065 14.3469L4.09459 13.503L4.93852 13.2217H6.6264C7.75165 13.2217 8.59559 13.9718 8.8769 14.3469L9.72084 15.7535L10.8461 19.6919L11.4087 20.5358H15.0658Z" fill="#FFD05B"/>
<path d="M32.7885 2.25044C32.5634 0.900138 31.3819 0.562563 30.8193 0.562563L29.6941 0.28125H12.8153H10.2835C8.48308 0.73135 7.84544 1.4065 7.75167 1.68781L8.3143 2.25044L10.0022 2.53175L11.4087 3.09438L12.534 4.78225L13.0966 6.47013L13.3779 7.87669L14.2219 9.00194H12.8153L12.2527 9.28325L11.69 10.9711L10.0022 12.659L8.3143 13.2216L8.87692 14.0656L9.43955 15.4721L10.2835 17.7226L10.8461 19.9731L11.69 20.5358H16.4724C17.3726 20.5358 17.7852 21.661 17.8789 22.2236H29.9754C30.4442 22.3174 31.7758 22.4487 33.3511 22.2236C34.9265 21.9986 35.3203 19.8794 35.3203 18.8479L33.9137 10.4085C33.6324 8.25177 33.0135 3.60074 32.7885 2.25044Z" fill="#565656"/>
<mask id="mask0_3154_6083" style="mask-type:alpha" maskUnits="userSpaceOnUse" x="12" y="0" width="27" height="28">
<path fill-rule="evenodd" clip-rule="evenodd" d="M33.2617 0.56543L34.1768 1.38226L13.8124 24.196L12.8973 23.3792L33.2617 0.56543ZM33.4702 3.85259L38.4355 8.28486L21.4374 27.3274L16.4721 22.8951L33.4702 3.85259Z" fill="#EEEEEE" fill-opacity="0.3"/>
</mask>
<g mask="url(#mask0_3154_6083)">
<path d="M32.7885 2.25142C32.5634 0.901114 31.3819 0.563539 30.8193 0.563539L29.6941 0.282227H12.8153H10.2835C8.48308 0.732327 7.84544 1.40748 7.75167 1.68879L8.3143 2.25142L10.0022 2.53273L11.4087 3.09535L12.534 4.78323L13.0966 6.4711L13.3779 7.87767L14.2219 9.00292H12.8153L12.2527 9.28423L11.69 10.9721L10.0022 12.66L8.3143 13.2226L8.87692 14.0665L9.43955 15.4731L10.2835 17.7236L10.8461 19.9741L11.69 20.5367H16.4724C17.3726 20.5367 17.7852 21.662 17.8789 22.2246H29.9754C30.4442 22.3184 31.7758 22.4497 33.3511 22.2246C34.9265 21.9996 35.3203 19.8803 35.3203 18.8489L33.9137 10.4095C33.6324 8.25275 33.0135 3.60172 32.7885 2.25142Z" fill="white"/>
</g>
<path d="M0.0111389 24.873C0.417099 21.7786 1.08929 17.3865 2.23495 14.9772C2.80041 13.8159 3.8726 12.9827 5.13786 12.7218C4.29231 12.1984 3.63115 11.4241 3.24623 10.5073C2.86131 9.59059 2.77152 8.5765 2.98941 7.60629C2.76336 7.55543 2.5643 7.42262 2.43055 7.23362C2.28142 7.01604 2.22647 6.74728 2.27797 6.48889C2.88456 3.47483 4.70337 1.85069 7.45525 1.78253L7.45556 1.78222C7.71616 1.23058 8.1331 0.767805 8.6546 0.451288C9.17641 0.134811 9.77953 -0.0212284 10.3889 0.00232153H30.0278C31.5511 0.00232153 32.8861 0.946406 33.0682 2.15171L35.6474 19.2724C35.778 20.0648 35.551 20.8746 35.0277 21.484C34.4264 22.1527 33.5636 22.5267 32.6645 22.5075H18.1881C18.1225 23.0202 17.8713 23.4914 17.4823 23.8318C17.0933 24.1725 16.5932 24.3587 16.0761 24.3555L10.016 24.2651L9.99306 25.0538V25.0541C9.98616 25.3577 9.86026 25.6465 9.64268 25.8585C9.42542 26.0704 9.13343 26.1885 8.82984 26.1878H1.16689C0.831573 26.1888 0.511959 26.0447 0.290638 25.7929C0.0693169 25.5411 -0.0324287 25.2061 0.0112076 24.8735L0.0111389 24.873ZM7.94817 12.7782C8.93622 12.7323 9.87589 12.3361 10.5987 11.6605C11.3211 10.9852 11.7795 10.074 11.8916 9.0913L3.67889 7.73497C3.39162 9.00184 3.71626 10.3302 4.55547 11.3214C5.39466 12.3129 6.65116 12.8523 7.94785 12.7782H7.94817ZM14.6774 9.1949C14.6498 9.36476 14.5028 9.48941 14.3305 9.48941C14.3113 9.48941 14.2922 9.48784 14.2733 9.4847L12.5958 9.20778V9.20747C12.4721 10.198 12.0467 11.1261 11.377 11.8661C10.7073 12.6058 9.82571 13.1217 8.85277 13.343H15.1261L15.4511 6.87H13.4025C13.4094 6.95037 13.4172 7.03138 13.4229 7.11081C13.4436 7.3915 13.7262 7.66056 13.9996 7.92115C14.3591 8.264 14.7667 8.65269 14.6775 9.19494L14.6774 9.1949ZM14.7854 20.1299L15.0909 14.0465H9.15883L9.15915 14.0462C9.5067 14.4267 9.78017 14.8691 9.96474 15.3501L9.96537 15.3514L9.966 15.3533L9.96883 15.3592L9.96945 15.363C10.0266 15.5137 10.2906 16.4195 10.8316 18.2876L11.3531 20.0804L14.7854 20.1299ZM2.96788 6.62773C2.95281 6.69931 2.96788 6.77403 3.00964 6.834C3.04763 6.8902 3.10696 6.92819 3.17416 6.93918L13.7772 8.69047C13.7 8.60664 13.6083 8.51936 13.5148 8.43019H13.5144C13.0988 8.12251 12.8156 7.66882 12.7217 7.16018C12.5273 4.35928 11.392 2.99234 8.92613 2.58853C8.4847 2.5135 8.03791 2.47488 7.59022 2.47237C5.07689 2.47268 3.52436 3.86607 2.96801 6.62768L2.96788 6.62773ZM10.3891 0.706013C9.52721 0.681838 8.71092 1.09313 8.21798 1.80048C8.48516 1.81995 8.75768 1.8482 9.03997 1.89436C12.1193 2.3989 13.0267 4.30248 13.3181 6.16645L15.4869 6.16677L15.7613 0.706005L10.3891 0.706013ZM23.9516 0.706013H16.465L16.1906 6.16677H24.2256L23.9516 0.706013ZM24.2611 6.87006H16.1553L15.8303 13.3431H24.5864L24.2611 6.87006ZM32.3726 2.25725C32.2438 1.40166 31.192 0.705933 30.0279 0.705933H24.6559L24.9303 6.16669H32.9619L32.3726 2.25725ZM25.7156 21.8045H32.6646C33.3597 21.8274 34.0293 21.5423 34.4947 21.0252C34.8834 20.5709 35.0508 19.9675 34.9519 19.3775L34.1487 14.0464H25.326L25.7156 21.8045ZM34.0424 13.3434L33.0673 6.87038H24.9655L25.2907 13.3434H34.0424ZM24.6217 14.0467H15.7957L15.4896 20.1401L16.147 20.1495H16.1473C16.6202 20.1589 17.0764 20.3272 17.4418 20.6276C17.8069 20.9278 18.0606 21.3425 18.1614 21.8047H25.0115L24.6217 14.0467ZM0.818619 25.3281C0.906532 25.4289 1.03368 25.4863 1.16743 25.4851H8.83039C9.08093 25.4851 9.28533 25.2848 9.29035 25.0342L9.31484 24.1931C8.61846 24.0182 8.05866 23.5011 7.82854 22.8208L7.00502 20.0676C6.97645 19.9778 6.98493 19.8799 7.02888 19.7963C7.07315 19.7128 7.14882 19.6507 7.23956 19.6237C7.32998 19.5967 7.42762 19.607 7.51019 19.6529C7.59276 19.6984 7.65368 19.7753 7.67879 19.8664L8.49854 22.6075V22.6079C8.59147 22.881 8.76604 23.1187 8.999 23.2892C9.23196 23.4593 9.51171 23.5538 9.79992 23.5592L16.1122 23.6531H16.1125C16.6089 23.6518 17.0676 23.3874 17.3178 22.9589C17.568 22.53 17.5727 22.0007 17.3297 21.5677C17.0867 21.1347 16.6327 20.8628 16.1363 20.8531L11.0834 20.7806H11.0837C10.9295 20.7781 10.7948 20.6757 10.7512 20.5278L10.1572 18.4839C9.78608 17.2026 9.36536 15.7511 9.31325 15.6121L9.31293 15.6096L9.31074 15.6058H9.31042C9.05831 14.9364 8.60871 14.3594 8.02097 13.9515C7.43322 13.5437 6.73529 13.3242 6.02003 13.3227C5.36415 13.3195 4.72053 13.5016 4.16353 13.8479C3.60624 14.1942 3.1582 14.6906 2.87029 15.2802C1.7673 17.5994 1.10831 21.9184 0.708363 24.9654C0.690468 25.0966 0.730659 25.2291 0.818569 25.328L0.818619 25.3281Z" fill="black"/>
<path d="M19.2969 51.5469H62.7031V53.5H19.2969V51.5469Z" fill="#898989" stroke="black"/>
</svg>
