<svg width="347" height="347" viewBox="0 0 347 347" fill="none" xmlns="http://www.w3.org/2000/svg">
<g clip-path="url(#clip0_9_2)">
<path d="M120.632 207.344C139.287 236.381 178.307 244.875 207.344 226.22C236.38 207.565 244.874 168.545 226.219 139.508C207.564 110.472 168.544 101.978 139.507 120.633C110.471 139.288 101.977 178.308 120.632 207.344Z" fill="#FFEEC5"/>
<path d="M114.027 211.586C116.571 215.546 115.627 219.881 111.668 222.425L91.8702 235.144C87.9107 237.688 83.5751 236.744 81.0313 232.785C78.4874 228.825 79.4312 224.49 83.3907 221.946L103.188 209.227C107.148 206.683 111.483 207.627 114.027 211.586ZM222.417 235.18L235.136 254.978C237.68 258.937 236.736 263.273 232.776 265.817C228.817 268.36 224.481 267.417 221.937 263.457L209.218 243.66C206.674 239.7 207.618 235.365 211.578 232.821C215.537 230.277 219.873 231.221 222.417 235.18ZM265.808 114.071C268.352 118.031 267.408 122.367 263.449 124.91L243.651 137.63C239.692 140.174 235.356 139.23 232.812 135.27C230.268 131.311 231.212 126.975 235.172 124.431L254.969 111.712C258.929 109.168 263.264 110.112 265.808 114.071ZM124.902 83.3992L137.621 103.197C140.165 107.156 139.221 111.492 135.262 114.036C131.302 116.579 126.967 115.636 124.423 111.676L111.704 91.8787C109.16 87.9192 110.103 83.5836 114.063 81.0398C118.022 78.4959 122.358 79.4397 124.902 83.3992ZM163.267 246.145C164.539 248.125 164.727 249.868 164.255 252.036L160.952 267.211C160.008 271.546 156.049 274.09 151.713 273.146C147.378 272.203 144.834 268.243 145.777 263.908L149.081 248.733C150.024 244.397 153.984 241.854 158.319 242.797C160.487 243.269 161.995 244.165 163.267 246.145ZM272.15 189.243C273.422 191.223 273.61 192.967 273.138 195.135C272.194 199.47 268.235 202.014 263.899 201.07L248.725 197.767C244.389 196.823 241.845 192.864 242.789 188.528C243.733 184.193 247.692 181.649 252.028 182.593L267.202 185.896C269.37 186.368 270.878 187.264 272.15 189.243ZM200.074 77.0574C201.346 79.0372 201.534 80.781 201.062 82.9488L197.759 98.1233C196.815 102.459 192.855 105.003 188.52 104.059C184.184 103.115 181.64 99.1557 182.584 94.8201L185.887 79.6456C186.831 75.31 190.791 72.7662 195.126 73.7099C197.294 74.1818 199.226 75.7376 200.074 77.0574ZM103.062 152.437C104.334 154.416 104.522 156.16 104.05 158.328C103.107 162.664 99.1472 165.207 94.8116 164.264L79.6371 160.96C75.3016 160.017 72.7577 156.057 73.7014 151.722C74.6452 147.386 78.6047 144.842 82.9403 145.786L98.1148 149.089C100.283 149.561 102.214 151.117 103.062 152.437Z" fill="#FFEEC5"/>
</g>
<defs>
<clipPath id="clip0_9_2">
<rect width="251.001" height="251.001" fill="white" transform="translate(135.673 346.846) rotate(-122.72)"/>
</clipPath>
</defs>
</svg>
