<svg width="106" height="101" viewBox="0 0 106 101" fill="none" xmlns="http://www.w3.org/2000/svg">
<path d="M47.3027 85.2943L50.8308 81.7663C52.2681 80.3289 54.3589 79.4148 56.4488 79.4148C57.6245 79.4148 58.8002 79.6764 59.8457 80.1986C60.1073 79.4148 60.4992 78.631 61.0215 77.9775C58.9307 67.9164 51.6139 60.2076 42.206 57.2027C41.1606 56.9411 40.1152 57.4642 39.8546 58.5096L29.4024 88.1697L27.051 68.8321H28.6186C29.5337 68.8321 30.3175 68.0483 30.3175 67.1332V61.7759C30.3175 60.8608 29.5337 60.077 28.6186 60.077H19.9948C19.0797 60.077 18.2959 60.8608 18.2959 61.7759V67.1332C18.2959 68.0483 19.0797 68.8321 19.9948 68.8321H21.5624L19.2101 88.1697L8.88831 58.6403C8.4964 57.5949 7.45099 57.0726 6.53687 57.3333C-3.65562 60.4694 -11.3644 69.2237 -12.8017 80.3301C-13.5855 87.2552 -13.9774 95.0951 -14.1086 99.9293C-14.1086 102.542 -12.0179 104.764 -9.40484 104.764H40.5077V101.759C40.5077 98.3616 42.7288 95.3559 45.7336 94.3104C44.2973 91.4359 44.9498 87.7773 47.3022 85.2945L47.3027 85.2943Z" fill="#FFD05B" fill-opacity="0.5"/>
<path d="M-0.518654 39.3016H2.8783C5.36109 49.1012 13.985 56.2878 24.3067 56.2878C34.6285 56.2878 43.2523 49.1012 45.7351 39.3016H49.1321C51.2229 39.3016 52.9208 37.6028 52.9208 35.5129V28.8495C52.9208 26.7587 51.2219 25.0608 49.1321 25.0608H46.3877C48.2179 14.9987 46.2583 1.80122 40.6403 4.15382C35.0223 6.63661 4.18584 -1.20352 6.01509 11.7322C0.657759 11.8625 1.3113 19.5723 2.35659 24.9287H-0.387762C-2.47855 24.9287 -4.17646 26.6276 -4.17646 28.7174V35.3809C-4.30771 37.6029 -2.60975 39.3019 -0.518889 39.3019L-0.518654 39.3016ZM8.49719 34.3363C9.28101 34.4666 10.0648 33.6828 9.93451 32.899C9.54259 29.2405 8.8891 20.748 12.0253 21.5317C16.0756 22.5771 20.3876 23.7528 24.3077 23.7528C28.2277 23.7528 32.5395 22.5771 36.59 21.5317C39.7261 20.7479 39.0728 29.2405 38.6808 32.899C38.5505 33.6828 39.3343 34.4666 40.1181 34.3363L41.4251 34.206C41.4251 35.3817 41.2948 36.4271 41.0332 37.4725C37.5042 39.1704 33.1924 39.8239 29.7954 39.8239H29.4035C29.2732 38.7785 28.3581 37.9947 27.1824 37.9947H21.3029C20.1271 37.9947 19.0818 39.0401 19.0818 40.2158V43.0904C19.0818 44.2661 20.1272 45.3115 21.3029 45.3115H27.1824C28.3581 45.3115 29.1419 44.5277 29.4035 43.4823H29.7954C31.3631 43.4823 35.2832 43.352 39.3335 42.045C36.4589 47.5327 30.7096 51.3224 24.3079 51.3224C15.0305 51.3224 7.58328 43.744 7.19153 34.206L8.49719 34.3363Z" fill="#FFD05B" fill-opacity="0.5"/>
<path d="M69.7762 98.7524C66.6401 98.7524 64.1582 101.235 64.1582 104.37C64.1582 107.506 66.641 109.988 69.7762 109.988C72.9123 109.988 75.3941 107.506 75.3941 104.37C75.3941 101.235 72.9113 98.7524 69.7762 98.7524Z" fill="#FFD05B" fill-opacity="0.5"/>
<path d="M91.4662 99.4056L87.1544 98.7521C86.6321 97.4451 86.5009 97.0533 85.9786 95.7472L88.5916 92.2191C89.2451 91.304 89.2451 89.998 88.33 89.2141L84.8019 85.686C84.0181 84.9022 82.7112 84.771 81.797 85.4244L78.2689 88.0374C76.9619 87.5152 76.57 87.3839 75.2639 86.8617L74.6104 82.5499C74.4801 81.3741 73.4347 80.5903 72.259 80.5903H67.2937C66.1179 80.5903 65.2029 81.5054 64.9422 82.5499L64.2887 86.8626C62.9818 87.3849 62.5899 87.5161 61.2838 88.0384L57.7557 85.4254C56.8406 84.7719 55.5346 84.7719 54.7507 85.687L51.2226 89.215C50.4388 89.9989 50.3076 91.3058 50.9611 92.22L53.574 95.7481C53.0518 97.0551 52.9206 97.447 52.3983 98.7531L48.0865 99.4066C46.9108 99.5369 46.127 100.582 46.127 101.758V106.723C46.127 107.899 47.042 108.814 48.0865 109.075L52.3983 109.728C52.9206 111.035 53.0518 111.427 53.574 112.733L50.9611 116.261C50.3076 117.176 50.3076 118.482 51.2226 119.266L54.7507 122.794C55.5345 123.578 56.8415 123.709 57.7557 123.056L61.2838 120.443C62.5907 120.965 62.9826 121.096 64.2887 121.619L64.9422 125.931C65.0726 127.106 66.118 127.89 67.2937 127.89H72.259C73.4347 127.89 74.3498 126.975 74.6104 125.931L75.2639 121.619C76.5709 121.096 76.9628 120.965 78.2689 120.443L81.797 123.056C82.712 123.709 84.0181 123.709 84.8019 122.794L88.33 119.266C89.1138 118.482 89.2451 117.176 88.5916 116.261L85.9786 112.733C86.5009 111.426 86.6321 111.034 87.1544 109.728L91.4662 109.075C92.6419 108.944 93.4257 107.899 93.4257 106.723V101.758C93.556 100.581 92.6419 99.6672 91.4662 99.4056ZM69.7762 114.432C64.1583 114.432 59.5847 109.859 59.5847 104.241C59.5847 98.6226 64.1583 94.049 69.7762 94.049C75.3942 94.049 79.9678 98.6226 79.9678 104.241C79.9678 109.859 75.3942 114.432 69.7762 114.432Z" fill="#FFD05B" fill-opacity="0.5"/>
</svg>
