<svg width="180" height="180" viewBox="0 0 180 180" fill="none" xmlns="http://www.w3.org/2000/svg">
<g clip-path="url(#clip0_901_7867)">
<path d="M147.402 29.4044L128.367 29.4044C127.353 29.4044 126.21 30.0391 125.575 30.9269L116.058 47.2978C115.55 48.3131 115.423 49.455 116.058 50.5978L125.575 66.9686C126.082 67.9839 127.225 68.6186 128.367 68.4911L147.402 68.4911C148.417 68.4911 149.56 67.8564 150.194 66.9686L159.712 50.5978C160.219 49.5824 160.347 48.4405 159.712 47.2978L150.194 30.9269C149.56 30.0391 148.418 29.4035 147.402 29.4044Z" fill="#FFD05B" fill-opacity="0.5"/>
<path d="M178.875 119.759C177.098 121.535 176.591 123.82 177.097 126.104L176.97 125.977C174.305 123.312 169.991 123.312 167.325 125.977C165.549 127.754 165.042 130.039 165.548 132.322L165.422 132.195C162.757 129.53 158.442 129.53 155.777 132.195C154.001 133.972 153.493 136.256 154 138.54L137.758 122.297C136.489 121.027 134.713 120.266 132.935 120.266C131.158 120.266 129.382 121.027 128.113 122.297C125.447 124.962 125.448 129.276 128.113 131.942L159.585 163.413C159.84 163.667 159.966 164.046 159.84 164.428C159.712 164.808 159.332 164.935 158.952 165.063L149.307 165.063C146.007 165.063 143.216 167.347 142.454 170.646C142.073 172.549 142.581 174.58 143.596 176.103C144.737 177.753 146.641 178.641 148.418 178.895L175.322 181.433C182.936 182.194 190.424 179.529 195.881 174.072L203.496 166.457C207.683 162.27 210.094 156.559 209.968 150.595C209.968 144.503 207.683 138.92 203.496 134.732L188.522 119.758C185.854 117.094 181.54 117.094 178.876 119.759L178.875 119.759Z" fill="#FFD05B" fill-opacity="0.5"/>
<path d="M120.626 115.064C121.768 113.922 121.768 112.144 120.626 111.002L107.301 97.6775L111.107 97.6775C112.63 97.6775 113.899 96.4082 113.899 94.8857C113.899 93.3631 112.63 92.0938 111.107 92.0938L100.448 92.0938C98.9249 92.0938 97.6556 93.3632 97.6557 94.8857L97.6557 105.545C97.6557 106.307 97.9097 107.069 98.4169 107.576C98.9242 108.083 99.6863 108.337 100.448 108.337C101.97 108.337 103.24 107.068 103.239 105.546L103.239 101.739L116.564 115.064C117.833 116.08 119.61 116.079 120.626 115.064L120.626 115.064Z" fill="#FFD05B" fill-opacity="0.5"/>
<path d="M113.519 132.069C113.519 130.547 112.249 129.277 110.727 129.277L91.6914 129.277L94.3567 126.612C95.4987 125.47 95.4986 123.693 94.3568 122.551C93.2148 121.409 91.4374 121.409 90.2955 122.551L82.8085 130.038C81.6666 131.18 81.6666 132.957 82.8085 134.099L90.2955 141.586C90.8027 142.093 91.5649 142.347 92.3261 142.347C93.0874 142.347 93.8496 142.093 94.3568 141.586C95.4987 140.444 95.4987 138.667 94.3568 137.525L91.6914 134.861L110.727 134.861C112.249 134.861 113.518 133.593 113.519 132.069L113.519 132.069Z" fill="#FFD05B" fill-opacity="0.5"/>
<path d="M132.3 88.9223L134.966 86.2569L135.092 105.166C135.092 106.688 136.362 107.957 137.884 107.957C139.407 107.957 140.676 106.688 140.676 105.166L140.676 86.1302L143.341 88.7956C144.483 89.9375 146.261 89.9375 147.403 88.7956C148.545 87.6537 148.545 85.8762 147.403 84.7343L139.916 77.2473C138.774 76.1054 136.996 76.1055 135.854 77.2473L128.367 84.7343C127.86 85.2416 127.606 86.0037 127.606 86.765C127.606 87.5263 127.86 88.2884 128.367 88.7957C129.509 89.9376 131.286 89.9367 132.3 88.9223L132.3 88.9223Z" fill="#FFD05B" fill-opacity="0.5"/>
<path d="M69.3573 118.11C77.1373 125.89 77.1364 138.503 69.3573 146.282C61.5773 154.062 48.965 154.062 41.185 146.282C33.4059 138.503 33.405 125.89 41.185 118.11C48.9641 110.331 61.5782 110.331 69.3573 118.11Z" fill="#FFD05B" fill-opacity="0.5"/>
<path d="M83.4437 97.6779L103.494 77.6273C105.144 75.9773 105.144 73.1855 103.494 71.5356L83.4435 51.4866C81.7935 49.8366 79.0017 49.8367 77.3518 51.4866L57.3019 71.5365C55.6519 73.1865 55.652 75.9783 57.3019 77.6282L77.3525 97.6788C78.875 99.4545 81.667 99.4546 83.4435 97.6781L83.4437 97.6779Z" fill="#FFD05B" fill-opacity="0.5"/>
</g>
<defs>
<clipPath id="clip0_901_7867">
<rect width="180" height="180" fill="white" transform="translate(0 121.279) rotate(-45)"/>
</clipPath>
</defs>
</svg>
