<svg width="287" height="47" viewBox="0 0 287 47" fill="none"
    xmlns="http://www.w3.org/2000/svg">
    <rect x="1" y="1" width="285" height="45" rx="7" fill="white"/>
    <path d="M50.12 20H48.3729L52.2987 9.09091H54.2003L58.1261 20H56.3789L53.2947 11.0724H53.2095L50.12 20ZM50.413 15.728H56.0806V17.1129H50.413V15.728ZM62.5046 20.1598C61.8441 20.1598 61.2546 19.9911 60.7362 19.6538C60.2212 19.3129 59.8164 18.8281 59.5217 18.1996C59.2305 17.5675 59.0849 16.8093 59.0849 15.9251C59.0849 15.0408 59.2322 14.2844 59.527 13.6559C59.8253 13.0273 60.2337 12.5462 60.7521 12.2124C61.2706 11.8786 61.8583 11.7116 62.5153 11.7116C63.0231 11.7116 63.4315 11.7969 63.7404 11.9673C64.0529 12.1342 64.2944 12.3295 64.4648 12.5533C64.6388 12.777 64.7738 12.9741 64.8697 13.1445H64.9656V9.09091H66.5582V20H65.0028V18.7269H64.8697C64.7738 18.9009 64.6353 19.0998 64.4542 19.3235C64.2766 19.5472 64.0316 19.7425 63.7191 19.9094C63.4066 20.0763 63.0018 20.1598 62.5046 20.1598ZM62.8562 18.8015C63.3143 18.8015 63.7013 18.6808 64.0174 18.4393C64.337 18.1942 64.5785 17.8551 64.7418 17.4219C64.9087 16.9886 64.9922 16.4844 64.9922 15.9091C64.9922 15.3409 64.9105 14.8437 64.7472 14.4176C64.5838 13.9915 64.3441 13.6594 64.0281 13.4215C63.712 13.1836 63.3214 13.0646 62.8562 13.0646C62.3768 13.0646 61.9773 13.1889 61.6577 13.4375C61.3381 13.6861 61.0966 14.0252 60.9332 14.4549C60.7734 14.8846 60.6935 15.3693 60.6935 15.9091C60.6935 16.456 60.7752 16.9478 60.9386 17.3846C61.1019 17.8214 61.3434 18.1676 61.663 18.4233C61.9862 18.6754 62.3839 18.8015 62.8562 18.8015ZM71.8943 20.1598C71.2338 20.1598 70.6443 19.9911 70.1258 19.6538C69.6109 19.3129 69.2061 18.8281 68.9113 18.1996C68.6201 17.5675 68.4745 16.8093 68.4745 15.9251C68.4745 15.0408 68.6219 14.2844 68.9166 13.6559C69.2149 13.0273 69.6233 12.5462 70.1418 12.2124C70.6602 11.8786 71.248 11.7116 71.9049 11.7116C72.4127 11.7116 72.8211 11.7969 73.1301 11.9673C73.4426 12.1342 73.684 12.3295 73.8545 12.5533C74.0285 12.777 74.1634 12.9741 74.2593 13.1445H74.3552V9.09091H75.9479V20H74.3925V18.7269H74.2593C74.1634 18.9009 74.0249 19.0998 73.8438 19.3235C73.6663 19.5472 73.4213 19.7425 73.1088 19.9094C72.7963 20.0763 72.3914 20.1598 71.8943 20.1598ZM72.2458 18.8015C72.7039 18.8015 73.091 18.6808 73.407 18.4393C73.7267 18.1942 73.9681 17.8551 74.1315 17.4219C74.2984 16.9886 74.3818 16.4844 74.3818 15.9091C74.3818 15.3409 74.3002 14.8437 74.1368 14.4176C73.9735 13.9915 73.7338 13.6594 73.4177 13.4215C73.1017 13.1836 72.711 13.0646 72.2458 13.0646C71.7664 13.0646 71.3669 13.1889 71.0473 13.4375C70.7277 13.6861 70.4862 14.0252 70.3229 14.4549C70.1631 14.8846 70.0832 15.3693 70.0832 15.9091C70.0832 16.456 70.1649 16.9478 70.3282 17.3846C70.4916 17.8214 70.733 18.1676 71.0526 18.4233C71.3758 18.6754 71.7735 18.8015 72.2458 18.8015ZM85.8502 20H82.3186V9.09091H85.9621C87.031 9.09091 87.949 9.3093 88.716 9.74609C89.483 10.1793 90.0708 10.8026 90.4791 11.6158C90.8911 12.4254 91.097 13.3967 91.097 14.5295C91.097 15.6658 90.8893 16.6424 90.4738 17.4592C90.0619 18.2759 89.4653 18.9045 88.684 19.3448C87.9028 19.7816 86.9582 20 85.8502 20ZM83.9646 18.5618H85.7597C86.5906 18.5618 87.2813 18.4055 87.8318 18.093C88.3822 17.777 88.7941 17.3207 89.0676 16.7241C89.341 16.1239 89.4777 15.3924 89.4777 14.5295C89.4777 13.6737 89.341 12.9474 89.0676 12.3509C88.7977 11.7543 88.3946 11.3015 87.8584 10.9925C87.3222 10.6836 86.6563 10.5291 85.8609 10.5291H83.9646V18.5618ZM96.4624 20.1651C95.6953 20.1651 95.0259 19.9893 94.4542 19.6378C93.8825 19.2862 93.4386 18.7944 93.1225 18.1623C92.8065 17.5302 92.6484 16.7915 92.6484 15.9464C92.6484 15.0977 92.8065 14.3555 93.1225 13.7198C93.4386 13.0842 93.8825 12.5906 94.4542 12.239C95.0259 11.8874 95.6953 11.7116 96.4624 11.7116C97.2294 11.7116 97.8988 11.8874 98.4705 12.239C99.0423 12.5906 99.4862 13.0842 99.8022 13.7198C100.118 14.3555 100.276 15.0977 100.276 15.9464C100.276 16.7915 100.118 17.5302 99.8022 18.1623C99.4862 18.7944 99.0423 19.2862 98.4705 19.6378C97.8988 19.9893 97.2294 20.1651 96.4624 20.1651ZM96.4677 18.8281C96.9648 18.8281 97.3768 18.6967 97.7035 18.4339C98.0302 18.1712 98.2717 17.8214 98.4279 17.3846C98.5877 16.9478 98.6676 16.4666 98.6676 15.9411C98.6676 15.419 98.5877 14.9396 98.4279 14.5028C98.2717 14.0625 98.0302 13.7092 97.7035 13.4428C97.3768 13.1765 96.9648 13.0433 96.4677 13.0433C95.967 13.0433 95.5515 13.1765 95.2212 13.4428C94.8945 13.7092 94.6513 14.0625 94.4915 14.5028C94.3352 14.9396 94.2571 15.419 94.2571 15.9411C94.2571 16.4666 94.3352 16.9478 94.4915 17.3846C94.6513 17.8214 94.8945 18.1712 95.2212 18.4339C95.5515 18.6967 95.967 18.8281 96.4677 18.8281ZM105.5 20.1651C104.709 20.1651 104.027 19.9858 103.455 19.6271C102.887 19.2649 102.45 18.766 102.145 18.1303C101.839 17.4947 101.687 16.7667 101.687 15.9464C101.687 15.1154 101.843 14.3821 102.155 13.7464C102.468 13.1072 102.908 12.6083 103.476 12.2496C104.044 11.891 104.714 11.7116 105.484 11.7116C106.106 11.7116 106.66 11.8271 107.146 12.0579C107.633 12.2852 108.025 12.6048 108.324 13.0167C108.625 13.4286 108.805 13.9098 108.862 14.4602H107.312C107.226 14.0767 107.031 13.7464 106.726 13.4695C106.424 13.1925 106.019 13.054 105.511 13.054C105.067 13.054 104.678 13.1712 104.345 13.4055C104.014 13.6364 103.757 13.9666 103.572 14.3963C103.388 14.8224 103.295 15.3267 103.295 15.9091C103.295 16.5057 103.386 17.0206 103.567 17.4538C103.748 17.8871 104.004 18.2227 104.334 18.4606C104.668 18.6985 105.06 18.8175 105.511 18.8175C105.813 18.8175 106.086 18.7624 106.331 18.6523C106.58 18.5387 106.788 18.3771 106.955 18.1676C107.125 17.9581 107.244 17.706 107.312 17.4112H108.862C108.805 17.9403 108.633 18.4126 108.345 18.8281C108.057 19.2436 107.672 19.5703 107.189 19.8082C106.71 20.0462 106.147 20.1651 105.5 20.1651ZM115.748 16.6069V11.8182H117.346V20H115.78V18.5831H115.694C115.506 19.0199 115.204 19.3839 114.789 19.6751C114.377 19.9627 113.864 20.1065 113.249 20.1065C112.724 20.1065 112.259 19.9911 111.854 19.7603C111.453 19.5259 111.137 19.1797 110.906 18.7216C110.678 18.2635 110.565 17.6971 110.565 17.0224V11.8182H112.157V16.8306C112.157 17.3881 112.312 17.832 112.621 18.1623C112.93 18.4925 113.331 18.6577 113.825 18.6577C114.123 18.6577 114.42 18.5831 114.714 18.4339C115.013 18.2848 115.259 18.0593 115.455 17.7575C115.654 17.4556 115.751 17.0721 115.748 16.6069ZM119.486 20V11.8182H121.014V13.1499H121.116C121.286 12.6989 121.565 12.3473 121.952 12.0952C122.339 11.8395 122.802 11.7116 123.342 11.7116C123.889 11.7116 124.347 11.8395 124.717 12.0952C125.089 12.3509 125.365 12.7024 125.542 13.1499H125.627C125.823 12.7131 126.133 12.3651 126.56 12.1058C126.986 11.843 127.494 11.7116 128.083 11.7116C128.825 11.7116 129.431 11.9442 129.899 12.4094C130.372 12.8746 130.608 13.576 130.608 14.5135V20H129.015V14.6626C129.015 14.1087 128.864 13.7074 128.562 13.4588C128.261 13.2102 127.9 13.0859 127.481 13.0859C126.963 13.0859 126.56 13.2457 126.272 13.5653C125.984 13.8814 125.84 14.288 125.84 14.7852V20H124.253V14.5614C124.253 14.1175 124.115 13.7607 123.838 13.4908C123.561 13.2209 123.2 13.0859 122.756 13.0859C122.454 13.0859 122.176 13.1658 121.92 13.3256C121.668 13.4819 121.464 13.7003 121.307 13.9808C121.155 14.2614 121.078 14.5863 121.078 14.9556V20H119.486ZM136.269 20.1651C135.463 20.1651 134.768 19.9929 134.186 19.6484C133.607 19.3004 133.16 18.8121 132.844 18.1836C132.531 17.5515 132.375 16.8111 132.375 15.9624C132.375 15.1243 132.531 14.3857 132.844 13.7464C133.16 13.1072 133.6 12.6083 134.165 12.2496C134.733 11.891 135.397 11.7116 136.157 11.7116C136.619 11.7116 137.066 11.788 137.499 11.9407C137.933 12.0934 138.321 12.3331 138.666 12.6598C139.01 12.9865 139.282 13.4109 139.481 13.9329C139.68 14.4513 139.779 15.0817 139.779 15.8239V16.3885H133.275V15.1953H138.218C138.218 14.7763 138.133 14.4052 137.963 14.082C137.792 13.7553 137.553 13.4979 137.244 13.3097C136.938 13.1214 136.58 13.0273 136.168 13.0273C135.72 13.0273 135.33 13.1374 134.996 13.3576C134.665 13.5742 134.41 13.8583 134.229 14.2099C134.051 14.5579 133.962 14.9361 133.962 15.3445V16.2766C133.962 16.8235 134.058 17.2887 134.25 17.6722C134.445 18.0558 134.717 18.3487 135.065 18.5511C135.413 18.75 135.82 18.8494 136.285 18.8494C136.587 18.8494 136.862 18.8068 137.11 18.7216C137.359 18.6328 137.574 18.5014 137.755 18.3274C137.936 18.1534 138.075 17.9386 138.17 17.6829L139.678 17.9545C139.557 18.3984 139.341 18.7873 139.028 19.1211C138.719 19.4513 138.33 19.7088 137.862 19.8935C137.396 20.0746 136.865 20.1651 136.269 20.1651ZM143.139 15.142V20H141.546V11.8182H143.075V13.1499H143.176C143.364 12.7166 143.659 12.3686 144.06 12.1058C144.465 11.843 144.975 11.7116 145.589 11.7116C146.147 11.7116 146.635 11.8288 147.054 12.0632C147.473 12.294 147.798 12.6385 148.029 13.0966C148.26 13.5547 148.375 14.1211 148.375 14.7958V20H146.782V14.9876C146.782 14.3945 146.628 13.9311 146.319 13.5973C146.01 13.2599 145.586 13.0913 145.046 13.0913C144.677 13.0913 144.348 13.1712 144.06 13.331C143.776 13.4908 143.551 13.7251 143.384 14.0341C143.221 14.3395 143.139 14.7088 143.139 15.142ZM154.33 11.8182V13.0966H149.861V11.8182H154.33ZM151.06 9.85795H152.652V17.5977C152.652 17.9066 152.699 18.1392 152.791 18.2955C152.883 18.4482 153.002 18.5529 153.148 18.6097C153.297 18.663 153.459 18.6896 153.633 18.6896C153.76 18.6896 153.872 18.6808 153.968 18.663C154.064 18.6452 154.139 18.631 154.192 18.6204L154.479 19.9361C154.387 19.9716 154.256 20.0071 154.085 20.0426C153.915 20.0817 153.702 20.103 153.446 20.1065C153.027 20.1136 152.636 20.0391 152.274 19.8828C151.912 19.7266 151.619 19.4851 151.395 19.1584C151.172 18.8317 151.06 18.4215 151.06 17.9279V9.85795Z" fill="black"/>
    <path d="M49.3849 31.2727C49.3849 30.1094 49.5357 29.0399 49.8374 28.0643C50.142 27.0856 50.576 26.1854 51.1392 25.3636H52.0994C51.8778 25.6683 51.6701 26.0438 51.4762 26.4901C51.2854 26.9332 51.1177 27.421 50.973 27.9535C50.8284 28.4828 50.7145 29.0307 50.6314 29.5969C50.5514 30.1632 50.5114 30.7218 50.5114 31.2727C50.5114 32.0052 50.5821 32.7485 50.7237 33.5025C50.8653 34.2565 51.0561 34.9567 51.2962 35.603C51.5362 36.2493 51.804 36.7756 52.0994 37.1818H51.1392C50.576 36.3601 50.142 35.4614 49.8374 34.4858C49.5357 33.5071 49.3849 32.4361 49.3849 31.2727ZM56.8833 36.1293C56.2739 36.1293 55.7307 36.0246 55.2536 35.8153C54.7797 35.6061 54.4027 35.3152 54.1226 34.9428C53.8456 34.5674 53.6948 34.1319 53.6702 33.6364H54.8335C54.8582 33.9411 54.9628 34.2042 55.1475 34.4258C55.3321 34.6443 55.5737 34.8136 55.8722 34.9336C56.1708 35.0536 56.5016 35.1136 56.8648 35.1136C57.271 35.1136 57.6311 35.0429 57.945 34.9013C58.259 34.7597 58.5052 34.5627 58.6837 34.3104C58.8622 34.058 58.9514 33.7656 58.9514 33.4332C58.9514 33.0855 58.8653 32.7792 58.6929 32.5146C58.5206 32.2468 58.2682 32.0375 57.9358 31.8867C57.6034 31.7359 57.1972 31.6605 56.7171 31.6605H55.96V30.6449H56.7171C57.0925 30.6449 57.4218 30.5772 57.705 30.4418C57.9912 30.3063 58.2143 30.1155 58.3744 29.8693C58.5375 29.6231 58.6191 29.3338 58.6191 29.0014C58.6191 28.6813 58.5483 28.4028 58.4067 28.1658C58.2651 27.9289 58.0651 27.7442 57.8066 27.6119C57.5511 27.4795 57.2495 27.4134 56.9017 27.4134C56.5755 27.4134 56.2677 27.4734 55.9784 27.5934C55.6922 27.7103 55.4583 27.8812 55.2767 28.1058C55.0951 28.3274 54.9967 28.5952 54.9813 28.9091H53.8733C53.8918 28.4136 54.041 27.9796 54.3211 27.6072C54.6012 27.2318 54.9674 26.9394 55.4198 26.7301C55.8753 26.5208 56.3754 26.4162 56.9202 26.4162C57.5049 26.4162 58.0066 26.5347 58.4252 26.7717C58.8437 27.0056 59.1653 27.3149 59.39 27.6996C59.6147 28.0843 59.727 28.4998 59.727 28.946C59.727 29.4785 59.587 29.9324 59.3069 30.3079C59.0299 30.6834 58.6529 30.9434 58.1759 31.0881V31.1619C58.7729 31.2604 59.2392 31.5143 59.5747 31.9237C59.9101 32.3299 60.0779 32.8331 60.0779 33.4332C60.0779 33.9472 59.9378 34.4089 59.6578 34.8182C59.3808 35.2244 59.0022 35.5445 58.5221 35.7784C58.042 36.0123 57.4957 36.1293 56.8833 36.1293ZM66.047 30.7649V31.7805H61.9106V30.7649H66.047ZM70.9 36.1293C70.3584 36.1293 69.8706 36.0215 69.4366 35.8061C69.0027 35.5907 68.6549 35.2952 68.3933 34.9197C68.1317 34.5443 67.9886 34.1165 67.964 33.6364H69.0719C69.115 34.0642 69.3089 34.4181 69.6536 34.6982C70.0014 34.9751 70.4168 35.1136 70.9 35.1136C71.2878 35.1136 71.6325 35.0228 71.9341 34.8413C72.2388 34.6597 72.4773 34.4104 72.6497 34.0934C72.8251 33.7733 72.9128 33.4117 72.9128 33.0085C72.9128 32.5961 72.822 32.2283 72.6404 31.9052C72.4619 31.579 72.2157 31.322 71.9018 31.1342C71.5879 30.9465 71.2293 30.8511 70.8262 30.848C70.5369 30.8449 70.2399 30.8896 69.9352 30.9819C69.6305 31.0711 69.3797 31.1866 69.1827 31.3281L68.1117 31.1989L68.6841 26.5455H73.5961V27.5611H69.6444L69.312 30.3494H69.3674C69.5613 30.1955 69.8044 30.0678 70.0968 29.9663C70.3891 29.8647 70.6938 29.8139 71.0108 29.8139C71.5894 29.8139 72.1049 29.9524 72.5574 30.2294C73.0128 30.5033 73.3699 30.8788 73.6284 31.3558C73.89 31.8329 74.0208 32.3776 74.0208 32.9901C74.0208 33.5933 73.8854 34.1319 73.6145 34.6058C73.3468 35.0767 72.9775 35.4491 72.5066 35.723C72.0357 35.9938 71.5002 36.1293 70.9 36.1293ZM76.0209 26.5455H77.3873L80.6004 34.3935H80.7112L83.9243 26.5455H85.2907V36H84.2197V28.8168H84.1274L81.1729 36H80.1388L77.1842 28.8168H77.0919V36H76.0209V26.5455ZM87.5863 36V26.5455H90.8917C91.5503 26.5455 92.0935 26.6593 92.5213 26.8871C92.9491 27.1117 93.2676 27.4149 93.4769 27.7965C93.6862 28.1751 93.7908 28.5952 93.7908 29.0568C93.7908 29.4631 93.7185 29.7985 93.5739 30.0632C93.4323 30.3279 93.2446 30.5372 93.0107 30.6911C92.7798 30.8449 92.529 30.9588 92.2582 31.0327V31.125C92.5475 31.1435 92.8383 31.245 93.1307 31.4297C93.4231 31.6143 93.6677 31.879 93.8647 32.2237C94.0617 32.5684 94.1602 32.9901 94.1602 33.4886C94.1602 33.9626 94.0524 34.3888 93.837 34.7674C93.6216 35.146 93.2815 35.446 92.8168 35.6676C92.352 35.8892 91.7473 36 91.0025 36H87.5863ZM88.7312 34.9844H91.0025C91.7504 34.9844 92.2813 34.8397 92.5952 34.5504C92.9122 34.258 93.0707 33.9041 93.0707 33.4886C93.0707 33.1686 92.9891 32.8731 92.826 32.6023C92.6629 32.3284 92.4305 32.1098 92.1289 31.9467C91.8273 31.7805 91.4703 31.6974 91.0579 31.6974H88.7312V34.9844ZM88.7312 30.7003H90.8548C91.1995 30.7003 91.5103 30.6326 91.7873 30.4972C92.0674 30.3617 92.2889 30.1709 92.4521 29.9247C92.6183 29.6785 92.7013 29.3892 92.7013 29.0568C92.7013 28.6413 92.5567 28.2889 92.2674 27.9996C91.9781 27.7073 91.5195 27.5611 90.8917 27.5611H88.7312V30.7003ZM101.156 36L98.9959 28.9091H100.141L101.673 34.3381H101.747L103.262 28.9091H104.425L105.921 34.3196H105.994L107.527 28.9091H108.672L106.512 36H105.441L103.889 30.5526H103.779L102.227 36H101.156ZM110.112 36V28.9091H111.202V36H110.112ZM110.666 27.7273C110.454 27.7273 110.271 27.6549 110.117 27.5103C109.966 27.3656 109.891 27.1918 109.891 26.9886C109.891 26.7855 109.966 26.6116 110.117 26.467C110.271 26.3223 110.454 26.25 110.666 26.25C110.879 26.25 111.06 26.3223 111.211 26.467C111.365 26.6116 111.442 26.7855 111.442 26.9886C111.442 27.1918 111.365 27.3656 111.211 27.5103C111.06 27.6549 110.879 27.7273 110.666 27.7273ZM116.281 28.9091V29.8324H112.606V28.9091H116.281ZM113.677 27.2102H114.767V33.9688C114.767 34.2765 114.812 34.5073 114.901 34.6612C114.993 34.812 115.11 34.9136 115.252 34.9659C115.396 35.0152 115.549 35.0398 115.709 35.0398C115.829 35.0398 115.927 35.0336 116.004 35.0213C116.081 35.0059 116.143 34.9936 116.189 34.9844L116.41 35.9631C116.337 35.9908 116.233 36.0185 116.101 36.0462C115.969 36.0769 115.801 36.0923 115.598 36.0923C115.29 36.0923 114.989 36.0262 114.693 35.8938C114.401 35.7615 114.158 35.5599 113.964 35.2891C113.773 35.0182 113.677 34.6766 113.677 34.2642V27.2102ZM119.162 31.7344V36H118.072V26.5455H119.162V30.017H119.254C119.42 29.6508 119.67 29.36 120.002 29.1445C120.338 28.926 120.784 28.8168 121.341 28.8168C121.824 28.8168 122.247 28.9137 122.61 29.1076C122.974 29.2984 123.255 29.5923 123.455 29.9893C123.658 30.3833 123.76 30.8849 123.76 31.4943V36H122.67V31.5682C122.67 31.005 122.524 30.5695 122.232 30.2617C121.943 29.9509 121.541 29.7955 121.027 29.7955C120.67 29.7955 120.35 29.8709 120.067 30.0217C119.787 30.1725 119.565 30.3925 119.402 30.6818C119.242 30.9711 119.162 31.322 119.162 31.7344ZM130.203 36.0739C129.976 36.0739 129.78 35.9923 129.617 35.8292C129.454 35.6661 129.372 35.4706 129.372 35.2429C129.372 35.0152 129.454 34.8197 129.617 34.6566C129.78 34.4935 129.976 34.4119 130.203 34.4119C130.431 34.4119 130.626 34.4935 130.79 34.6566C130.953 34.8197 131.034 35.0152 131.034 35.2429C131.034 35.3937 130.996 35.5322 130.919 35.6584C130.845 35.7846 130.745 35.8861 130.619 35.9631C130.496 36.0369 130.357 36.0739 130.203 36.0739ZM132.989 28.9091H134.079V36.517C134.079 36.9541 134.003 37.3326 133.853 37.6527C133.705 37.9728 133.48 38.2205 133.179 38.396C132.88 38.5714 132.503 38.6591 132.048 38.6591C132.011 38.6591 131.974 38.6591 131.937 38.6591C131.9 38.6591 131.863 38.6591 131.826 38.6591V37.6435C131.863 37.6435 131.897 37.6435 131.928 37.6435C131.958 37.6435 131.992 37.6435 132.029 37.6435C132.362 37.6435 132.605 37.545 132.759 37.348C132.912 37.1541 132.989 36.8771 132.989 36.517V28.9091ZM133.525 27.7273C133.313 27.7273 133.129 27.6549 132.975 27.5103C132.825 27.3656 132.749 27.1918 132.749 26.9886C132.749 26.7855 132.825 26.6116 132.975 26.467C133.129 26.3223 133.313 26.25 133.525 26.25C133.737 26.25 133.919 26.3223 134.07 26.467C134.223 26.6116 134.3 26.7855 134.3 26.9886C134.3 27.1918 134.223 27.3656 134.07 27.5103C133.919 27.6549 133.737 27.7273 133.525 27.7273ZM136.074 38.6591V28.9091H137.127V30.0355H137.256C137.336 29.9124 137.447 29.7554 137.589 29.5646C137.733 29.3707 137.939 29.1984 138.207 29.0476C138.478 28.8937 138.844 28.8168 139.306 28.8168C139.903 28.8168 140.429 28.966 140.885 29.2646C141.34 29.5631 141.696 29.9863 141.951 30.5341C142.207 31.0819 142.334 31.7282 142.334 32.473C142.334 33.224 142.207 33.8749 141.951 34.4258C141.696 34.9736 141.342 35.3983 140.889 35.6999C140.437 35.9985 139.915 36.1477 139.324 36.1477C138.869 36.1477 138.504 36.0723 138.23 35.9215C137.956 35.7676 137.745 35.5937 137.598 35.3999C137.45 35.2029 137.336 35.0398 137.256 34.9105H137.164V38.6591H136.074ZM137.145 32.4545C137.145 32.9901 137.224 33.4625 137.381 33.8718C137.538 34.2781 137.767 34.5966 138.069 34.8274C138.37 35.0552 138.74 35.169 139.177 35.169C139.632 35.169 140.012 35.049 140.317 34.8089C140.625 34.5658 140.855 34.2396 141.009 33.8303C141.166 33.4179 141.245 32.9593 141.245 32.4545C141.245 31.956 141.168 31.5066 141.014 31.1065C140.863 30.7034 140.634 30.3848 140.326 30.1509C140.021 29.9139 139.638 29.7955 139.177 29.7955C138.733 29.7955 138.361 29.9078 138.059 30.1325C137.758 30.354 137.53 30.6649 137.376 31.065C137.222 31.462 137.145 31.9252 137.145 32.4545ZM146.858 38.8068C146.332 38.8068 145.88 38.7391 145.501 38.6037C145.123 38.4714 144.807 38.2959 144.555 38.0774C144.305 37.862 144.107 37.6312 143.959 37.3849L144.827 36.7756C144.926 36.9048 145.05 37.0526 145.201 37.2188C145.352 37.388 145.558 37.5342 145.82 37.6573C146.084 37.7835 146.431 37.8466 146.858 37.8466C147.431 37.8466 147.903 37.7081 148.276 37.4311C148.648 37.1541 148.834 36.7202 148.834 36.1293V34.6889H148.742C148.662 34.8182 148.548 34.9782 148.4 35.169C148.256 35.3568 148.046 35.5245 147.772 35.6722C147.502 35.8169 147.135 35.8892 146.674 35.8892C146.101 35.8892 145.587 35.7538 145.132 35.483C144.679 35.2121 144.321 34.8182 144.056 34.3011C143.795 33.7841 143.664 33.1562 143.664 32.4176C143.664 31.6913 143.792 31.0588 144.047 30.5202C144.302 29.9786 144.658 29.56 145.113 29.2646C145.569 28.966 146.095 28.8168 146.692 28.8168C147.154 28.8168 147.52 28.8937 147.791 29.0476C148.065 29.1984 148.274 29.3707 148.419 29.5646C148.566 29.7554 148.68 29.9124 148.76 30.0355H148.871V28.9091H149.924V36.2031C149.924 36.8125 149.785 37.308 149.508 37.6896C149.234 38.0743 148.865 38.3559 148.4 38.5344C147.939 38.716 147.425 38.8068 146.858 38.8068ZM146.821 34.9105C147.258 34.9105 147.628 34.8105 147.929 34.6104C148.231 34.4104 148.46 34.1226 148.617 33.7472C148.774 33.3717 148.853 32.9223 148.853 32.3991C148.853 31.8883 148.776 31.4374 148.622 31.0465C148.468 30.6557 148.24 30.3494 147.939 30.1278C147.637 29.9062 147.265 29.7955 146.821 29.7955C146.36 29.7955 145.975 29.9124 145.667 30.1463C145.363 30.3802 145.133 30.6941 144.979 31.0881C144.829 31.482 144.753 31.919 144.753 32.3991C144.753 32.8916 144.83 33.3271 144.984 33.7056C145.141 34.0811 145.372 34.3765 145.677 34.592C145.984 34.8043 146.366 34.9105 146.821 34.9105ZM157.661 36.1662C157.212 36.1662 156.804 36.0816 156.438 35.9123C156.071 35.7399 155.781 35.4922 155.565 35.169C155.35 34.8428 155.242 34.4489 155.242 33.9872C155.242 33.581 155.322 33.2517 155.482 32.9993C155.642 32.7438 155.856 32.5438 156.124 32.3991C156.391 32.2545 156.687 32.1468 157.01 32.076C157.336 32.0021 157.664 31.9437 157.993 31.9006C158.424 31.8452 158.774 31.8036 159.041 31.7759C159.312 31.7451 159.509 31.6944 159.632 31.6236C159.758 31.5528 159.821 31.4297 159.821 31.2543V31.2173C159.821 30.7618 159.697 30.4079 159.448 30.1555C159.201 29.9032 158.827 29.777 158.326 29.777C157.806 29.777 157.398 29.8909 157.102 30.1186C156.807 30.3464 156.599 30.5895 156.479 30.848L155.445 30.4787C155.63 30.0478 155.876 29.7124 156.184 29.4723C156.495 29.2292 156.833 29.0599 157.199 28.9645C157.569 28.866 157.932 28.8168 158.289 28.8168C158.517 28.8168 158.778 28.8445 159.074 28.8999C159.372 28.9522 159.66 29.0614 159.937 29.2276C160.217 29.3938 160.449 29.6446 160.634 29.9801C160.819 30.3156 160.911 30.7649 160.911 31.3281V36H159.821V35.0398H159.766C159.692 35.1937 159.569 35.3583 159.397 35.5337C159.224 35.7092 158.995 35.8584 158.709 35.9815C158.423 36.1046 158.073 36.1662 157.661 36.1662ZM157.827 35.1875C158.258 35.1875 158.621 35.1029 158.917 34.9336C159.215 34.7643 159.44 34.5458 159.591 34.2781C159.745 34.0103 159.821 33.7287 159.821 33.4332V32.4361C159.775 32.4915 159.674 32.5423 159.517 32.5884C159.363 32.6315 159.184 32.67 158.981 32.7038C158.781 32.7346 158.586 32.7623 158.395 32.7869C158.207 32.8085 158.055 32.8269 157.938 32.8423C157.655 32.8793 157.39 32.9393 157.144 33.0224C156.901 33.1024 156.704 33.224 156.553 33.3871C156.405 33.5471 156.331 33.7656 156.331 34.0426C156.331 34.4212 156.471 34.7074 156.752 34.9013C157.035 35.0921 157.393 35.1875 157.827 35.1875ZM163.989 31.7344V36H162.9V28.9091H163.952V30.017H164.044C164.211 29.657 164.463 29.3677 164.801 29.1491C165.14 28.9276 165.577 28.8168 166.113 28.8168C166.593 28.8168 167.013 28.9152 167.373 29.1122C167.733 29.3061 168.013 29.6016 168.213 29.9986C168.413 30.3925 168.513 30.8911 168.513 31.4943V36H167.424V31.5682C167.424 31.0111 167.279 30.5772 166.99 30.2663C166.7 29.9524 166.303 29.7955 165.799 29.7955C165.451 29.7955 165.14 29.8709 164.866 30.0217C164.595 30.1725 164.381 30.3925 164.224 30.6818C164.067 30.9711 163.989 31.322 163.989 31.7344ZM173.182 36.1477C172.591 36.1477 172.069 35.9985 171.617 35.6999C171.164 35.3983 170.81 34.9736 170.555 34.4258C170.299 33.8749 170.172 33.224 170.172 32.473C170.172 31.7282 170.299 31.0819 170.555 30.5341C170.81 29.9863 171.166 29.5631 171.621 29.2646C172.077 28.966 172.603 28.8168 173.2 28.8168C173.662 28.8168 174.026 28.8937 174.294 29.0476C174.565 29.1984 174.771 29.3707 174.913 29.5646C175.057 29.7554 175.17 29.9124 175.25 30.0355H175.342V26.5455H176.432V36H175.379V34.9105H175.25C175.17 35.0398 175.056 35.2029 174.908 35.3999C174.76 35.5937 174.55 35.7676 174.276 35.9215C174.002 36.0723 173.637 36.1477 173.182 36.1477ZM173.329 35.169C173.766 35.169 174.136 35.0552 174.437 34.8274C174.739 34.5966 174.968 34.2781 175.125 33.8718C175.282 33.4625 175.361 32.9901 175.361 32.4545C175.361 31.9252 175.284 31.462 175.13 31.065C174.976 30.6649 174.748 30.354 174.446 30.1325C174.145 29.9078 173.772 29.7955 173.329 29.7955C172.868 29.7955 172.483 29.9139 172.175 30.1509C171.87 30.3848 171.641 30.7034 171.487 31.1065C171.336 31.5066 171.261 31.956 171.261 32.4545C171.261 32.9593 171.338 33.4179 171.492 33.8303C171.649 34.2396 171.88 34.5658 172.184 34.8089C172.492 35.049 172.874 35.169 173.329 35.169ZM183.028 36.0739C182.801 36.0739 182.605 35.9923 182.442 35.8292C182.279 35.6661 182.198 35.4706 182.198 35.2429C182.198 35.0152 182.279 34.8197 182.442 34.6566C182.605 34.4935 182.801 34.4119 183.028 34.4119C183.256 34.4119 183.452 34.4935 183.615 34.6566C183.778 34.8197 183.859 35.0152 183.859 35.2429C183.859 35.3937 183.821 35.5322 183.744 35.6584C183.67 35.7846 183.57 35.8861 183.444 35.9631C183.321 36.0369 183.182 36.0739 183.028 36.0739ZM185.815 28.9091H186.904V36.517C186.904 36.9541 186.829 37.3326 186.678 37.6527C186.53 37.9728 186.305 38.2205 186.004 38.396C185.705 38.5714 185.328 38.6591 184.873 38.6591C184.836 38.6591 184.799 38.6591 184.762 38.6591C184.725 38.6591 184.688 38.6591 184.651 38.6591V37.6435C184.688 37.6435 184.722 37.6435 184.753 37.6435C184.784 37.6435 184.817 37.6435 184.854 37.6435C185.187 37.6435 185.43 37.545 185.584 37.348C185.738 37.1541 185.815 36.8771 185.815 36.517V28.9091ZM186.35 27.7273C186.138 27.7273 185.955 27.6549 185.801 27.5103C185.65 27.3656 185.574 27.1918 185.574 26.9886C185.574 26.7855 185.65 26.6116 185.801 26.467C185.955 26.3223 186.138 26.25 186.35 26.25C186.562 26.25 186.744 26.3223 186.895 26.467C187.049 26.6116 187.126 26.7855 187.126 26.9886C187.126 27.1918 187.049 27.3656 186.895 27.5103C186.744 27.6549 186.562 27.7273 186.35 27.7273ZM188.9 38.6591V28.9091H189.952V30.0355H190.081C190.161 29.9124 190.272 29.7554 190.414 29.5646C190.558 29.3707 190.765 29.1984 191.032 29.0476C191.303 28.8937 191.669 28.8168 192.131 28.8168C192.728 28.8168 193.254 28.966 193.71 29.2646C194.165 29.5631 194.521 29.9863 194.776 30.5341C195.032 31.0819 195.159 31.7282 195.159 32.473C195.159 33.224 195.032 33.8749 194.776 34.4258C194.521 34.9736 194.167 35.3983 193.714 35.6999C193.262 35.9985 192.74 36.1477 192.15 36.1477C191.694 36.1477 191.329 36.0723 191.055 35.9215C190.781 35.7676 190.571 35.5937 190.423 35.3999C190.275 35.2029 190.161 35.0398 190.081 34.9105H189.989V38.6591H188.9ZM189.971 32.4545C189.971 32.9901 190.049 33.4625 190.206 33.8718C190.363 34.2781 190.592 34.5966 190.894 34.8274C191.195 35.0552 191.565 35.169 192.002 35.169C192.457 35.169 192.837 35.049 193.142 34.8089C193.45 34.5658 193.681 34.2396 193.835 33.8303C193.991 33.4179 194.07 32.9593 194.07 32.4545C194.07 31.956 193.993 31.5066 193.839 31.1065C193.688 30.7034 193.459 30.3848 193.151 30.1509C192.847 29.9139 192.463 29.7955 192.002 29.7955C191.559 29.7955 191.186 29.9078 190.885 30.1325C190.583 30.354 190.355 30.6649 190.201 31.065C190.047 31.462 189.971 31.9252 189.971 32.4545ZM199.794 36.1477C199.111 36.1477 198.522 35.9969 198.026 35.6953C197.534 35.3906 197.154 34.9659 196.886 34.4212C196.621 33.8733 196.489 33.2363 196.489 32.5099C196.489 31.7836 196.621 31.1435 196.886 30.5895C197.154 30.0324 197.526 29.5985 198.003 29.2876C198.483 28.9737 199.043 28.8168 199.684 28.8168C200.053 28.8168 200.418 28.8783 200.778 29.0014C201.138 29.1245 201.466 29.3246 201.761 29.6016C202.056 29.8755 202.292 30.2386 202.467 30.6911C202.643 31.1435 202.73 31.7005 202.73 32.3622V32.8239H197.265V31.8821H201.623C201.623 31.482 201.542 31.125 201.382 30.8111C201.225 30.4972 201.001 30.2494 200.708 30.0678C200.419 29.8862 200.078 29.7955 199.684 29.7955C199.25 29.7955 198.874 29.9032 198.557 30.1186C198.243 30.331 198.002 30.608 197.832 30.9496C197.663 31.2912 197.578 31.6574 197.578 32.0483V32.6761C197.578 33.2116 197.671 33.6656 197.855 34.038C198.043 34.4073 198.303 34.6889 198.636 34.8828C198.968 35.0736 199.354 35.169 199.794 35.169C200.081 35.169 200.339 35.129 200.57 35.049C200.804 34.9659 201.005 34.8428 201.175 34.6797C201.344 34.5135 201.475 34.3073 201.567 34.0611L202.62 34.3565C202.509 34.7135 202.323 35.0275 202.061 35.2983C201.799 35.5661 201.476 35.7753 201.092 35.9261C200.707 36.0739 200.275 36.1477 199.794 36.1477ZM207.25 38.8068C206.724 38.8068 206.271 38.7391 205.893 38.6037C205.514 38.4714 205.199 38.2959 204.946 38.0774C204.697 37.862 204.499 37.6312 204.351 37.3849L205.219 36.7756C205.317 36.9048 205.442 37.0526 205.593 37.2188C205.743 37.388 205.95 37.5342 206.211 37.6573C206.476 37.7835 206.822 37.8466 207.25 37.8466C207.822 37.8466 208.295 37.7081 208.667 37.4311C209.04 37.1541 209.226 36.7202 209.226 36.1293V34.6889H209.134C209.054 34.8182 208.94 34.9782 208.792 35.169C208.647 35.3568 208.438 35.5245 208.164 35.6722C207.893 35.8169 207.527 35.8892 207.065 35.8892C206.493 35.8892 205.979 35.7538 205.523 35.483C205.071 35.2121 204.712 34.8182 204.448 34.3011C204.186 33.7841 204.055 33.1562 204.055 32.4176C204.055 31.6913 204.183 31.0588 204.439 30.5202C204.694 29.9786 205.049 29.56 205.505 29.2646C205.96 28.966 206.487 28.8168 207.084 28.8168C207.545 28.8168 207.912 28.8937 208.183 29.0476C208.456 29.1984 208.666 29.3707 208.81 29.5646C208.958 29.7554 209.072 29.9124 209.152 30.0355H209.263V28.9091H210.315V36.2031C210.315 36.8125 210.177 37.308 209.9 37.6896C209.626 38.0743 209.257 38.3559 208.792 38.5344C208.33 38.716 207.816 38.8068 207.25 38.8068ZM207.213 34.9105C207.65 34.9105 208.019 34.8105 208.321 34.6104C208.623 34.4104 208.852 34.1226 209.009 33.7472C209.166 33.3717 209.244 32.9223 209.244 32.3991C209.244 31.8883 209.167 31.4374 209.013 31.0465C208.86 30.6557 208.632 30.3494 208.33 30.1278C208.029 29.9062 207.656 29.7955 207.213 29.7955C206.751 29.7955 206.367 29.9124 206.059 30.1463C205.754 30.3802 205.525 30.6941 205.371 31.0881C205.22 31.482 205.145 31.919 205.145 32.3991C205.145 32.8916 205.222 33.3271 205.376 33.7056C205.533 34.0811 205.763 34.3765 206.068 34.592C206.376 34.8043 206.758 34.9105 207.213 34.9105ZM219.124 28.9091V29.8324H215.301V28.9091H219.124ZM216.446 36V27.9304C216.446 27.5241 216.541 27.1856 216.732 26.9148C216.923 26.6439 217.171 26.4408 217.475 26.3054C217.78 26.17 218.102 26.1023 218.44 26.1023C218.708 26.1023 218.927 26.1238 219.096 26.1669C219.265 26.21 219.391 26.25 219.474 26.2869L219.161 27.2287C219.105 27.2102 219.028 27.1871 218.93 27.1594C218.834 27.1317 218.708 27.1179 218.551 27.1179C218.191 27.1179 217.931 27.2087 217.771 27.3903C217.614 27.5719 217.536 27.8381 217.536 28.1889V36H216.446ZM223.239 36.1477C222.599 36.1477 222.037 35.9954 221.554 35.6907C221.074 35.386 220.699 34.9598 220.428 34.4119C220.16 33.8641 220.026 33.224 220.026 32.4915C220.026 31.7528 220.16 31.1081 220.428 30.5572C220.699 30.0063 221.074 29.5785 221.554 29.2738C222.037 28.9691 222.599 28.8168 223.239 28.8168C223.879 28.8168 224.439 28.9691 224.92 29.2738C225.403 29.5785 225.778 30.0063 226.046 30.5572C226.317 31.1081 226.452 31.7528 226.452 32.4915C226.452 33.224 226.317 33.8641 226.046 34.4119C225.778 34.9598 225.403 35.386 224.92 35.6907C224.439 35.9954 223.879 36.1477 223.239 36.1477ZM223.239 35.169C223.725 35.169 224.126 35.0444 224.439 34.7951C224.753 34.5458 224.986 34.218 225.137 33.8118C225.287 33.4055 225.363 32.9654 225.363 32.4915C225.363 32.0175 225.287 31.5759 225.137 31.1665C224.986 30.7572 224.753 30.4264 224.439 30.174C224.126 29.9216 223.725 29.7955 223.239 29.7955C222.753 29.7955 222.353 29.9216 222.039 30.174C221.725 30.4264 221.493 30.7572 221.342 31.1665C221.191 31.5759 221.116 32.0175 221.116 32.4915C221.116 32.9654 221.191 33.4055 221.342 33.8118C221.493 34.218 221.725 34.5458 222.039 34.7951C222.353 35.0444 222.753 35.169 223.239 35.169ZM228.115 36V28.9091H229.168V29.9801H229.242C229.371 29.6293 229.605 29.3446 229.943 29.1261C230.282 28.9076 230.664 28.7983 231.088 28.7983C231.168 28.7983 231.268 28.7998 231.388 28.8029C231.508 28.806 231.599 28.8106 231.661 28.8168V29.9247C231.624 29.9155 231.539 29.9016 231.407 29.8832C231.278 29.8616 231.141 29.8509 230.996 29.8509C230.651 29.8509 230.344 29.9232 230.073 30.0678C229.805 30.2094 229.593 30.4064 229.436 30.6587C229.282 30.908 229.205 31.1927 229.205 31.5128V36H228.115ZM232.952 36V28.9091H234.005V30.017H234.097C234.245 29.6385 234.483 29.3446 234.813 29.1353C235.142 28.9229 235.537 28.8168 235.999 28.8168C236.467 28.8168 236.856 28.9229 237.167 29.1353C237.481 29.3446 237.726 29.6385 237.901 30.017H237.975C238.157 29.6508 238.429 29.36 238.792 29.1445C239.155 28.926 239.591 28.8168 240.099 28.8168C240.733 28.8168 241.251 29.0153 241.654 29.4123C242.057 29.8062 242.259 30.4202 242.259 31.2543V36H241.17V31.2543C241.17 30.7311 241.026 30.3571 240.74 30.1325C240.454 29.9078 240.117 29.7955 239.729 29.7955C239.231 29.7955 238.844 29.9463 238.57 30.2479C238.297 30.5464 238.16 30.925 238.16 31.3835V36H237.052V31.1435C237.052 30.7403 236.921 30.4156 236.659 30.1694C236.398 29.9201 236.061 29.7955 235.648 29.7955C235.365 29.7955 235.1 29.8709 234.854 30.0217C234.611 30.1725 234.414 30.3817 234.263 30.6495C234.116 30.9142 234.042 31.2204 234.042 31.5682V36H232.952ZM246.338 36.1662C245.888 36.1662 245.481 36.0816 245.114 35.9123C244.748 35.7399 244.457 35.4922 244.242 35.169C244.026 34.8428 243.919 34.4489 243.919 33.9872C243.919 33.581 243.999 33.2517 244.159 32.9993C244.319 32.7438 244.533 32.5438 244.8 32.3991C245.068 32.2545 245.364 32.1468 245.687 32.076C246.013 32.0021 246.341 31.9437 246.67 31.9006C247.101 31.8452 247.45 31.8036 247.718 31.7759C247.989 31.7451 248.186 31.6944 248.309 31.6236C248.435 31.5528 248.498 31.4297 248.498 31.2543V31.2173C248.498 30.7618 248.374 30.4079 248.124 30.1555C247.878 29.9032 247.504 29.777 247.002 29.777C246.482 29.777 246.075 29.8909 245.779 30.1186C245.484 30.3464 245.276 30.5895 245.156 30.848L244.122 30.4787C244.306 30.0478 244.553 29.7124 244.86 29.4723C245.171 29.2292 245.51 29.0599 245.876 28.9645C246.245 28.866 246.609 28.8168 246.966 28.8168C247.193 28.8168 247.455 28.8445 247.75 28.8999C248.049 28.9522 248.337 29.0614 248.614 29.2276C248.894 29.3938 249.126 29.6446 249.311 29.9801C249.495 30.3156 249.588 30.7649 249.588 31.3281V36H248.498V35.0398H248.443C248.369 35.1937 248.246 35.3583 248.074 35.5337C247.901 35.7092 247.672 35.8584 247.386 35.9815C247.099 36.1046 246.75 36.1662 246.338 36.1662ZM246.504 35.1875C246.935 35.1875 247.298 35.1029 247.593 34.9336C247.892 34.7643 248.117 34.5458 248.267 34.2781C248.421 34.0103 248.498 33.7287 248.498 33.4332V32.4361C248.452 32.4915 248.35 32.5423 248.194 32.5884C248.04 32.6315 247.861 32.67 247.658 32.7038C247.458 32.7346 247.263 32.7623 247.072 32.7869C246.884 32.8085 246.732 32.8269 246.615 32.8423C246.332 32.8793 246.067 32.9393 245.821 33.0224C245.578 33.1024 245.381 33.224 245.23 33.3871C245.082 33.5471 245.008 33.7656 245.008 34.0426C245.008 34.4212 245.148 34.7074 245.428 34.9013C245.711 35.0921 246.07 35.1875 246.504 35.1875ZM254.66 28.9091V29.8324H250.985V28.9091H254.66ZM252.056 27.2102H253.146V33.9688C253.146 34.2765 253.19 34.5073 253.28 34.6612C253.372 34.812 253.489 34.9136 253.631 34.9659C253.775 35.0152 253.928 35.0398 254.088 35.0398C254.208 35.0398 254.306 35.0336 254.383 35.0213C254.46 35.0059 254.522 34.9936 254.568 34.9844L254.789 35.9631C254.715 35.9908 254.612 36.0185 254.48 36.0462C254.348 36.0769 254.18 36.0923 253.977 36.0923C253.669 36.0923 253.367 36.0262 253.072 35.8938C252.78 35.7615 252.536 35.5599 252.343 35.2891C252.152 35.0182 252.056 34.6766 252.056 34.2642V27.2102ZM258.626 32.0114C258.626 33.1747 258.473 34.2457 258.169 35.2244C257.867 36.2 257.435 37.0987 256.871 37.9205H255.911C256.133 37.6158 256.339 37.2403 256.53 36.794C256.724 36.3509 256.893 35.8646 257.038 35.3352C257.182 34.8028 257.295 34.2534 257.375 33.6871C257.458 33.1178 257.499 32.5592 257.499 32.0114C257.499 31.2789 257.428 30.5356 257.287 29.7816C257.145 29.0276 256.954 28.3274 256.714 27.6811C256.474 27.0348 256.207 26.5085 255.911 26.1023H256.871C257.435 26.924 257.867 27.8242 258.169 28.8029C258.473 29.7785 258.626 30.848 258.626 32.0114Z" fill="#666F73"/>
    <rect x="11" y="11" width="24" height="24" rx="12" fill="#FFD05B"/>
    <path d="M30 24H24V30H22V24H16V22H22V16H24V22H30V24Z" fill="#666F73"/>
    <rect x="1" y="1" width="285" height="45" rx="7" stroke="#FFD05B" stroke-width="2"/>
</svg>
