<svg width="250" height="208" viewBox="0 0 250 208" fill="none" xmlns="http://www.w3.org/2000/svg">
<path d="M249.46 81.8054C248.842 80.4176 247.821 78.1228 244.594 77.3238C244.508 75.9524 243.656 74.9851 243.378 74.7017C242.866 74.1934 242.272 73.7399 241.661 73.2846C241.275 72.9976 240.633 72.5222 240.511 72.3064C240.191 71.7322 239.778 71.2532 239.299 70.8802C239.737 69.9824 239.843 68.9639 239.946 67.907C239.975 67.6364 239.995 67.3621 240.012 67.2634C240.957 64.3305 239.54 62.4378 238.073 61.2952C239.474 60.5126 241.235 59.2345 241.654 55.9631C242.113 52.3263 242.096 49.8119 241.555 45.6941C241.436 44.7268 240.716 43.9405 239.867 43.4615C239.768 43.4048 239.662 43.3554 239.556 43.3097C239.926 41.8798 240.233 40.3366 240.233 38.9853C240.233 37.72 239.816 36.1384 237.927 35.0705C237.98 34.5219 237.993 34.0228 238 33.5181C238.013 32.5673 238.02 32.5563 238.258 32.2565C238.542 31.8926 239.213 31.3971 239.893 30.8924C241.482 29.713 243.661 28.0984 244.217 25.1746C244.532 23.593 243.358 21.9802 241.805 21.5542C238.505 20.6454 236.079 19.2448 235.387 18.3305C235.325 18.2446 235.203 17.9539 235.12 17.7491C234.908 17.2608 234.687 16.7617 234.383 16.2863C232.926 13.9878 231.471 13.0169 229.309 12.0259C229.108 11.9363 228.805 11.8448 228.593 11.801C228.375 11.7516 228.154 11.7278 227.933 11.7278C225.003 11.7278 223.328 13.3534 222.334 14.3243C222.202 14.4505 222.026 14.6187 221.891 14.7412C221.269 14.6882 220.454 14.6754 219.598 14.6717C218.914 14.6717 217.292 14.6644 217.17 14.7046C213.93 12.7463 210.452 13.4722 208.81 14.1469C208.79 14.1542 208.765 14.1634 208.744 14.1762C208.732 14.1634 208.724 14.1524 208.712 14.1396C206.574 11.4608 204.828 11.1628 203.084 11.075C202.552 11.0513 202.199 11.0293 201.571 10.7843C200.511 10.3747 199.494 10.1772 198.47 10.1772C195.984 10.1772 194.133 11.3987 192.627 12.3934C191.893 12.8816 191.14 13.3844 190.317 13.7373C189.593 14.0445 189.198 14.1707 188.891 14.2658C187.47 14.7083 186.945 15.1508 185.455 16.535C184.881 16.6776 181.831 16.6081 181.261 16.4252C179.884 15.9791 178.41 16.065 177.479 15.9699C176.997 14.2457 175.448 13.0498 173.502 13.0498C171.471 13.0498 169.112 14.3078 166.457 15.8218C166.143 16.0029 165.823 16.1912 165.638 16.2844C165.576 16.3082 165.523 16.3338 165.473 16.3539C165.272 16.4435 165.08 16.5587 164.905 16.694C159.822 20.5156 156.634 20.9654 150.368 21.1592C150.11 21.1026 149.724 20.9215 149.291 20.6765C149.746 20.3821 150.139 19.9835 150.438 19.5008C152.211 16.5972 149.249 11.3293 149.245 11.3293C148.536 9.93231 146.742 7.59366 142.692 7.59366C140.485 7.59366 138.282 8.26107 136.228 8.88457C135.524 9.09668 134.864 9.30147 134.316 9.413C128.331 10.6344 125.8 13.8892 123.761 16.5074C122.562 18.0562 121.521 19.391 119.817 20.329C118.109 21.2634 117.086 22.4757 116.775 23.9495C116.557 24.9862 116.738 25.8913 117.075 26.6648L110.587 29.7732C110.313 29.9049 110.108 29.9487 110.006 29.9487C109.755 29.9487 108.995 29.0034 108.658 27.1713C107.872 22.8542 106.352 19.9799 101.503 19.9799L99.0952 20.0256C98.607 20.0256 98.1499 20.0128 97.4734 19.9799L86.9267 20.0951C86.071 20.0951 85.1037 19.8208 83.9902 19.4972C82.5804 19.0949 80.9878 18.6415 79.1777 18.6415C78.0916 18.6415 77.4205 18.007 76.04 16.4455C74.6759 14.8967 72.8036 12.7757 69.7207 12.7757L67.1115 12.7922C64.7856 12.7922 63.5605 12.6331 61.3207 11.7353C60.2839 11.3184 60.0462 11.1008 60.2729 7.87351C60.3424 6.8459 60.3954 5.87133 60.3223 4.94427C60.134 2.72447 58.1793 1.94186 57.3455 1.61091C57.223 1.56155 57.0877 1.51217 56.9524 1.45549C56.349 0.565036 55.2519 0 54.1694 0C51.8838 0 49.9017 0.864898 48.0987 1.65111C46.8169 2.2161 45.5351 2.85973 44.3923 2.73723C43.9754 2.70432 43.553 2.75734 43.1563 2.89631L39.1829 4.26769C39.011 4.32985 38.8465 4.39934 38.6911 4.48893L38.2193 4.73944C33.8455 7.06531 32.3826 9.85946 33.8821 13.0406C33.915 13.1101 33.9516 13.1796 33.9845 13.2454C33.6481 13.6879 33.3829 14.2236 33.1581 14.924C33.1014 15.0995 33.0264 15.3207 32.8801 15.6444C32.0975 17.3522 32.1835 19.1551 33.105 20.5795C33.6792 21.481 34.5349 22.1777 35.5625 22.6147C35.6156 23.2857 35.76 23.8599 35.8697 24.306C35.9026 24.4377 35.9355 24.573 35.9593 24.6955C35.7874 24.7814 35.5863 24.8765 35.4437 24.946C34.6172 25.3263 32.9898 26.0723 32.5601 27.846C31.0443 27.899 29.1024 28.2355 28.4314 30.4223C27.9523 32.0534 28.5996 33.4777 30.4006 34.6828C30.5762 34.8016 30.7974 34.9406 30.962 35.0923C31.7117 35.7854 32.5546 36.2553 33.2677 36.6576C33.6371 36.8623 34.2551 37.2025 34.3447 37.2847L34.6592 37.9192C35.9282 40.4224 36.4402 41.8304 36.6614 42.5233C34.0686 43.0554 33.1964 44.6005 32.9624 46.0249C32.156 45.6647 31.1065 45.0375 30.4482 44.6444C28.7897 43.6497 27.3598 42.7885 25.7874 42.7885C23.7925 42.7885 22.1834 44.2019 21.8726 46.2133C21.6019 47.9412 22.2858 49.4369 22.7904 50.5432C22.8471 50.6657 22.9056 50.7845 22.9587 50.8997C22.9294 51.0515 22.902 51.2069 22.8727 51.3623C22.8398 51.547 22.8234 51.7189 22.6478 51.9109C21.9877 52.5216 20.4482 53.9552 20.695 56.3834C20.7279 56.7271 20.801 57.0508 20.8961 57.358C20.6346 57.3872 20.3677 57.4275 20.1007 57.4841C17.0416 58.115 16.3358 60.3347 16.0671 61.1777C16.0671 61.1777 15.9683 61.3898 15.8915 61.5635C15.5222 61.4209 15.151 61.2929 14.7725 61.1612C14.5275 61.0716 14.2843 61.0021 13.957 60.9199C13.8016 60.3841 13.712 59.7569 13.6955 58.9451C13.6663 57.8846 13.0939 56.9099 12.176 56.3724C11.2618 55.8366 10.1318 55.8074 9.1901 56.3029L2.60026 59.7716C1.96575 60.108 1.43732 60.7297 1.15942 61.3934C0.42254 63.1744 0.0659906 64.6463 0.0129555 66.1605C-0.052868 67.8884 0.144608 69.5359 0.3238 71.0296C0.389623 71.5654 0.455451 72.0993 0.504821 72.6442C0.603561 73.6443 0.647445 74.6555 0.689499 75.6301C0.751666 77.0179 0.815662 78.4478 1.00034 79.8649C1.21793 81.5654 1.77012 82.7192 2.45036 83.5109C2.37173 83.7359 2.31505 83.9772 2.27848 84.2314C2.10294 84.7799 1.68058 86.0709 2.41378 87.6964C2.63137 88.1791 2.90566 88.5686 3.21282 88.8885C3.03729 89.9454 3.26951 90.9859 3.45784 91.8288L3.47796 93.9334L3.58035 92.3846C3.64984 92.7156 3.5639 93.3099 3.47796 93.9334C3.30242 95.2572 3.05558 97.0747 3.90765 99.0239C4.69026 100.794 5.75078 101.629 6.69244 102.01C6.08172 102.313 5.5862 102.763 5.21317 103.361C4.02098 105.29 4.98826 107.252 5.84032 108.989C6.06888 109.455 6.18774 109.98 6.32855 110.488C6.45471 110.964 6.58636 111.446 6.74544 111.922C5.23874 114.317 6.43825 117.022 7.24097 118.832C7.4165 119.225 7.59387 119.594 7.66701 119.852C7.80232 120.351 8.02357 120.781 8.29416 121.154C7.59384 123.026 8.06011 125.038 8.42033 126.115C8.56844 126.894 9.08043 128.56 11.2307 131.849C12.1157 133.204 13.2859 136.826 13.8363 146.406C14.1563 151.972 15.4454 156.793 16.8131 161.921C17.305 163.748 17.8078 165.64 18.2467 167.496L22.9566 189.527C23.3955 191.582 23.9477 193.729 25.3812 195.413L26.5405 196.728C27.7327 198.059 27.9814 198.337 28.7036 200.304L29.4606 202.312C29.8044 203.193 30.534 203.864 31.4354 204.135C32.3369 204.406 33.3188 204.245 34.0904 203.709L36.3724 202.1C36.4089 202.182 36.4455 202.259 36.4748 202.334C37.2939 204.148 38.8134 207.54 42.4757 207.741C42.5544 207.745 42.7866 207.754 42.8652 207.754C46.3997 207.754 47.8331 204.768 48.5334 203.318C48.6157 203.146 48.6888 202.978 48.7674 202.822C49.0252 202.756 49.2794 202.723 49.5464 202.68C50.9836 202.451 54.805 201.857 54.805 196.823C54.805 196.298 54.8616 195.499 54.9403 194.804C55.6808 194.612 56.5658 194.193 57.2588 193.228C57.9993 192.167 58.0578 190.999 57.9591 190.099C58.2206 189.812 58.4912 189.461 58.7325 189.022C60.2611 186.278 58.2937 183.985 57.6354 183.215C57.5732 183.146 57.5129 183.076 57.4544 183.007C57.2825 182.449 57.0046 182.029 56.4963 181.659C56.3536 181.474 56.1324 180.833 55.9843 180.41C55.7959 179.849 55.5619 179.178 55.2272 178.514C55.8818 177.903 56.3993 177.22 56.8491 176.614C56.935 176.499 57.0374 176.36 57.1398 176.229C58.279 177.101 60.5518 177.728 62.3984 176.532C63.7533 175.651 64.2488 174.362 64.589 173.288L69.3776 169.966C70.9665 168.872 71.7948 167.538 72.3671 166.386C73.104 167.024 73.7513 167.549 74.203 167.816C75.1081 168.361 76.1448 168.635 77.2876 168.635C79.6757 168.635 82.0378 167.406 84.1316 166.32C84.9874 165.874 85.7937 165.435 86.1868 165.267C86.5635 165.303 87.5509 165.894 88.0794 166.212C90.0048 167.368 91.7583 168.284 94.0148 166.998C94.9528 166.446 95.527 165.307 95.527 164.217C95.527 163.067 95.4374 161.515 95.3386 159.863C95.2125 157.726 95.0278 154.665 95.121 152.249C96.5747 152.99 98.1929 153.65 100.359 153.396C100.749 153.888 101.301 154.453 102.104 154.928C103.005 155.497 104.112 155.698 106.335 155.698C110.681 155.698 118.197 155.354 119.753 153.023C120.74 151.524 121.166 149.21 117.586 146.707C117.295 146.503 116.816 146.166 116.538 145.912C117.013 144.462 116.865 143.164 116.759 142.202C116.73 141.948 116.693 141.624 116.578 141.555C116.889 141.591 117.48 141.783 117.942 141.935C118.827 142.222 119.831 142.546 120.932 142.546C121.98 142.546 125.22 142.173 125.876 137.68C126.035 137.643 126.196 137.607 126.322 137.581C126.936 137.442 127.703 137.274 128.41 136.947C131.489 135.526 131.7 132.527 131.813 130.905C131.833 130.648 131.837 130.381 131.87 130.143C132.283 129.455 132.923 128.439 133.3 128.25C133.471 128.181 134.029 128.099 134.455 128.033C136.024 127.799 139.935 127.217 140.791 123.385C142.453 124.277 144.464 124.343 145.64 124.379C145.943 124.392 146.23 124.387 146.763 124.465C148.355 124.667 149.924 123.376 150.237 121.774C150.441 120.721 150.352 119.766 150.277 118.927C150.248 118.64 150.215 118.194 150.145 118.223C150.281 117.965 150.436 117.859 151.317 117.453C152.714 116.806 155.057 115.72 156.113 112.399C156.273 111.907 156.384 111.47 156.543 110.856C156.761 109.971 156.761 109.971 157.236 109.57C158.002 108.927 158.768 108.173 159.739 107.223C160.103 106.859 160.469 106.499 160.882 106.113C161.721 105.306 162.111 104.147 161.926 103.001C161.57 100.88 159.739 100.048 157.609 99.0859C156.995 98.8116 156.232 98.5172 156.225 98.5446C156.172 98.4825 156.126 98.4258 156.082 98.3728C156.499 98.1113 156.991 97.8407 157.249 97.6926C157.851 97.3561 158.363 96.7473 158.63 96.1073C159.105 94.9645 159.412 93.9807 159.67 93.0848C159.928 93.1909 160.231 93.3188 160.584 93.4651C160.591 93.4688 160.944 93.6333 160.957 93.637C162.628 94.4324 165.806 95.4966 167.781 94.1325C169.747 92.7685 169.489 90.5688 169.191 89.1483C170.972 88.4644 173.356 87.5172 173.894 84.9701C174.119 83.8895 174.033 82.2512 172.358 80.5745C172.268 80.4849 172.186 80.4026 172.117 80.3294C172.202 80.2033 172.301 80.068 172.4 79.9162L172.789 79.3311C173.649 78.0164 173.949 76.5463 174.011 75.1566C175.285 75.6192 176.412 75.6814 177.472 75.7344C177.944 75.7545 178.434 75.7801 179.015 75.8405C179.118 75.9136 179.379 76.2336 179.622 76.528C180.089 77.0893 180.577 77.6543 181.221 78.17C182.429 79.1446 183.781 79.5212 184.874 79.8248C185.148 79.9034 185.525 80.0058 185.788 80.0991C185.805 80.2746 185.821 80.4684 185.838 80.6677C185.977 82.4085 186.264 86.0382 189.91 87.2739C195.099 89.0183 198.253 87.7292 199.506 84.1728C199.513 84.1765 199.518 84.1801 199.526 84.1856C200.681 85.1364 201.683 85.9593 202.954 86.3524C203.581 86.5334 204.331 86.4749 204.945 86.2463C205.596 86.005 206.121 85.7179 206.543 85.4144C206.851 85.4839 207.154 85.5241 207.379 85.5241C209.394 85.5241 211.221 83.9918 212.175 83.0264C212.36 83.1617 212.548 83.3043 212.691 83.4195C213.011 83.6645 213.309 83.8913 213.53 84.0375C213.669 84.1472 213.817 84.3118 213.996 84.4965C214.561 85.0651 215.192 85.7015 216.299 86.2208C216.216 86.5938 216.064 87.1057 215.938 87.5482C215.688 88.404 215.443 89.2926 215.311 90.1813C214.925 92.6552 215.282 94.9315 215.655 97.3033C215.876 98.6967 216.081 100.011 216.081 101.268L216.057 101.845C215.971 103.652 215.869 105.901 217.385 107.437C218.233 108.292 219.208 108.658 219.924 108.883C220.027 108.969 220.129 109.071 220.239 109.183C220.89 109.838 222.111 111.055 224.02 111.145L224.638 111.161C225.666 111.161 226.633 111.013 227.641 110.847C228.251 110.748 228.893 110.626 229.745 110.626C231.215 110.626 232.481 109.582 232.76 108.135L233.177 105.992C233.247 105.87 233.316 105.767 233.386 105.665C234.779 103.588 234.611 101.757 232.874 99.8119C232.877 99.7332 232.923 99.5339 233.095 99.0092C233.389 98.1242 233.614 97.2849 233.828 96.4694C234.402 94.2788 234.73 93.1762 235.966 92.0298C236.171 91.8451 236.728 91.2563 237.416 90.5176C238.059 91.3166 239.252 92.7904 241.303 92.7904C242.27 92.7904 243.031 92.454 243.642 92.1834C243.655 92.1797 244.051 92.0115 244.064 92.0023C245.937 91.2161 248.496 89.3236 249.548 86.5954C250.182 84.9461 250.146 83.2638 249.458 81.8049L249.46 81.8054ZM35.5076 29.2852L38.5996 28.8793C38.5868 29.0712 38.5539 29.2523 38.51 29.415L35.5076 29.2852ZM241.853 86.2804C241.513 85.933 241.153 85.6368 240.767 85.3296C240.579 85.1815 240.226 84.9036 240.182 84.8706C239.776 83.9528 238.95 83.289 237.962 83.097C236.975 82.8995 235.954 83.2067 235.238 83.9089C234.771 84.3587 233.738 85.4612 232.972 86.2841C232.444 86.8527 231.994 87.3446 231.8 87.5256C229.178 89.9502 228.487 92.596 227.88 94.9346C227.699 95.6221 227.516 96.3316 227.265 97.0776C226.872 98.2569 226.077 100.654 227.781 103.066C227.655 103.294 227.523 103.554 227.401 103.845C227.315 104.042 227.258 104.247 227.216 104.452L227.163 104.71C226.962 104.739 226.761 104.772 226.565 104.805C226.033 104.891 225.495 104.993 224.746 105.013C224.684 104.951 224.623 104.887 224.548 104.816C224.102 104.37 223.479 103.759 222.57 103.375L222.16 103.216C222.157 102.81 222.18 102.36 222.19 102.172C222.21 101.828 222.222 101.517 222.222 101.28C222.222 99.5388 221.956 97.8511 221.694 96.1927C221.4 94.2966 221.136 92.6582 221.383 91.1097C221.473 90.4789 221.661 89.8682 221.855 89.2172C222.436 87.215 223.804 82.5211 218.869 80.6782C218.701 80.552 218.538 80.3674 218.364 80.1955C217.918 79.7329 217.435 79.2868 217.037 79.0125C216.849 78.8863 216.644 78.7291 216.435 78.5627C215.316 77.7033 213.786 76.5184 211.835 76.5184C210.815 76.5184 209.341 76.8457 208.075 78.4182C207.9 78.6267 207.571 78.9339 207.286 79.1716C205.623 78.5865 204.451 79.0363 203.656 79.6433C203.577 79.5775 203.501 79.508 203.415 79.4422C201.31 77.7216 199.675 76.5056 197.803 76.5056C197.139 76.5056 193.822 76.747 193.822 81.5232C193.822 81.6822 193.815 81.8102 193.802 81.9126C193.488 81.8962 192.963 81.8139 192.127 81.5488C192.042 81.2013 191.989 80.5577 191.959 80.1847C191.91 79.6105 191.861 79.0748 191.767 78.5921C191.096 75.1966 188.127 74.3646 186.516 73.9111C186.004 73.7685 185.303 73.5747 185.086 73.3991C184.782 73.1541 184.57 72.8707 184.32 72.5763C183.524 71.5926 182.321 70.1115 179.867 69.7787C179.085 69.669 178.41 69.6306 177.757 69.6032C176.45 69.5337 176.057 69.5136 175.157 68.8242C173.29 67.3943 172.155 66.8659 170.959 66.8659C170.074 66.8659 169.046 67.312 168.468 67.9758C167.318 69.2832 167.523 70.9617 167.719 72.5799C167.845 73.6898 168.042 75.3684 167.646 75.9754L167.289 76.5112C165.852 78.6652 164.835 80.7094 166.794 83.4905C165.303 84.0591 163.648 84.7229 163.029 86.374C162.857 86.8202 162.784 87.2755 162.771 87.7253C160.805 86.886 159.481 86.4343 158.278 86.4343C155.117 86.4343 154.374 89.1661 153.904 90.894C153.749 91.4554 153.573 92.1155 153.297 92.8761C151.712 93.8105 149.968 95.0923 149.598 97.1969C149.181 99.4532 150.524 101.333 151.56 102.542C152.122 103.202 152.908 103.668 154.034 104.204C153.78 104.441 153.53 104.666 153.272 104.884C151.416 106.453 150.966 107.8 150.536 109.561C150.458 109.848 150.381 110.172 150.262 110.539C150.028 111.269 149.82 111.388 148.73 111.891C147.58 112.426 145.839 113.238 144.713 115.372C144.323 116.113 144.155 116.851 144.106 117.552C143.93 115.844 143.381 112.313 140.125 112.313C138.45 112.313 137.208 113.456 136.419 114.325C134.616 116.316 134.724 118.969 134.797 120.746C134.813 121.074 134.826 121.381 134.82 121.734C134.468 121.829 133.903 121.915 133.476 121.975C132.645 122.101 131.699 122.246 130.818 122.643C128.602 123.63 127.34 125.76 126.342 127.448C126.206 127.673 126.104 127.914 126.031 128.165C125.802 128.967 125.744 129.82 125.7 130.496C125.68 130.783 125.651 131.184 125.61 131.451C125.426 131.504 125.214 131.54 124.996 131.59C123.513 131.921 120.065 132.699 119.869 136.099C119.862 136.095 119.852 136.095 119.845 136.091C118.145 135.53 115.508 135.067 113.698 136.17C110.163 138.291 110.5 141.282 110.679 142.891C110.724 143.317 110.785 143.849 110.719 144.021C109.863 146.234 110.452 147.986 111.407 149.289C108.863 149.523 105.93 149.589 105.157 149.527C105.116 149.474 105.071 149.404 105.001 149.293C104.584 148.638 103.613 147.102 101.282 147.102C100.832 147.102 100.36 147.159 99.5211 147.314C98.9031 147.314 98.0675 146.865 97.06 146.323C96.0891 145.795 94.992 145.201 93.6846 144.824C92.2182 144.411 90.6493 145.128 90.0276 146.532C88.7422 149.436 88.8683 154.072 89.2085 159.83C87.8243 159.212 86.0744 158.896 84.5677 159.384C83.5236 159.728 82.4046 160.31 81.3203 160.875C80.0751 161.518 78.199 162.496 77.3927 162.553C77.102 162.365 76.7125 162.001 76.2371 161.591C74.5457 160.108 73.3371 159.117 71.9437 158.889C70.9436 158.721 69.9251 159.064 69.2248 159.803C68.1716 160.909 67.6322 162.079 67.1842 163.043C66.7252 164.034 66.4802 164.526 65.9097 164.923L60.6179 168.593C59.9907 169.031 59.5811 169.563 59.294 170.079C58.7857 169.809 58.1384 169.584 57.3083 169.527C54.5034 169.527 52.9675 171.582 51.9346 172.963C51.7535 173.208 51.4921 173.557 51.2635 173.815C51.2397 173.811 51.2141 173.802 51.1904 173.798C50.2651 173.626 49.318 173.61 48.6506 173.831C47.2097 174.307 46.3321 175.769 46.5862 177.267C46.8861 179.024 48.2172 180.061 49.2027 180.827C49.4276 180.999 49.6526 181.154 49.711 181.18C49.8701 181.447 50.042 181.953 50.2029 182.425C50.5302 183.37 50.9563 184.599 51.9235 185.705C52.1082 186.078 52.3295 186.402 52.5507 186.684C51.8138 187.503 51.6255 188.437 51.6419 189.244C50.3401 189.759 49.5081 190.756 49.1607 192.229C48.9065 193.299 48.7273 195.093 48.6688 196.603C48.6286 196.611 48.5828 196.62 48.5371 196.623C48.1403 196.689 47.7381 196.759 47.3212 196.861C44.7375 197.086 43.6276 199.392 43.0078 200.679C42.9383 200.822 42.8523 201.003 42.7573 201.184C42.5196 200.758 42.2617 200.193 42.0971 199.823C41.7205 198.98 41.2945 198.02 40.6563 197.21C40.1041 196.523 38.9522 195.08 37.1291 195.08C35.8931 195.08 35.0849 195.727 34.6478 196.084C34.4101 196.272 34.348 196.318 34.2181 196.351C34.0755 196.391 33.9347 196.437 33.8013 196.494C33.0315 194.799 32.3019 193.941 31.1317 192.632L30.062 191.398C29.5335 190.78 29.1605 189.059 28.985 188.231L24.2619 166.137C23.7993 164.159 23.2745 162.2 22.7625 160.297C21.4808 155.504 20.2721 150.982 19.9851 146.034C19.6614 140.362 18.9318 132.366 16.3939 128.479C15.1322 126.546 14.5508 125.292 14.4813 124.977C14.452 124.732 14.3917 124.494 14.3058 124.264C14.2436 124.105 14.1906 123.904 14.1412 123.745C14.772 123.385 15.2547 122.81 15.5089 122.123C15.8088 121.304 15.7466 120.395 15.3334 119.625C14.9768 118.961 14.4521 118.503 13.7609 117.934C13.6457 117.839 13.5323 117.749 13.4299 117.663C13.2781 117.25 13.0825 116.787 12.8722 116.319C12.7698 116.082 12.6345 115.778 12.512 115.484C13.2581 115.164 13.8596 114.555 14.1631 113.776C14.5965 112.666 14.3478 111.397 13.5195 110.536C13.2854 110.291 12.9838 110.037 12.6765 109.799C12.6765 109.799 12.5815 109.72 12.4955 109.651C12.4224 109.406 12.3529 109.152 12.2834 108.885C12.181 108.495 12.075 108.111 11.947 107.722C13.6383 107.557 14.602 106.489 14.9402 105.506C15.4851 103.97 14.7811 102.499 13.9894 101.455C14.5014 101.168 14.9676 100.881 15.3242 100.596C16.0447 100.011 16.3811 99.6672 16.5365 99.4862C17.2661 98.6505 17.4873 97.4876 17.118 96.4436C16.7486 95.3995 15.8435 94.637 14.7555 94.4414C14.7519 94.4414 14.7427 94.4414 14.7318 94.4377C14.7318 94.3426 14.7281 94.2567 14.7245 94.2256C14.6257 92.878 13.6603 91.7554 12.3456 91.4573C11.4076 91.2452 10.4623 91.4774 9.74548 92.0515C9.72902 91.8431 9.70525 91.6291 9.66685 91.417C9.8881 91.3932 10.1167 91.3548 10.2647 91.3146C11.157 91.0696 11.8958 90.4388 12.2669 89.5903C12.6399 88.7383 12.6107 87.7673 12.1846 86.9445C11.7257 86.0559 10.7712 85.3355 10.1331 84.9259C10.4732 84.7705 10.8736 84.5785 11.2521 84.2987C12.5211 83.3643 12.8703 81.6072 12.0676 80.2523L11.8592 79.85C11.1351 78.4494 9.47114 77.8222 7.99192 78.4037C7.7341 78.5061 7.39402 78.6414 7.07768 78.7602C6.94603 77.6174 6.89666 76.471 6.84912 75.3519C6.79975 74.2713 6.75038 73.1559 6.64433 72.0552C6.58764 71.4573 6.51816 70.863 6.43953 70.2522C6.27497 68.9046 6.12503 67.6357 6.17258 66.3905C6.18903 65.8748 6.29508 65.3299 6.51267 64.6662L8.42896 63.655C8.49845 63.8269 8.57158 63.9988 8.64655 64.167C9.59187 66.2387 11.4112 66.6373 12.3035 66.8293L13.0166 67.0378C13.5158 67.2096 13.9876 67.3742 14.2527 67.5625C16.2933 69.0088 18.8276 68.9632 20.4531 67.5461C21.5136 66.6373 21.9232 65.4159 21.6453 63.836C21.7019 63.7007 21.7513 63.5691 21.8043 63.4338C22.0219 63.421 22.2377 63.421 22.4681 63.4173C23.2178 63.4045 24.1466 63.3844 25.1432 63.0772C26.8601 62.5652 27.5605 61.4261 27.8292 60.7843C28.5862 58.9613 27.7104 57.2864 27.1088 56.1564L27.4123 55.8565C28.568 54.6241 28.7965 53.2802 28.9556 52.3422C28.9922 52.1209 29.0251 51.896 29.0982 51.6583C29.1677 51.4462 29.2079 51.2286 29.2299 51.011C32.3145 52.6567 36.2588 52.9565 38.1747 50.1754C38.608 49.5445 38.8348 48.9265 38.9481 48.3817C40.8808 47.9757 41.8225 46.7726 42.2248 46.043C43.8869 43.0406 42.0273 38.8386 40.1403 35.1032L39.8862 34.5949C39.3705 33.5416 38.6117 32.8048 37.8382 32.2434C38.1582 31.7388 38.3831 31.1006 38.4983 30.2906C39.7436 29.6799 41.5574 28.5992 42.0292 26.3173C42.1352 25.8016 42.1718 25.3226 42.1645 24.8801C43.3073 25.0062 44.5726 24.9038 45.6661 24.4833C47.1526 23.9146 54.5215 20.8793 53.2726 16.9058C53.1336 16.4633 52.8923 16.0537 52.5723 15.7136C51.5447 14.6238 50.1111 14.6238 49.6431 14.6238C49.1548 14.6238 48.5039 14.6805 47.7049 14.7993C46.1196 15.0498 45.5015 15.0334 44.121 14.7628C43.1209 14.558 41.967 14.8323 41.1644 15.2382C41.4514 14.792 41.6562 14.2471 41.6727 13.5925C41.7293 12.159 40.8992 11.2338 40.1733 10.6633C40.5043 10.4658 40.8571 10.2775 41.0784 10.1586L44.6166 8.8732H44.6367C46.8894 8.8732 48.8422 8.01748 50.6086 7.24217C51.4735 6.8655 52.3128 6.50165 53.1155 6.29686C53.4556 6.53821 53.8158 6.73935 54.176 6.91488C54.1632 7.10687 54.1522 7.31167 54.1358 7.51648C53.9475 10.219 53.6001 15.2494 59.0344 17.4251C62.1922 18.6941 64.2326 18.9245 67.1109 18.9245L69.7202 18.908C70.031 18.908 70.9416 19.9393 71.4316 20.5006C73.0297 22.3035 75.2129 24.772 79.1734 24.772C80.1242 24.772 81.1811 25.0755 82.2947 25.3936C83.6588 25.7831 85.202 26.2256 87.0379 26.2256L97.3304 26.1067C98.4201 26.1726 99.5958 26.1634 100.591 26.1305L101.499 26.114C101.786 26.114 101.971 26.1305 102.044 26.114C102.159 26.3591 102.368 26.9405 102.609 28.268C103.748 34.4811 108.376 37.6192 113.229 35.304L121.352 31.4129C122.875 30.6797 123.796 29.6722 124.096 28.4142C124.404 27.1068 123.954 26.0463 123.475 25.2893C125.866 23.7936 127.32 21.9304 128.614 20.2648C130.388 17.9883 131.785 16.1891 135.541 15.4228C136.241 15.2802 137.097 15.0297 138.113 14.7225C139.653 14.2562 141.397 13.7278 142.692 13.7278C143.577 13.7278 143.679 13.9289 143.752 14.0715C143.941 14.4574 144.149 14.9474 144.334 15.4319C143.97 15.5307 143.634 15.6532 143.326 15.7958C141.803 16.5089 140.893 17.8675 140.893 19.4363C140.893 23.3346 147.234 27.2713 150.218 27.2675H150.222C157.099 27.0829 161.779 26.6166 168.306 21.8002C168.596 21.6576 168.957 21.4528 169.511 21.1364C170.003 20.853 171.112 20.2185 172.067 19.7486C173.341 22.0909 176.335 22.1 177.51 22.1C178.194 22.1037 178.898 22.1037 179.377 22.2646C180.672 22.6742 182.498 22.8223 183.767 22.8223C186.417 22.8223 188.269 22.2975 189.399 21.2334C190.07 20.6117 190.394 20.288 190.694 20.1235C191.111 19.9973 191.672 19.8199 192.718 19.3774C194.062 18.7959 195.142 18.0792 196.024 17.4977C197.134 16.7645 197.847 16.3147 198.461 16.3147C198.626 16.3147 198.891 16.3348 199.333 16.503C200.882 17.1101 202.019 17.1668 202.778 17.2034C202.946 17.2162 203.098 17.207 203.168 17.207C203.184 17.2107 203.217 17.0973 203.888 17.9439C204.384 18.571 205.887 20.4837 208.41 20.4837C209.507 20.4837 210.396 20.1198 211.171 19.8035C212.354 19.3116 212.817 19.2421 213.992 19.9589C215.291 20.7323 217.044 20.7982 219.558 20.8019C220.279 20.8055 220.959 20.7982 221.405 20.8512C221.531 20.8677 221.99 20.9006 222.122 20.9006C224.342 20.9006 225.693 19.5932 226.594 18.7211C227.037 18.2914 227.288 18.0701 227.487 17.9586C228.339 18.4011 228.662 18.7375 229.174 19.5475C229.293 19.7358 229.372 19.9498 229.458 20.1546C229.675 20.6629 229.97 21.3541 230.478 22.027C231.817 23.7915 234.025 25.0988 236.114 26.0241C235.163 26.728 234.185 27.4613 233.406 28.4578C231.877 30.4106 231.857 32.1605 231.846 33.4257C231.842 33.7987 231.839 34.1827 231.74 34.7404C231.542 35.3913 231.133 36.7517 231.912 38.2511C232.431 39.2385 233.226 39.7541 233.972 40.065C233.768 41.2864 233.309 42.8461 232.919 44.1608C232.444 45.7918 232.027 47.655 232.943 48.8216C233.517 49.7761 234.77 50.4398 235.827 50.3612C235.88 51.9008 235.786 53.3344 235.556 55.1667C235.51 55.5232 235.45 55.6658 235.454 55.6713C235.355 55.7664 234.965 55.9712 234.687 56.1175C234.053 56.4484 233.343 56.8342 232.603 57.392C231.846 57.957 229.838 59.4637 230.023 61.8114C230.224 63.9855 232.144 64.9565 233.296 65.5379C233.488 65.633 233.775 65.7792 234.016 65.9146C233.971 66.1321 233.934 66.357 233.907 66.5984C232.199 66.8196 230.945 68.127 230.789 69.9281C230.72 70.6851 230.904 71.305 231.162 71.7914C230.891 72.4624 230.703 73.3803 230.997 74.4902C231.371 75.8177 232.725 76.849 234.102 76.849C234.812 76.849 235.41 76.6405 235.945 76.4193C236.494 77.0409 237.108 77.5383 237.682 77.968C237.269 78.8932 237.269 79.8898 237.682 80.7656C238.661 82.8995 241.246 83.1079 242.967 83.2396C243.241 83.2963 243.353 83.3493 243.36 83.3493C243.446 83.4389 243.61 83.7589 243.81 84.3897C243.541 85.1102 242.603 85.9165 241.853 86.2804L241.853 86.2804Z" fill="black"/>
</svg>
